<?xml version="1.0" standalone="no"?>
<!DOCTYPE svg PUBLIC "-//W3C//DTD SVG 1.1//EN" "http://www.w3.org/Graphics/SVG/1.1/DTD/svg11.dtd" >
<svg xmlns="http://www.w3.org/2000/svg">
<metadata></metadata>
<defs>
<font id="foundrysterling-bookregular" horiz-adv-x="1214" >
<font-face units-per-em="2048" ascent="1638" descent="-410" />
<missing-glyph horiz-adv-x="491" />
<glyph horiz-adv-x="0" />
<glyph unicode="&#xd;" horiz-adv-x="1040" />
<glyph unicode=" "  horiz-adv-x="491" />
<glyph unicode="&#x09;" horiz-adv-x="491" />
<glyph unicode="&#xa0;" horiz-adv-x="491" />
<glyph unicode="!" horiz-adv-x="593" d="M205 76q0 39 26.5 65.5t65.5 26.5t65.5 -26.5t26.5 -65.5t-26.5 -65.5t-65.5 -26.5t-65.5 26.5t-26.5 65.5zM215 1366h158l-21 -1034h-110z" />
<glyph unicode="&#x22;" horiz-adv-x="610" d="M113 1366h137l-12 -469h-113zM358 1366h140l-13 -469h-112z" />
<glyph unicode="#" horiz-adv-x="1159" d="M143 598l15 111h182l35 241h-182l14 109h182l43 307h119l-43 -307h203l43 307h118l-43 -307h187l-15 -109h-186l-35 -241h187l-15 -111h-186l-49 -338h-119l49 338h-203l-49 -338h-119l50 338h-183zM459 709h203l34 241h-202z" />
<glyph unicode="$" d="M164 129l69 94q68 -45 103 -61q104 -53 205 -62v572q-92 39 -129 55q-76 39 -125 86q-86 82 -86 217q0 141 102 238q96 86 238 100v156h116v-152q207 -10 347 -141l-70 -80q-74 53 -84 59q-92 49 -193 54v-504q104 -43 111 -45q94 -45 143 -92q109 -103 109 -244 q0 -164 -99.5 -266.5t-263.5 -122.5v-195h-116v191q-211 12 -377 143zM328 1032q0 -78 61 -137q50 -47 152 -88v448q-82 -14 -142 -67q-72 -63 -71 -156zM657 106q98 18 158 80q70 72 70 183q0 92 -72 159q-41 39 -156 97v-519z" />
<glyph unicode="%" horiz-adv-x="1497" d="M92 1016q0 178 80 277.5t223 99.5q133 0 213 -96.5t80 -258.5q0 -172 -80 -269t-221 -97q-135 0 -215 92t-80 252zM207 1020q0 -256 180 -256q186 0 186 274q0 123 -47 192.5t-131 69.5q-188 0 -188 -280zM215 -14l975 1450l88 -64l-973 -1446zM809 317q0 178 80 277.5 t223 99.5q133 0 213 -96t80 -258q0 -172 -80 -269.5t-221 -97.5q-135 0 -215 92.5t-80 251.5zM924 322q0 -256 180 -256q186 0 186 274q0 123 -47 192.5t-131 69.5q-188 0 -188 -280z" />
<glyph unicode="&#x26;" horiz-adv-x="1361" d="M113 375q0 166 108 274q47 47 178 123q-80 111 -106 162q-43 80 -43 151q0 133 97 219.5t247 86.5q143 0 230 -76t87 -201q0 -145 -114 -248q-59 -49 -209 -125l344 -409q43 49 80 147q47 129 47 262h119q0 -156 -58 -313q-49 -129 -104 -190q72 -82 133 -111 q45 -23 115 -23v-104h-15q-104 0 -173.5 33t-143.5 112q-174 -170 -408 -170q-176 0 -293.5 115t-117.5 285zM244 381q0 -123 86 -205t213 -80q170 2 309 135l-383 459q-225 -111 -225 -309zM381 1090q0 -96 137 -265q260 117 260 281q0 84 -50 132t-136 48 q-92 0 -151.5 -55t-59.5 -141z" />
<glyph unicode="'" horiz-adv-x="362" d="M113 1366h137l-12 -469h-113z" />
<glyph unicode="(" horiz-adv-x="739" d="M154 608q0 281 100 508q106 250 313 383l70 -82q-338 -270 -338 -819q0 -260 72 -444q78 -205 256 -357l-68 -82q-406 289 -405 893z" />
<glyph unicode=")" horiz-adv-x="739" d="M102 1417l70 82q207 -133 315 -383q99 -227 99 -508q0 -604 -406 -893l-67 82q178 152 256 357q72 184 71 444q0 549 -338 819z" />
<glyph unicode="*" horiz-adv-x="913" d="M113 1104l39 117l241 -95v240h127v-240l242 95l39 -117l-252 -78l164 -223l-103 -72l-153 230l-154 -230l-102 72l164 223z" />
<glyph unicode="+" d="M150 465v108h403v404h109v-404h403v-108h-403v-404h-109v404h-403z" />
<glyph unicode="," horiz-adv-x="483" d="M82 -203q111 156 111 338v21h147v-13q0 -227 -180 -407z" />
<glyph unicode="-" horiz-adv-x="1003" d="M174 465v108h655v-108h-655z" />
<glyph unicode="." horiz-adv-x="442" d="M129 76q0 39 26.5 65.5t65.5 26.5t65.5 -26.5t26.5 -65.5t-26.5 -65.5t-65.5 -26.5t-65.5 26.5t-26.5 65.5z" />
<glyph unicode="/" horiz-adv-x="890" d="M76 -250l622 1661l117 -45l-620 -1661z" />
<glyph unicode="0" d="M104 690q0 326 131.5 514.5t364.5 188.5q244 0 377 -187.5t133 -521.5t-131 -521.5t-373 -187.5t-372 187.5t-130 527.5zM240 674q0 -281 94 -434.5t270 -153.5q182 0 276.5 154.5t94.5 441.5q0 289 -93.5 444.5t-273.5 155.5q-369 0 -368 -608z" />
<glyph unicode="1" d="M205 1081l426 285h108v-1366h-129v1212l-336 -227z" />
<glyph unicode="2" d="M180 0v109q53 51 107 100q111 106 172 168q223 223 307 346q96 141 96 268q0 137 -75.5 211t-213.5 74q-106 0 -219 -59q-70 -37 -98 -66l-72 78q27 37 115 88q137 76 291 76q186 0 296.5 -105.5t110.5 -286.5q0 -156 -116 -325q-76 -109 -260 -293l-271 -268h660v-115 h-830z" />
<glyph unicode="3" d="M147 121l70 84q43 -29 84 -58q104 -55 225 -55q158 0 251 74t93 203q0 102 -75 180q-63 63 -168 84q-63 12 -193 12h-20v113h35q121 0 182 14q92 20 155.5 84t63.5 168q0 113 -78 182.5t-213 69.5q-113 0 -221 -59q-63 -33 -96 -66l-70 82q18 31 113 84q135 76 284 76 q190 0 301 -100.5t111 -264.5q0 -121 -70 -211q-74 -98 -198 -115q133 -12 212 -103t79 -222q0 -184 -129.5 -293t-325.5 -109q-170 0 -295 66q-72 37 -107 80z" />
<glyph unicode="4" d="M115 332v106l653 928h131v-924h186v-110h-186v-332h-127v332h-657zM252 442h520v742z" />
<glyph unicode="5" d="M172 111l66 88q133 -106 303 -107q162 0 256 88t94 242q0 139 -86 229q-94 98 -260 99q-139 0 -244 -66l-61 39v643h731v-111h-604v-432q109 43 206 43q213 0 332 -119.5t119 -314.5q0 -207 -131 -332t-338 -125q-160 0 -283 64q-74 37 -100 72z" />
<glyph unicode="6" d="M156 641q0 313 106 508q133 244 414 244q147 0 268 -62q78 -41 98 -71l-67 -86q-133 106 -283 106q-225 0 -330 -201q-84 -160 -83 -417q0 -25 2 -37v-19q29 131 141 209q104 72 246 72q193 0 305 -125q106 -121 106 -316q0 -203 -122.5 -337t-321.5 -134 q-254 0 -379 218q-100 174 -100 448zM324 420q0 -141 89 -238.5t228 -97.5q143 0 231 109q82 100 82 247q0 150 -73 240q-80 98 -226 98q-147 0 -239 -104.5t-92 -253.5z" />
<glyph unicode="7" d="M164 1249v117h903v-104l-563 -1262h-148l574 1249h-766z" />
<glyph unicode="8" d="M141 356q0 145 84 244.5t219 104.5q-125 25 -194.5 112.5t-69.5 208.5q0 162 118 264.5t306 102.5q193 0 311.5 -98.5t118.5 -260.5q0 -123 -65 -211q-70 -94 -191 -118q143 -16 219 -108t76 -237q0 -174 -125 -279.5t-332 -105.5q-217 0 -346 102.5t-129 278.5zM276 369 q0 -137 90.5 -215t251.5 -78q147 0 233.5 78t86.5 213q0 133 -89 209.5t-241 76.5q-150 0 -241 -77.5t-91 -206.5zM313 1028q0 -119 85 -196.5t212 -77.5q125 0 209 76.5t84 195.5q0 121 -81 193.5t-212 72.5q-133 0 -215 -72.5t-82 -191.5z" />
<glyph unicode="9" d="M135 922q0 203 123 337t322 134q254 0 378 -217q101 -175 101 -449q0 -313 -107 -508q-133 -244 -413 -244q-147 0 -269 62q-78 41 -98 72l68 86q133 -106 282 -107q225 0 330 203q84 158 84 416v36q-2 10 -2 19q-29 -131 -141 -207q-104 -74 -246 -74q-193 0 -302.5 123 t-109.5 318zM260 928q0 -150 74 -240q80 -98 225 -98q147 0 239.5 104t92.5 254q0 141 -89 238.5t-229 97.5q-143 0 -231 -108q-82 -100 -82 -248z" />
<glyph unicode=":" horiz-adv-x="442" d="M129 76q0 39 26.5 65.5t65.5 26.5t65.5 -26.5t26.5 -65.5t-26.5 -65.5t-65.5 -26.5t-65.5 26.5t-26.5 65.5zM129 915q0 39 26.5 66t65.5 27t65.5 -27t26.5 -66t-26.5 -65.5t-65.5 -26.5t-65.5 27t-26.5 65z" />
<glyph unicode=";" horiz-adv-x="483" d="M82 -203q111 156 111 338v21h147v-13q0 -227 -180 -407zM174 915q0 39 26.5 66t65.5 27t65.5 -27t26.5 -66t-26.5 -65.5t-65.5 -26.5t-65.5 27t-26.5 65z" />
<glyph unicode="&#x3c;" d="M123 479v82l921 447l48 -99l-820 -391l820 -387l-45 -98z" />
<glyph unicode="=" d="M121 336v108h973v-108h-973zM121 594v108h973v-108h-973z" />
<glyph unicode="&#x3e;" d="M123 131l819 387l-819 391l47 99l922 -447v-82l-924 -446z" />
<glyph unicode="?" horiz-adv-x="1009" d="M113 1272q18 25 110 63q129 57 260 58q172 0 275.5 -103.5t103.5 -273.5q0 -158 -119 -277q-35 -35 -120.5 -88t-110.5 -78q-35 -35 -41 -86q-4 -25 -4 -155h-111q-4 78 -4 114q0 80 6 107q8 39 41 71.5t112 88t118 94.5q92 92 92 209q0 115 -75 187.5t-193 72.5 q-141 0 -283 -94zM319 76q0 39 27 65.5t66 26.5t65.5 -26.5t26.5 -65.5t-26.5 -65.5t-65.5 -26.5t-66 26.5t-27 65.5z" />
<glyph unicode="@" horiz-adv-x="1589" d="M98 629q0 324 220.5 538.5t549.5 214.5q270 0 446.5 -151.5t176.5 -384.5q0 -221 -148.5 -357.5t-388.5 -136.5q-2 0 -43 4l17 95q-123 -98 -240 -99q-100 0 -162.5 70t-62.5 182q0 188 130 316.5t322 128.5q119 0 215 -41l-106 -557q154 12 257 115.5t103 277.5 q0 193 -144 314.5t-374 121.5q-283 0 -467 -185.5t-184 -469.5q0 -246 160 -398q154 -147 397 -147q162 0 309 61q59 33 119 66l60 -84q-90 -59 -130 -78q-164 -74 -368 -74q-289 0 -476.5 183.5t-187.5 474.5zM578 610q0 -66 38.5 -109.5t98.5 -43.5q106 0 217 110l69 375 q-57 12 -86 12q-137 0 -237 -102t-100 -242z" />
<glyph unicode="A" horiz-adv-x="1189" d="M23 0l497 1366h148l499 -1366h-139l-139 391h-596l-139 -391h-131zM332 504h518l-260 725z" />
<glyph unicode="B" horiz-adv-x="1138" d="M176 0v1366h344q129 0 195 -14q96 -23 159 -86q106 -106 107 -265q0 -117 -63.5 -198.5t-167.5 -102.5q276 -43 276 -313q0 -160 -102 -262q-90 -90 -238 -113q-80 -12 -340 -12h-170zM307 109h150q147 0 217 16q90 20 154.5 84.5t64.5 173.5q0 100 -72 172 q-63 63 -188 78q-47 6 -223 6h-103v-530zM307 745h135q246 0 338 93q68 68 68 170q0 106 -68 174q-57 57 -168 71q-45 6 -202 7h-103v-515z" />
<glyph unicode="C" horiz-adv-x="1241" d="M113 672q0 332 196 532q184 188 467 189q154 0 281 -47q86 -33 119 -66l-60 -96q-123 88 -330 88q-229 0 -380 -156q-160 -162 -160 -428q0 -270 143 -431t383 -161q170 0 358 105l62 -95q-29 -31 -127 -71q-145 -59 -309 -60q-276 0 -455 183q-188 193 -188 514z" />
<glyph unicode="D" horiz-adv-x="1380" d="M176 0v1366h262q242 0 363 -27q164 -37 270 -143q197 -197 197 -506q0 -319 -197 -516q-111 -111 -260 -147q-109 -27 -326 -27h-309zM307 109h187q176 0 266 20q129 31 221 123q154 153 154 442q0 266 -162 428q-86 86 -209 113q-94 22 -304 22h-18h-135v-1148z" />
<glyph unicode="E" horiz-adv-x="1019" d="M176 0v1366h721v-111h-592v-485h555v-108h-555v-547h608v-115h-737z" />
<glyph unicode="F" horiz-adv-x="960" d="M176 0v1366h703v-111h-572v-485h535v-108h-535v-662h-131z" />
<glyph unicode="G" horiz-adv-x="1351" d="M113 672q0 332 196 532q184 188 467 189q154 0 281 -47q86 -33 119 -66l-60 -96q-123 88 -330 88q-229 0 -380 -154q-160 -164 -160 -430q0 -270 142 -433t382 -163q129 0 231 33q41 16 82 33v399h-313v107h442v-574q-37 -31 -122 -61q-150 -55 -330 -56q-283 0 -461 185 q-186 190 -186 514z" />
<glyph unicode="H" horiz-adv-x="1304" d="M176 0v1366h131v-592h690v592h131v-1366h-131v664h-690v-664h-131z" />
<glyph unicode="I" horiz-adv-x="483" d="M176 0v1366h131v-1366h-131z" />
<glyph unicode="J" horiz-adv-x="733" d="M16 53l52 97q104 -59 184 -60q133 0 172 107q18 49 18 174v995h131v-942q0 -147 -6 -195q-16 -109 -80 -172q-82 -82 -213 -82q-94 0 -182 37q-57 23 -76 41z" />
<glyph unicode="K" horiz-adv-x="1103" d="M176 0v1366h129v-643l598 643h150l-617 -670l647 -696h-163l-615 653v-653h-129z" />
<glyph unicode="L" horiz-adv-x="962" d="M176 0v1366h131v-1251h588v-115h-719z" />
<glyph unicode="M" horiz-adv-x="1789" d="M160 0l155 1366h148l434 -1178l424 1178h149l160 -1366h-135l-129 1176l-424 -1176h-108l-428 1176l-125 -1176h-121z" />
<glyph unicode="N" horiz-adv-x="1298" d="M176 0v1366h143l687 -1184l-5 1184h121v-1366h-149l-680 1174l4 -1174h-121z" />
<glyph unicode="O" horiz-adv-x="1435" d="M113 672q0 317 171 518t443 201q260 0 428 -197t168 -506q0 -315 -170 -514t-442 -199q-258 0 -428 197t-170 500zM252 688q0 -262 132 -431t335 -169q213 0 339 166t126 442q0 258 -132 420t-339 162q-209 0 -335 -162t-126 -428z" />
<glyph unicode="P" horiz-adv-x="1105" d="M176 0v1366h311q150 0 226 -16q111 -23 178 -90q110 -111 110 -287q0 -180 -108 -289q-84 -84 -209 -106q-66 -12 -258 -13h-121v-565h-129zM305 672h113q158 0 213 8q98 14 153 70q86 86 86 225q0 133 -84 217q-47 47 -137 59q-51 8 -174 9h-170v-588z" />
<glyph unicode="Q" horiz-adv-x="1435" d="M113 672q0 317 171 518t443 201q260 0 428 -197t168 -506q0 -283 -137 -473q-152 -211 -420 -229q125 -166 422 -166q41 0 82 4t37 4l14 -96q-74 -18 -182 -19q-356 0 -529 277q-199 25 -340 198q-158 193 -157 484zM252 688q0 -262 132 -431t335 -169q213 0 339 166 t126 442q0 258 -132 420t-339 162q-209 0 -335 -162t-126 -428z" />
<glyph unicode="R" horiz-adv-x="1126" d="M176 0v1366h281q170 0 237 -12q109 -20 178 -90q106 -106 107 -275q0 -143 -88 -235t-217 -105q59 -4 106 -51t103 -172l190 -426h-135l-156 350q-76 172 -138 215t-228 43h-111v-608h-129zM305 715h39q178 0 231 6q129 18 202 90.5t73 185.5q0 115 -68 183 q-57 57 -145 71q-43 8 -164 9h-168v-545z" />
<glyph unicode="S" horiz-adv-x="1056" d="M100 119l68 94q176 -123 321 -123q147 0 227.5 75t80.5 200q0 90 -70 159q-59 59 -247.5 140t-260.5 153q-82 82 -82 223q0 154 111.5 252.5t292.5 98.5q231 0 374 -146l-69 -82q-137 115 -295 115q-127 0 -207 -66.5t-80 -169.5q0 -82 57.5 -139t231.5 -131 q186 -78 258 -135q121 -102 121 -262q0 -178 -111 -287q-117 -115 -323 -115q-227 0 -398 146z" />
<glyph unicode="T" horiz-adv-x="1089" d="M66 1255v111h958v-111h-414v-1255h-131v1255h-413z" />
<glyph unicode="U" horiz-adv-x="1263" d="M156 627v739h129v-864q0 -119 10 -170q16 -88 76 -148q96 -96 268 -96q158 0 246 88q68 68 84 168q10 68 10 299v723h129v-657q0 -279 -10 -353q-20 -162 -111 -252q-129 -129 -354 -129t-359 134q-84 84 -106 221q-12 74 -12 297z" />
<glyph unicode="V" d="M49 1366h139l418 -1253l432 1253h127l-481 -1366h-164z" />
<glyph unicode="W" horiz-adv-x="1812" d="M80 1366h137l293 -1260l307 1260h193l305 -1260l293 1260h125l-338 -1366h-181l-305 1264l-311 -1264h-180z" />
<glyph unicode="X" horiz-adv-x="1142" d="M55 0l437 711l-408 655h154l331 -553l330 553h143l-403 -657l448 -709h-151l-371 606l-368 -606h-142z" />
<glyph unicode="Y" horiz-adv-x="1107" d="M53 1366h144l364 -700l361 700h133l-437 -827v-539h-129v539z" />
<glyph unicode="Z" horiz-adv-x="1112" d="M94 0v96l754 1159h-713v111h864v-100l-747 -1151h764v-115h-922z" />
<glyph unicode="[" horiz-adv-x="661" d="M176 -250v1616h410v-109h-281v-1398h281v-109h-410z" />
<glyph unicode="\" horiz-adv-x="890" d="M76 1366l117 45l622 -1661l-119 -45z" />
<glyph unicode="]" horiz-adv-x="661" d="M76 -141h280v1398h-280v109h409v-1616h-409v109z" />
<glyph unicode="^" d="M160 518l401 848h94l400 -848h-133l-316 690l-315 -690h-131z" />
<glyph unicode="_" horiz-adv-x="962" d="M-4 -141h971v-109h-971v109z" />
<glyph unicode="`" horiz-adv-x="630" d="M76 1282l55 121l424 -205l-41 -80z" />
<glyph unicode="a" horiz-adv-x="950" d="M80 279q0 321 563 321h4h51v37q0 156 -49 207q-55 57 -186 57q-135 0 -273 -78l-51 86q23 23 97 54q113 47 241 47q172 0 266 -95q53 -53 68 -131q10 -47 10 -151v-633h-112v74q-47 -25 -95 -49q-111 -45 -219 -45q-141 0 -228 82.5t-87 216.5zM207 276q0 -80 51 -131 q57 -57 166 -57q102 0 274 80v332h-55q-436 0 -436 -224z" />
<glyph unicode="b" horiz-adv-x="1060" d="M143 45v1430h123v-555q111 88 275 88q197 0 314.5 -136.5t117.5 -363.5q0 -236 -139.5 -382t-358.5 -146q-154 0 -332 65zM266 123q117 -35 213 -35q168 0 267.5 114t99.5 302q0 178 -87 286.5t-231 108.5q-127 0 -262 -96v-680z" />
<glyph unicode="c" horiz-adv-x="950" d="M88 471q0 238 136 387.5t354 149.5q109 0 210 -45q63 -29 86 -52l-55 -86q-119 72 -248 72q-158 0 -257 -115.5t-99 -292.5q0 -178 96.5 -286.5t247.5 -108.5q125 0 277 76l53 -92q-16 -20 -101 -53q-117 -45 -235 -45q-207 0 -336 133t-129 358z" />
<glyph unicode="d" horiz-adv-x="1062" d="M88 475q0 236 135 384.5t348 148.5q131 0 224 -56v523h125v-1475h-113v74q-117 -94 -287 -94q-195 0 -313.5 136t-118.5 359zM215 471q0 -170 89 -276.5t228 -106.5q126 0 263 96v650q-113 65 -221 65h-3q-160 0 -258 -117.5t-98 -310.5z" />
<glyph unicode="e" horiz-adv-x="1011" d="M88 485q0 238 122 380.5t327 142.5q174 0 278 -123q109 -130 109 -353q0 -4 -2 -28.5t-2 -36.5h-705q0 -168 88 -270.5t250 -102.5q125 0 285 80l55 -94q-12 -16 -100 -53q-123 -47 -250 -47q-211 0 -333 139t-122 366zM219 571h580q0 129 -58 222q-71 110 -200 110h-2 q-131 0 -221.5 -90t-98.5 -242z" />
<glyph unicode="f" horiz-adv-x="720" d="M47 883v100h174v158q0 188 92 280q78 78 211 78q131 0 207 -63l-49 -86q-61 41 -145 41q-86 0 -136 -50q-57 -57 -57 -200v-158h315v-100h-315v-883h-123v883h-174z" />
<glyph unicode="g" horiz-adv-x="1062" d="M88 483q0 227 138.5 376t351.5 149q133 0 342 -84v-938q0 -248 -93 -342q-106 -109 -319 -109q-139 0 -260 57q-74 33 -105 64l56 86q86 -49 92 -53q104 -45 209 -45q158 0 231 75q43 43 55 107q8 49 9 180v76q-152 -84 -287 -84q-184 0 -302 136t-118 349zM215 485 q0 -170 84 -274.5t221 -104.5q111 1 275 95v651q-111 47 -224 47q-160 0 -258 -114.5t-98 -299.5z" />
<glyph unicode="h" horiz-adv-x="1030" d="M143 0v1475h123v-562q18 18 99 52q113 43 215 43q150 0 225 -76q66 -66 86 -160q10 -51 10 -180v-592h-123v573q0 117 -6 160q-12 72 -51 111q-55 55 -154 55q-92 0 -202 -47q-82 -33 -99 -49v-803h-123z" />
<glyph unicode="i" horiz-adv-x="409" d="M123 1315q0 35 24.5 58.5t57.5 23.5q35 0 58.5 -23.5t23.5 -58.5q0 -33 -23.5 -57.5t-58.5 -24.5q-33 0 -57.5 24.5t-24.5 57.5zM143 0v983h123v-983h-123z" />
<glyph unicode="j" horiz-adv-x="409" d="M-160 -436l29 96q55 -18 104 -18q102 0 142 69q28 51 28 153v7v1112h123v-1098q0 -190 -80 -270t-211 -80q-72 0 -135 29zM123 1315q0 35 24.5 58.5t57.5 23.5q35 0 58.5 -23.5t23.5 -58.5q0 -33 -23.5 -57.5t-58.5 -24.5q-33 0 -57.5 24.5t-24.5 57.5z" />
<glyph unicode="k" horiz-adv-x="958" d="M143 0v1475h123v-928l459 436h162l-484 -446l525 -537h-162l-500 520v-520h-123z" />
<glyph unicode="l" horiz-adv-x="409" d="M143 0v1475h123v-1475h-123z" />
<glyph unicode="m" horiz-adv-x="1615" d="M143 0v983h117v-72q160 96 311 97q162 0 244 -115q186 115 356 115q137 0 220 -82q68 -68 86 -172q10 -61 10 -234v-520h-123v586q0 201 -57 258q-51 51 -148 51q-145 0 -299 -90q18 -39 19 -234v-571h-123v539q0 147 -6 192q-10 78 -48 115q-51 51 -143 51 q-152 0 -293 -94v-803h-123z" />
<glyph unicode="n" horiz-adv-x="1030" d="M143 0v983h117v-72q154 96 324 97q145 0 227 -82q61 -61 80 -156q10 -53 10 -178v-592h-123v573q0 117 -6 160q-12 72 -51 111q-55 55 -154 55q-92 0 -202 -47q-82 -33 -99 -49v-803h-123z" />
<glyph unicode="o" horiz-adv-x="1071" d="M88 492q0 236 122 376t333 140q201 0 320.5 -140.5t119.5 -384.5q0 -231 -122 -369.5t-329 -138.5q-201 0 -322.5 140.5t-121.5 376.5zM215 496q0 -184 91 -298t231 -114q150 0 234.5 108.5t84.5 294.5q0 182 -91 298t-230 116q-145 0 -232.5 -110.5t-87.5 -294.5z" />
<glyph unicode="p" horiz-adv-x="1060" d="M143 -436v1419h117v-68q123 92 283 93q193 0 311.5 -136.5t118.5 -359.5q0 -236 -135.5 -384t-348.5 -148q-135 0 -223 55v-471h-123zM266 154q119 -66 226 -66q160 0 257 117.5t97 310.5q0 170 -88 276.5t-228 106.5q-150 0 -264 -96v-649z" />
<glyph unicode="q" horiz-adv-x="1060" d="M88 479q0 236 139.5 382.5t358.5 146.5q154 0 332 -66v-1378h-123v504q-111 -88 -275 -88q-197 0 -314.5 136t-117.5 363zM215 483q0 -178 87 -286.5t230 -108.5q128 0 263 96v680q-117 35 -213 35q-168 0 -267.5 -113.5t-99.5 -302.5z" />
<glyph unicode="r" horiz-adv-x="714" d="M143 0v983h117v-129q129 156 311 156q54 -1 103 -17l-29 -102q-43 6 -80 6q-92 0 -168 -43q-55 -31 -96 -80q-18 -25 -35 -49v-725h-123z" />
<glyph unicode="s" horiz-adv-x="851" d="M66 72l53 94q123 -82 268 -82q111 0 173.5 46t62.5 126q0 86 -84 141q-31 18 -162 70q-141 55 -191 96q-82 68 -82 187q0 117 93.5 187.5t234.5 70.5q111 0 211 -41q66 -27 86 -47l-49 -89q-121 70 -238 70q-88 0 -149.5 -41t-61.5 -106q0 -76 64 -119q27 -18 147 -68 q156 -63 203 -98q105 -76 105 -201q0 -137 -95.5 -215t-259.5 -78q-119 0 -231 45q-78 31 -98 52z" />
<glyph unicode="t" horiz-adv-x="757" d="M45 883v100h172v279h123v-279h315v-100h-315v-557q0 -133 16 -170q29 -68 138 -68q47 0 98 14q23 8 47 17l33 -94q-94 -47 -195 -48q-133 0 -203 70q-39 39 -49 105q-8 43 -8 149v582h-172z" />
<glyph unicode="u" horiz-adv-x="1030" d="M129 422v561h123v-586q0 -193 58.5 -251t152.5 -58q92 0 199 45q51 27 102 51v799h123v-983h-113v78q-147 -98 -319 -98q-150 0 -238 88q-63 63 -82 172q-6 45 -6 182z" />
<glyph unicode="v" horiz-adv-x="1011" d="M41 983h135l326 -854l325 854h127l-385 -983h-145z" />
<glyph unicode="w" horiz-adv-x="1513" d="M70 983h125l231 -858l246 858h164l241 -858l236 858h121l-287 -983h-152l-247 874l-252 -874h-152z" />
<glyph unicode="x" horiz-adv-x="978" d="M45 0l361 504l-336 479h151l264 -389l267 389h139l-334 -477l356 -506h-149l-289 418l-289 -418h-141z" />
<glyph unicode="y" horiz-adv-x="989" d="M-41 -430l33 100q83 -24 135 -24h4q102 0 162.5 60.5t144.5 268.5l-405 1008h135l338 -850l305 850h127l-389 -1053q-78 -211 -170 -303t-244 -92q-72 0 -176 35z" />
<glyph unicode="z" horiz-adv-x="948" d="M86 0v96l578 783h-549v104h700v-98l-569 -776h590v-109h-750z" />
<glyph unicode="{" horiz-adv-x="686" d="M104 530v107q47 0 72 24.5t25 165.5v220q0 182 66.5 250.5t238.5 68.5h104v-109h-71q-145 0 -176 -35.5t-31 -168.5v-219q0 -109 -2 -132q-6 -63 -35 -92q-16 -16 -45 -26q27 -8 45 -27q29 -29 35 -92q2 -23 2 -131v-271q0 -139 34.5 -171.5t172.5 -32.5h71v-109h-104 q-172 0 -242 72q-63 66 -63 248v270q0 141 -24.5 165.5t-72.5 24.5z" />
<glyph unicode="|" horiz-adv-x="520" d="M193 -250v1616h135v-1616h-135z" />
<glyph unicode="}" horiz-adv-x="686" d="M76 -141h71q145 0 179 39q29 33 28 165v271q0 109 2 131q6 63 35 92q18 18 45 27q-29 10 -45 26q-29 29 -35 92q-2 23 -2 132v219q0 139 -34.5 171.5t-172.5 32.5h-71v109h104q172 0 242 -72q63 -66 63 -247v-220q0 -141 25 -165.5t72 -24.5v-107q-47 0 -72 -24.5 t-25 -165.5v-270q0 -182 -63 -248q-70 -72 -242 -72h-104v109z" />
<glyph unicode="~" d="M156 502q100 137 250 137q84 0 215 -58.5t196 -58.5q74 0 150 84l92 -67q-109 -137 -240 -138q-82 0 -217 58.5t-199 58.5q-82 0 -153 -80z" />
<glyph unicode="&#xa1;" horiz-adv-x="593" d="M205 915q0 39 26.5 66t65.5 27t65.5 -27t26.5 -66t-26.5 -65.5t-65.5 -26.5t-65.5 27t-26.5 65zM221 -375l21 1034h110l27 -1034h-158z" />
<glyph unicode="&#xa2;" d="M223 492q0 229 127 376q117 135 291 154v168h117v-164q94 -10 180 -49q53 -27 72 -45l-56 -86q-39 25 -65 35q-61 27 -131 34v-796q88 10 213 71l53 -92q-12 -14 -86 -47q-94 -39 -180 -47v-209h-117v207q-180 14 -295 137q-123 133 -123 353zM350 510q0 -170 90 -279 q80 -98 201 -112v792q-123 -20 -203 -123q-88 -113 -88 -278z" />
<glyph unicode="&#xa3;" d="M170 0v104q98 31 141 93q53 76 54 229q0 63 -9 170h-182v113h174q-20 147 -20 209q0 221 117.5 347t320.5 126q133 0 242 -54q69 -32 96 -67l-64 -82q-119 92 -266 92t-229 -94t-82 -268q0 -72 14 -209h400v-113h-390q0 -6 3.5 -51t3.5 -72q0 -276 -127 -364h723v-109 h-920z" />
<glyph unicode="&#xa4;" d="M66 516v100h131q-2 39 -2 76q0 20 2 58h-131v100h137q0 139 92 299q143 244 422 244q117 0 229 -54q68 -33 94 -59l-61 -88q-127 90 -258 90q-221 0 -324 -199q-61 -119 -61 -233h534v-100h-542q-2 -27 -2 -74q0 -25 2 -60h542v-100h-534q0 -113 61 -231 q100 -195 314 -195q133 0 303 107l63 -88q-166 -133 -364 -134q-279 0 -418 232q-92 154 -92 309h-137z" />
<glyph unicode="&#xa5;" d="M119 1366h145l342 -637l355 637h135l-385 -659h258v-101h-299v-112h299v-101h-299v-393h-129v393h-297v101h297v112h-297v101h252z" />
<glyph unicode="&#xa6;" horiz-adv-x="520" d="M193 -250v623h135v-623h-135zM193 745v621h135v-621h-135z" />
<glyph unicode="&#xa7;" d="M219 -184l62 96q162 -92 292 -92q121 0 189 57q61 51 61 131q0 70 -48 118t-214 115.5t-235 137.5q-80 80 -80 180q0 188 239 279q-193 98 -192 266q0 131 95 209t253 78q180 0 305 -101l-57 -88q-104 78 -246 78q-102 0 -159.5 -45t-57.5 -115q0 -63 43 -106t216 -120 t226 -130q84 -84 84 -195q0 -199 -225 -286q186 -98 186 -258q0 -137 -98 -230q-104 -94 -272 -94q-209 0 -367 115zM375 578q0 -59 46 -104.5t253 -135.5q188 72 188 209q0 70 -45 115q-51 51 -221 126q-221 -68 -221 -210z" />
<glyph unicode="&#xa8;" horiz-adv-x="647" d="M76 1260q0 39 26.5 65.5t65.5 26.5t65.5 -26.5t26.5 -65.5t-26.5 -66t-65.5 -27t-65.5 27t-26.5 66zM387 1260q0 39 26.5 65.5t65.5 26.5t65.5 -26.5t26.5 -65.5t-26.5 -66t-65.5 -27t-65.5 27t-26.5 66z" />
<glyph unicode="&#xa9;" horiz-adv-x="1611" d="M98 682q0 293 209 501t500 208q293 0 499.5 -211t206.5 -498q0 -291 -206.5 -499t-499.5 -208t-501 208t-208 499zM215 682q0 -242 174 -415t418 -173t417 173t173 415q0 248 -174 419t-416 171q-244 0 -418 -176t-174 -414zM459 676q0 180 102.5 293.5t265.5 113.5 q84 0 160 -34q51 -25 72 -48l-53 -81q-90 59 -185 59q-109 0 -177.5 -82t-68.5 -209t68 -202.5t172 -75.5q86 0 205 59l47 -84q-16 -23 -82 -49q-86 -35 -176 -35q-154 0 -252 101.5t-98 273.5z" />
<glyph unicode="&#xaa;" horiz-adv-x="839" d="M127 848q0 242 420 242h33v20q0 117 -37 153.5t-131 36.5q-102 0 -199 -59l-43 70q20 20 76 43q84 37 178 37q129 0 199 -70q57 -57 57 -215v-467h-96v49q-104 -66 -222 -65q-104 0 -169.5 62.5t-65.5 162.5zM231 848q0 -135 152 -135q91 0 197 55v238h-35 q-313 0 -314 -158z" />
<glyph unicode="&#xab;" horiz-adv-x="952" d="M129 506l283 387l90 -59l-199 -328l199 -336l-90 -59zM449 506l282 387l90 -59l-198 -328l198 -336l-90 -59z" />
<glyph unicode="&#xac;" d="M121 573v109h973v-387h-119v278h-854z" />
<glyph unicode="&#xad;" horiz-adv-x="1003" d="M174 465v108h655v-108h-655z" />
<glyph unicode="&#xae;" horiz-adv-x="1097" d="M98 940q0 188 132 319.5t319 131.5q188 0 319 -131.5t131 -319.5q0 -186 -131 -317t-319 -131t-319.5 131t-131.5 317zM190 940q0 -150 103.5 -252t255.5 -102t255 102t103 252t-103.5 253t-254.5 103q-152 0 -255.5 -103t-103.5 -253zM391 698v494h121q117 0 161 -40 t44 -105q0 -104 -101 -117q39 0 68 -64l78 -168h-90l-62 127q-27 53 -42 63.5t-68 10.5h-23v-201h-86zM477 977q76 0 101 6q55 15 55 68q0 63 -117 63h-39v-137z" />
<glyph unicode="&#xaf;" horiz-adv-x="768" d="M76 1204v111h614v-111h-614z" />
<glyph unicode="&#xb0;" d="M311 1096q0 123 87 209t210 86t209 -86t86 -209t-86 -209t-209 -86t-210 86t-87 209zM406 1096q0 -84 59 -142.5t143 -58.5t142.5 58.5t58.5 142.5t-58.5 142t-142.5 58t-143 -58t-59 -142z" />
<glyph unicode="&#xb1;" d="M150 0v109h915v-109h-915zM150 629v108h403v434h109v-434h403v-108h-403v-426h-109v426h-403z" />
<glyph unicode="&#xb2;" horiz-adv-x="731" d="M156 682v80q98 96 194 192q123 135 123 224q0 119 -117 118q-74 0 -149 -67l-51 63q16 29 69 60q68 39 142 39q94 0 150 -56.5t56 -150.5q0 -82 -57 -168q-35 -51 -123 -144l-94 -98h281v-92h-424z" />
<glyph unicode="&#xb3;" horiz-adv-x="731" d="M135 760l55 61q74 -61 148 -61q141 0 141 114q0 45 -28 76q-39 43 -156 43h-29v90h35q168 0 168 111q0 45 -30.5 75.5t-86.5 30.5q-84 0 -145 -61l-57 57q76 94 206 95q96 0 154.5 -53.5t58.5 -141.5q0 -49 -32 -92q-35 -49 -91 -62q134 -30 134 -159q0 -98 -67 -155.5 t-165 -57.5q-143 0 -213 90z" />
<glyph unicode="&#xb4;" horiz-adv-x="630" d="M76 1198l424 205l55 -121l-438 -164z" />
<glyph unicode="&#xb6;" horiz-adv-x="1196" d="M104 983q0 162 107 268q74 74 197 97q94 18 307 18h358v-109h-125v-1507h-108v1507h-101v-1507h-106v825q-133 0 -197 11q-141 23 -221 102q-111 111 -111 295z" />
<glyph unicode="&#xb7;" horiz-adv-x="442" d="M129 520q0 39 26.5 65.5t65.5 26.5t65.5 -26.5t26.5 -65.5t-26.5 -65.5t-65.5 -26.5t-65.5 26.5t-26.5 65.5z" />
<glyph unicode="&#xb8;" horiz-adv-x="684" d="M180 -406l33 74q39 -25 98 -24q100 0 101 84q0 84 -86 84q-43 0 -82 -29l-54 35l37 182h88l-18 -109q14 10 51 11q76 0 122 -47t46 -123q0 -82 -58.5 -130t-135.5 -48q-94 0 -142 40z" />
<glyph unicode="&#xb9;" horiz-adv-x="731" d="M158 1229l239 151h82v-698h-106v567l-160 -102z" />
<glyph unicode="&#xba;" horiz-adv-x="837" d="M86 1006q0 174 91 279.5t247 105.5q150 0 239 -106t89 -286q0 -172 -91.5 -275t-244.5 -103q-150 0 -240 104t-90 281zM188 1008q0 -133 65.5 -215t166.5 -82q106 0 167.5 79t61.5 214q0 133 -66.5 216t-164.5 83q-104 0 -167 -81t-63 -214z" />
<glyph unicode="&#xbb;" horiz-adv-x="952" d="M131 170l199 336l-199 328l90 59l283 -387l-283 -395zM451 170l198 336l-198 328l90 59l282 -387l-282 -395z" />
<glyph unicode="&#xbc;" horiz-adv-x="1497" d="M201 1229l239 151h82v-698h-106v567l-160 -102zM219 -14l975 1450l88 -64l-975 -1446zM791 160v78l344 460h96v-446h96v-92h-96v-160h-105v160h-335zM911 252h215v291z" />
<glyph unicode="&#xbd;" horiz-adv-x="1497" d="M98 1229l240 151h82v-698h-107v567l-159 -102zM119 -14l975 1450l88 -64l-975 -1446zM961 0v80q98 96 194 192q123 135 123 224q0 119 -117 118q-74 0 -149 -67l-51 63q16 29 69 60q68 39 141 39q94 0 150.5 -56.5t56.5 -150.5q0 -82 -57 -168q-35 -51 -123 -144l-94 -98 h280v-92h-423z" />
<glyph unicode="&#xbe;" horiz-adv-x="1497" d="M188 760l56 61q74 -61 147 -61q141 0 141 114q0 45 -28 76q-39 43 -156 43h-29v90h35q168 0 168 111q0 106 -116 106q-84 0 -146 -61l-57 57q76 94 207 95q96 0 154.5 -53.5t58.5 -141.5q0 -49 -33 -92q-35 -49 -90 -62q133 -30 133 -159q0 -98 -66.5 -155.5 t-165.5 -57.5q-143 0 -213 90zM229 -14l975 1450l88 -64l-975 -1446zM801 160v78l344 460h96v-446h96v-92h-96v-160h-104v160h-336zM922 252h215v291z" />
<glyph unicode="&#xbf;" horiz-adv-x="1009" d="M147 -25q0 158 119 277q35 35 121 88t111 78q35 35 41 86q4 25 4 155h110q4 -78 4 -114q0 -80 -6 -107q-8 -39 -40.5 -71.5t-111.5 -88t-118 -94.5q-92 -92 -92 -209q0 -115 74.5 -187.5t193.5 -72.5q141 0 283 95l57 -91q-18 -25 -111 -63q-129 -57 -260 -57 q-172 0 -275.5 103t-103.5 273zM506 915q0 39 26.5 66t65.5 27t65.5 -27t26.5 -66t-26.5 -65.5t-65.5 -26.5t-65.5 27t-26.5 65z" />
<glyph unicode="&#xc0;" horiz-adv-x="1189" d="M23 0l497 1366h148l499 -1366h-139l-139 391h-596l-139 -391h-131zM332 504h518l-260 725zM363 1632l55 121l424 -205l-41 -80z" />
<glyph unicode="&#xc1;" horiz-adv-x="1189" d="M23 0l497 1366h148l499 -1366h-139l-139 391h-596l-139 -391h-131zM332 504h518l-260 725zM357 1548l424 205l55 -121l-438 -164z" />
<glyph unicode="&#xc2;" horiz-adv-x="1189" d="M23 0l497 1366h148l499 -1366h-139l-139 391h-596l-139 -391h-131zM275 1548l315 203l311 -203l-53 -80l-258 142l-258 -142zM332 504h518l-260 725z" />
<glyph unicode="&#xc3;" horiz-adv-x="1189" d="M23 0l497 1366h148l499 -1366h-139l-139 391h-596l-139 -391h-131zM281 1548q104 88 198 88q41 0 115 -23.5t111 -23.5q78 0 141 56l59 -82q-92 -92 -202 -92q-39 0 -113 22.5t-113 22.5q-61 0 -137 -48zM332 504h518l-260 725z" />
<glyph unicode="&#xc4;" horiz-adv-x="1189" d="M23 0l497 1366h148l499 -1366h-139l-139 391h-596l-139 -391h-131zM332 504h518l-260 725zM344 1577q0 39 26.5 65.5t65.5 26.5t65.5 -26.5t26.5 -65.5t-26.5 -66t-65.5 -27t-65.5 27t-26.5 66zM655 1577q0 39 26.5 65.5t65.5 26.5t65.5 -26.5t26.5 -65.5t-26.5 -66 t-65.5 -27t-65.5 27t-26.5 66z" />
<glyph unicode="&#xc5;" horiz-adv-x="1189" d="M23 0l497 1366h148l499 -1366h-139l-139 391h-596l-139 -391h-131zM332 504h518l-260 725zM389 1669q0 84 59.5 142.5t140.5 58.5q84 0 142.5 -59.5t58.5 -141.5t-58.5 -141t-142.5 -59q-82 0 -141 59t-59 141zM475 1669q0 -47 33.5 -80.5t80.5 -33.5q49 0 83 33.5 t34 80.5q0 49 -33.5 83t-83.5 34q-47 0 -80.5 -35t-33.5 -82z" />
<glyph unicode="&#xc6;" horiz-adv-x="1738" d="M41 0l770 1366h795v-111h-592v-485h555v-108h-555v-549h608v-113h-737v391h-488l-211 -391h-145zM457 504h428v751z" />
<glyph unicode="&#xc7;" horiz-adv-x="1241" d="M113 672q0 332 196 532q184 188 467 189q154 0 281 -47q86 -33 119 -66l-60 -96q-123 88 -330 88q-229 0 -380 -154q-160 -164 -160 -430q0 -270 143 -431t383 -161q129 0 254 51q51 27 104 54l62 -95q-33 -33 -127 -71q-145 -59 -309 -60l-19 -92q14 10 54 11 q78 0 125 -49.5t47 -127.5q0 -86 -64 -137q-55 -45 -135 -45q-98 0 -146 41l33 76q39 -25 101 -25q104 0 104 86q0 88 -88 88q-45 0 -86 -30l-53 36l35 175q-223 25 -373 186q-178 190 -178 504z" />
<glyph unicode="&#xc8;" horiz-adv-x="1019" d="M176 0v1366h721v-111h-592v-485h555v-108h-555v-547h608v-115h-737zM289 1632l55 121l424 -205l-41 -80z" />
<glyph unicode="&#xc9;" horiz-adv-x="1019" d="M176 0v1366h721v-111h-592v-485h555v-108h-555v-547h608v-115h-737zM297 1548l424 205l55 -121l-438 -164z" />
<glyph unicode="&#xca;" horiz-adv-x="1019" d="M176 0v1366h721v-111h-592v-485h555v-108h-555v-547h608v-115h-737zM211 1548l315 203l311 -203l-53 -80l-258 142l-258 -142z" />
<glyph unicode="&#xcb;" horiz-adv-x="1019" d="M176 0v1366h721v-111h-592v-485h555v-108h-555v-547h608v-115h-737zM264 1577q0 39 26.5 65.5t65.5 26.5t65.5 -26.5t26.5 -65.5t-26.5 -66t-65.5 -27t-65.5 27t-26.5 66zM575 1577q0 39 26.5 65.5t65.5 26.5t65.5 -26.5t26.5 -65.5t-26.5 -66t-65.5 -27t-65.5 27 t-26.5 66z" />
<glyph unicode="&#xcc;" horiz-adv-x="483" d="M23 1630l55 121l424 -205l-41 -80zM184 0v1366h131v-1366h-131z" />
<glyph unicode="&#xcd;" horiz-adv-x="483" d="M2 1548l424 205l55 -121l-438 -164zM184 0v1366h131v-1366h-131z" />
<glyph unicode="&#xce;" horiz-adv-x="483" d="M-71 1548l315 203l311 -203l-53 -80l-258 142l-258 -142zM184 0v1366h131v-1366h-131z" />
<glyph unicode="&#xcf;" horiz-adv-x="483" d="M4 1577q0 39 26.5 65.5t65.5 26.5t65.5 -26.5t26.5 -65.5t-26.5 -66t-65.5 -27t-65.5 27t-26.5 66zM184 0v1366h131v-1366h-131zM315 1577q0 39 26.5 65.5t65.5 26.5t65.5 -26.5t26.5 -65.5t-26.5 -66t-65.5 -27t-65.5 27t-26.5 66z" />
<glyph unicode="&#xd0;" horiz-adv-x="1400" d="M-8 662v108h205v596h262q242 0 362 -27q164 -37 271 -143q196 -197 196 -506q0 -319 -196 -516q-111 -111 -261 -147q-109 -27 -325 -27h-309v662h-205zM328 109h186q176 0 264 20q131 31 223 123q154 153 154 442q0 266 -162 428q-86 86 -209 113q-98 23 -321 22h-135 v-487h413v-108h-413v-553z" />
<glyph unicode="&#xd1;" horiz-adv-x="1298" d="M176 0v1366h143l687 -1184l-5 1184h121v-1366h-149l-680 1174l4 -1174h-121zM316 1548q104 88 198 88q41 0 115 -23.5t111 -23.5q78 0 141 56l59 -82q-92 -92 -202 -92q-39 0 -113 22.5t-113 22.5q-61 0 -137 -48z" />
<glyph unicode="&#xd2;" horiz-adv-x="1435" d="M113 672q0 317 171 518t443 201q260 0 428 -197t168 -506q0 -315 -170 -514t-442 -199q-258 0 -428 197t-170 500zM252 688q0 -262 132 -431t335 -169q213 0 339 166t126 442q0 258 -132 420t-339 162q-209 0 -335 -162t-126 -428zM473 1630l55 121l424 -205l-41 -80z " />
<glyph unicode="&#xd3;" horiz-adv-x="1435" d="M113 672q0 317 171 518t443 201q260 0 428 -197t168 -506q0 -315 -170 -514t-442 -199q-258 0 -428 197t-170 500zM252 688q0 -262 132 -431t335 -169q213 0 339 166t126 442q0 258 -132 420t-339 162q-209 0 -335 -162t-126 -428zM455 1548l424 205l55 -121l-438 -164z " />
<glyph unicode="&#xd4;" horiz-adv-x="1435" d="M113 672q0 317 171 518t443 201q260 0 428 -197t168 -506q0 -315 -170 -514t-442 -199q-258 0 -428 197t-170 500zM252 688q0 -262 132 -431t335 -169q213 0 339 166t126 442q0 258 -132 420t-339 162q-209 0 -335 -162t-126 -428zM389 1548l315 203l311 -203l-53 -80 l-258 142l-258 -142z" />
<glyph unicode="&#xd5;" horiz-adv-x="1435" d="M113 672q0 317 171 518t443 201q260 0 428 -197t168 -506q0 -315 -170 -514t-442 -199q-258 0 -428 197t-170 500zM252 688q0 -262 132 -431t335 -169q213 0 339 166t126 442q0 258 -132 420t-339 162q-209 0 -335 -162t-126 -428zM400 1548q104 88 198 88 q41 0 115 -23.5t111 -23.5q78 0 141 56l59 -82q-92 -92 -202 -92q-39 0 -113 22.5t-113 22.5q-61 0 -137 -48z" />
<glyph unicode="&#xd6;" horiz-adv-x="1435" d="M113 672q0 317 171 518t443 201q260 0 428 -197t168 -506q0 -315 -170 -514t-442 -199q-258 0 -428 197t-170 500zM252 688q0 -262 132 -431t335 -169q213 0 339 166t126 442q0 258 -132 420t-339 162q-209 0 -335 -162t-126 -428zM473 1577q0 39 26.5 65.5t65.5 26.5 t65.5 -26.5t26.5 -65.5t-26.5 -66t-65.5 -27t-65.5 27t-26.5 66zM784 1577q0 39 26.5 65.5t65.5 26.5t65.5 -26.5t26.5 -65.5t-26.5 -66t-65.5 -27t-65.5 27t-26.5 66z" />
<glyph unicode="&#xd7;" d="M143 131l387 387l-387 389l76 76l387 -387l389 387l76 -76l-387 -389l387 -387l-76 -76l-389 387l-387 -387z" />
<glyph unicode="&#xd8;" horiz-adv-x="1435" d="M113 672q0 317 171 518t443 201q109 0 207 -37q63 -25 90 -47l111 194l94 -55l-117 -207q211 -211 211 -551q0 -315 -170 -514t-442 -199q-174 0 -277 74l-108 -188l-95 55l111 197q-66 55 -119 143q-111 180 -110 416zM252 688q0 -289 156 -457l555 969q-88 78 -248 78 q-209 0 -336 -163t-127 -427zM494 156q135 -68 227 -68q213 0 338 166t125 442q0 174 -66 314q-37 80 -74 116z" />
<glyph unicode="&#xd9;" horiz-adv-x="1263" d="M156 627v739h129v-864q0 -119 10 -170q16 -88 76 -148q96 -96 268 -96q158 0 246 88q68 68 84 168q10 68 10 299v723h129v-657q0 -279 -10 -353q-20 -162 -111 -252q-129 -129 -354 -129t-359 134q-84 84 -106 221q-12 74 -12 297zM375 1632l55 121l424 -205l-41 -80z " />
<glyph unicode="&#xda;" horiz-adv-x="1263" d="M156 627v739h129v-864q0 -119 10 -170q16 -88 76 -148q96 -96 268 -96q158 0 246 88q68 68 84 168q10 68 10 299v723h129v-657q0 -279 -10 -353q-20 -162 -111 -252q-129 -129 -354 -129t-359 134q-84 84 -106 221q-12 74 -12 297zM393 1548l424 205l55 -121l-438 -164z " />
<glyph unicode="&#xdb;" horiz-adv-x="1263" d="M156 627v739h129v-864q0 -119 10 -170q16 -88 76 -148q96 -96 268 -96q158 0 246 88q68 68 84 168q10 68 10 299v723h129v-657q0 -279 -10 -353q-20 -162 -111 -252q-129 -129 -354 -129t-359 134q-84 84 -106 221q-12 74 -12 297zM305 1548l315 203l311 -203l-53 -80 l-258 142l-258 -142z" />
<glyph unicode="&#xdc;" horiz-adv-x="1263" d="M156 627v739h129v-864q0 -119 10 -170q16 -88 76 -148q96 -96 268 -96q158 0 246 88q68 68 84 168q10 68 10 299v723h129v-657q0 -279 -10 -353q-20 -162 -111 -252q-129 -129 -354 -129t-359 134q-84 84 -106 221q-12 74 -12 297zM385 1577q0 39 26.5 65.5t65.5 26.5 t65.5 -26.5t26.5 -65.5t-26.5 -66t-65.5 -27t-65.5 27t-26.5 66zM696 1577q0 39 26.5 65.5t65.5 26.5t65.5 -26.5t26.5 -65.5t-26.5 -66t-65.5 -27t-65.5 27t-26.5 66z" />
<glyph unicode="&#xdd;" horiz-adv-x="1107" d="M53 1366h144l364 -700l361 700h133l-437 -827v-539h-129v539zM307 1548l424 205l55 -121l-438 -164z" />
<glyph unicode="&#xde;" horiz-adv-x="1114" d="M176 0v1366h129v-266h182q150 0 226 -17q111 -23 178 -90q110 -110 110 -286q0 -180 -108 -289q-84 -84 -209 -107q-66 -12 -258 -12h-121v-299h-129zM305 406h113q158 0 213 8q98 14 153 69q86 87 86 226q0 133 -84 217q-47 47 -137 59q-51 8 -174 8h-170v-587z" />
<glyph unicode="&#xdf;" horiz-adv-x="1079" d="M143 0v911q0 203 11 277q23 137 98 213q98 98 268 98q156 0 256.5 -94t100.5 -242q0 -106 -56 -192q-29 -41 -106 -117q-55 -55 -56 -86q0 -27 35 -61q90 -74 183 -146q114 -109 114 -246q0 -158 -107.5 -249t-260.5 -91q-100 0 -254 66l45 100q102 -51 198 -51 q109 0 177.5 58.5t68.5 156.5q0 92 -76 168q-25 25 -104.5 82t-114.5 92q-49 49 -49 107q0 55 59 123q55 59 111 120q59 78 59 164q0 102 -64.5 165t-166.5 63q-104 0 -170 -66q-76 -76 -76 -338v-985h-123z" />
<glyph unicode="&#xe0;" horiz-adv-x="950" d="M80 279q0 322 567 321h51v37q0 156 -49 207q-55 57 -186 57q-135 0 -273 -78l-51 86q23 23 97 54q113 47 241 47q172 0 266 -95q53 -53 68 -131q10 -47 10 -151v-633h-112v74q-47 -25 -95 -49q-111 -45 -219 -45q-141 0 -228 82.5t-87 216.5zM207 276q0 -80 51 -131 q57 -57 166 -57q102 0 274 80v332h-55q-436 0 -436 -224zM244 1282l55 121l424 -205l-41 -80z" />
<glyph unicode="&#xe1;" horiz-adv-x="950" d="M80 279q0 322 567 321h51v37q0 156 -49 207q-55 57 -186 57q-135 0 -273 -78l-51 86q23 23 97 54q113 47 241 47q172 0 266 -95q53 -53 68 -131q10 -47 10 -151v-633h-112v74q-47 -25 -95 -49q-111 -45 -219 -45q-141 0 -228 82.5t-87 216.5zM207 276q0 -80 51 -131 q57 -57 166 -57q102 0 274 80v332h-55q-436 0 -436 -224zM236 1198l424 205l55 -121l-438 -164z" />
<glyph unicode="&#xe2;" horiz-adv-x="950" d="M80 279q0 322 567 321h51v37q0 156 -49 207q-55 57 -186 57q-135 0 -273 -78l-51 86q23 23 97 54q113 47 241 47q172 0 266 -95q53 -53 68 -131q10 -47 10 -151v-633h-112v74q-47 -25 -95 -49q-111 -45 -219 -45q-141 0 -228 82.5t-87 216.5zM154 1200l315 203l311 -203 l-53 -80l-258 142l-258 -142zM207 276q0 -80 51 -131q57 -57 166 -57q102 0 274 80v332h-55q-436 0 -436 -224z" />
<glyph unicode="&#xe3;" horiz-adv-x="950" d="M80 279q0 322 567 321h51v37q0 156 -49 207q-55 57 -186 57q-135 0 -273 -78l-51 86q23 23 97 54q113 47 241 47q172 0 266 -95q53 -53 68 -131q10 -47 10 -151v-633h-112v74q-47 -25 -95 -49q-111 -45 -219 -45q-141 0 -228 82.5t-87 216.5zM172 1251q104 88 198 88 q41 0 115 -23.5t111 -23.5q78 0 141 56l59 -82q-92 -92 -202 -92q-39 0 -113 22.5t-113 22.5q-61 0 -137 -48zM207 276q0 -80 51 -131q57 -57 166 -57q102 0 274 80v332h-55q-436 0 -436 -224z" />
<glyph unicode="&#xe4;" horiz-adv-x="950" d="M80 279q0 322 567 321h51v37q0 156 -49 207q-55 57 -186 57q-135 0 -273 -78l-51 86q23 23 97 54q113 47 241 47q172 0 266 -95q53 -53 68 -131q10 -47 10 -151v-633h-112v74q-47 -25 -95 -49q-111 -45 -219 -45q-141 0 -228 82.5t-87 216.5zM207 276q0 -80 51 -131 q57 -57 166 -57q102 0 274 80v332h-55q-436 0 -436 -224zM238 1260q0 39 26.5 65.5t65.5 26.5t65.5 -26.5t26.5 -65.5t-26.5 -66t-65.5 -27t-65.5 27t-26.5 66zM549 1260q0 39 26.5 65.5t65.5 26.5t65.5 -26.5t26.5 -65.5t-26.5 -66t-65.5 -27t-65.5 27t-26.5 66z" />
<glyph unicode="&#xe5;" horiz-adv-x="950" d="M80 279q0 322 567 321h51v37q0 156 -49 207q-55 57 -186 57q-135 0 -273 -78l-51 86q23 23 97 54q113 47 241 47q172 0 266 -95q53 -53 68 -131q10 -47 10 -151v-633h-112v74q-47 -25 -95 -49q-111 -45 -219 -45q-141 0 -228 82.5t-87 216.5zM207 276q0 -80 51 -131 q57 -57 166 -57q102 0 274 80v332h-55q-436 0 -436 -224zM275 1292q0 84 59.5 142.5t140.5 58.5q84 0 142.5 -59.5t58.5 -141.5t-58.5 -141t-142.5 -59q-82 0 -141 59t-59 141zM361 1292q0 -47 33.5 -80.5t80.5 -33.5q49 0 83 33.5t34 80.5q0 49 -33.5 83t-83.5 34 q-47 0 -80.5 -35t-33.5 -82z" />
<glyph unicode="&#xe6;" horiz-adv-x="1622" d="M88 264q0 313 553 314h66v59q0 156 -50 207q-55 57 -186 57q-135 0 -272 -78l-52 86q23 23 97 54q113 47 241 47q172 0 267 -95q33 -33 51 -75q115 168 344 168q174 0 278 -123q109 -130 109 -353q0 -4 -2 -28.5t-2 -36.5h-705q0 -168 88 -270.5t250 -102.5q125 0 285 80 l55 -94q-12 -16 -100 -53q-123 -47 -250 -47q-207 0 -328 131q-166 -129 -393 -129q-156 0 -250 76.5t-94 205.5zM215 264q0 -78 63.5 -124t159.5 -46q197 1 326 99q-57 111 -57 256v24h-70q-422 0 -422 -209zM829 571h580q0 129 -57 222q-72 111 -203 110q-131 0 -221 -90 t-99 -242z" />
<glyph unicode="&#xe7;" horiz-adv-x="950" d="M88 471q0 238 136 387.5t354 149.5q111 0 210 -45q63 -29 86 -52l-55 -86q-119 72 -248 72q-158 0 -257 -115.5t-99 -292.5q0 -178 96.5 -286.5t247.5 -108.5q125 0 277 76l53 -92q-16 -20 -101 -53q-117 -45 -233 -45l-16 -89q14 10 51 11q76 0 122 -47.5t46 -122.5 q0 -82 -58.5 -130t-136.5 -48q-94 0 -141 40l33 74q39 -25 98 -24q100 0 100 84t-86 84q-43 0 -82 -29l-53 35l35 168q-162 27 -262 143q-117 131 -117 342z" />
<glyph unicode="&#xe8;" horiz-adv-x="1011" d="M88 485q0 238 122 380.5t327 142.5q174 0 278 -123q109 -130 109 -353q0 -4 -2 -28.5t-2 -36.5h-705q0 -168 88 -270.5t250 -102.5q125 0 285 80l55 -94q-12 -16 -100 -53q-123 -47 -250 -47q-211 0 -333 139t-122 366zM219 571h580q0 129 -58 222q-72 111 -202 110 q-131 0 -221.5 -90t-98.5 -242zM275 1282l55 121l424 -205l-41 -80z" />
<glyph unicode="&#xe9;" horiz-adv-x="1011" d="M88 485q0 238 122 380.5t327 142.5q174 0 278 -123q109 -130 109 -353q0 -4 -2 -28.5t-2 -36.5h-705q0 -168 88 -270.5t250 -102.5q125 0 285 80l55 -94q-12 -16 -100 -53q-123 -47 -250 -47q-211 0 -333 139t-122 366zM219 571h580q0 129 -58 222q-72 111 -202 110 q-131 0 -221.5 -90t-98.5 -242zM291 1198l424 205l55 -121l-438 -164z" />
<glyph unicode="&#xea;" horiz-adv-x="1011" d="M88 485q0 238 122 380.5t327 142.5q174 0 278 -123q109 -130 109 -353q0 -4 -2 -28.5t-2 -36.5h-705q0 -168 88 -270.5t250 -102.5q125 0 285 80l55 -94q-12 -16 -100 -53q-123 -47 -250 -47q-211 0 -333 139t-122 366zM211 1200l315 203l311 -203l-53 -80l-258 142 l-258 -142zM219 571h580q0 129 -58 222q-72 111 -202 110q-131 0 -221.5 -90t-98.5 -242z" />
<glyph unicode="&#xeb;" horiz-adv-x="1011" d="M88 485q0 238 122 380.5t327 142.5q174 0 278 -123q109 -130 109 -353q0 -4 -2 -28.5t-2 -36.5h-705q0 -168 88 -270.5t250 -102.5q125 0 285 80l55 -94q-12 -16 -100 -53q-123 -47 -250 -47q-211 0 -333 139t-122 366zM219 571h580q0 129 -58 222q-72 111 -202 110 q-131 0 -221.5 -90t-98.5 -242zM281 1260q0 39 26.5 65.5t65.5 26.5t65.5 -26.5t26.5 -65.5t-26.5 -66t-65.5 -27t-65.5 27t-26.5 66zM592 1260q0 39 26.5 65.5t65.5 26.5t65.5 -26.5t26.5 -65.5t-26.5 -66t-65.5 -27t-65.5 27t-26.5 66z" />
<glyph unicode="&#xec;" horiz-adv-x="409" d="M-33 1282l55 121l424 -205l-41 -80zM143 0v983h123v-983h-123z" />
<glyph unicode="&#xed;" horiz-adv-x="409" d="M-35 1198l424 205l55 -121l-438 -164zM143 0v983h123v-983h-123z" />
<glyph unicode="&#xee;" horiz-adv-x="409" d="M-104 1200l315 203l311 -203l-53 -80l-258 142l-258 -142zM143 0v983h123v-983h-123z" />
<glyph unicode="&#xef;" horiz-adv-x="409" d="M-41 1260q0 39 26.5 65.5t65.5 26.5t65.5 -26.5t26.5 -65.5t-26.5 -66t-65.5 -27t-65.5 27t-26.5 66zM143 0v983h123v-983h-123zM270 1260q0 39 26.5 65.5t65.5 26.5t65.5 -26.5t26.5 -65.5t-26.5 -66t-65.5 -27t-65.5 27t-26.5 66z" />
<glyph unicode="&#xf0;" horiz-adv-x="1036" d="M88 485q-8 231 100.5 372.5t300.5 148.5q145 4 312 -97q-23 221 -183 361l-251 -123l-52 92l199 96q-135 74 -354 82l8 107q295 -8 481 -123l191 92l51 -92l-152 -74q209 -196 209 -655q0 -319 -115.5 -504.5t-316.5 -194.5q-186 -6 -303 134.5t-125 377.5zM217 483 q6 -182 87 -289.5t208 -103.5q143 4 224 153.5t81 409.5q0 39 -4 117q-61 55 -150.5 89t-166.5 32q-133 -4 -209 -114.5t-70 -293.5z" />
<glyph unicode="&#xf1;" horiz-adv-x="1030" d="M143 0v983h117v-72q154 96 324 97q145 0 227 -82q61 -61 80 -156q10 -53 10 -178v-592h-123v573q0 117 -6 160q-12 72 -51 111q-55 55 -154 55q-92 0 -202 -47q-82 -33 -99 -49v-803h-123zM209 1251q104 88 198 88q41 0 115 -23.5t111 -23.5q78 0 141 56l59 -82 q-92 -92 -202 -92q-39 0 -113 22.5t-113 22.5q-61 0 -137 -48z" />
<glyph unicode="&#xf2;" horiz-adv-x="1071" d="M88 492q0 236 122 376t333 140q201 0 320.5 -140.5t119.5 -384.5q0 -231 -122 -369.5t-329 -138.5q-201 0 -322.5 140.5t-121.5 376.5zM215 496q0 -184 91 -298t231 -114q150 0 234.5 108.5t84.5 294.5q0 182 -91 298t-230 116q-145 0 -232.5 -110.5t-87.5 -294.5z M285 1282l55 121l424 -205l-41 -80z" />
<glyph unicode="&#xf3;" horiz-adv-x="1071" d="M88 492q0 236 122 376t333 140q201 0 320.5 -140.5t119.5 -384.5q0 -231 -122 -369.5t-329 -138.5q-201 0 -322.5 140.5t-121.5 376.5zM215 496q0 -184 91 -298t231 -114q150 0 234.5 108.5t84.5 294.5q0 182 -91 298t-230 116q-145 0 -232.5 -110.5t-87.5 -294.5z M301 1198l424 205l55 -121l-438 -164z" />
<glyph unicode="&#xf4;" horiz-adv-x="1071" d="M88 492q0 236 122 376t333 140q201 0 320.5 -140.5t119.5 -384.5q0 -231 -122 -369.5t-329 -138.5q-201 0 -322.5 140.5t-121.5 376.5zM215 496q0 -184 91 -298t231 -114q150 0 234.5 108.5t84.5 294.5q0 182 -91 298t-230 116q-145 0 -232.5 -110.5t-87.5 -294.5z M226 1200l315 203l311 -203l-53 -80l-258 142l-258 -142z" />
<glyph unicode="&#xf5;" horiz-adv-x="1071" d="M88 492q0 236 122 376t333 140q201 0 320.5 -140.5t119.5 -384.5q0 -231 -122 -369.5t-329 -138.5q-201 0 -322.5 140.5t-121.5 376.5zM215 496q0 -184 91 -298t231 -114q150 0 234.5 108.5t84.5 294.5q0 182 -91 298t-230 116q-145 0 -232.5 -110.5t-87.5 -294.5z M228 1251q104 88 198 88q41 0 115 -23.5t111 -23.5q78 0 141 56l59 -82q-92 -92 -202 -92q-39 0 -113 22.5t-113 22.5q-61 0 -137 -48z" />
<glyph unicode="&#xf6;" horiz-adv-x="1071" d="M88 492q0 236 122 376t333 140q201 0 320.5 -140.5t119.5 -384.5q0 -231 -122 -369.5t-329 -138.5q-201 0 -322.5 140.5t-121.5 376.5zM215 496q0 -184 91 -298t231 -114q150 0 234.5 108.5t84.5 294.5q0 182 -91 298t-230 116q-145 0 -232.5 -110.5t-87.5 -294.5z M285 1260q0 39 26.5 65.5t65.5 26.5t65.5 -26.5t26.5 -65.5t-26.5 -66t-65.5 -27t-65.5 27t-26.5 66zM596 1260q0 39 26.5 65.5t65.5 26.5t65.5 -26.5t26.5 -65.5t-26.5 -66t-65.5 -27t-65.5 27t-26.5 66z" />
<glyph unicode="&#xf7;" d="M121 465v108h973v-108h-973zM514 92q0 39 26.5 65.5t65.5 26.5t66.5 -26.5t27.5 -65.5t-26.5 -65.5t-65.5 -26.5t-66.5 26.5t-27.5 65.5zM514 950q0 39 26.5 65.5t65.5 26.5t66.5 -26.5t27.5 -65.5t-26.5 -65.5t-65.5 -26.5t-66.5 26.5t-27.5 65.5z" />
<glyph unicode="&#xf8;" horiz-adv-x="1071" d="M88 492q0 236 123 376t332 140q78 0 149 -25q57 -18 68 -33l78 129l90 -55l-82 -139q137 -138 137 -402q0 -231 -122 -369.5t-329 -138.5q-106 0 -192 43l-74 -124l-92 53l76 129q-162 141 -162 416zM215 496q0 -186 100 -310l385 660q-63 55 -165 55 q-147 0 -233.5 -110.5t-86.5 -294.5zM399 119q61 -35 138 -35q152 0 235.5 108.5t83.5 294.5q0 176 -78 279z" />
<glyph unicode="&#xf9;" horiz-adv-x="1030" d="M129 422v561h123v-586q0 -193 58.5 -251t152.5 -58q92 0 199 45q51 27 102 51v799h123v-983h-113v78q-147 -98 -319 -98q-150 0 -238 88q-63 63 -82 172q-6 45 -6 182zM246 1282l55 121l424 -205l-41 -80z" />
<glyph unicode="&#xfa;" horiz-adv-x="1030" d="M129 422v561h123v-586q0 -193 58.5 -251t152.5 -58q92 0 199 45q51 27 102 51v799h123v-983h-113v78q-147 -98 -319 -98q-150 0 -238 88q-63 63 -82 172q-6 45 -6 182zM271 1198l424 205l55 -121l-438 -164z" />
<glyph unicode="&#xfb;" horiz-adv-x="1030" d="M129 422v561h123v-586q0 -193 58.5 -251t152.5 -58q92 0 199 45q51 27 102 51v799h123v-983h-113v78q-147 -98 -319 -98q-150 0 -238 88q-63 63 -82 172q-6 45 -6 182zM199 1200l315 203l311 -203l-53 -80l-258 142l-258 -142z" />
<glyph unicode="&#xfc;" horiz-adv-x="1030" d="M129 422v561h123v-586q0 -193 58.5 -251t152.5 -58q92 0 199 45q51 27 102 51v799h123v-983h-113v78q-147 -98 -319 -98q-150 0 -238 88q-63 63 -82 172q-6 45 -6 182zM264 1260q0 39 26.5 65.5t65.5 26.5t65.5 -26.5t26.5 -65.5t-26.5 -66t-65.5 -27t-65.5 27t-26.5 66z M575 1260q0 39 26.5 65.5t65.5 26.5t65.5 -26.5t26.5 -65.5t-26.5 -66t-65.5 -27t-65.5 27t-26.5 66z" />
<glyph unicode="&#xfd;" horiz-adv-x="989" d="M-41 -430l33 100q86 -25 139 -24q102 0 162.5 60.5t144.5 268.5l-405 1008h135l338 -850l305 850h127l-389 -1053q-78 -211 -170 -303t-244 -92q-72 0 -176 35zM248 1198l424 205l55 -121l-438 -164z" />
<glyph unicode="&#xfe;" horiz-adv-x="1060" d="M143 -436v1911h117v-560q123 92 283 93q193 0 311.5 -136.5t118.5 -359.5q0 -236 -135.5 -384t-348.5 -148q-135 0 -223 55v-471h-123zM266 154q119 -66 226 -66q160 0 257 117.5t97 310.5q0 170 -88 276.5t-228 106.5q-150 0 -264 -96v-649z" />
<glyph unicode="&#xff;" horiz-adv-x="989" d="M-41 -430l33 100q86 -25 139 -24q102 0 162.5 60.5t144.5 268.5l-405 1008h135l338 -850l305 850h127l-389 -1053q-78 -211 -170 -303t-244 -92q-72 0 -176 35zM254 1260q0 39 26.5 65.5t65.5 26.5t65.5 -26.5t26.5 -65.5t-26.5 -66t-65.5 -27t-65.5 27t-26.5 66z M565 1260q0 39 26.5 65.5t65.5 26.5t65.5 -26.5t26.5 -65.5t-26.5 -66t-65.5 -27t-65.5 27t-26.5 66z" />
<glyph unicode="&#x152;" horiz-adv-x="1800" d="M113 676q0 319 196 516q111 111 260 147q109 27 326 27h772v-111h-592v-485h555v-108h-555v-549h608v-113h-741q-223 0 -336 23q-184 37 -297 147q-197 195 -196 506zM246 672q0 -266 162 -428q86 -86 208 -113q98 -23 322 -22h8v1148h-59q-176 0 -266 -20 q-129 -31 -222 -123q-154 -154 -153 -442z" />
<glyph unicode="&#x153;" horiz-adv-x="1775" d="M88 492q0 236 123 376t332 140q248 0 377 -226q61 92 88 117q117 109 292 109q174 0 279 -123q109 -130 109 -353q0 -4 -2.5 -28.5t-2.5 -36.5h-704q0 -168 88 -270.5t250 -102.5q125 0 285 80l55 -94q-12 -16 -101 -53q-123 -47 -249 -47q-158 0 -271 81 q-78 57 -114 136q-23 -33 -45 -66q-51 -63 -121 -102q-96 -53 -221 -54q-203 0 -325 140.5t-122 376.5zM215 496q0 -184 91 -298t231 -114q150 0 234.5 108.5t84.5 294.5q0 182 -91 298t-230 116q-145 0 -232.5 -110.5t-87.5 -294.5zM983 571h580q0 129 -58 222 q-72 111 -202 110q-131 0 -221.5 -90t-98.5 -242z" />
<glyph unicode="&#x178;" horiz-adv-x="1107" d="M53 1366h144l364 -700l361 700h133l-437 -827v-539h-129v539zM314 1577q0 39 26.5 65.5t65.5 26.5t65.5 -26.5t26.5 -65.5t-26.5 -66t-65.5 -27t-65.5 27t-26.5 66zM625 1577q0 39 26.5 65.5t65.5 26.5t65.5 -26.5t26.5 -65.5t-26.5 -66t-65.5 -27t-65.5 27t-26.5 66z " />
<glyph unicode="&#x2c6;" horiz-adv-x="778" d="M76 1200l315 203l311 -203l-53 -80l-258 142l-258 -142z" />
<glyph unicode="&#x2dc;" horiz-adv-x="776" d="M76 1251q104 88 198 88q41 0 115 -23.5t111 -23.5q78 0 141 56l59 -82q-92 -92 -202 -92q-39 0 -113 22.5t-113 22.5q-61 0 -137 -48z" />
<glyph unicode="&#x2000;" horiz-adv-x="935" />
<glyph unicode="&#x2001;" horiz-adv-x="1870" />
<glyph unicode="&#x2002;" horiz-adv-x="935" />
<glyph unicode="&#x2003;" horiz-adv-x="1870" />
<glyph unicode="&#x2004;" horiz-adv-x="623" />
<glyph unicode="&#x2005;" horiz-adv-x="467" />
<glyph unicode="&#x2006;" horiz-adv-x="311" />
<glyph unicode="&#x2007;" horiz-adv-x="311" />
<glyph unicode="&#x2008;" horiz-adv-x="233" />
<glyph unicode="&#x2009;" horiz-adv-x="374" />
<glyph unicode="&#x200a;" horiz-adv-x="103" />
<glyph unicode="&#x2010;" horiz-adv-x="1003" d="M174 465v108h655v-108h-655z" />
<glyph unicode="&#x2011;" horiz-adv-x="1003" d="M174 465v108h655v-108h-655z" />
<glyph unicode="&#x2012;" horiz-adv-x="1003" d="M174 465v108h655v-108h-655z" />
<glyph unicode="&#x2013;" horiz-adv-x="1318" d="M174 465v108h971v-108h-971z" />
<glyph unicode="&#x2014;" horiz-adv-x="2035" d="M174 465v108h1688v-108h-1688z" />
<glyph unicode="&#x2018;" horiz-adv-x="403" d="M72 995q0 223 176 400l84 -64q-113 -152 -113 -336h-147z" />
<glyph unicode="&#x2019;" horiz-adv-x="403" d="M72 1030q113 152 112 336h148q0 -223 -176 -399z" />
<glyph unicode="&#x201a;" horiz-adv-x="403" d="M72 -180q113 152 112 336h148q0 -223 -176 -400z" />
<glyph unicode="&#x201c;" horiz-adv-x="673" d="M72 995q0 223 176 400l84 -64q-113 -152 -113 -336h-147zM342 995q0 223 176 400l84 -64q-113 -152 -113 -336h-147z" />
<glyph unicode="&#x201d;" horiz-adv-x="673" d="M72 1030q113 152 112 336h148q0 -223 -176 -399zM342 1030q113 152 113 336h147q0 -223 -176 -399z" />
<glyph unicode="&#x201e;" horiz-adv-x="673" d="M72 -180q113 152 112 336h148q0 -223 -176 -400zM342 -180q113 152 113 336h147q0 -223 -176 -400z" />
<glyph unicode="&#x2022;" horiz-adv-x="1122" d="M393 518q0 68 50.5 118t117.5 50q70 0 119 -50t49 -118q0 -70 -48 -119t-120 -49q-68 0 -118 49.5t-50 118.5z" />
<glyph unicode="&#x2026;" horiz-adv-x="1327" d="M129 76q0 39 26.5 65.5t65.5 26.5t65.5 -26.5t26.5 -65.5t-26.5 -65.5t-65.5 -26.5t-65.5 26.5t-26.5 65.5zM571 76q0 39 27 65.5t66 26.5t65.5 -26.5t26.5 -65.5t-27 -65.5t-65 -26.5q-39 0 -66 26.5t-27 65.5zM1014 76q0 39 26.5 65.5t65.5 26.5t65.5 -26.5t26.5 -65.5 t-26.5 -65.5t-65.5 -26.5t-65.5 26.5t-26.5 65.5z" />
<glyph unicode="&#x202f;" horiz-adv-x="374" />
<glyph unicode="&#x2039;" horiz-adv-x="632" d="M129 506l283 387l90 -59l-199 -328l199 -336l-90 -59z" />
<glyph unicode="&#x203a;" horiz-adv-x="632" d="M131 170l199 336l-199 328l90 59l283 -387l-283 -395z" />
<glyph unicode="&#x205f;" horiz-adv-x="467" />
<glyph unicode="&#x20ac;" d="M66 516v100h131q-2 39 -2 76q0 20 2 58h-131v100h137q0 139 92 299q143 244 422 244q117 0 229 -54q68 -33 94 -59l-61 -88q-127 90 -258 90q-221 0 -324 -199q-61 -119 -61 -233h534v-100h-542q-2 -27 -2 -74q0 -25 2 -60h542v-100h-534q0 -113 61 -231 q100 -195 314 -195q133 0 303 107l63 -88q-166 -133 -364 -134q-279 0 -418 232q-92 154 -92 309h-137z" />
<glyph unicode="&#x2122;" horiz-adv-x="1488" d="M61 1280v86h519v-86h-209v-639h-99v639h-211zM610 641l82 725h105l207 -555l198 555h107l84 -725h-107l-57 526l-191 -526h-82l-190 526l-55 -526h-101z" />
<glyph unicode="&#x25fc;" horiz-adv-x="983" d="M0 0v983h983v-983h-983z" />
</font>
</defs>
</svg>
