<?xml version="1.0" standalone="no"?>
<!DOCTYPE svg PUBLIC "-//W3C//DTD SVG 1.1//EN" "http://www.w3.org/Graphics/SVG/1.1/DTD/svg11.dtd" >
<svg xmlns="http://www.w3.org/2000/svg">
<metadata></metadata>
<defs>
<font id="foundrysterling-demiregular" horiz-adv-x="1284" >
<font-face units-per-em="2048" ascent="1638" descent="-410" />
<missing-glyph horiz-adv-x="487" />
<glyph horiz-adv-x="0" />
<glyph unicode="&#xd;" horiz-adv-x="1060" />
<glyph unicode=" "  horiz-adv-x="487" />
<glyph unicode="&#x09;" horiz-adv-x="487" />
<glyph unicode="&#xa0;" horiz-adv-x="487" />
<glyph unicode="!" horiz-adv-x="727" d="M221 129q0 59 42 101t102 42q59 0 101 -42t42 -101t-42 -101t-101 -42t-101.5 42t-42.5 101zM233 1366h261l-35 -977h-189z" />
<glyph unicode="&#x22;" horiz-adv-x="763" d="M100 1366h246l-29 -502h-188zM418 1366h246l-29 -502h-189z" />
<glyph unicode="#" horiz-adv-x="1214" d="M145 551l21 158h182l29 196h-184l20 158h184l43 303h156l-43 -303h182l43 303h156l-43 -303h180l-20 -158h-181l-28 -196h180l-21 -158h-180l-49 -336h-156l50 336h-183l-49 -336h-155l49 336h-183zM504 709h182l29 196h-183z" />
<glyph unicode="$" d="M145 133l111 162q180 -113 330 -113q119 0 183.5 53.5t64.5 143.5q0 88 -95 149q-31 18 -196 88q-156 66 -217 115q-137 106 -138 273q0 158 115 262q98 88 244 108v187h170v-183q221 -14 350 -139l-113 -147q-133 100 -286 100q-106 0 -174 -47t-68 -123q0 -72 61 -115 q43 -31 199 -94q193 -78 272 -147q123 -105 123 -269q0 -172 -110 -282q-100 -98 -254 -121v-211h-170v203q-147 8 -283 73q-88 43 -119 74z" />
<glyph unicode="%" horiz-adv-x="1542" d="M92 1032q0 168 82 268.5t225 100.5q139 0 223.5 -99.5t84.5 -261.5q0 -170 -82 -269t-228 -99q-141 0 -223 98t-82 262zM231 0l951 1440l125 -84l-951 -1440zM246 1032q0 -233 149 -233q160 -1 160 237t-152 238q-158 0 -157 -242zM836 328q0 168 81.5 268t225.5 100 q139 0 223 -99t84 -261q0 -170 -83 -268.5t-228 -98.5q-141 0 -222 97.5t-81 261.5zM987 328q0 -233 152 -234q157 0 157 238t-151 237q-158 0 -158 -241z" />
<glyph unicode="&#x26;" horiz-adv-x="1411" d="M100 393q0 162 109 271q70 70 164 116q-135 174 -135 283q0 143 112.5 236.5t278.5 93.5q158 0 257 -84t99 -219q0 -205 -305 -359l285 -317q31 39 59 125q33 104 37 202h194q-2 -150 -59 -301q-39 -106 -88 -170q84 -86 199 -92v-178l-33 -2q-102 0 -170 25.5t-139 99.5 q-172 -147 -406 -148q-195 0 -327 120t-132 298zM319 399q0 -100 73 -166.5t186 -66.5q126 0 249 94l-335 383q-172 -90 -173 -244zM457 1069q0 -72 108 -203q209 96 209 219q0 133 -145 134q-78 0 -125 -42t-47 -108z" />
<glyph unicode="'" horiz-adv-x="446" d="M100 1366h246l-29 -502h-188z" />
<glyph unicode="(" horiz-adv-x="849" d="M141 608q0 342 205 619q127 172 289 274l119 -145q-133 -104 -226 -250q-143 -227 -143 -498q0 -438 369 -745l-119 -146q-494 340 -494 891z" />
<glyph unicode=")" horiz-adv-x="849" d="M96 -137q369 307 369 745q0 270 -143 498q-92 145 -226 250l119 145q162 -102 289 -274q205 -277 205 -619q0 -551 -494 -891z" />
<glyph unicode="*" horiz-adv-x="894" d="M104 1069l52 152l209 -74v219h165v-219l209 74l52 -152l-220 -70l154 -204l-131 -93l-145 197l-148 -197l-129 93l152 204z" />
<glyph unicode="+" horiz-adv-x="1286" d="M131 438v189h416v417h190v-417h418v-189h-418v-418h-190v418h-416z" />
<glyph unicode="," horiz-adv-x="600" d="M80 -164q147 180 147 338v62h238q2 -23 2 -50q0 -285 -260 -467z" />
<glyph unicode="-" horiz-adv-x="1011" d="M160 438v189h692v-189h-692z" />
<glyph unicode="." horiz-adv-x="540" d="M127 129q0 59 42 101t101 42t101.5 -42t42.5 -101t-42 -101t-102 -42q-59 0 -101 42t-42 101z" />
<glyph unicode="/" horiz-adv-x="999" d="M82 -254l625 1684l172 -64l-625 -1683z" />
<glyph unicode="0" d="M96 688q0 324 146.5 516.5t396.5 192.5q254 0 401.5 -192.5t147.5 -516.5q0 -334 -144.5 -525.5t-402.5 -191.5q-256 0 -400.5 192.5t-144.5 524.5zM330 680q0 -250 81 -383t226 -133q152 0 234.5 133t82.5 385q0 254 -81.5 388t-227.5 134q-150 0 -232.5 -135 t-82.5 -389z" />
<glyph unicode="1" d="M195 1049l473 317h184v-1366h-234v1092l-313 -209z" />
<glyph unicode="2" d="M147 1200q37 49 123 103q154 94 338 94q197 0 323 -114t126 -304q0 -143 -82 -277q-61 -100 -197 -235q-184 -184 -299 -270h602v-197h-919v176q168 135 401 369q258 258 258 426q0 106 -64.5 167.5t-172.5 61.5q-158 0 -316 -139z" />
<glyph unicode="3" d="M139 121l109 149q78 -49 88 -55q100 -49 207 -49q137 0 211.5 60.5t74.5 162.5q0 90 -61 148q-76 70 -293 69h-43v189h31q109 0 158 10q84 16 137 72q49 49 49 127q0 86 -65.5 142t-174.5 56q-158 0 -293 -117l-112 136q31 41 114 90q143 86 324 86q193 0 313.5 -104.5 t120.5 -272.5q0 -109 -59 -199q-68 -98 -172 -114q121 -14 190.5 -102.5t69.5 -209.5q0 -193 -134 -308.5t-362 -115.5q-178 0 -315 70q-80 39 -113 80z" />
<glyph unicode="4" d="M106 287v168l654 911h231v-889h174v-190h-174v-287h-221v287h-664zM352 477h418v600z" />
<glyph unicode="5" d="M141 115l111 149q145 -96 291 -96q139 0 221 71.5t82 198.5q0 121 -72 193q-80 80 -231 80q-127 0 -226 -64l-79 49v670h794v-192h-577v-306q68 29 170 29q207 0 330.5 -120.5t123.5 -317.5q0 -223 -141 -355.5t-381 -132.5q-172 0 -307 68q-80 41 -109 76z" />
<glyph unicode="6" d="M141 653q0 328 142 527q154 217 432 217q168 0 297 -62q76 -37 106 -71l-100 -152q-133 94 -283 94q-188 0 -284 -133q-84 -115 -95 -309v-45q41 94 141.5 149.5t211.5 55.5q199 0 320.5 -130t121.5 -331q0 -215 -135 -353.5t-352 -138.5q-250 0 -392 199 q-131 184 -131 483zM403 449q0 -125 76 -204t195 -79q117 0 188.5 82t71.5 207q0 123 -68.5 198.5t-185.5 75.5q-123 0 -200 -80t-77 -200z" />
<glyph unicode="7" d="M127 1169v197h975v-180l-543 -1186h-252l549 1169h-729z" />
<glyph unicode="8" d="M137 383q0 123 66.5 215t181.5 115q-100 29 -154 112q-51 78 -51 183q0 176 127 282.5t334 106.5q209 0 337 -105.5t128 -279.5q0 -111 -54.5 -192t-148.5 -107q244 -60 244 -330q0 -190 -136.5 -301t-363.5 -111q-231 0 -370.5 111t-139.5 301zM360 393 q0 -106 76 -170.5t213 -64.5q131 0 204 64.5t73 168.5t-74 164.5t-207 60.5q-135 0 -210 -60t-75 -163zM399 1006q0 -92 68 -151.5t180 -59.5q109 0 174.5 58.5t65.5 150.5q0 90 -65.5 148t-178.5 58q-111 0 -177.5 -59t-66.5 -145z" />
<glyph unicode="9" d="M133 905q0 215 135 353.5t353 138.5q250 0 391 -199q131 -184 131 -483q0 -328 -139 -527q-154 -217 -433 -217q-168 0 -299 62q-78 39 -106 71l102 152q135 -96 283 -96q188 0 285 135q82 113 92 309q0 14 2 43q-41 -94 -146 -149q-96 -53 -209 -54q-199 0 -320.5 130.5 t-121.5 330.5zM350 913q0 -123 68.5 -198.5t185.5 -75.5q123 0 201 80t78 201q0 123 -77 202.5t-196 79.5q-117 0 -188.5 -82t-71.5 -207z" />
<glyph unicode=":" horiz-adv-x="540" d="M127 129q0 59 42 101t101 42t101.5 -42t42.5 -101t-42 -101t-102 -42q-59 0 -101 42t-42 101zM127 868q0 59 42 101.5t101 42.5t101.5 -42.5t42.5 -101.5t-42 -101t-102 -42q-59 0 -101 42t-42 101z" />
<glyph unicode=";" horiz-adv-x="600" d="M80 -164q147 180 147 338v62h238q2 -23 2 -50q0 -285 -260 -467zM188 868q0 59 42 101.5t102 42.5q59 0 101 -42.5t42 -101.5t-42 -101t-101 -42t-101.5 42t-42.5 101z" />
<glyph unicode="&#x3c;" horiz-adv-x="1286" d="M121 461v145l969 449l75 -174l-755 -349l755 -352l-75 -170z" />
<glyph unicode="=" horiz-adv-x="1286" d="M106 274v189h1074v-189h-1074zM106 602v189h1074v-189h-1074z" />
<glyph unicode="&#x3e;" horiz-adv-x="1286" d="M121 180l756 352l-756 349l76 174l968 -449v-145l-968 -451z" />
<glyph unicode="?" horiz-adv-x="1071" d="M102 1249q37 33 129 78q150 70 297 70q188 0 307 -102.5t119 -272.5q0 -154 -108 -262q-43 -43 -140.5 -107.5t-109.5 -77.5q-37 -37 -37 -167v-19h-199q-8 84 -8 111q0 123 58 180q33 33 117.5 90t123.5 96q66 66 66 152q0 84 -59.5 136t-163.5 52q-145 0 -295 -104z M315 129q0 59 42 101t102 42q59 0 101 -42t42 -101t-42 -101t-101 -42t-101.5 42t-42.5 101z" />
<glyph unicode="@" horiz-adv-x="1634" d="M96 631q0 324 227.5 539.5t567.5 215.5q279 0 463 -154t184 -390q0 -221 -157.5 -359.5t-405.5 -138.5q-20 0 -55 4l14 88q-123 -94 -223 -94q-111 0 -178.5 73.5t-67.5 190.5q0 190 136 321.5t337 131.5q109 0 238 -47l-105 -533q57 10 88 23q74 27 131 84q96 96 96 252 q0 178 -138 291.5t-359 113.5q-274 0 -452.5 -174t-178.5 -442q0 -231 150.5 -369.5t390.5 -138.5q205 0 428 131l76 -115q-233 -162 -523 -162q-295 0 -489.5 184.5t-194.5 473.5zM621 612q0 -59 32.5 -99t81.5 -40q86 0 197 98l69 353q-49 8 -61 8q-129 0 -224 -95.5 t-95 -224.5z" />
<glyph unicode="A" horiz-adv-x="1296" d="M29 0l497 1366h244l498 -1366h-246l-109 319h-536l-109 -319h-239zM438 506h412l-207 608z" />
<glyph unicode="B" horiz-adv-x="1196" d="M156 0v1366h411q135 0 207 -16q100 -23 168 -90q104 -104 105 -263q0 -231 -207 -297q254 -53 254 -297q0 -170 -103 -272q-88 -88 -227 -115q-88 -16 -295 -16h-313zM383 188h139q203 0 279 76q53 53 53 137q0 80 -55 136q-47 47 -137 59q-43 6 -175 6h-104v-414z M383 782h98q207 0 279 66q55 51 55 137q0 80 -47 131q-43 45 -125 58q-37 6 -149 6h-111v-398z" />
<glyph unicode="C" horiz-adv-x="1302" d="M100 672q0 334 205 532q195 193 498 193q176 0 319 -68q90 -41 123 -78l-104 -159q-154 102 -326 102q-203 0 -334 -133q-137 -139 -137 -371q0 -233 124 -372.5t333 -139.5q158 0 352 107l100 -162q-37 -39 -135 -82q-160 -70 -342 -70q-293 0 -481 187 q-195 193 -195 514z" />
<glyph unicode="D" horiz-adv-x="1419" d="M156 0v1366h350q231 0 340 -25q166 -37 282 -153q191 -191 191 -494q0 -309 -191 -499q-125 -125 -309 -166q-123 -29 -362 -29h-301zM393 190h162q274 0 403 138q123 130 123 372q0 227 -131 359q-80 80 -194 104q-78 16 -254 17h-109v-990z" />
<glyph unicode="E" horiz-adv-x="1064" d="M156 0v1366h792v-192h-559v-373h524v-189h-524v-415h576v-197h-809z" />
<glyph unicode="F" horiz-adv-x="1021" d="M156 0v1366h778v-192h-543v-373h512v-191h-512v-610h-235z" />
<glyph unicode="G" horiz-adv-x="1404" d="M100 672q0 334 203 532q195 193 498 193q178 0 323 -66q84 -39 119 -76l-102 -159q-137 98 -328 98q-203 0 -334 -133q-137 -139 -137 -371q0 -236 124 -377t343 -141q137 0 235 41v293h-274v182h500v-602q-233 -117 -498 -117q-291 0 -477 187q-195 195 -195 516z" />
<glyph unicode="H" horiz-adv-x="1349" d="M156 0v1366h237v-555h563v555h238v-1366h-238v614h-563v-614h-237z" />
<glyph unicode="I" horiz-adv-x="548" d="M156 0v1366h237v-1366h-237z" />
<glyph unicode="J" horiz-adv-x="806" d="M14 59l82 166q96 -49 170 -49t113 37q49 47 49 211v942h238v-922q0 -139 -13 -202q-20 -109 -88 -176q-94 -94 -264 -95q-104 0 -203 41q-57 25 -84 47z" />
<glyph unicode="K" horiz-adv-x="1208" d="M156 0v1366h237v-639l502 639h262l-539 -666l566 -700h-285l-506 643v-643h-237z" />
<glyph unicode="L" horiz-adv-x="1030" d="M156 0v1366h237v-1169h549v-197h-786z" />
<glyph unicode="M" horiz-adv-x="1779" d="M129 0l133 1366h258l373 -1053l358 1053h258l142 -1366h-228l-94 1032l-350 -1032h-195l-360 1032l-84 -1032h-211z" />
<glyph unicode="N" horiz-adv-x="1347" d="M156 0v1366h223l602 -997l-6 997h217v-1366h-215l-610 999l6 -999h-217z" />
<glyph unicode="O" horiz-adv-x="1495" d="M100 686q0 315 181.5 513t470.5 198q287 0 465 -197t178 -508q0 -324 -180.5 -522.5t-466.5 -198.5q-285 0 -466.5 199t-181.5 516zM344 680q0 -229 114.5 -368.5t293.5 -139.5q199 0 305 162q94 141 94 362q0 223 -114.5 363.5t-297.5 140.5q-178 0 -286.5 -144.5 t-108.5 -375.5z" />
<glyph unicode="P" horiz-adv-x="1181" d="M156 0v1366h364q166 0 248 -18q119 -25 193 -99q112 -113 112 -293q0 -188 -117 -305q-86 -86 -211 -112q-76 -16 -253 -17h-103v-522h-233zM389 713h96q223 0 286 62t63 177q0 109 -64 172q-55 55 -252 56h-129v-467z" />
<glyph unicode="Q" horiz-adv-x="1486" d="M100 688q0 315 180.5 512t469.5 197q287 0 466 -198t179 -507q0 -342 -201 -542q-133 -133 -320 -154q96 -102 334 -102q72 0 158 12l29 -160q-115 -29 -242 -29q-360 0 -551 273q-203 35 -342 207q-160 195 -160 491zM344 680q0 -229 114.5 -368.5t293.5 -139.5 q199 0 305 162q94 141 94 362q0 223 -114.5 363.5t-297.5 140.5q-178 0 -286.5 -144.5t-108.5 -375.5z" />
<glyph unicode="R" horiz-adv-x="1189" d="M156 0v1366h327q180 0 248 -12q123 -23 201 -101q110 -110 110 -271q0 -142 -82 -236t-221 -111q63 -6 121 -64q43 -43 117 -206l164 -365h-250l-164 365q-61 137 -117 172q-43 26 -156 26h-8h-57v-563h-233zM389 748h90q197 0 266 69q62 62 62 156q0 96 -51 147 q-41 41 -111 51q-35 6 -145 7h-111v-430z" />
<glyph unicode="S" horiz-adv-x="1095" d="M78 123l106 164q174 -115 320 -115q115 0 178 54.5t63 146.5q0 90 -92 151q-29 18 -190 90q-152 68 -211 117q-133 111 -133 279q0 172 125 279.5t323 107.5q160 0 295 -70q72 -37 111 -76l-111 -151q-129 102 -278 102q-102 0 -168 -48t-66 -126q0 -72 60 -117 q41 -31 192 -96q186 -80 264 -149q119 -109 119 -275q0 -188 -126 -305t-343 -117q-164 0 -311 72q-92 45 -127 82z" />
<glyph unicode="T" horiz-adv-x="1130" d="M59 1174v192h1012v-192h-387v-1174h-238v1174h-387z" />
<glyph unicode="U" horiz-adv-x="1316" d="M141 565v801h238v-854q0 -96 8 -137q14 -74 62 -121q78 -78 217 -78q125 0 200 76q55 55 68 145q8 49 8 238v731h234v-731q0 -215 -19 -309q-27 -129 -108 -211q-143 -143 -392 -144q-248 0 -393 146q-82 82 -106 207q-16 76 -17 241z" />
<glyph unicode="V" horiz-adv-x="1282" d="M45 1366h242l356 -1102l363 1102h231l-477 -1366h-242z" />
<glyph unicode="W" horiz-adv-x="1849" d="M80 1366h233l226 -1092l268 1092h258l258 -1092l231 1092h215l-325 -1366h-260l-254 1102l-266 -1102h-263z" />
<glyph unicode="X" horiz-adv-x="1241" d="M57 0l441 702l-412 664h260l283 -487l286 487h244l-411 -661l436 -705h-256l-312 516l-313 -516h-246z" />
<glyph unicode="Y" horiz-adv-x="1202" d="M55 1366h244l315 -629l312 629h221l-430 -823v-543h-232v543z" />
<glyph unicode="Z" horiz-adv-x="1150" d="M92 0v168l664 1006h-633v192h917v-174l-651 -995h670v-197h-967z" />
<glyph unicode="[" horiz-adv-x="741" d="M156 -256v1622h506v-190h-273v-1242h273v-190h-506z" />
<glyph unicode="\" horiz-adv-x="999" d="M121 1366l172 64l625 -1684l-173 -63z" />
<glyph unicode="]" horiz-adv-x="741" d="M80 -66h272v1242h-272v190h506v-1622h-506v190z" />
<glyph unicode="^" horiz-adv-x="1282" d="M145 504l414 862h170l408 -862h-211l-281 614l-280 -614h-220z" />
<glyph unicode="_" horiz-adv-x="1030" d="M-4 -66h1038v-190h-1038v190z" />
<glyph unicode="`" horiz-adv-x="686" d="M78 1300l88 181l442 -238l-69 -127z" />
<glyph unicode="a" horiz-adv-x="1011" d="M82 295q0 350 563 350h37v39q0 92 -33 125q-45 45 -162 45q-133 0 -270 -78l-78 146q35 31 107 59q119 49 260 49q205 0 311 -106q53 -53 68 -133q10 -51 10 -177v-614h-197v74q-147 -94 -295 -94q-145 0 -233 87t-88 228zM285 305q0 -74 50 -112.5t126 -38.5h3 q95 0 218 67v264h-47q-236 0 -311 -77q-39 -39 -39 -103z" />
<glyph unicode="b" horiz-adv-x="1130" d="M131 49v1432h225v-529q119 76 256 76q190 0 312.5 -137.5t122.5 -368.5q0 -246 -143.5 -397.5t-379.5 -151.5q-166 0 -393 76zM356 184q85 -26 160 -26h6q135 0 216 99t81 263q0 152 -74 240q-70 82 -178 82q-106 0 -211 -72v-586z" />
<glyph unicode="c" horiz-adv-x="997" d="M84 487q0 236 147.5 388.5t372.5 152.5q127 0 236 -51q74 -35 96 -64l-92 -141q-104 70 -226 70q-139 0 -227 -105q-80 -96 -80 -233q0 -152 79 -246t218 -94q113 0 254 76l88 -148q-23 -25 -102 -61q-125 -55 -264 -56q-223 0 -361.5 142.5t-138.5 369.5z" />
<glyph unicode="d" horiz-adv-x="1134" d="M84 487q0 236 140.5 388.5t344.5 152.5q109 0 209 -51v504h226v-1481h-197v72q-135 -96 -277 -97q-201 0 -323.5 142.5t-122.5 369.5zM311 492q0 -150 76 -240t191 -90h3q95 0 197 69v555q-82 53 -176 54q-129 0 -210 -92.5t-81 -255.5z" />
<glyph unicode="e" horiz-adv-x="1071" d="M84 494q0 236 131 385t342 149q203 0 316.5 -137t113.5 -379q0 -18 -2 -46t-2 -34h-678q0 -106 64 -184q78 -92 221 -92q123 0 274 75l78 -147q-154 -109 -371 -109q-229 0 -360 150q-127 141 -127 369zM305 600h469q0 92 -39 160q-57 96 -174 96q-104 0 -173 -70.5 t-83 -185.5z" />
<glyph unicode="f" horiz-adv-x="845" d="M66 815v184h167v86q0 225 103 328q92 92 256 92q100 0 188 -41q60 -27 74 -45l-86 -147q-72 45 -145 45q-76 0 -115 -39q-49 -49 -49 -191v-88h303v-184h-303v-815h-226v815h-167z" />
<glyph unicode="g" horiz-adv-x="1132" d="M84 492q0 229 146.5 382.5t377.5 153.5q182 0 393 -100v-922q0 -133 -14 -196q-23 -90 -88 -158q-125 -125 -354 -125q-166 0 -305 65q-88 39 -121 76l94 148q176 -100 307 -101q125 0 191.5 58.5t66.5 228.5v68q-123 -70 -252 -70q-207 0 -327 147q-115 137 -115 345z M311 502q0 -145 75 -232.5t187 -87.5q115 0 205 68v557q-86 37 -174 37q-129 0 -211 -93.5t-82 -248.5z" />
<glyph unicode="h" horiz-adv-x="1091" d="M131 0v1481h225v-537q133 84 269 84q158 0 249 -92q70 -70 91 -172q12 -61 12 -205v-559h-225v547q0 199 -45 244t-127 45q-104 0 -224 -74v-762h-225z" />
<glyph unicode="i" horiz-adv-x="485" d="M111 1298q0 55 38.5 94.5t94.5 39.5q55 0 93 -39.5t38 -94.5t-38 -93t-93 -38t-94 38t-39 93zM131 0v999h225v-999h-225z" />
<glyph unicode="j" horiz-adv-x="485" d="M-180 -426l57 162q63 -23 100 -23q70 0 112 42t42 159v1085h225v-1069q0 -217 -98 -315q-88 -88 -248 -88q-63 0 -129 20q-47 14 -61 27zM111 1298q0 55 37.5 94.5t93.5 39.5q55 0 94 -39.5t39 -94.5t-39 -93t-94 -38t-93 38t-38 93z" />
<glyph unicode="k" horiz-adv-x="1062" d="M131 0v1481h225v-910l396 428h270l-432 -454l444 -545h-272l-406 504v-504h-225z" />
<glyph unicode="l" horiz-adv-x="487" d="M131 0v1481h225v-1481h-225z" />
<glyph unicode="m" horiz-adv-x="1669" d="M131 0v999h197v-73q139 102 293 102q156 0 245 -113q172 113 332 113q158 0 248 -90q72 -72 94 -186q12 -72 12 -252v-500h-225v565q0 172 -41 221.5t-123 49.5q-104 0 -223 -78q14 -41 14 -228v-530h-223v551q0 195 -47 244q-39 41 -113 41q-111 0 -215 -70v-766h-225z " />
<glyph unicode="n" horiz-adv-x="1093" d="M131 0v999h197v-73q141 102 297 102q158 0 249 -92q70 -70 91 -172q12 -61 12 -205v-559h-225v547q0 199 -45 244t-127 45q-104 0 -224 -74v-762h-225z" />
<glyph unicode="o" horiz-adv-x="1153" d="M84 498q0 236 139 383t363 147q215 0 349 -144.5t134 -377.5q0 -238 -139 -384.5t-363 -146.5q-215 0 -349 144.5t-134 378.5zM311 506q0 -154 76 -249t195 -95q123 0 191.5 91t68.5 245t-76 249t-193 95q-119 0 -190.5 -92.5t-71.5 -243.5z" />
<glyph unicode="p" horiz-adv-x="1136" d="M131 -440v1439h199v-67q117 96 274 96q201 0 324 -142.5t123 -369.5q0 -238 -141.5 -389.5t-344.5 -151.5q-113 0 -209 50v-465h-225zM356 215q82 -53 176 -53q129 0 210 93t81 257q0 150 -78 242q-74 86 -188 86q-119 0 -201 -70v-555z" />
<glyph unicode="q" horiz-adv-x="1132" d="M84 479q0 242 143.5 395.5t376.5 153.5q203 0 397 -88v-1380h-225v493q-117 -78 -252 -78q-190 0 -315 141.5t-125 362.5zM311 483q0 -150 80 -239q74 -82 180 -82h3q117 0 202 71v578q-82 31 -174 31q-131 0 -211 -97.5t-80 -261.5z" />
<glyph unicode="r" horiz-adv-x="821" d="M131 0v999h197v-127q25 39 90 82q109 74 235 74h5q57 0 106 -22l-51 -175q-29 6 -68 7q-182 0 -289 -154v-684h-225z" />
<glyph unicode="s" horiz-adv-x="907" d="M59 80l80 147q148 -77 259 -77h3q84 0 129 34.5t45 87.5t-57 88q-27 18 -158 74q-121 51 -174 96q-90 78 -90 199q0 135 102.5 217t268.5 82q211 0 324 -90l-78 -143q-117 67 -229 67h-3q-159 0 -159 -111q0 -50 51 -85q31 -20 127 -62q152 -63 205 -106 q100 -80 100 -211q0 -145 -106.5 -229.5t-274.5 -84.5q-135 0 -258 50q-76 31 -107 57z" />
<glyph unicode="t" horiz-adv-x="849" d="M43 815v184h174v281h225v-281h295v-184h-295v-471q0 -88 19 -123q29 -57 117 -57q51 0 133 26l57 -157q-94 -59 -233 -60q-158 0 -242 84q-53 53 -68 136q-8 45 -8 172v450h-174z" />
<glyph unicode="u" horiz-adv-x="1093" d="M117 442v557h225v-544q0 -102 4 -136q10 -84 52 -118.5t120 -34.5q86 0 219 74v759h226v-999h-197v76q-137 -102 -297 -103q-158 0 -250 93q-70 70 -90 172q-12 61 -12 204z" />
<glyph unicode="v" horiz-adv-x="1069" d="M33 999h235l271 -753l268 753h219l-385 -999h-225z" />
<glyph unicode="w" horiz-adv-x="1574" d="M63 999h218l186 -757l203 757h219l201 -757l194 757h211l-281 -999h-241l-203 752l-199 -752h-235z" />
<glyph unicode="x" horiz-adv-x="1099" d="M47 0l365 504l-344 495h258l229 -325l221 325h238l-336 -489l366 -510h-256l-249 358l-246 -358h-246z" />
<glyph unicode="y" horiz-adv-x="1118" d="M-23 -418l66 164q86 -33 150 -33q90 0 145 56q47 47 115 223l-416 1007h239l293 -753l271 753h223l-395 -1028q-96 -252 -189 -344q-100 -100 -276 -100q-115 0 -226 55z" />
<glyph unicode="z" horiz-adv-x="1040" d="M96 0v158l531 657h-514v184h792v-163l-522 -648h541v-188h-828z" />
<glyph unicode="{" horiz-adv-x="819" d="M102 498v180q68 8 88 45q16 31 17 125v137q0 211 74 285q96 96 299 96h131v-182h-68q-139 0 -173 -34t-34 -204v-104q0 -195 -69 -238q-20 -14 -50 -16q41 -4 66 -29q53 -53 53 -223v-174q0 -117 2 -127q10 -76 68 -94q41 -14 137 -17l68 -2v-178h-131q-203 0 -299 96 q-74 74 -74 285v203q0 90 -14 121q-20 43 -91 49z" />
<glyph unicode="|" horiz-adv-x="546" d="M156 -256v1622h235v-1622h-235z" />
<glyph unicode="}" horiz-adv-x="819" d="M102 -78l68 2q63 2 92 6q59 8 87 36t28 196v174q0 170 53 223q25 25 66 29q-41 4 -68 30q-51 51 -51 224v104q0 117 -2 131q-12 76 -74 94q-41 12 -131 13h-68v182h131q203 0 299 -96q74 -74 74 -285v-137q0 -94 17 -125q20 -37 88 -45v-180q-70 -6 -90 -49 q-14 -31 -15 -121v-203q0 -211 -74 -285q-96 -96 -299 -96h-131v178z" />
<glyph unicode="~" d="M162 506q96 162 278 162q90 0 222.5 -56.5t191.5 -56.5q66 0 154 92l114 -100q-119 -158 -264 -158q-84 0 -221 57.5t-199 57.5q-68 0 -153 -88z" />
<glyph unicode="&#xa1;" horiz-adv-x="727" d="M221 885q0 59 42 101t102 42q59 0 101 -42t42 -101t-42 -101.5t-101 -42.5t-101.5 42t-42.5 102zM233 -352l37 977h189l35 -977h-261z" />
<glyph unicode="&#xa2;" d="M248 508q0 205 114.5 350.5t299.5 179.5v201h169v-195q98 -8 189 -55q68 -35 80 -55l-92 -141q-104 70 -226 69q-139 0 -227 -104q-82 -96 -82 -234q0 -152 80 -246t219 -94q113 0 254 76l88 -147q-16 -18 -82 -52q-98 -47 -201 -59v-215h-169v215q-188 27 -301 165 t-113 341z" />
<glyph unicode="&#xa3;" d="M184 0v178q197 39 197 279q0 41 -6 100h-187v182h168q-14 115 -14 179q0 223 126 351t345 128q156 0 281 -72q69 -39 104 -82l-111 -137q-133 98 -262 98q-121 0 -189.5 -74.5t-68.5 -211.5q0 -61 15 -179h397v-182h-377q4 -43 4 -78q0 -205 -98 -282h663v-197h-987z" />
<glyph unicode="&#xa5;" d="M100 1366h244l307 -606l312 606h221l-350 -625h217v-155h-295v-127h293v-154h-293v-305h-228v305h-303v154h303v127h-305v155h219z" />
<glyph unicode="&#xa6;" horiz-adv-x="546" d="M156 -256v627h235v-627h-235zM156 743v623h235v-623h-235z" />
<glyph unicode="&#xa7;" horiz-adv-x="1273" d="M229 -184l88 149q145 -84 265 -84q104 0 157.5 43t53.5 111q0 53 -41 94q-35 35 -181.5 94.5t-212.5 122.5q-90 86 -90 205q0 199 199 272q-156 104 -156 254q0 141 101.5 231.5t275.5 90.5q197 0 328 -107l-84 -139q-115 74 -232 74q-180 0 -180 -129q0 -51 36 -85 t193.5 -101.5t215.5 -125.5q82 -81 82 -198q0 -190 -197 -283q152 -86 151 -252q0 -154 -108.5 -253t-298.5 -99q-215 0 -365 115zM467 584q0 -49 35 -84q51 -53 198 -111q148 62 148 168q0 47 -37 84q-49 49 -197 109q-147 -51 -147 -166z" />
<glyph unicode="&#xa8;" horiz-adv-x="765" d="M72 1292q0 53 36.5 90t90.5 37q53 0 89 -37t36 -90t-36 -90t-89 -37t-90 37t-37 90zM442 1292q0 53 37 90t90 37t89 -37t36 -90t-35.5 -90t-89.5 -37q-53 0 -90 37t-37 90z" />
<glyph unicode="&#xa9;" horiz-adv-x="1605" d="M96 682q0 293 208 501t501 208t499.5 -211t206.5 -498q0 -293 -206.5 -500t-499.5 -207t-501 207t-208 500zM254 682q0 -227 162 -387t389 -160t388 160t161 387q0 229 -161 389t-388 160t-389 -162t-162 -387zM453 684q0 174 109.5 286.5t275.5 112.5q156 0 239 -82 l-63 -98q-82 53 -164 53q-109 0 -173.5 -77.5t-64.5 -182.5q0 -117 61.5 -189.5t170.5 -72.5q76 0 184 58l59 -101q-16 -20 -79 -47q-88 -39 -187 -39q-166 0 -267 105.5t-101 273.5z" />
<glyph unicode="&#xaa;" horiz-adv-x="899" d="M133 850q0 262 418 262h20v25q0 66 -22 88q-31 31 -115 30q-100 0 -201 -57l-59 115q96 84 275 84q152 0 231 -80q53 -53 57 -162v-70v-456h-153v49q-100 -66 -211 -66q-109 0 -174.5 65.5t-65.5 172.5zM291 858q0 -106 125 -106q75 0 155 47v186h-28q-172 0 -226 -55 q-27 -27 -26 -72z" />
<glyph unicode="&#xab;" horiz-adv-x="1058" d="M127 502l297 397l139 -94l-176 -303l176 -316l-139 -82zM496 502l297 397l139 -94l-176 -303l176 -316l-139 -82z" />
<glyph unicode="&#xac;" horiz-adv-x="1286" d="M123 629v190h1040v-485h-205v295h-835z" />
<glyph unicode="&#xad;" horiz-adv-x="1011" d="M160 438v189h692v-189h-692z" />
<glyph unicode="&#xae;" horiz-adv-x="1103" d="M96 940q0 190 133 323.5t324 133.5q190 0 322.5 -133.5t132.5 -323.5t-132.5 -321.5t-322.5 -131.5t-323.5 131.5t-133.5 321.5zM203 940q0 -145 101.5 -244.5t248.5 -99.5t248.5 99.5t101.5 244.5t-101.5 246.5t-248.5 101.5q-145 0 -247.5 -101.5t-102.5 -246.5z M393 700v490h137q117 0 156 -39t39 -98q0 -51 -30.5 -84t-78.5 -39q23 0 39.5 -16.5t40.5 -71.5l64 -142h-92l-52 113q-25 55 -45 69.5t-69 14.5h-19v-197h-90zM483 979h39q68 0 88.5 20.5t20.5 47.5t-15 40q-20 20 -73 21h-60v-129z" />
<glyph unicode="&#xaf;" horiz-adv-x="790" d="M78 1217v151h688v-151h-688z" />
<glyph unicode="&#xb0;" horiz-adv-x="1280" d="M330 1092q0 129 90 219t219 90t220 -90t91 -219t-91 -220.5t-220 -91.5t-219 91.5t-90 220.5zM477 1094q0 -72 47 -120t115 -48t116 48t48 120t-48 121t-116 49t-115 -49.5t-47 -120.5z" />
<glyph unicode="&#xb1;" horiz-adv-x="1286" d="M131 0v184h1024v-184h-1024zM131 684v188h416v414h190v-414h418v-188h-418v-412h-190v412h-416z" />
<glyph unicode="&#xb2;" horiz-adv-x="782" d="M147 1286q86 111 242 111q102 0 170 -59.5t68 -159.5q0 -121 -140 -260q-47 -47 -120 -109h272v-125h-481v109q84 70 201.5 186.5t117.5 196.5q0 98 -100 98q-70 0 -156 -76z" />
<glyph unicode="&#xb3;" horiz-adv-x="782" d="M143 750l70 92q84 -57 149 -58q127 0 127 99q0 37 -26 61q-35 33 -133 33h-37v121h31q98 0 133 35q20 20 20 55q0 84 -102 84q-76 0 -146 -62l-75 86q82 100 237 101q100 0 165 -55.5t65 -145.5q0 -129 -127 -154q143 -20 143 -155q0 -102 -71.5 -163.5t-190.5 -61.5 q-92 0 -166 36q-49 25 -66 52z" />
<glyph unicode="&#xb4;" horiz-adv-x="686" d="M78 1243l442 238l88 -181l-461 -184z" />
<glyph unicode="&#xb6;" horiz-adv-x="1441" d="M106 961q0 168 115 282q78 78 209 103q100 20 324 20h557v-192h-146v-1430h-194v1430h-156v-1430h-194v786q-123 4 -191 17q-131 29 -205 102q-119 119 -119 312z" />
<glyph unicode="&#xb7;" horiz-adv-x="540" d="M127 522q0 59 42 101.5t101 42.5t101.5 -42.5t42.5 -101.5t-42 -101t-102 -42q-59 0 -101 42t-42 101z" />
<glyph unicode="&#xb8;" horiz-adv-x="579" d="M106 -406l41 84q45 -29 107 -28q100 0 100 82q0 76 -86 75q-49 0 -86 -24l-63 35l31 182h112l-14 -96q18 6 45 6q82 0 133 -48t51 -126q0 -86 -62.5 -138.5t-146.5 -52.5q-109 0 -162 49z" />
<glyph unicode="&#xb9;" horiz-adv-x="782" d="M162 1210l258 168h112v-702h-145v528l-154 -98z" />
<glyph unicode="&#xba;" horiz-adv-x="903" d="M84 1004q0 174 104.5 283.5t270.5 109.5q160 0 260 -107.5t100 -281.5q0 -176 -103.5 -285t-271.5 -109q-160 0 -260 107.5t-100 282.5zM262 1008q0 -111 54.5 -179.5t138.5 -68.5q86 0 136 65.5t50 178.5q0 111 -54.5 179t-137.5 68q-84 0 -135.5 -66.5t-51.5 -176.5z " />
<glyph unicode="&#xbb;" horiz-adv-x="1058" d="M127 186l176 316l-176 303l139 94l297 -397l-297 -398zM496 186l176 316l-176 303l139 94l297 -397l-297 -398z" />
<glyph unicode="&#xbc;" horiz-adv-x="1560" d="M137 1210l258 168h113v-702h-146v528l-153 -98zM227 0l951 1440l125 -84l-951 -1440zM905 139v107l320 452h137v-436h88v-123h-88v-139h-139v139h-318zM1047 262h176v246z" />
<glyph unicode="&#xbd;" horiz-adv-x="1560" d="M82 1210l258 168h113v-702h-146v528l-153 -98zM172 0l950 1440l125 -84l-950 -1440zM969 602q86 111 241 111q102 0 170 -59.5t68 -159.5q0 -121 -139 -261q-47 -47 -121 -108h272v-125h-481v109q84 70 201.5 186.5t117.5 196.5q0 98 -100 98q-70 0 -156 -76z" />
<glyph unicode="&#xbe;" horiz-adv-x="1560" d="M123 750l70 92q84 -57 149 -58q127 0 127 99q0 37 -27 61q-35 33 -133 33h-37v121h31q98 0 133 35q20 20 21 55q0 84 -103 84q-76 0 -145 -62l-76 86q82 100 238 101q100 0 164.5 -55.5t64.5 -145.5q0 -129 -127 -154q143 -20 143 -155q0 -102 -71.5 -163.5t-190.5 -61.5 q-92 0 -166 36q-49 25 -65 52zM227 0l951 1440l125 -84l-951 -1440zM905 139v107l320 452h137v-436h88v-123h-88v-139h-139v139h-318zM1047 262h176v246z" />
<glyph unicode="&#xbf;" horiz-adv-x="1071" d="M117 -8q0 154 108 262q43 43 140.5 107.5t109.5 76.5q37 37 37 168v19h199q8 -84 8 -111q0 -123 -57 -180q-33 -33 -118 -90.5t-124 -96.5q-66 -66 -66 -151q0 -84 59.5 -136.5t164.5 -52.5q145 0 294 105l97 -148q-37 -33 -129 -77q-150 -70 -297 -70q-188 0 -307 102.5 t-119 272.5zM469 885q0 59 42 101t101 42t101.5 -42t42.5 -101t-42 -101.5t-102 -42.5q-59 0 -101 42t-42 102z" />
<glyph unicode="&#xc0;" horiz-adv-x="1296" d="M29 0l497 1366h244l498 -1366h-246l-109 319h-536l-109 -319h-239zM379 1646l88 181l442 -238l-69 -127zM438 506h412l-207 608z" />
<glyph unicode="&#xc1;" horiz-adv-x="1296" d="M29 0l497 1366h244l498 -1366h-246l-109 319h-536l-109 -319h-239zM348 1589l442 238l88 -181l-461 -184zM438 506h412l-207 608z" />
<glyph unicode="&#xc2;" horiz-adv-x="1296" d="M29 0l497 1366h244l498 -1366h-246l-109 319h-536l-109 -319h-239zM309 1583l336 240l336 -248l-80 -113l-256 146l-256 -144zM438 506h412l-207 608z" />
<glyph unicode="&#xc3;" horiz-adv-x="1296" d="M29 0l497 1366h244l498 -1366h-246l-109 319h-536l-109 -319h-239zM293 1575q141 135 239 135q45 0 116 -28.5t106 -28.5q59 0 139 69l98 -110q-133 -139 -239 -139q-47 0 -118 29.5t-106 29.5q-37 0 -135 -68zM438 506h412l-207 608z" />
<glyph unicode="&#xc4;" horiz-adv-x="1296" d="M29 0l497 1366h244l498 -1366h-246l-109 319h-536l-109 -319h-239zM332 1595q0 53 36.5 90t90.5 37q53 0 89 -37t36 -90t-36 -90t-89 -37t-90 37t-37 90zM438 506h412l-207 608zM702 1595q0 53 37 90t90 37t89 -37t36 -90t-35.5 -90t-89.5 -37q-53 0 -90 37t-37 90z" />
<glyph unicode="&#xc5;" horiz-adv-x="1296" d="M29 0l497 1366h244l498 -1366h-246l-109 319h-536l-109 -319h-239zM428 1681q0 90 63.5 153.5t153.5 63.5t152.5 -63.5t62.5 -153.5t-62.5 -153.5t-152.5 -63.5t-153.5 63.5t-63.5 153.5zM438 506h412l-207 608zM542 1681q0 -41 30 -70.5t71 -29.5q43 0 72.5 29.5 t29.5 70.5q0 43 -29.5 72.5t-72.5 29.5q-41 0 -71 -29.5t-30 -72.5z" />
<glyph unicode="&#xc6;" horiz-adv-x="1830" d="M29 0l790 1366h895v-192h-559v-373h524v-189h-524v-415h576v-197h-809v324h-471l-177 -324h-245zM555 520h367v662z" />
<glyph unicode="&#xc7;" horiz-adv-x="1302" d="M100 672q0 334 205 532q195 193 498 193q176 0 319 -68q90 -41 123 -78l-104 -159q-154 102 -326 102q-203 0 -334 -133q-137 -139 -137 -371q0 -233 124 -372.5t333 -139.5q158 0 352 107l100 -162q-37 -39 -135 -82q-160 -70 -342 -70h-18l-13 -86q18 6 46 6 q82 0 133 -48t51 -126q0 -86 -62.5 -138t-146.5 -52q-109 0 -162 49l41 84q45 -29 107 -29q100 0 100 82q0 76 -86 76q-49 0 -86 -25l-64 35l33 183q-246 41 -393 219q-156 186 -156 471z" />
<glyph unicode="&#xc8;" horiz-adv-x="1064" d="M156 0v1366h792v-192h-559v-373h524v-189h-524v-415h576v-197h-809zM273 1646l88 181l442 -238l-69 -127z" />
<glyph unicode="&#xc9;" horiz-adv-x="1064" d="M156 0v1366h792v-192h-559v-373h524v-189h-524v-415h576v-197h-809zM301 1589l442 238l88 -181l-461 -184z" />
<glyph unicode="&#xca;" horiz-adv-x="1064" d="M156 0v1366h792v-192h-559v-373h524v-189h-524v-415h576v-197h-809zM203 1583l336 240l336 -248l-80 -113l-256 146l-256 -144z" />
<glyph unicode="&#xcb;" horiz-adv-x="1064" d="M156 0v1366h792v-192h-559v-373h524v-189h-524v-415h576v-197h-809zM236 1595q0 53 36.5 90t89.5 37t89 -37t36 -90t-35.5 -90t-89.5 -37q-53 0 -89.5 37t-36.5 90zM606 1595q0 53 37 90t90 37t89 -37t36 -90t-36 -90t-89 -37t-90 37t-37 90z" />
<glyph unicode="&#xcc;" horiz-adv-x="548" d="M12 1646l88 181l442 -238l-69 -127zM156 0v1366h237v-1366h-237z" />
<glyph unicode="&#xcd;" horiz-adv-x="548" d="M10 1589l442 238l88 -181l-461 -184zM156 0v1366h237v-1366h-237z" />
<glyph unicode="&#xce;" horiz-adv-x="548" d="M-57 1583l336 240l336 -248l-80 -113l-256 146l-256 -144zM156 0v1366h237v-1366h-237z" />
<glyph unicode="&#xcf;" horiz-adv-x="548" d="M-34 1595q0 53 36.5 90t90.5 37q53 0 89 -37t36 -90t-36 -90t-89 -37t-90 37t-37 90zM156 0v1366h237v-1366h-237zM336 1595q0 53 37 90t90 37t89 -37t36 -90t-35.5 -90t-89.5 -37q-53 0 -90 37t-37 90z" />
<glyph unicode="&#xd0;" horiz-adv-x="1478" d="M10 610v189h205v567h350q231 0 340 -25q166 -37 283 -153q190 -191 190 -494q0 -309 -190 -499q-125 -125 -309 -166q-123 -29 -363 -29h-301v610h-205zM453 190h161q274 0 404 138q123 130 123 372q0 227 -131 359q-80 80 -195 104q-78 16 -254 17h-108v-381h362v-189 h-362v-420z" />
<glyph unicode="&#xd1;" horiz-adv-x="1347" d="M156 0v1366h223l602 -997l-6 997h217v-1366h-215l-610 999l6 -999h-217zM311 1575q141 135 239 135q45 0 116 -28.5t106 -28.5q59 0 139 69l98 -110q-133 -139 -239 -139q-47 0 -118 29.5t-106 29.5q-37 0 -135 -68z" />
<glyph unicode="&#xd2;" horiz-adv-x="1495" d="M100 686q0 315 181.5 513t470.5 198q287 0 465 -197t178 -508q0 -324 -180.5 -522.5t-466.5 -198.5q-285 0 -466.5 199t-181.5 516zM344 680q0 -229 114.5 -368.5t293.5 -139.5q199 0 305 162q94 141 94 362q0 223 -114.5 363.5t-297.5 140.5q-178 0 -286.5 -144.5 t-108.5 -375.5zM488 1646l88 181l442 -238l-69 -127z" />
<glyph unicode="&#xd3;" horiz-adv-x="1495" d="M100 686q0 315 181.5 513t470.5 198q287 0 465 -197t178 -508q0 -324 -180.5 -522.5t-466.5 -198.5q-285 0 -466.5 199t-181.5 516zM344 680q0 -229 114.5 -368.5t293.5 -139.5q199 0 305 162q94 141 94 362q0 223 -114.5 363.5t-297.5 140.5q-178 0 -286.5 -144.5 t-108.5 -375.5zM461 1589l442 238l88 -181l-461 -184z" />
<glyph unicode="&#xd4;" horiz-adv-x="1495" d="M100 686q0 315 181.5 513t470.5 198q287 0 465 -197t178 -508q0 -324 -180.5 -522.5t-466.5 -198.5q-285 0 -466.5 199t-181.5 516zM344 680q0 -229 114.5 -368.5t293.5 -139.5q199 0 305 162q94 141 94 362q0 223 -114.5 363.5t-297.5 140.5q-178 0 -286.5 -144.5 t-108.5 -375.5zM408 1583l336 240l336 -248l-80 -113l-256 146l-256 -144z" />
<glyph unicode="&#xd5;" horiz-adv-x="1495" d="M100 686q0 315 181.5 513t470.5 198q287 0 465 -197t178 -508q0 -324 -180.5 -522.5t-466.5 -198.5q-285 0 -466.5 199t-181.5 516zM344 680q0 -229 114.5 -368.5t293.5 -139.5q199 0 305 162q94 141 94 362q0 223 -114.5 363.5t-297.5 140.5q-178 0 -286.5 -144.5 t-108.5 -375.5zM391 1575q141 135 239 135q45 0 116 -28.5t106 -28.5q59 0 139 69l98 -110q-133 -139 -239 -139q-47 0 -118 29.5t-106 29.5q-37 0 -135 -68z" />
<glyph unicode="&#xd6;" horiz-adv-x="1495" d="M100 686q0 315 181.5 513t470.5 198q287 0 465 -197t178 -508q0 -324 -180.5 -522.5t-466.5 -198.5q-285 0 -466.5 199t-181.5 516zM344 680q0 -229 114.5 -368.5t293.5 -139.5q199 0 305 162q94 141 94 362q0 223 -114.5 363.5t-297.5 140.5q-178 0 -286.5 -144.5 t-108.5 -375.5zM439 1595q0 53 36.5 90t90.5 37q53 0 89 -37t36 -90t-36 -90t-89 -37t-90 37t-37 90zM809 1595q0 53 37 90t90 37t89 -37t36 -90t-35.5 -90t-89.5 -37q-53 0 -90 37t-37 90z" />
<glyph unicode="&#xd7;" horiz-adv-x="1286" d="M133 158l375 374l-375 373l135 135l373 -374l375 374l135 -135l-375 -373l375 -374l-135 -133l-375 374l-373 -374z" />
<glyph unicode="&#xd8;" horiz-adv-x="1495" d="M100 686q0 315 181.5 513t470.5 198q145 0 266 -54l100 177l166 -90l-106 -191q217 -199 217 -547q0 -324 -180.5 -522.5t-466.5 -198.5q-137 0 -259 52l-100 -181l-166 90l111 189q-106 86 -170 236.5t-64 328.5zM344 680q0 -129 39 -236q29 -80 63 -116l474 829 q-78 43 -181 43q-178 0 -286.5 -144.5t-108.5 -375.5zM594 207q51 -35 158 -35q199 0 305 162q94 141 94 362q0 129 -41 236q-27 70 -51 98z" />
<glyph unicode="&#xd9;" horiz-adv-x="1316" d="M141 565v801h238v-854q0 -96 8 -137q14 -74 62 -121q78 -78 217 -78q125 0 200 76q55 55 68 145q8 49 8 238v731h234v-731q0 -215 -19 -309q-27 -129 -108 -211q-143 -143 -392 -144q-248 0 -393 146q-82 82 -106 207q-16 76 -17 241zM379 1646l88 181l442 -238l-69 -127 z" />
<glyph unicode="&#xda;" horiz-adv-x="1316" d="M141 565v801h238v-854q0 -96 8 -137q14 -74 62 -121q78 -78 217 -78q125 0 200 76q55 55 68 145q8 49 8 238v731h234v-731q0 -215 -19 -309q-27 -129 -108 -211q-143 -143 -392 -144q-248 0 -393 146q-82 82 -106 207q-16 76 -17 241zM393 1589l442 238l88 -181 l-461 -184z" />
<glyph unicode="&#xdb;" horiz-adv-x="1316" d="M141 565v801h238v-854q0 -96 8 -137q14 -74 62 -121q78 -78 217 -78q125 0 200 76q55 55 68 145q8 49 8 238v731h234v-731q0 -215 -19 -309q-27 -129 -108 -211q-143 -143 -392 -144q-248 0 -393 146q-82 82 -106 207q-16 76 -17 241zM320 1583l336 240l336 -248 l-80 -113l-256 146l-256 -144z" />
<glyph unicode="&#xdc;" horiz-adv-x="1316" d="M141 565v801h238v-854q0 -96 8 -137q14 -74 62 -121q78 -78 217 -78q125 0 200 76q55 55 68 145q8 49 8 238v731h234v-731q0 -215 -19 -309q-27 -129 -108 -211q-143 -143 -392 -144q-248 0 -393 146q-82 82 -106 207q-16 76 -17 241zM346 1595q0 53 36.5 90t90.5 37 q53 0 89 -37t36 -90t-36 -90t-89 -37t-90 37t-37 90zM716 1595q0 53 37 90t90 37t89 -37t36 -90t-35.5 -90t-89.5 -37q-53 0 -90 37t-37 90z" />
<glyph unicode="&#xdd;" horiz-adv-x="1202" d="M55 1366h244l315 -629l312 629h221l-430 -823v-543h-232v543zM320 1589l442 238l88 -181l-461 -184z" />
<glyph unicode="&#xde;" horiz-adv-x="1181" d="M156 0v1366h233v-250h131q166 0 248 -18q119 -25 193 -99q112 -112 112 -292q0 -188 -117 -306q-86 -86 -211 -112q-76 -16 -253 -17h-103v-272h-233zM389 463h96q223 0 286 62t63 177q0 109 -64 172q-55 55 -252 56h-129v-467z" />
<glyph unicode="&#xdf;" horiz-adv-x="1150" d="M131 0v985q0 285 118 402.5t308 117.5q180 0 294 -101t114 -263q0 -109 -56 -193q-29 -45 -100 -110q-55 -49 -55 -72q0 -27 82 -84q104 -72 149 -125q82 -96 82 -223q0 -164 -107.5 -260.5t-277.5 -96.5q-143 0 -242 56l68 172q94 -35 151 -35q88 0 136.5 43t48.5 113 q0 51 -39 98q-31 37 -113 94q-88 63 -121 96q-53 55 -53 127q0 76 110.5 191t110.5 209q0 76 -47 125t-131 49t-137 -55q-72 -76 -72 -312v-948h-221z" />
<glyph unicode="&#xe0;" horiz-adv-x="1011" d="M82 295q0 350 563 350h37v39q0 92 -33 125q-45 45 -162 45q-133 0 -270 -78l-78 146q35 31 107 59q119 49 260 49q205 0 311 -106q53 -53 68 -133q10 -51 10 -177v-614h-197v74q-147 -94 -295 -94q-145 0 -233 87t-88 228zM248 1300l88 181l442 -238l-69 -127zM285 305 q0 -74 50 -112.5t126 -38.5q96 -1 221 67v264h-47q-236 0 -311 -77q-39 -39 -39 -103z" />
<glyph unicode="&#xe1;" horiz-adv-x="1011" d="M82 295q0 350 563 350h37v39q0 92 -33 125q-45 45 -162 45q-133 0 -270 -78l-78 146q35 31 107 59q119 49 260 49q205 0 311 -106q53 -53 68 -133q10 -51 10 -177v-614h-197v74q-147 -94 -295 -94q-145 0 -233 87t-88 228zM248 1243l442 238l88 -181l-461 -184zM285 305 q0 -74 50 -112.5t126 -38.5q96 -1 221 67v264h-47q-236 0 -311 -77q-39 -39 -39 -103z" />
<glyph unicode="&#xe2;" horiz-adv-x="1011" d="M82 295q0 350 563 350h37v39q0 92 -33 125q-45 45 -162 45q-133 0 -270 -78l-78 146q35 31 107 59q119 49 260 49q205 0 311 -106q53 -53 68 -133q10 -51 10 -177v-614h-197v74q-147 -94 -295 -94q-145 0 -233 87t-88 228zM168 1241l336 240l336 -248l-80 -113l-256 146 l-256 -144zM285 305q0 -74 50 -112.5t126 -38.5q96 -1 221 67v264h-47q-236 0 -311 -77q-39 -39 -39 -103z" />
<glyph unicode="&#xe3;" horiz-adv-x="1011" d="M82 295q0 350 563 350h37v39q0 92 -33 125q-45 45 -162 45q-133 0 -270 -78l-78 146q35 31 107 59q119 49 260 49q205 0 311 -106q53 -53 68 -133q10 -51 10 -177v-614h-197v74q-147 -94 -295 -94q-145 0 -233 87t-88 228zM166 1276q141 135 239 135q45 0 116 -28.5 t106 -28.5q59 0 139 69l98 -110q-133 -139 -239 -139q-47 0 -118 29.5t-106 29.5q-37 0 -135 -68zM285 305q0 -74 50 -112.5t126 -38.5q96 -1 221 67v264h-47q-236 0 -311 -77q-39 -39 -39 -103z" />
<glyph unicode="&#xe4;" horiz-adv-x="1011" d="M82 295q0 350 563 350h37v39q0 92 -33 125q-45 45 -162 45q-133 0 -270 -78l-78 146q35 31 107 59q119 49 260 49q205 0 311 -106q53 -53 68 -133q10 -51 10 -177v-614h-197v74q-147 -94 -295 -94q-145 0 -233 87t-88 228zM195 1292q0 53 36.5 90t90.5 37q53 0 89 -37 t36 -90t-36 -90t-89 -37t-90 37t-37 90zM285 305q0 -74 50 -112.5t126 -38.5q96 -1 221 67v264h-47q-236 0 -311 -77q-39 -39 -39 -103zM565 1292q0 53 37 90t90 37t89 -37t36 -90t-35.5 -90t-89.5 -37q-53 0 -90 37t-37 90z" />
<glyph unicode="&#xe5;" horiz-adv-x="1011" d="M82 295q0 350 563 350h37v39q0 92 -33 125q-45 45 -162 45q-133 0 -270 -78l-78 146q35 31 107 59q119 49 260 49q205 0 311 -106q53 -53 68 -133q10 -51 10 -177v-614h-197v74q-147 -94 -295 -94q-145 0 -233 87t-88 228zM285 305q0 -74 50 -112.5t126 -38.5 q96 -1 221 67v264h-47q-236 0 -311 -77q-39 -39 -39 -103zM289 1323q0 90 63.5 153.5t153.5 63.5t152.5 -63.5t62.5 -153.5t-62.5 -153.5t-152.5 -63.5t-153.5 63.5t-63.5 153.5zM403 1323q0 -41 30 -70.5t71 -29.5q43 0 72.5 29.5t29.5 70.5q0 43 -29.5 72.5t-72.5 29.5 q-41 0 -71 -29.5t-30 -72.5z" />
<glyph unicode="&#xe6;" horiz-adv-x="1673" d="M84 293q0 219 231 289q100 29 328 28h41q0 152 -41 193q-51 51 -154 51q-133 0 -270 -78l-78 146q35 31 107 59q119 49 260 49q225 0 323 -135q133 133 328 133q203 0 316.5 -137t113.5 -379q0 -18 -2 -46t-2 -34h-678q0 -106 64 -184q78 -92 221 -92q123 0 274 75 l78 -147q-154 -109 -370 -109q-227 0 -347 138q-158 -137 -397 -138q-152 0 -246 78q-100 86 -100 240zM287 297q0 -74 57 -113q49 -33 123 -32q155 0 272 88q-51 90 -49 211h-57q-168 0 -240 -23q-106 -35 -106 -131zM907 600h469q0 92 -39 160q-57 96 -174 96 q-104 0 -172.5 -70.5t-83.5 -185.5z" />
<glyph unicode="&#xe7;" horiz-adv-x="997" d="M84 487q0 236 147.5 388.5t372.5 152.5q127 0 236 -51q74 -35 96 -64l-92 -141q-104 70 -226 70q-139 0 -227 -105q-80 -96 -80 -233q0 -152 79 -246t218 -94q113 0 254 76l88 -148q-23 -25 -102 -61q-125 -55 -264 -56h-13l-10 -71q18 6 45 6q82 0 133.5 -48t51.5 -126 q0 -86 -62.5 -138.5t-146.5 -52.5q-109 0 -162 49l41 84q45 -29 106 -28q100 0 101 82q0 76 -86 75q-49 0 -86 -24l-64 35l29 170q-174 37 -275.5 172t-101.5 327z" />
<glyph unicode="&#xe8;" horiz-adv-x="1071" d="M84 494q0 236 131 385t342 149q203 0 316.5 -137t113.5 -379q0 -18 -2 -46t-2 -34h-678q0 -106 64 -184q78 -92 221 -92q123 0 274 75l78 -147q-154 -109 -371 -109q-229 0 -360 150q-127 141 -127 369zM283 1300l88 181l442 -238l-69 -127zM305 600h469q0 92 -39 160 q-57 96 -174 96q-104 0 -173 -70.5t-83 -185.5z" />
<glyph unicode="&#xe9;" horiz-adv-x="1071" d="M84 494q0 236 131 385t342 149q203 0 316.5 -137t113.5 -379q0 -18 -2 -46t-2 -34h-678q0 -106 64 -184q78 -92 221 -92q123 0 274 75l78 -147q-154 -109 -371 -109q-229 0 -360 150q-127 141 -127 369zM271 1243l442 238l88 -181l-461 -184zM305 600h469q0 92 -39 160 q-57 96 -174 96q-104 0 -173 -70.5t-83 -185.5z" />
<glyph unicode="&#xea;" horiz-adv-x="1071" d="M84 494q0 236 131 385t342 149q203 0 316.5 -137t113.5 -379q0 -18 -2 -46t-2 -34h-678q0 -106 64 -184q78 -92 221 -92q123 0 274 75l78 -147q-154 -109 -371 -109q-229 0 -360 150q-127 141 -127 369zM219 1241l336 240l336 -248l-80 -113l-256 146l-256 -144zM305 600 h469q0 92 -39 160q-57 96 -174 96q-104 0 -173 -70.5t-83 -185.5z" />
<glyph unicode="&#xeb;" horiz-adv-x="1071" d="M84 494q0 236 131 385t342 149q203 0 316.5 -137t113.5 -379q0 -18 -2 -46t-2 -34h-678q0 -106 64 -184q78 -92 221 -92q123 0 274 75l78 -147q-154 -109 -371 -109q-229 0 -360 150q-127 141 -127 369zM242 1292q0 53 36.5 90t90.5 37q53 0 89 -37t36 -90t-36 -90 t-89 -37t-90 37t-37 90zM305 600h469q0 92 -39 160q-57 96 -174 96q-104 0 -173 -70.5t-83 -185.5zM612 1292q0 53 37 90t90 37t89 -37t36 -90t-35.5 -90t-89.5 -37q-53 0 -90 37t-37 90z" />
<glyph unicode="&#xec;" horiz-adv-x="485" d="M-20 1300l88 181l442 -238l-69 -127zM131 0v999h225v-999h-225z" />
<glyph unicode="&#xed;" horiz-adv-x="485" d="M-20 1243l442 238l88 -181l-461 -184zM131 0v999h225v-999h-225z" />
<glyph unicode="&#xee;" horiz-adv-x="485" d="M-90 1241l336 240l336 -248l-80 -113l-256 146l-256 -144zM131 0v999h225v-999h-225z" />
<glyph unicode="&#xef;" horiz-adv-x="485" d="M-65 1292q0 53 36.5 90t90.5 37q53 0 89 -37t36 -90t-36 -90t-89 -37t-90 37t-37 90zM131 0v999h225v-999h-225zM305 1292q0 53 37 90t90 37t89 -37t36 -90t-35.5 -90t-89.5 -37q-53 0 -90 37t-37 90z" />
<glyph unicode="&#xf0;" horiz-adv-x="1095" d="M84 502q0 231 124 371.5t331 140.5q90 0 202 -51q-31 145 -135 225l-260 -111l-61 137l178 76q-84 49 -279 72l17 162q293 -27 465 -146l215 90l61 -133l-141 -61q211 -205 211 -645q0 -303 -125 -479.5t-344 -176.5q-203 0 -331 146.5t-128 382.5zM311 492 q0 -147 65.5 -235.5t168.5 -88.5q235 -1 235 450q0 57 -8 130q-94 76 -209 75q-119 0 -185.5 -89t-66.5 -242z" />
<glyph unicode="&#xf1;" horiz-adv-x="1093" d="M131 0v999h197v-73q141 102 297 102q158 0 249 -92q70 -70 91 -172q12 -61 12 -205v-559h-225v547q0 199 -45 244t-127 45q-104 0 -224 -74v-762h-225zM213 1276q141 135 239 135q45 0 116 -28.5t106 -28.5q59 0 139 69l98 -110q-133 -139 -239 -139q-47 0 -118 29.5 t-106 29.5q-37 0 -135 -68z" />
<glyph unicode="&#xf2;" horiz-adv-x="1153" d="M84 498q0 236 139 383t363 147q215 0 349 -144.5t134 -377.5q0 -238 -139 -384.5t-363 -146.5q-215 0 -349 144.5t-134 378.5zM309 1300l88 181l442 -238l-69 -127zM311 506q0 -154 76 -249t195 -95q123 0 191.5 91t68.5 245t-76 249t-193 95q-119 0 -190.5 -92.5 t-71.5 -243.5z" />
<glyph unicode="&#xf3;" horiz-adv-x="1153" d="M84 498q0 236 139 383t363 147q215 0 349 -144.5t134 -377.5q0 -238 -139 -384.5t-363 -146.5q-215 0 -349 144.5t-134 378.5zM311 506q0 -154 76 -249t195 -95q123 0 191.5 91t68.5 245t-76 249t-193 95q-119 0 -190.5 -92.5t-71.5 -243.5zM314 1243l442 238l88 -181 l-461 -184z" />
<glyph unicode="&#xf4;" horiz-adv-x="1153" d="M84 498q0 236 139 383t363 147q215 0 349 -144.5t134 -377.5q0 -238 -139 -384.5t-363 -146.5q-215 0 -349 144.5t-134 378.5zM250 1241l336 240l336 -248l-80 -113l-256 146l-256 -144zM311 506q0 -154 76 -249t195 -95q123 0 191.5 91t68.5 245t-76 249t-193 95 q-119 0 -190.5 -92.5t-71.5 -243.5z" />
<glyph unicode="&#xf5;" horiz-adv-x="1153" d="M84 498q0 236 139 383t363 147q215 0 349 -144.5t134 -377.5q0 -238 -139 -384.5t-363 -146.5q-215 0 -349 144.5t-134 378.5zM217 1276q141 135 239 135q45 0 116 -28.5t106 -28.5q59 0 139 69l98 -110q-133 -139 -239 -139q-47 0 -118 29.5t-106 29.5q-37 0 -135 -68z M311 506q0 -154 76 -249t195 -95q123 0 191.5 91t68.5 245t-76 249t-193 95q-119 0 -190.5 -92.5t-71.5 -243.5z" />
<glyph unicode="&#xf6;" horiz-adv-x="1153" d="M84 498q0 236 139 383t363 147q215 0 349 -144.5t134 -377.5q0 -238 -139 -384.5t-363 -146.5q-215 0 -349 144.5t-134 378.5zM269 1292q0 53 36.5 90t90.5 37q53 0 89 -37t36 -90t-36 -90t-89 -37t-90 37t-37 90zM311 506q0 -154 76 -249t195 -95q123 0 191.5 91 t68.5 245t-76 249t-193 95q-119 0 -190.5 -92.5t-71.5 -243.5zM639 1292q0 53 37 90t90 37t89 -37t36 -90t-35.5 -90t-89.5 -37q-53 0 -90 37t-37 90z" />
<glyph unicode="&#xf7;" horiz-adv-x="1286" d="M106 438v189h1074v-189h-1074zM500 129q0 59 42 101t101 42t101 -42t42 -101t-42 -101t-101 -42t-101 42t-42 101zM500 930q0 59 42 101t101 42t101 -42t42 -101t-42 -101.5t-101 -42.5t-101 42t-42 102z" />
<glyph unicode="&#xf8;" horiz-adv-x="1153" d="M84 498q0 236 139 383t363 147q102 0 192 -37l80 137l141 -81l-84 -144q154 -145 154 -397q0 -238 -139 -384.5t-363 -146.5q-115 0 -176 31l-82 -141l-143 80l84 143q-166 150 -166 410zM301 506q0 -135 59 -232l324 557q-49 25 -111 25q-125 0 -198.5 -96t-73.5 -254z M485 166q45 -18 97 -19q127 0 198.5 94.5t71.5 256.5q0 156 -47 215z" />
<glyph unicode="&#xf9;" horiz-adv-x="1093" d="M117 442v557h225v-544q0 -102 4 -136q10 -84 52 -118.5t120 -34.5q86 0 219 74v759h226v-999h-197v76q-137 -102 -297 -103q-158 0 -250 93q-70 70 -90 172q-12 61 -12 204zM262 1300l88 181l442 -238l-69 -127z" />
<glyph unicode="&#xfa;" horiz-adv-x="1093" d="M117 442v557h225v-544q0 -102 4 -136q10 -84 52 -118.5t120 -34.5q86 0 219 74v759h226v-999h-197v76q-137 -102 -297 -103q-158 0 -250 93q-70 70 -90 172q-12 61 -12 204zM287 1243l442 238l88 -181l-461 -184z" />
<glyph unicode="&#xfb;" horiz-adv-x="1093" d="M117 442v557h225v-544q0 -102 4 -136q10 -84 52 -118.5t120 -34.5q86 0 219 74v759h226v-999h-197v76q-137 -102 -297 -103q-158 0 -250 93q-70 70 -90 172q-12 61 -12 204zM195 1241l336 240l336 -248l-80 -113l-256 146l-256 -144z" />
<glyph unicode="&#xfc;" horiz-adv-x="1093" d="M117 442v557h225v-544q0 -102 4 -136q10 -84 52 -118.5t120 -34.5q86 0 219 74v759h226v-999h-197v76q-137 -102 -297 -103q-158 0 -250 93q-70 70 -90 172q-12 61 -12 204zM217 1292q0 53 36.5 90t90.5 37q53 0 89 -37t36 -90t-36 -90t-89 -37t-90 37t-37 90zM587 1292 q0 53 37 90t90 37t89 -37t36 -90t-35.5 -90t-89.5 -37q-53 0 -90 37t-37 90z" />
<glyph unicode="&#xfd;" horiz-adv-x="1118" d="M-23 -418l66 164q86 -33 150 -33q90 0 145 56q47 47 115 223l-416 1007h239l293 -753l271 753h223l-395 -1028q-96 -252 -189 -344q-100 -100 -276 -100q-115 0 -226 55zM279 1243l442 238l88 -181l-461 -184z" />
<glyph unicode="&#xfe;" horiz-adv-x="1136" d="M131 -440v1921h217v-535q98 82 256 82q201 0 324 -142.5t123 -369.5q0 -238 -141.5 -389.5t-344.5 -151.5q-113 0 -209 50v-465h-225zM356 215q82 -53 176 -53q129 0 210 93t81 257q0 150 -78 242q-74 86 -188 86q-119 0 -201 -70v-555z" />
<glyph unicode="&#xff;" horiz-adv-x="1118" d="M-23 -418l66 164q86 -33 150 -33q90 0 145 56q47 47 115 223l-416 1007h239l293 -753l271 753h223l-395 -1028q-96 -252 -189 -344q-100 -100 -276 -100q-115 0 -226 55zM258 1292q0 53 36.5 90t90.5 37q53 0 89 -37t36 -90t-36 -90t-89 -37t-90 37t-37 90zM628 1292 q0 53 37 90t90 37t89 -37t36 -90t-35.5 -90t-89.5 -37q-53 0 -90 37t-37 90z" />
<glyph unicode="&#x152;" horiz-adv-x="1845" d="M100 672q0 309 191 499q125 125 309 166q123 29 363 29h766v-192h-560v-373h525v-189h-525v-415h576v-197h-832q-231 0 -340 25q-166 37 -282 153q-190 190 -191 494zM338 666q0 -227 131 -359q80 -80 195 -104q78 -16 254 -17h18v990h-72q-274 0 -400 -134.5 t-126 -375.5z" />
<glyph unicode="&#x153;" horiz-adv-x="1841" d="M84 498q0 236 139 383t363 147q240 0 377 -178q154 178 364 178q203 0 316.5 -137t113.5 -379q0 -18 -2 -46t-2 -34h-678q0 -106 64 -184q78 -92 221 -92q123 0 274 75l78 -147q-154 -109 -371 -109q-254 0 -385 177q-145 -176 -389 -177q-215 0 -349 144.5t-134 378.5z M311 506q0 -154 76 -249t195 -95q123 0 191.5 91t68.5 245t-76 249t-193 95q-119 0 -190.5 -92.5t-71.5 -243.5zM1075 600h469q0 92 -39 160q-57 96 -174 96q-104 0 -172.5 -70.5t-83.5 -185.5z" />
<glyph unicode="&#x178;" horiz-adv-x="1202" d="M55 1366h244l315 -629l312 629h221l-430 -823v-543h-232v543zM303 1595q0 53 36.5 90t90.5 37q53 0 89 -37t36 -90t-36 -90t-89 -37t-90 37t-37 90zM673 1595q0 53 37 90t90 37t89 -37t36 -90t-35.5 -90t-89.5 -37q-53 0 -90 37t-37 90z" />
<glyph unicode="&#x2c6;" horiz-adv-x="800" d="M80 1241l336 240l336 -248l-80 -113l-256 146l-256 -144z" />
<glyph unicode="&#x2dc;" horiz-adv-x="815" d="M78 1276q141 135 239 135q45 0 116 -28.5t106 -28.5q59 0 139 69l98 -110q-133 -139 -239 -139q-47 0 -118 29.5t-106 29.5q-37 0 -135 -68z" />
<glyph unicode="&#x2000;" horiz-adv-x="949" />
<glyph unicode="&#x2001;" horiz-adv-x="1898" />
<glyph unicode="&#x2002;" horiz-adv-x="949" />
<glyph unicode="&#x2003;" horiz-adv-x="1898" />
<glyph unicode="&#x2004;" horiz-adv-x="632" />
<glyph unicode="&#x2005;" horiz-adv-x="474" />
<glyph unicode="&#x2006;" horiz-adv-x="316" />
<glyph unicode="&#x2007;" horiz-adv-x="316" />
<glyph unicode="&#x2008;" horiz-adv-x="237" />
<glyph unicode="&#x2009;" horiz-adv-x="379" />
<glyph unicode="&#x200a;" horiz-adv-x="105" />
<glyph unicode="&#x2010;" horiz-adv-x="1011" d="M160 438v189h692v-189h-692z" />
<glyph unicode="&#x2011;" horiz-adv-x="1011" d="M160 438v189h692v-189h-692z" />
<glyph unicode="&#x2012;" horiz-adv-x="1011" d="M160 438v189h692v-189h-692z" />
<glyph unicode="&#x2013;" horiz-adv-x="1355" d="M160 438v189h1036v-189h-1036z" />
<glyph unicode="&#x2014;" horiz-adv-x="2031" d="M160 438v189h1712v-189h-1712z" />
<glyph unicode="&#x2018;" horiz-adv-x="546" d="M80 918q0 236 174 409q47 47 84 72l129 -115q-61 -66 -84 -106q-63 -111 -64 -260h-239z" />
<glyph unicode="&#x2019;" horiz-adv-x="546" d="M80 999q61 66 84 107q63 111 63 260h240q0 -236 -174 -410q-47 -47 -84 -71z" />
<glyph unicode="&#x201a;" horiz-adv-x="546" d="M80 -131q61 66 84 106q63 111 63 261h240q0 -236 -174 -410q-47 -47 -84 -72z" />
<glyph unicode="&#x201c;" horiz-adv-x="899" d="M80 918q0 236 174 409q47 47 84 72l129 -115q-61 -66 -84 -106q-63 -111 -64 -260h-239zM432 918q0 236 174 409q47 47 84 72l129 -115q-61 -66 -84 -106q-63 -111 -63 -260h-240z" />
<glyph unicode="&#x201d;" horiz-adv-x="899" d="M80 999q61 66 84 107q63 111 63 260h240q0 -236 -174 -410q-47 -47 -84 -71zM432 999q61 66 84 107q63 111 64 260h239q0 -236 -174 -410q-47 -47 -84 -71z" />
<glyph unicode="&#x201e;" horiz-adv-x="899" d="M80 -131q61 66 84 106q63 111 63 261h240q0 -236 -174 -410q-47 -47 -84 -72zM432 -131q61 66 84 106q63 111 64 261h239q0 -236 -174 -410q-47 -47 -84 -72z" />
<glyph unicode="&#x2022;" horiz-adv-x="980" d="M276 553q0 88 62.5 150.5t150.5 62.5t150.5 -62.5t62.5 -150.5t-62 -150.5t-151 -62.5q-88 0 -150.5 62.5t-62.5 150.5z" />
<glyph unicode="&#x2026;" horiz-adv-x="1626" d="M127 129q0 59 42 101t101 42t101.5 -42t42.5 -101t-42 -101t-102 -42q-59 0 -101 42t-42 101zM670 129q0 59 42 101t101 42t101 -42t42 -101t-42 -101t-101 -42t-101 42t-42 101zM1212 129q0 59 42 101t102 42q59 0 101 -42t42 -101t-42 -101t-101 -42t-101.5 42 t-42.5 101z" />
<glyph unicode="&#x202f;" horiz-adv-x="379" />
<glyph unicode="&#x2039;" horiz-adv-x="690" d="M127 502l297 397l139 -94l-176 -303l176 -316l-139 -82z" />
<glyph unicode="&#x203a;" horiz-adv-x="690" d="M127 186l176 316l-176 303l139 94l297 -397l-297 -398z" />
<glyph unicode="&#x205f;" horiz-adv-x="474" />
<glyph unicode="&#x20ac;" d="M133 465v156h135q-2 39 -2 67q0 31 2 60h-135v155h146q8 129 100 268q147 225 426 226q156 0 287 -72q84 -47 106 -82l-106 -133q-127 102 -271 102q-174 0 -262 -139q-47 -78 -57 -170h471v-155h-488q-2 -29 -2 -60q0 -29 2 -67h488v-156h-469q4 -84 51 -164 q84 -141 266 -141q137 0 283 98l108 -139q-156 -147 -407 -148q-276 0 -424 217q-94 139 -100 277h-148z" />
<glyph unicode="&#x2122;" horiz-adv-x="1636" d="M84 1237v129h573v-129h-208v-596h-154v596h-211zM739 641l72 725h158l178 -502l172 502h158l75 -725h-147l-43 467l-160 -467h-121l-163 467l-39 -467h-140z" />
<glyph unicode="&#x25fc;" horiz-adv-x="1003" d="M0 0v1004h1004v-1004h-1004z" />
</font>
</defs>
</svg>
