<svg id="avatar_logged_user_ph_image.svg" xmlns="http://www.w3.org/2000/svg" width="44" height="44" viewBox="0 0 44 44">
  <defs>
    <style>
      .cls-1 {
        fill: #3b3b3b;
      }

      .cls-2 {
        fill: #fff;
        fill-rule: evenodd;
      }
    </style>
  </defs>
  <rect id="area" class="cls-1" width="44" height="44"/>
  <path id="tag_:_" data-name="tag :)" class="cls-2" d="M330,2471.56l20.624-20.63a3.031,3.031,0,0,1,4.281,0l6.935,6.94a3.026,3.026,0,0,1,0,4.28L339.988,2484H330v-12.44Zm19.592-12.1a1.287,1.287,0,1,0,0,1.82A1.29,1.29,0,0,0,349.592,2459.46Zm-5.359,10.71c0.389,0.38.688,0.4,2.852-.48a11.791,11.791,0,0,0,7.079-7.08c0.876-2.16.865-2.46,0.477-2.85a0.765,0.765,0,0,0-1.087-.07c-0.555.56-1.287,3.29-3.695,5.69s-5.137,3.14-5.692,3.7A0.768,0.768,0,0,0,344.233,2470.17Zm-0.521-4.83a1.287,1.287,0,1,0,0-1.82A1.29,1.29,0,0,0,343.712,2465.34Z" transform="translate(-330 -2440)"/>
</svg>
