<svg id="mask_bg" data-name="mask bg" xmlns="http://www.w3.org/2000/svg" width="96" height="96" viewBox="0 0 96 96"><defs><style>.cls-1{fill:#fff;}.cls-1,.cls-10,.cls-11,.cls-12,.cls-2,.cls-3,.cls-4,.cls-5,.cls-6,.cls-7,.cls-8,.cls-9{fill-rule:evenodd;}.cls-2{fill:#fdfdfd;}.cls-3{fill:#fafafa;}.cls-4{fill:#f8f8f8;}.cls-5{fill:#f5f5f5;}.cls-6{fill:#f3f3f3;}.cls-7{fill:#f0f0f0;}.cls-8{fill:#eee;}.cls-9{fill:#ebebeb;}.cls-10{fill:#e9e9e9;}.cls-11{fill:#e6e6e6;}.cls-12{fill:#e4e4e4;}</style></defs><title>vector</title><path class="cls-1" d="M0,0V96H96V0H0ZM47,86.51A38.51,38.51,0,1,1,85.48,48,38.51,38.51,0,0,1,47,86.51Z"/><path class="cls-1" d="M47,88.71A40.71,40.71,0,1,1,87.69,48,40.71,40.71,0,0,1,47,88.71ZM47,1.36A46.64,46.64,0,1,0,93.62,48,46.64,46.64,0,0,0,47,1.36Z"/><path class="cls-2" d="M47,88.71A40.71,40.71,0,1,1,87.69,48,40.71,40.71,0,0,1,47,88.71ZM47,1.88A46.12,46.12,0,1,0,93.1,48,46.12,46.12,0,0,0,47,1.88Z"/><path class="cls-3" d="M47,88.71A40.71,40.71,0,1,1,87.69,48,40.71,40.71,0,0,1,47,88.71ZM47,2.4A45.6,45.6,0,1,0,92.58,48,45.6,45.6,0,0,0,47,2.4Z"/><path class="cls-4" d="M47,88.71A40.71,40.71,0,1,1,87.69,48,40.71,40.71,0,0,1,47,88.71Zm0-85.8A45.09,45.09,0,1,0,92.07,48,45.09,45.09,0,0,0,47,2.91Z"/><path class="cls-5" d="M47,88.71A40.71,40.71,0,1,1,87.69,48,40.71,40.71,0,0,1,47,88.71ZM47,3.43A44.57,44.57,0,1,0,91.55,48,44.57,44.57,0,0,0,47,3.43Z"/><path class="cls-6" d="M47,88.71A40.71,40.71,0,1,1,87.69,48,40.71,40.71,0,0,1,47,88.71ZM47,3.94A44.06,44.06,0,1,0,91,48,44.06,44.06,0,0,0,47,3.94Z"/><path class="cls-7" d="M47,88.71A40.71,40.71,0,1,1,87.69,48,40.71,40.71,0,0,1,47,88.71ZM47,4.46A43.54,43.54,0,1,0,90.52,48,43.54,43.54,0,0,0,47,4.46Z"/><path class="cls-8" d="M47,88.71A40.71,40.71,0,1,1,87.69,48,40.71,40.71,0,0,1,47,88.71ZM47,5A43,43,0,1,0,90,48,43,43,0,0,0,47,5Z"/><path class="cls-9" d="M47,88.71A40.71,40.71,0,1,1,87.69,48,40.71,40.71,0,0,1,47,88.71ZM47,5.49A42.51,42.51,0,1,0,89.49,48,42.51,42.51,0,0,0,47,5.49Z"/><path class="cls-10" d="M47,88.71A40.71,40.71,0,1,1,87.69,48,40.71,40.71,0,0,1,47,88.71ZM47,6A42,42,0,1,0,89,48,42,42,0,0,0,47,6Z"/><path class="cls-11" d="M47,88.71A40.71,40.71,0,1,1,87.69,48,40.71,40.71,0,0,1,47,88.71ZM47,6.53A41.47,41.47,0,1,0,88.45,48,41.47,41.47,0,0,0,47,6.53Z"/><path class="cls-12" d="M47,88.71A40.71,40.71,0,1,1,87.69,48,40.71,40.71,0,0,1,47,88.71ZM47,7a41,41,0,1,0,41,41A41,41,0,0,0,47,7Z"/><path class="cls-1" d="M47,7a41,41,0,1,0,41,41A41,41,0,0,0,47,7Zm0,78.77A37.81,37.81,0,1,1,84.79,48,37.81,37.81,0,0,1,47,85.81Z"/></svg>