<svg id="avatar_ph_image_2_fit.svg" xmlns="http://www.w3.org/2000/svg" width="76" height="76" viewBox="0 0 76 76">
  <defs>
    <style>
      .cls-1 {
        fill: #ff5531;
      }

      .cls-2 {
        fill: #fff;
        fill-rule: evenodd;
      }
    </style>
  </defs>
  <rect id="area" class="cls-1" width="76" height="76"/>
  <path id="tag_:_copy" data-name="tag :) copy" class="cls-2" d="M249,135.63L285.625,99a8.058,8.058,0,0,1,11.4,0l18.462,18.462a8.058,8.058,0,0,1,0,11.4L279.347,165H249V135.63ZM282.879,121.7a3.425,3.425,0,1,0,0,4.844A3.441,3.441,0,0,0,282.879,121.7Zm-14.266,28.5c1.034,1.034,1.831,1.063,7.591-1.27a31.414,31.414,0,0,0,18.845-18.845c2.333-5.76,2.3-6.557,1.27-7.591a2.036,2.036,0,0,0-2.9-.177c-1.477,1.477-3.426,8.743-9.836,15.152s-13.675,8.359-15.152,9.836A2.036,2.036,0,0,0,268.613,150.208Zm-1.389-12.849a3.426,3.426,0,1,0,0-4.845A3.441,3.441,0,0,0,267.224,137.359Z" transform="translate(-249 -89)"/>
</svg>
