<svg id="avatar_notification_ph.svg" xmlns="http://www.w3.org/2000/svg" width="35" height="35" viewBox="0 0 35 35">
  <defs>
    <style>
      .cls-1 {
        fill: #ff5531;
      }

      .cls-2 {
        fill: #fff;
        fill-rule: evenodd;
      }
    </style>
  </defs>
  <circle id="area_faces" data-name="area faces" class="cls-1" cx="17.5" cy="17.5" r="17.5"/>
  <path id="tag_:_copy_2" data-name="tag :) copy 2" class="cls-2" d="M256.235,2460.98l-15.914,15.91a17.5,17.5,0,0,1-13.991-13.15l16.335-16.33a3.664,3.664,0,0,1,5.18,0l8.39,8.39A3.664,3.664,0,0,1,256.235,2460.98Zm-19.731,1.65a1.56,1.56,0,1,0,0,2.21A1.571,1.571,0,0,0,236.5,2462.63Zm4.913-4.91a1.556,1.556,0,1,0-2.2,2.2A1.556,1.556,0,0,0,241.417,2457.72Zm6.108,0.36a0.932,0.932,0,0,0-1.315-.08c-0.671.68-1.557,3.98-4.47,6.89s-6.215,3.8-6.886,4.47a0.93,0.93,0,0,0,.08,1.32c0.47,0.47.832,0.48,3.45-.58a14.274,14.274,0,0,0,8.564-8.57C248.009,2458.92,248,2458.55,247.525,2458.08Z" transform="translate(-226 -2442)"/>
</svg>
