<svg id="avatar_ph.svg" xmlns="http://www.w3.org/2000/svg" xmlns:xlink="http://www.w3.org/1999/xlink" width="99" height="99" viewBox="0 0 99 99">
  <defs>
    <style>
      .cls-1, .cls-3 {
        fill: #fff;
        fill-rule: evenodd;
      }

      .cls-1 {
        filter: url(#filter);
      }

      .cls-2 {
        fill: #ff5531;
      }
    </style>
    <filter id="filter" x="0" y="2409" width="99" height="99" filterUnits="userSpaceOnUse">
      <feOffset result="offset" in="SourceAlpha"/>
      <feGaussianBlur result="blur" stdDeviation="2.449"/>
      <feFlood result="flood"/>
      <feComposite result="composite" operator="in" in2="blur"/>
      <feBlend result="blend" in="SourceGraphic"/>
    </filter>
  </defs>
  <path id="tag_:_" data-name="tag :)" class="cls-1" d="M49,2502a44,44,0,1,1,44-44A44,44,0,0,1,49,2502Zm-4.165-33.34c-6.8,6.8-14.5,8.86-16.067,10.43a2.16,2.16,0,0,0,.188,3.07c1.1,1.09,1.942,1.13,8.049-1.35a37.012,37.012,0,0,0,12.214-7.77,37.061,37.061,0,0,0,7.767-12.21c2.474-6.11,2.443-6.95,1.347-8.05a2.161,2.161,0,0,0-3.069-.19C53.7,2454.16,51.631,2461.86,44.835,2468.66Zm-0.752-16.73a3.633,3.633,0,1,0,0,5.14A3.666,3.666,0,0,0,44.083,2451.93ZM32.62,2463.4a3.63,3.63,0,1,0,0,5.13A3.647,3.647,0,0,0,32.62,2463.4ZM49,2418a39.972,39.972,0,0,0-39.341,47.2l37.335-37.33a8.539,8.539,0,0,1,12.084,0l19.576,19.57a8.552,8.552,0,0,1,0,12.09l-37.67,37.67A40.69,40.69,0,0,0,49,2498,40,40,0,0,0,49,2418Z" transform="translate(0 -2409)"/>
  <circle id="circle_copy" data-name="circle copy" class="cls-2" cx="49" cy="49" r="43"/>
  <path id="tag_:_copy_3" data-name="tag :) copy 3" class="cls-3" d="M49,2502a44,44,0,1,1,44-44A44,44,0,0,1,49,2502Zm-4.165-33.34c-6.8,6.8-14.5,8.86-16.067,10.43a2.16,2.16,0,0,0,.188,3.07c1.1,1.09,1.942,1.13,8.049-1.35a37.012,37.012,0,0,0,12.214-7.77,37.061,37.061,0,0,0,7.767-12.21c2.474-6.11,2.443-6.95,1.347-8.05a2.161,2.161,0,0,0-3.069-.19C53.7,2454.16,51.631,2461.86,44.835,2468.66Zm-0.752-16.73a3.633,3.633,0,1,0,0,5.14A3.666,3.666,0,0,0,44.083,2451.93ZM32.62,2463.4a3.63,3.63,0,1,0,0,5.13A3.647,3.647,0,0,0,32.62,2463.4ZM49,2418a39.972,39.972,0,0,0-39.341,47.2l37.335-37.33a8.539,8.539,0,0,1,12.084,0l19.576,19.57a8.552,8.552,0,0,1,0,12.09l-37.67,37.67A40.69,40.69,0,0,0,49,2498,40,40,0,0,0,49,2418Z" transform="translate(0 -2409)"/>
</svg>
