<svg id="mask_bg" data-name="mask bg" xmlns="http://www.w3.org/2000/svg" width="182" height="182" viewBox="0 0 182 182"><defs><style>.cls-1{fill:#fff;}.cls-1,.cls-10,.cls-11,.cls-12,.cls-2,.cls-3,.cls-4,.cls-5,.cls-6,.cls-7,.cls-8,.cls-9{fill-rule:evenodd;}.cls-2{fill:#fdfdfd;}.cls-3{fill:#fafafa;}.cls-4{fill:#f8f8f8;}.cls-5{fill:#f5f5f5;}.cls-6{fill:#f3f3f3;}.cls-7{fill:#f0f0f0;}.cls-8{fill:#eee;}.cls-9{fill:#ebebeb;}.cls-10{fill:#e9e9e9;}.cls-11{fill:#e6e6e6;}.cls-12{fill:#e4e4e4;}</style></defs><title>vector</title><path class="cls-1" d="M0,0V182H182V0H0ZM90,169.51A78.51,78.51,0,1,1,168.46,91,78.51,78.51,0,0,1,90,169.51Z"/><path class="cls-1" d="M90,174a83,83,0,1,1,83-83A83,83,0,0,1,90,174ZM90,1.49A89.51,89.51,0,1,0,179.47,91,89.51,89.51,0,0,0,90,1.49Z"/><path class="cls-2" d="M90,174a83,83,0,1,1,83-83A83,83,0,0,1,90,174ZM90,2a89,89,0,1,0,89,89A89,89,0,0,0,90,2Z"/><path class="cls-3" d="M90,174a83,83,0,1,1,83-83A83,83,0,0,1,90,174ZM90,2.58A88.42,88.42,0,1,0,178.37,91,88.42,88.42,0,0,0,90,2.58Z"/><path class="cls-4" d="M90,174a83,83,0,1,1,83-83A83,83,0,0,1,90,174ZM90,3.12A87.88,87.88,0,1,0,177.83,91,87.88,87.88,0,0,0,90,3.12Z"/><path class="cls-5" d="M90,174a83,83,0,1,1,83-83A83,83,0,0,1,90,174ZM90,3.67A87.33,87.33,0,1,0,177.28,91,87.33,87.33,0,0,0,90,3.67Z"/><path class="cls-6" d="M90,174a83,83,0,1,1,83-83A83,83,0,0,1,90,174ZM90,4.21A86.79,86.79,0,1,0,176.74,91,86.79,86.79,0,0,0,90,4.21Z"/><path class="cls-7" d="M90,174a83,83,0,1,1,83-83A83,83,0,0,1,90,174ZM90,4.76A86.24,86.24,0,1,0,176.19,91,86.24,86.24,0,0,0,90,4.76Z"/><path class="cls-8" d="M90,174a83,83,0,1,1,83-83A83,83,0,0,1,90,174ZM90,5.3A85.7,85.7,0,1,0,175.65,91,85.7,85.7,0,0,0,90,5.3Z"/><path class="cls-9" d="M90,174a83,83,0,1,1,83-83A83,83,0,0,1,90,174ZM90,5.85A85.15,85.15,0,1,0,175.1,91,85.15,85.15,0,0,0,90,5.85Z"/><path class="cls-10" d="M90,174a83,83,0,1,1,83-83A83,83,0,0,1,90,174ZM90,6.4A84.6,84.6,0,1,0,174.56,91,84.6,84.6,0,0,0,90,6.4Z"/><path class="cls-11" d="M90,174a83,83,0,1,1,83-83A83,83,0,0,1,90,174ZM90,6.94A84.06,84.06,0,1,0,174,91,84.06,84.06,0,0,0,90,6.94Z"/><path class="cls-12" d="M90,174a83,83,0,1,1,83-83A83,83,0,0,1,90,174ZM90,7.49A83.51,83.51,0,1,0,173.46,91,83.51,83.51,0,0,0,90,7.49Z"/><path class="cls-1" d="M90,7.49A83.51,83.51,0,1,0,173.46,91,83.51,83.51,0,0,0,90,7.49ZM90,169a78,78,0,1,1,78-78A78,78,0,0,1,90,169Z"/></svg>