<svg id="avatar_ph_2.svg" xmlns="http://www.w3.org/2000/svg" xmlns:xlink="http://www.w3.org/1999/xlink" width="97" height="97" viewBox="0 0 97 97">
  <defs>
    <style>
      .cls-1, .cls-2 {
        fill: #ff5531;
      }

      .cls-1 {
        fill-opacity: 0;
      }

      .cls-2, .cls-3 {
        fill-rule: evenodd;
      }

      .cls-2 {
        filter: url(#filter);
      }

      .cls-3 {
        fill: #fff;
      }
    </style>
    <filter id="filter" x="240" y="80" width="97" height="97" filterUnits="userSpaceOnUse">
      <feOffset result="offset" dx="0.5" dy="0.866" in="SourceAlpha"/>
      <feGaussianBlur result="blur" stdDeviation="2.828"/>
      <feFlood result="flood" flood-opacity="0.3"/>
      <feComposite result="composite" operator="in" in2="blur"/>
      <feBlend result="blend" in="SourceGraphic"/>
    </filter>
  </defs>
  <rect id="area_copy_2" data-name="area copy 2" class="cls-1" width="96" height="96"/>
  <path id="avatar_area_copy" data-name="avatar area copy" class="cls-2" d="M287,86.786A40.214,40.214,0,1,1,246.786,127,40.214,40.214,0,0,1,287,86.786Zm5.214,24.357a0.786,0.786,0,1,1-.785.786A0.786,0.786,0,0,1,292.214,111.143Z" transform="translate(-240 -80)"/>
  <path id="tag_:_copy" data-name="tag :) copy" class="cls-3" d="M287,168a41,41,0,1,1,41-41A41,41,0,0,1,287,168Zm-3.412-30.523c-6.409,6.41-13.675,8.359-15.152,9.836a2.036,2.036,0,0,0,.177,2.9c1.034,1.034,1.831,1.063,7.591-1.27a31.414,31.414,0,0,0,18.845-18.845c2.333-5.76,2.3-6.557,1.27-7.591a2.036,2.036,0,0,0-2.9-.177C291.947,123.8,290,131.068,283.588,137.477ZM282.879,121.7a3.425,3.425,0,1,0,0,4.844A3.441,3.441,0,0,0,282.879,121.7Zm-10.811,10.81a3.426,3.426,0,1,0,0,4.845A3.441,3.441,0,0,0,272.068,132.514ZM287,88.929a38.086,38.086,0,0,0-37.25,45.951L285.625,99a8.057,8.057,0,0,1,11.4,0l18.462,18.462a8.058,8.058,0,0,1,0,11.4l-35.544,35.544A38.07,38.07,0,1,0,287,88.929Z" transform="translate(-240 -80)"/>
</svg>
