<svg id="avatar_logged_user_ph.svg" xmlns="http://www.w3.org/2000/svg" xmlns:xlink="http://www.w3.org/1999/xlink" width="48" height="48" viewBox="0 0 48 48">
  <defs>
    <style>
      .cls-1 {
        fill: #3b3b3b;
      }

      .cls-2 {
        fill: #fff;
        fill-rule: evenodd;
        filter: url(#filter);
      }
    </style>
    <filter id="filter" x="328" y="2438" width="48" height="48" filterUnits="userSpaceOnUse">
      <feOffset result="offset" in="SourceAlpha"/>
      <feGaussianBlur result="blur" stdDeviation="2.828"/>
      <feFlood result="flood" flood-opacity="0.3"/>
      <feComposite result="composite" operator="in" in2="blur"/>
      <feBlend result="blend" in="SourceGraphic"/>
    </filter>
  </defs>
  <circle id="avatar_area_copy" data-name="avatar area copy" class="cls-1" cx="23.5" cy="23.5" r="15.5"/>
  <path id="tag_:_copy" data-name="tag :) copy" class="cls-2" d="M351.5,2478a16.5,16.5,0,1,1,16.5-16.5A16.5,16.5,0,0,1,351.5,2478Zm-1.641-12.62c-2.408,2.41-5.137,3.14-5.692,3.7a0.768,0.768,0,0,0,.066,1.09c0.389,0.38.688,0.4,2.852-.48a11.791,11.791,0,0,0,7.079-7.08c0.876-2.16.865-2.46,0.477-2.85a0.765,0.765,0,0,0-1.087-.07C353,2460.25,352.267,2462.98,349.859,2465.38Zm-0.267-5.92a1.287,1.287,0,1,0,0,1.82A1.29,1.29,0,0,0,349.592,2459.46Zm-4.061,4.06a1.287,1.287,0,1,0,0,1.82A1.29,1.29,0,0,0,345.531,2463.52ZM351.5,2447a14.481,14.481,0,0,0-14.227,17.28l13.351-13.35a3.031,3.031,0,0,1,4.281,0l6.935,6.94a3.026,3.026,0,0,1,0,4.28l-13.5,13.5a14.912,14.912,0,0,0,3.157.35A14.5,14.5,0,0,0,351.5,2447Z" transform="translate(-328 -2438)"/>
</svg>
