<svg id="mask_bg" data-name="mask bg" xmlns="http://www.w3.org/2000/svg" width="44" height="44" viewBox="0 0 44 44"><defs><style>.cls-1,.cls-14{fill:#fff;}.cls-1,.cls-10,.cls-11,.cls-12,.cls-13,.cls-14,.cls-2,.cls-3,.cls-4,.cls-5,.cls-6,.cls-7,.cls-8,.cls-9{fill-rule:evenodd;}.cls-1,.cls-2{opacity:0;}.cls-3{opacity:0.01;}.cls-4{opacity:0.02;}.cls-5{opacity:0.03;}.cls-6{opacity:0.04;}.cls-7{opacity:0.05;}.cls-8{opacity:0.05;}.cls-9{opacity:0.06;}.cls-10{opacity:0.07;}.cls-11{opacity:0.08;}.cls-12{opacity:0.09;}.cls-13{opacity:0.1;}</style></defs><title>vector</title><path class="cls-1" d="M0,0V44H44V0H0ZM21.51,37.53A15.53,15.53,0,1,1,37,22,15.53,15.53,0,0,1,21.51,37.53Z"/><path class="cls-2" d="M21.51,38.42A16.42,16.42,0,1,1,37.93,22,16.42,16.42,0,0,1,21.51,38.42Zm0-37.19A20.78,20.78,0,1,0,42.29,22,20.78,20.78,0,0,0,21.51,1.22Z"/><path class="cls-3" d="M21.51,38.42A16.42,16.42,0,1,1,37.93,22,16.42,16.42,0,0,1,21.51,38.42Zm0-36.81A20.39,20.39,0,1,0,41.9,22,20.39,20.39,0,0,0,21.51,1.61Z"/><path class="cls-4" d="M21.51,38.42A16.42,16.42,0,1,1,37.93,22,16.42,16.42,0,0,1,21.51,38.42ZM21.51,2a20,20,0,1,0,20,20A20,20,0,0,0,21.51,2Z"/><path class="cls-5" d="M21.51,38.42A16.42,16.42,0,1,1,37.93,22,16.42,16.42,0,0,1,21.51,38.42Zm0-36A19.62,19.62,0,1,0,41.12,22,19.62,19.62,0,0,0,21.51,2.38Z"/><path class="cls-6" d="M21.51,38.42A16.42,16.42,0,1,1,37.93,22,16.42,16.42,0,0,1,21.51,38.42Zm0-35.65A19.23,19.23,0,1,0,40.74,22,19.23,19.23,0,0,0,21.51,2.77Z"/><path class="cls-7" d="M21.51,38.42A16.42,16.42,0,1,1,37.93,22,16.42,16.42,0,0,1,21.51,38.42Zm0-35.26A18.84,18.84,0,1,0,40.35,22,18.84,18.84,0,0,0,21.51,3.16Z"/><path class="cls-8" d="M21.51,38.42A16.42,16.42,0,1,1,37.93,22,16.42,16.42,0,0,1,21.51,38.42Zm0-34.87A18.45,18.45,0,1,0,40,22,18.45,18.45,0,0,0,21.51,3.55Z"/><path class="cls-9" d="M21.51,38.42A16.42,16.42,0,1,1,37.93,22,16.42,16.42,0,0,1,21.51,38.42Zm0-34.48A18.07,18.07,0,1,0,39.58,22,18.07,18.07,0,0,0,21.51,3.93Z"/><path class="cls-10" d="M21.51,38.42A16.42,16.42,0,1,1,37.93,22,16.42,16.42,0,0,1,21.51,38.42Zm0-34.1A17.68,17.68,0,1,0,39.19,22,17.68,17.68,0,0,0,21.51,4.32Z"/><path class="cls-11" d="M21.51,38.42A16.42,16.42,0,1,1,37.93,22,16.42,16.42,0,0,1,21.51,38.42Zm0-33.71A17.29,17.29,0,1,0,38.8,22,17.29,17.29,0,0,0,21.51,4.71Z"/><path class="cls-12" d="M21.51,38.42A16.42,16.42,0,1,1,37.93,22,16.42,16.42,0,0,1,21.51,38.42Zm0-33.32A16.9,16.9,0,1,0,38.41,22,16.9,16.9,0,0,0,21.51,5.1Z"/><path class="cls-13" d="M21.51,38.42A16.42,16.42,0,1,1,37.93,22,16.42,16.42,0,0,1,21.51,38.42Zm0-32.93A16.52,16.52,0,1,0,38,22,16.52,16.52,0,0,0,21.51,5.48Z"/><path class="cls-14" d="M21.51,5.48A16.52,16.52,0,1,0,38,22,16.52,16.52,0,0,0,21.51,5.48Zm0,31A14.5,14.5,0,1,1,36,22,14.5,14.5,0,0,1,21.51,36.5Z"/></svg>