<svg id="avatar_ph_image_3.svg" xmlns="http://www.w3.org/2000/svg" width="181" height="181" viewBox="0 0 181 181">
  <defs>
    <style>
      .cls-1 {
        fill: #ff5531;
      }

      .cls-2 {
        fill: #fff;
        fill-rule: evenodd;
      }
    </style>
  </defs>
  <rect id="area" class="cls-1" width="181" height="181"/>
  <path id="tag_:_" data-name="tag :)" class="cls-2" d="M240,318.377l87.172-87.172a16.445,16.445,0,0,1,23.258,0l37.678,37.678a16.445,16.445,0,0,1,0,23.258L299.249,381H240V318.377Zm81.568-40.847a6.99,6.99,0,1,0,0,9.886A7.023,7.023,0,0,0,321.568,277.53ZM292.453,335.7c2.11,2.11,3.738,2.17,15.492-2.592,9.163-3.737,17.361-8.8,23.51-14.949s11.212-14.347,14.949-23.51c4.763-11.755,4.7-13.382,2.592-15.492a4.154,4.154,0,0,0-5.907-.362c-3.014,3.014-6.993,17.843-20.074,30.924s-27.909,17.06-30.923,20.074A4.154,4.154,0,0,0,292.453,335.7Zm-2.834-26.223a6.99,6.99,0,1,0,0-9.886A7.021,7.021,0,0,0,289.619,309.479Z" transform="translate(-240 -200)"/>
</svg>
