<svg id="avatar_ph_image_1_fit.svg" xmlns="http://www.w3.org/2000/svg" width="44" height="44" viewBox="0 0 44 44">
  <defs>
    <style>
      .cls-1 {
        fill: #ff5531;
      }

      .cls-2 {
        fill: #fff;
        fill-rule: evenodd;
      }
    </style>
  </defs>
  <rect id="area" class="cls-1" width="44" height="44"/>
  <path id="tag_:_" data-name="tag :) " class="cls-2" d="M247,32.9l21.078-21.078a4.69,4.69,0,0,1,6.632,0l10.743,10.743a4.688,4.688,0,0,1,0,6.632L264.652,50H247V32.9Zm19.48-7.869a1.993,1.993,0,1,0,0,2.819A2,2,0,0,0,266.48,25.032Zm-8.3,16.587c0.6,0.6,1.065.619,4.417-.739a20.364,20.364,0,0,0,6.7-4.263,20.352,20.352,0,0,0,4.263-6.7c1.358-3.352,1.341-3.816.739-4.417a1.184,1.184,0,0,0-1.684-.1c-0.86.859-1.994,5.088-5.724,8.817s-7.958,4.865-8.817,5.724A1.184,1.184,0,0,0,258.179,41.619Zm-0.808-7.477a1.993,1.993,0,1,0,0-2.819A2,2,0,0,0,257.371,34.142Z" transform="translate(-247 -6)"/>
</svg>
