<svg id="avatar_ph_image.svg" xmlns="http://www.w3.org/2000/svg" width="182" height="182" viewBox="0 0 182 182">
  <defs>
    <style>
      .cls-1 {
        fill: #ff5531;
      }

      .cls-2 {
        fill: #fff;
        fill-rule: evenodd;
      }
    </style>
  </defs>
  <rect class="cls-1" width="182" height="182"/>
  <path id="tag_:_copy" data-name="tag :) copy" class="cls-2" d="M584,1275.38l87.172-87.18a16.45,16.45,0,0,1,23.258,0l37.678,37.68a16.447,16.447,0,0,1,0,23.26L642.249,1339H584v-63.62Zm81.568-40.85a6.992,6.992,0,1,0,0,9.89A7.027,7.027,0,0,0,665.568,1234.53Zm-29.115,58.17c2.11,2.11,3.738,2.17,15.492-2.59,9.163-3.74,17.361-8.8,23.51-14.95s11.212-14.35,14.949-23.51c4.762-11.75,4.7-13.38,2.592-15.49a4.15,4.15,0,0,0-5.907-.36c-3.014,3.01-6.993,17.84-20.074,30.92s-27.909,17.06-30.923,20.07A4.157,4.157,0,0,0,636.453,1292.7Zm-2.834-26.22a6.992,6.992,0,1,0,0-9.89A7.027,7.027,0,0,0,633.619,1266.48Z" transform="translate(-584 -1157)"/>
</svg>
