<svg id="mask_bg" data-name="mask bg" xmlns="http://www.w3.org/2000/svg" width="98" height="98" viewBox="0 0 98 98"><defs><style>.cls-1{fill:#fff;}.cls-1,.cls-10,.cls-11,.cls-12,.cls-2,.cls-3,.cls-4,.cls-5,.cls-6,.cls-7,.cls-8,.cls-9{fill-rule:evenodd;}.cls-2{fill:#fdfdfd;}.cls-3{fill:#fafafa;}.cls-4{fill:#f8f8f8;}.cls-5{fill:#f5f5f5;}.cls-6{fill:#f3f3f3;}.cls-7{fill:#f0f0f0;}.cls-8{fill:#eee;}.cls-9{fill:#ebebeb;}.cls-10{fill:#e9e9e9;}.cls-11{fill:#e6e6e6;}.cls-12{fill:#e4e4e4;}</style></defs><title>vector</title><path class="cls-1" d="M0,0V98H98V0H0ZM49,90.32A41.32,41.32,0,1,1,90.32,49,41.32,41.32,0,0,1,49,90.32Z"/><path class="cls-1" d="M49,92.69A43.69,43.69,0,1,1,92.69,49,43.69,43.69,0,0,1,49,92.69ZM49,1.88A47.12,47.12,0,1,0,96.12,49,47.12,47.12,0,0,0,49,1.88Z"/><path class="cls-2" d="M49,92.69A43.69,43.69,0,1,1,92.69,49,43.69,43.69,0,0,1,49,92.69ZM49,2.17A46.83,46.83,0,1,0,95.83,49,46.83,46.83,0,0,0,49,2.17Z"/><path class="cls-3" d="M49,92.69A43.69,43.69,0,1,1,92.69,49,43.69,43.69,0,0,1,49,92.69ZM49,2.46A46.54,46.54,0,1,0,95.54,49,46.54,46.54,0,0,0,49,2.46Z"/><path class="cls-4" d="M49,92.69A43.69,43.69,0,1,1,92.69,49,43.69,43.69,0,0,1,49,92.69ZM49,2.75A46.25,46.25,0,1,0,95.25,49,46.25,46.25,0,0,0,49,2.75Z"/><path class="cls-5" d="M49,92.69A43.69,43.69,0,1,1,92.69,49,43.69,43.69,0,0,1,49,92.69ZM49,3A46,46,0,1,0,95,49,46,46,0,0,0,49,3Z"/><path class="cls-6" d="M49,92.69A43.69,43.69,0,1,1,92.69,49,43.69,43.69,0,0,1,49,92.69ZM49,3.32A45.68,45.68,0,1,0,94.68,49,45.68,45.68,0,0,0,49,3.32Z"/><path class="cls-7" d="M49,92.69A43.69,43.69,0,1,1,92.69,49,43.69,43.69,0,0,1,49,92.69ZM49,3.61A45.39,45.39,0,1,0,94.39,49,45.39,45.39,0,0,0,49,3.61Z"/><path class="cls-8" d="M49,92.69A43.69,43.69,0,1,1,92.69,49,43.69,43.69,0,0,1,49,92.69Zm0-88.8A45.11,45.11,0,1,0,94.11,49,45.11,45.11,0,0,0,49,3.89Z"/><path class="cls-9" d="M49,92.69A43.69,43.69,0,1,1,92.69,49,43.69,43.69,0,0,1,49,92.69ZM49,4.18A44.82,44.82,0,1,0,93.82,49,44.82,44.82,0,0,0,49,4.18Z"/><path class="cls-10" d="M49,92.69A43.69,43.69,0,1,1,92.69,49,43.69,43.69,0,0,1,49,92.69ZM49,4.47A44.53,44.53,0,1,0,93.53,49,44.53,44.53,0,0,0,49,4.47Z"/><path class="cls-11" d="M49,92.69A43.69,43.69,0,1,1,92.69,49,43.69,43.69,0,0,1,49,92.69ZM49,4.76A44.24,44.24,0,1,0,93.24,49,44.24,44.24,0,0,0,49,4.76Z"/><path class="cls-12" d="M49,92.69A43.69,43.69,0,1,1,92.69,49,43.69,43.69,0,0,1,49,92.69ZM49,5A44,44,0,1,0,93,49,44,44,0,0,0,49,5Z"/><path class="cls-1" d="M49,5A44,44,0,1,0,93,49,44,44,0,0,0,49,5Zm0,84A40.09,40.09,0,1,1,89.09,49,40.09,40.09,0,0,1,49,89.09Z"/></svg>