<svg id="avatar_ph_image_fit.svg" xmlns="http://www.w3.org/2000/svg" width="80" height="80" viewBox="0 0 80 80">
  <defs>
    <style>
      .cls-1 {
        fill: #ff5531;
      }

      .cls-2 {
        fill: #fff;
        fill-rule: evenodd;
      }
    </style>
  </defs>
  <rect id="area" class="cls-1" width="80" height="80"/>
  <path id="tag_:_" data-name="tag :)" class="cls-2" d="M9,2465.86l37.994-37.99a8.539,8.539,0,0,1,12.084,0l19.576,19.57a8.552,8.552,0,0,1,0,12.09L40.179,2498H9v-32.14Zm35.083-13.93a3.633,3.633,0,1,0,0,5.14A3.666,3.666,0,0,0,44.083,2451.93Zm-15.127,30.23c1.1,1.09,1.942,1.13,8.049-1.35a37.011,37.011,0,0,0,12.214-7.77,37.061,37.061,0,0,0,7.767-12.21c2.474-6.11,2.443-6.95,1.347-8.05a2.161,2.161,0,0,0-3.069-.19c-1.566,1.57-3.633,9.27-10.429,16.07s-14.5,8.86-16.066,10.43A2.16,2.16,0,0,0,28.956,2482.16Zm-1.473-13.63a3.63,3.63,0,1,0,0-5.13A3.647,3.647,0,0,0,27.484,2468.53Z" transform="translate(-9 -2418)"/>
</svg>
