<svg id="avatar_ph_image_4.svg" xmlns="http://www.w3.org/2000/svg" width="74" height="74" viewBox="0 0 74 74">
  <defs>
    <style>
      .cls-1 {
        fill: #ff5531;
      }

      .cls-2 {
        fill: #fff;
        fill-rule: evenodd;
      }
    </style>
  </defs>
  <rect id="area" class="cls-1" width="74" height="74"/>
  <path id="tag_:_" data-name="tag :)" class="cls-2" d="M0,50.974L35.019,15.955a5.988,5.988,0,0,1,8.468,0L57.206,29.673a5.988,5.988,0,0,1,0,8.468L21.346,74H0V50.974ZM32.979,32.821a2.545,2.545,0,1,0,0,3.6A2.556,2.556,0,0,0,32.979,32.821ZM22.379,54c0.768,0.768,1.361.79,5.641-.944a26.018,26.018,0,0,0,8.56-5.443,26.014,26.014,0,0,0,5.443-8.56c1.734-4.28,1.712-4.872.944-5.64a1.512,1.512,0,0,0-2.151-.132c-1.1,1.1-2.546,6.5-7.308,11.259S23.344,50.753,22.247,51.85A1.513,1.513,0,0,0,22.379,54Zm-1.032-9.548a2.545,2.545,0,1,0,0-3.6A2.556,2.556,0,0,0,21.347,44.453Z"/>
</svg>
