<svg id="mask_bg" data-name="mask bg" xmlns="http://www.w3.org/2000/svg" width="96" height="96" viewBox="0 0 96 96"><defs><style>.cls-1{fill:#fff;}.cls-1,.cls-10,.cls-11,.cls-12,.cls-2,.cls-3,.cls-4,.cls-5,.cls-6,.cls-7,.cls-8,.cls-9{fill-rule:evenodd;}.cls-2{fill:#fdfdfd;}.cls-3{fill:#fafafa;}.cls-4{fill:#f8f8f8;}.cls-5{fill:#f5f5f5;}.cls-6{fill:#f3f3f3;}.cls-7{fill:#f0f0f0;}.cls-8{fill:#eee;}.cls-9{fill:#ebebeb;}.cls-10{fill:#e9e9e9;}.cls-11{fill:#e6e6e6;}.cls-12{fill:#e4e4e4;}</style></defs><title>vector</title><path class="cls-1" d="M0,0V96H96V0H0ZM47,86.56A38.56,38.56,0,1,1,85.59,48,38.56,38.56,0,0,1,47,86.56Z"/><path class="cls-1" d="M47,88.77A40.77,40.77,0,1,1,87.8,48,40.77,40.77,0,0,1,47,88.77Zm0-87.1A46.33,46.33,0,1,0,93.36,48,46.33,46.33,0,0,0,47,1.67Z"/><path class="cls-2" d="M47,88.77A40.77,40.77,0,1,1,87.8,48,40.77,40.77,0,0,1,47,88.77ZM47,2.15A45.85,45.85,0,1,0,92.88,48,45.85,45.85,0,0,0,47,2.15Z"/><path class="cls-3" d="M47,88.77A40.77,40.77,0,1,1,87.8,48,40.77,40.77,0,0,1,47,88.77ZM47,2.64A45.36,45.36,0,1,0,92.39,48,45.36,45.36,0,0,0,47,2.64Z"/><path class="cls-4" d="M47,88.77A40.77,40.77,0,1,1,87.8,48,40.77,40.77,0,0,1,47,88.77ZM47,3.12A44.88,44.88,0,1,0,91.91,48,44.88,44.88,0,0,0,47,3.12Z"/><path class="cls-5" d="M47,88.77A40.77,40.77,0,1,1,87.8,48,40.77,40.77,0,0,1,47,88.77ZM47,3.6A44.4,44.4,0,1,0,91.43,48,44.4,44.4,0,0,0,47,3.6Z"/><path class="cls-6" d="M47,88.77A40.77,40.77,0,1,1,87.8,48,40.77,40.77,0,0,1,47,88.77ZM47,4.08A43.92,43.92,0,1,0,90.94,48,43.92,43.92,0,0,0,47,4.08Z"/><path class="cls-7" d="M47,88.77A40.77,40.77,0,1,1,87.8,48,40.77,40.77,0,0,1,47,88.77Zm0-84.2A43.43,43.43,0,1,0,90.46,48,43.43,43.43,0,0,0,47,4.57Z"/><path class="cls-8" d="M47,88.77A40.77,40.77,0,1,1,87.8,48,40.77,40.77,0,0,1,47,88.77ZM47,5.05A42.95,42.95,0,1,0,90,48,42.95,42.95,0,0,0,47,5.05Z"/><path class="cls-9" d="M47,88.77A40.77,40.77,0,1,1,87.8,48,40.77,40.77,0,0,1,47,88.77ZM47,5.53A42.47,42.47,0,1,0,89.5,48,42.47,42.47,0,0,0,47,5.53Z"/><path class="cls-10" d="M47,88.77A40.77,40.77,0,1,1,87.8,48,40.77,40.77,0,0,1,47,88.77ZM47,6A42,42,0,1,0,89,48,42,42,0,0,0,47,6Z"/><path class="cls-11" d="M47,88.77A40.77,40.77,0,1,1,87.8,48,40.77,40.77,0,0,1,47,88.77ZM47,6.5A41.5,41.5,0,1,0,88.53,48,41.5,41.5,0,0,0,47,6.5Z"/><path class="cls-12" d="M47,88.77A40.77,40.77,0,1,1,87.8,48,40.77,40.77,0,0,1,47,88.77ZM47,7A41,41,0,1,0,88,48,41,41,0,0,0,47,7Z"/><path class="cls-1" d="M47,7A41,41,0,1,0,88,48,41,41,0,0,0,47,7Zm0,79.58C26,86.56,9,69.3,9,48S26,9.44,47,9.44s38,17.26,38,38.56S68,86.56,47,86.56Z"/></svg>