<svg id="avatar_ph_image_4_fit.svg" xmlns="http://www.w3.org/2000/svg" width="54" height="54" viewBox="0 0 54 54">
  <defs>
    <style>
      .cls-1 {
        fill: #ff5531;
      }

      .cls-2 {
        fill: #fff;
        fill-rule: evenodd;
      }
    </style>
  </defs>
  <rect id="area" class="cls-1" width="54" height="54"/>
  <path id="tag_:_" data-name="tag :)" class="cls-2" d="M9,41.974L35.019,15.955a5.988,5.988,0,0,1,8.468,0L57.206,29.673a5.988,5.988,0,0,1,0,8.468L32.346,63H9V41.974Zm23.979-9.153a2.545,2.545,0,1,0,0,3.6A2.557,2.557,0,0,0,32.979,32.821ZM22.379,54c0.768,0.768,1.361.79,5.641-.944a26.017,26.017,0,0,0,8.56-5.443,26.013,26.013,0,0,0,5.443-8.559c1.734-4.28,1.712-4.872.944-5.64a1.513,1.513,0,0,0-2.151-.132c-1.1,1.1-2.546,6.5-7.308,11.259S23.344,50.753,22.247,51.85A1.513,1.513,0,0,0,22.379,54Zm-1.032-9.548a2.545,2.545,0,1,0,0-3.6A2.557,2.557,0,0,0,21.347,44.453Z" transform="translate(-9 -9)"/>
</svg>
