<svg id="mask_bg" data-name="mask bg" xmlns="http://www.w3.org/2000/svg" width="58" height="58" viewBox="0 0 58 58"><defs><style>.cls-1{fill:#fff;}.cls-1,.cls-10,.cls-11,.cls-12,.cls-2,.cls-3,.cls-4,.cls-5,.cls-6,.cls-7,.cls-8,.cls-9{fill-rule:evenodd;}.cls-2{fill:#fdfdfd;}.cls-3{fill:#fafafa;}.cls-4{fill:#f8f8f8;}.cls-5{fill:#f5f5f5;}.cls-6{fill:#f3f3f3;}.cls-7{fill:#f0f0f0;}.cls-8{fill:#eee;}.cls-9{fill:#ebebeb;}.cls-10{fill:#e9e9e9;}.cls-11{fill:#e6e6e6;}.cls-12{fill:#e4e4e4;}</style></defs><title>vector</title><path class="cls-1" d="M0,0V58H58V0H0ZM29,51.59A22.59,22.59,0,1,1,51.63,29,22.59,22.59,0,0,1,29,51.59Z"/><path class="cls-1" d="M29,52.89A23.89,23.89,0,1,1,52.93,29,23.89,23.89,0,0,1,29,52.89ZM29,0.62A28.38,28.38,0,1,0,57.43,29,28.38,28.38,0,0,0,29,.62Z"/><path class="cls-2" d="M29,52.89A23.89,23.89,0,1,1,52.93,29,23.89,23.89,0,0,1,29,52.89ZM29,1A28,28,0,1,0,57,29,28,28,0,0,0,29,1Z"/><path class="cls-3" d="M29,52.89A23.89,23.89,0,1,1,52.93,29,23.89,23.89,0,0,1,29,52.89ZM29,1.41A27.59,27.59,0,1,0,56.64,29,27.59,27.59,0,0,0,29,1.41Z"/><path class="cls-4" d="M29,52.89A23.89,23.89,0,1,1,52.93,29,23.89,23.89,0,0,1,29,52.89ZM29,1.8A27.2,27.2,0,1,0,56.24,29,27.2,27.2,0,0,0,29,1.8Z"/><path class="cls-5" d="M29,52.89A23.89,23.89,0,1,1,52.93,29,23.89,23.89,0,0,1,29,52.89ZM29,2.2A26.8,26.8,0,1,0,55.84,29,26.8,26.8,0,0,0,29,2.2Z"/><path class="cls-6" d="M29,52.89A23.89,23.89,0,1,1,52.93,29,23.89,23.89,0,0,1,29,52.89ZM29,2.6A26.4,26.4,0,1,0,55.45,29,26.4,26.4,0,0,0,29,2.6Z"/><path class="cls-7" d="M29,52.89A23.89,23.89,0,1,1,52.93,29,23.89,23.89,0,0,1,29,52.89ZM29,3a26,26,0,1,0,26,26A26,26,0,0,0,29,3Z"/><path class="cls-8" d="M29,52.89A23.89,23.89,0,1,1,52.93,29,23.89,23.89,0,0,1,29,52.89Zm0-49.5A25.61,25.61,0,1,0,54.66,29,25.61,25.61,0,0,0,29,3.39Z"/><path class="cls-9" d="M29,52.89A23.89,23.89,0,1,1,52.93,29,23.89,23.89,0,0,1,29,52.89Zm0-49.1A25.22,25.22,0,1,0,54.26,29,25.22,25.22,0,0,0,29,3.78Z"/><path class="cls-10" d="M29,52.89A23.89,23.89,0,1,1,52.93,29,23.89,23.89,0,0,1,29,52.89ZM29,4.18A24.82,24.82,0,1,0,53.87,29,24.82,24.82,0,0,0,29,4.18Z"/><path class="cls-11" d="M29,52.89A23.89,23.89,0,1,1,52.93,29,23.89,23.89,0,0,1,29,52.89ZM29,4.57A24.43,24.43,0,1,0,53.47,29,24.43,24.43,0,0,0,29,4.57Z"/><path class="cls-12" d="M29,52.89A23.89,23.89,0,1,1,52.93,29,23.89,23.89,0,0,1,29,52.89ZM29,5a24,24,0,1,0,24,24A24,24,0,0,0,29,5Z"/><path class="cls-1" d="M29,5a24,24,0,1,0,24,24A24,24,0,0,0,29,5Zm0,46A22,22,0,1,1,51,29,22,22,0,0,1,29,51Z"/></svg>