<svg id="mask_bg" data-name="mask bg" xmlns="http://www.w3.org/2000/svg" width="74" height="74" viewBox="0 0 74 74"><defs><style>.cls-1{fill:#fff;}.cls-1,.cls-10,.cls-11,.cls-12,.cls-2,.cls-3,.cls-4,.cls-5,.cls-6,.cls-7,.cls-8,.cls-9{fill-rule:evenodd;}.cls-2{fill:#fdfdfd;}.cls-3{fill:#fafafa;}.cls-4{fill:#f8f8f8;}.cls-5{fill:#f5f5f5;}.cls-6{fill:#f3f3f3;}.cls-7{fill:#f0f0f0;}.cls-8{fill:#eee;}.cls-9{fill:#ebebeb;}.cls-10{fill:#e9e9e9;}.cls-11{fill:#e6e6e6;}.cls-12{fill:#e4e4e4;}</style></defs><title>vector</title><path class="cls-1" d="M0,0V74H74V0H0ZM35.95,65.15A28.15,28.15,0,1,1,64.1,37,28.15,28.15,0,0,1,35.95,65.15Z"/><path class="cls-1" d="M35.95,66.77A29.77,29.77,0,1,1,65.72,37,29.77,29.77,0,0,1,35.95,66.77Zm0-64A34.24,34.24,0,1,0,70.18,37,34.24,34.24,0,0,0,35.95,2.76Z"/><path class="cls-2" d="M35.95,66.77A29.77,29.77,0,1,1,65.72,37,29.77,29.77,0,0,1,35.95,66.77Zm0-63.62A33.85,33.85,0,1,0,69.79,37,33.85,33.85,0,0,0,35.95,3.15Z"/><path class="cls-3" d="M35.95,66.77A29.77,29.77,0,1,1,65.72,37,29.77,29.77,0,0,1,35.95,66.77Zm0-63.23A33.46,33.46,0,1,0,69.4,37,33.46,33.46,0,0,0,35.95,3.54Z"/><path class="cls-4" d="M35.95,66.77A29.77,29.77,0,1,1,65.72,37,29.77,29.77,0,0,1,35.95,66.77Zm0-62.84A33.07,33.07,0,1,0,69,37,33.07,33.07,0,0,0,35.95,3.93Z"/><path class="cls-5" d="M35.95,66.77A29.77,29.77,0,1,1,65.72,37,29.77,29.77,0,0,1,35.95,66.77Zm0-62.45A32.68,32.68,0,1,0,68.62,37,32.68,32.68,0,0,0,35.95,4.32Z"/><path class="cls-6" d="M35.95,66.77A29.77,29.77,0,1,1,65.72,37,29.77,29.77,0,0,1,35.95,66.77Zm0-62.06A32.29,32.29,0,1,0,68.23,37,32.29,32.29,0,0,0,35.95,4.71Z"/><path class="cls-7" d="M35.95,66.77A29.77,29.77,0,1,1,65.72,37,29.77,29.77,0,0,1,35.95,66.77Zm0-61.67A31.9,31.9,0,1,0,67.84,37,31.9,31.9,0,0,0,35.95,5.1Z"/><path class="cls-8" d="M35.95,66.77A29.77,29.77,0,1,1,65.72,37,29.77,29.77,0,0,1,35.95,66.77Zm0-61.28A31.51,31.51,0,1,0,67.45,37,31.51,31.51,0,0,0,35.95,5.49Z"/><path class="cls-9" d="M35.95,66.77A29.77,29.77,0,1,1,65.72,37,29.77,29.77,0,0,1,35.95,66.77Zm0-60.89A31.12,31.12,0,1,0,67.06,37,31.12,31.12,0,0,0,35.95,5.88Z"/><path class="cls-10" d="M35.95,66.77A29.77,29.77,0,1,1,65.72,37,29.77,29.77,0,0,1,35.95,66.77Zm0-60.5A30.73,30.73,0,1,0,66.67,37,30.73,30.73,0,0,0,35.95,6.27Z"/><path class="cls-11" d="M35.95,66.77A29.77,29.77,0,1,1,65.72,37,29.77,29.77,0,0,1,35.95,66.77Zm0-60.11A30.34,30.34,0,1,0,66.28,37,30.34,30.34,0,0,0,35.95,6.66Z"/><path class="cls-12" d="M35.95,66.77A29.77,29.77,0,1,1,65.72,37,29.77,29.77,0,0,1,35.95,66.77Zm0-59.72A29.95,29.95,0,1,0,65.9,37,29.95,29.95,0,0,0,35.95,7.05Z"/><path class="cls-1" d="M35.95,7.05A29.95,29.95,0,1,0,65.9,37,29.95,29.95,0,0,0,35.95,7.05Zm0,57A27,27,0,1,1,63,37,27,27,0,0,1,35.95,64Z"/></svg>