<svg id="mask_bg" data-name="mask bg" xmlns="http://www.w3.org/2000/svg" width="181" height="181" viewBox="0 0 181 181"><defs><style>.cls-1{fill:#fff;}.cls-1,.cls-10,.cls-11,.cls-12,.cls-2,.cls-3,.cls-4,.cls-5,.cls-6,.cls-7,.cls-8,.cls-9{fill-rule:evenodd;}.cls-2{fill:#fdfdfd;}.cls-3{fill:#fafafa;}.cls-4{fill:#f8f8f8;}.cls-5{fill:#f5f5f5;}.cls-6{fill:#f3f3f3;}.cls-7{fill:#f0f0f0;}.cls-8{fill:#eee;}.cls-9{fill:#ebebeb;}.cls-10{fill:#e9e9e9;}.cls-11{fill:#e6e6e6;}.cls-12{fill:#e4e4e4;}</style></defs><title>vector</title><path class="cls-1" d="M0,0V181H181V0H0ZM90.5,169A78.5,78.5,0,1,1,169,90.5,78.5,78.5,0,0,1,90.5,169Z"/><path class="cls-1" d="M90.5,173.5a83,83,0,1,1,83-83A83,83,0,0,1,90.5,173.5ZM90.5,1A89.5,89.5,0,1,0,180,90.5,89.5,89.5,0,0,0,90.5,1Z"/><path class="cls-2" d="M90.5,173.5a83,83,0,1,1,83-83A83,83,0,0,1,90.5,173.5Zm0-172a89,89,0,1,0,89,89A89,89,0,0,0,90.5,1.55Z"/><path class="cls-3" d="M90.5,173.5a83,83,0,1,1,83-83A83,83,0,0,1,90.5,173.5Zm0-171.41A88.41,88.41,0,1,0,178.91,90.5,88.41,88.41,0,0,0,90.5,2.09Z"/><path class="cls-4" d="M90.5,173.5a83,83,0,1,1,83-83A83,83,0,0,1,90.5,173.5Zm0-170.86A87.86,87.86,0,1,0,178.36,90.5,87.86,87.86,0,0,0,90.5,2.64Z"/><path class="cls-5" d="M90.5,173.5a83,83,0,1,1,83-83A83,83,0,0,1,90.5,173.5Zm0-170.32A87.32,87.32,0,1,0,177.82,90.5,87.32,87.32,0,0,0,90.5,3.18Z"/><path class="cls-6" d="M90.5,173.5a83,83,0,1,1,83-83A83,83,0,0,1,90.5,173.5Zm0-169.77A86.77,86.77,0,1,0,177.27,90.5,86.77,86.77,0,0,0,90.5,3.73Z"/><path class="cls-7" d="M90.5,173.5a83,83,0,1,1,83-83A83,83,0,0,1,90.5,173.5Zm0-169.23A86.23,86.23,0,1,0,176.73,90.5,86.23,86.23,0,0,0,90.5,4.27Z"/><path class="cls-8" d="M90.5,173.5a83,83,0,1,1,83-83A83,83,0,0,1,90.5,173.5Zm0-168.68A85.68,85.68,0,1,0,176.18,90.5,85.68,85.68,0,0,0,90.5,4.82Z"/><path class="cls-9" d="M90.5,173.5a83,83,0,1,1,83-83A83,83,0,0,1,90.5,173.5Zm0-168.14A85.14,85.14,0,1,0,175.64,90.5,85.14,85.14,0,0,0,90.5,5.36Z"/><path class="cls-10" d="M90.5,173.5a83,83,0,1,1,83-83A83,83,0,0,1,90.5,173.5Zm0-167.59A84.59,84.59,0,1,0,175.09,90.5,84.59,84.59,0,0,0,90.5,5.91Z"/><path class="cls-11" d="M90.5,173.5a83,83,0,1,1,83-83A83,83,0,0,1,90.5,173.5Zm0-167a84,84,0,1,0,84,84A84,84,0,0,0,90.5,6.45Z"/><path class="cls-12" d="M90.5,173.5a83,83,0,1,1,83-83A83,83,0,0,1,90.5,173.5ZM90.5,7A83.5,83.5,0,1,0,174,90.5,83.5,83.5,0,0,0,90.5,7Z"/><path class="cls-1" d="M90.5,7A83.5,83.5,0,1,0,174,90.5,83.5,83.5,0,0,0,90.5,7Zm0,162A78.5,78.5,0,1,1,169,90.5,78.5,78.5,0,0,1,90.5,169Z"/></svg>