<svg id="avatar_notification_ph_image.svg" xmlns="http://www.w3.org/2000/svg" width="35" height="35" viewBox="0 0 35 35">
  <defs>
    <style>
      .cls-1 {
        fill: #ff5531;
      }

      .cls-2 {
        fill: #fff;
        fill-rule: evenodd;
      }
    </style>
  </defs>
  <rect id="area_copy" data-name="area copy" class="cls-1" width="35" height="35"/>
  <path id="tag_:_copy_2" data-name="tag :) copy 2" class="cls-2" d="M226,2464.09c0.031-.03.054-0.07,0.087-0.11l16.745-16.74a3.662,3.662,0,0,1,5.179,0l8.391,8.39a3.664,3.664,0,0,1,0,5.18L240.211,2477H226v-12.91Zm15.584-6.53a1.556,1.556,0,1,0-2.2,2.2A1.556,1.556,0,0,0,241.584,2457.56Zm-6.483,12.95c0.47,0.47.832,0.48,3.45-.58a14.292,14.292,0,0,0,8.564-8.56c1.06-2.62,1.047-2.98.577-3.45a0.923,0.923,0,0,0-1.315-.08c-0.672.67-1.558,3.97-4.47,6.88s-6.216,3.8-6.887,4.47A0.931,0.931,0,0,0,235.1,2470.51Zm-0.631-5.84a1.556,1.556,0,0,0,2.2-2.2A1.556,1.556,0,1,0,234.47,2464.67Z" transform="translate(-226 -2442)"/>
</svg>
