<svg id="avatar_ph_image_3_fit.svg" xmlns="http://www.w3.org/2000/svg" width="157" height="157" viewBox="0 0 157 157">
  <defs>
    <style>
      .cls-1 {
        fill: #ff5531;
      }

      .cls-2 {
        fill: #fff;
        fill-rule: evenodd;
      }
    </style>
  </defs>
  <rect id="area" class="cls-1" width="157" height="157"/>
  <path id="tag_:_" data-name="tag :)" class="cls-2" d="M251,307.376l76.172-76.171a16.445,16.445,0,0,1,23.258,0l37.678,37.678a16.445,16.445,0,0,1,0,23.258L312.249,368H251V307.376Zm70.568-29.846a6.99,6.99,0,1,0,0,9.886A7.021,7.021,0,0,0,321.568,277.53ZM292.453,335.7c2.11,2.11,3.737,2.17,15.492-2.592,9.163-3.737,17.361-8.8,23.51-14.95s11.212-14.346,14.949-23.509c4.763-11.755,4.7-13.382,2.592-15.492a4.154,4.154,0,0,0-5.907-.362c-3.014,3.014-6.993,17.843-20.074,30.924s-27.91,17.06-30.923,20.074A4.154,4.154,0,0,0,292.453,335.7Zm-2.834-26.223a6.99,6.99,0,1,0,0-9.886A7.023,7.023,0,0,0,289.619,309.479Z" transform="translate(-251 -211)"/>
</svg>
