<svg id="avatar_ph_image.svg" xmlns="http://www.w3.org/2000/svg" width="98" height="98" viewBox="0 0 98 98">
  <defs>
    <style>
      .cls-1 {
        fill: #ff5531;
      }

      .cls-2 {
        fill: #fff;
        fill-rule: evenodd;
      }
    </style>
  </defs>
  <rect id="area" class="cls-1" width="98" height="98"/>
  <path id="tag_:_" data-name="tag :)" class="cls-2" d="M0,2474.86l46.994-46.99a8.539,8.539,0,0,1,12.084,0l19.576,19.57a8.552,8.552,0,0,1,0,12.09L30.18,2508H0v-33.14Zm44.082-22.93a3.633,3.633,0,1,0,0,5.14A3.666,3.666,0,0,0,44.083,2451.93Zm-15.127,30.23c1.1,1.09,1.942,1.13,8.049-1.35a37.012,37.012,0,0,0,12.214-7.77,37.061,37.061,0,0,0,7.767-12.21c2.474-6.11,2.443-6.95,1.347-8.05a2.161,2.161,0,0,0-3.069-.19c-1.566,1.57-3.633,9.27-10.429,16.07s-14.5,8.86-16.067,10.43A2.16,2.16,0,0,0,28.956,2482.16Zm-1.473-13.63a3.63,3.63,0,1,0,0-5.13A3.647,3.647,0,0,0,27.484,2468.53Z" transform="translate(0 -2410)"/>
</svg>
