<svg id="avatar_group_default.svg" xmlns="http://www.w3.org/2000/svg" width="400" height="300" viewBox="0 0 400 300">
  <defs>
    <style>
      .cls-1 {
        fill: #ccc;
      }

      .cls-2 {
        fill: #fff;
        fill-rule: evenodd;
        opacity: 0.5;
      }
    </style>
  </defs>
  <rect id="area" class="cls-1" width="400" height="300"/>
  <path id="tag_:_copy_6" data-name="tag :) copy 6" class="cls-2" d="M482.655,313.883L443.773,275H556.5l-38.883,38.883A24.725,24.725,0,0,1,482.655,313.883Zm-211.7,43.857-56.636,56.637A24.593,24.593,0,0,1,200,421.391V354.112a6.08,6.08,0,0,0,0-6.68V315.457a10.232,10.232,0,0,0,1.321-1.1,10.554,10.554,0,0,0,0-14.86,10.313,10.313,0,0,0-1.321-1.1V275h23.178l47.779,47.779A24.72,24.72,0,0,1,270.957,357.74ZM200,448.379l80.8-80.8a24.723,24.723,0,0,1,34.962,0L372.4,424.217a24.723,24.723,0,0,1,0,34.962L259.378,572.2A24.683,24.683,0,0,1,256,575H200V448.379Zm72.374-11.163a10.508,10.508,0,1,0,0,14.861A10.555,10.555,0,0,0,272.374,437.216ZM228.61,524.659c3.171,3.171,5.618,3.262,23.287-3.9,13.773-5.619,26.1-13.23,35.339-22.473s16.854-21.565,22.472-35.339c7.158-17.669,7.068-20.116,3.9-23.287-2.718-2.718-6.614-2.809-8.88-.543-4.53,4.531-10.511,26.821-30.174,46.483s-41.953,25.644-46.484,30.175C225.8,518.044,225.891,521.941,228.61,524.659Zm-4.261-39.419a10.508,10.508,0,1,0,0-14.86A10.555,10.555,0,0,0,224.349,485.24Zm304.7,38.029,56.637-56.636A24.582,24.582,0,0,1,600,459.62v83.8a22.534,22.534,0,0,0-3.279-5.25c-2.265-2.266-6.162-2.175-8.88.544-3.172,3.17-3.262,5.617,3.9,23.287a129.515,129.515,0,0,0,6.175,13h-52.1l-16.768-16.769A24.723,24.723,0,0,1,529.049,523.269Zm-45.432-8.878-56.636-56.637a24.72,24.72,0,0,1,0-34.961L540.014,309.76a24.717,24.717,0,0,1,17.446-7.241L600,302.46V432.97l-81.421,81.421A24.723,24.723,0,0,1,483.617,514.391Zm27.86-114.883a10.508,10.508,0,1,0,0,14.861A10.555,10.555,0,0,0,511.477,399.508Zm33.163-33.164a10.508,10.508,0,1,0,0,14.86A10.554,10.554,0,0,0,544.64,366.344Zm13.051,62.887c9.242-9.243,16.854-21.566,22.472-35.339,7.158-17.67,7.067-20.116,3.9-23.288-2.719-2.718-6.616-2.809-8.881-.543-4.53,4.53-10.511,26.821-30.174,46.484s-41.953,25.643-46.484,30.174c-2.266,2.265-2.175,6.162.543,8.88,3.171,3.172,5.618,3.262,23.287-3.9C536.125,446.085,548.448,438.473,557.691,429.231Zm-231.324,95.6L383.005,468.2a24.72,24.72,0,0,1,34.961,0L524.77,575H476.9a10.371,10.371,0,0,0-2.48-4,10.554,10.554,0,0,0-14.86,0,10.371,10.371,0,0,0-2.48,4H414.5c-12.148-16.188-16.784-31.584-20.464-35.264-2.265-2.266-6.162-2.175-8.88.544-3.172,3.17-3.262,5.617,3.9,23.287,1.611,3.949,3.4,7.76,5.334,11.433H341.573l-15.206-15.206A24.725,24.725,0,0,1,326.367,524.832Zm100.023,27.86a10.508,10.508,0,1,0,0-14.861A10.557,10.557,0,0,0,426.39,552.692ZM472.957,357.74l-56.636,56.637a24.724,24.724,0,0,1-34.963,0L268.34,301.359a24.725,24.725,0,0,1-7.241-17.481V275h52.723c-0.051,3.078,1.624,8.193,5.953,18.878,5.618,13.773,13.229,26.1,22.472,35.339s21.566,16.854,35.339,22.472c17.67,7.158,20.116,7.068,23.287,3.9,2.719-2.718,2.809-6.615.543-8.88-4.53-4.531-26.821-10.511-46.483-30.174C339.357,300.955,332.369,283.74,327.884,275H352.32a10.427,10.427,0,0,0,2.977,6.19,10.555,10.555,0,0,0,14.861,0,10.427,10.427,0,0,0,2.977-6.19h52.043l47.779,47.779A24.72,24.72,0,0,1,472.957,357.74Zm-69.636-58.246a10.508,10.508,0,1,0,0,14.86A10.554,10.554,0,0,0,403.321,299.494Z" transform="translate(-200 -275)"/>
</svg>
