<svg id="btn_chat.svg" xmlns="http://www.w3.org/2000/svg" width="76" height="60" viewBox="0 0 76 60">
  <defs>
    <style>
      .cls-1 {
        fill: red;
        fill-opacity: 0;
      }

      .cls-2 {
        fill: #09f;
      }

      .cls-3 {
        fill: #fff;
        fill-rule: evenodd;
      }
    </style>
  </defs>
  <rect class="cls-1" width="76" height="60"/>
  <rect id="bg" class="cls-2" x="8" y="8" width="60" height="44" rx="15" ry="15"/>
  <path id="icon_chat" class="cls-3" d="M1368.38,139.271h-1.39v4.344l-4.24-4.344h-3.09v-3.74a6.994,6.994,0,0,0-6.56-6.978,4.591,4.591,0,0,1,4.48-3.577h10.8a4.611,4.611,0,0,1,4.61,4.6v5.087A4.611,4.611,0,0,1,1368.38,139.271Zm-4.62-9.589a2.866,2.866,0,0,1,1.48.473l0.74-1.039a3.2,3.2,0,0,0-2-.709v-1.1h-1.09v1.172a2.445,2.445,0,0,0-1.13.556,1.741,1.741,0,0,0-.66,1.388,1.6,1.6,0,0,0,.53,1.214,4.623,4.623,0,0,0,1.38.787,6.051,6.051,0,0,1,1.1.519,0.575,0.575,0,0,1,.19.432c0,0.494-.34.741-1.04,0.741a3.363,3.363,0,0,1-1.64-.5l-0.73,1.08a2.336,2.336,0,0,0,.68.411,3.8,3.8,0,0,0,1.32.34v1.111h1.09v-1.142a2.616,2.616,0,0,0,1.41-.638,1.942,1.942,0,0,0,.65-1.5,1.621,1.621,0,0,0-.52-1.235,5.2,5.2,0,0,0-1.4-.822,6.408,6.408,0,0,1-1.08-.525,0.556,0.556,0,0,1-.21-0.4Q1362.83,129.681,1363.76,129.682Zm-5.75,6.171v6.264a5.891,5.891,0,0,1-5.89,5.887h-8.78l-5.34,5.679v-5.767a5.869,5.869,0,0,1-5.01-5.8v-6.264a5.882,5.882,0,0,1,5.88-5.887h13.25A5.891,5.891,0,0,1,1358.01,135.853Zm-17.59,1.235a1.952,1.952,0,1,0,1.95,1.952A1.949,1.949,0,0,0,1340.42,137.088Zm5.51,0a1.952,1.952,0,1,0,1.95,1.952A1.949,1.949,0,0,0,1345.93,137.088Zm5.5,0a1.952,1.952,0,1,0,1.96,1.952A1.956,1.956,0,0,0,1351.43,137.088Z" transform="translate(-1315 -108)"/>
</svg>
