<svg xmlns="http://www.w3.org/2000/svg" width="432.844" height="173.875" viewBox="0 0 432.844 173.875">
  <defs>
    <style>
      .cls-1 {
        fill: #fff;
        fill-rule: evenodd;
      }
    </style>
  </defs>
  <path id="copy_slogan.svg" class="cls-1" d="M459.668,385.3c7.139,0,10.385-3.953,12.1-7.966h2.3c-2.3,6.55-7.258,10.149-14.4,10.149a15.528,15.528,0,0,1-15.517-15.813c0-8.85,6.785-16.048,15.163-16.048a15.356,15.356,0,0,1,14.1,10.03l-26.2,11.033A13.163,13.163,0,0,0,459.668,385.3Zm10.8-20.769a12.869,12.869,0,0,0-11.152-6.844c-7.139,0-12.98,6.195-12.98,13.924a14.994,14.994,0,0,0,.3,2.891Zm-44.1,139.037c-8.907,0-15.8-7.382-15.8-16.41,0-9.151,6.893-16.593,15.8-16.593,8.967,0,15.8,7.442,15.8,16.593C442.167,496.185,435.334,503.567,426.367,503.567Zm0-28.062c-5.8,0-10.554,5.246-10.554,11.652,0,6.283,4.758,11.407,10.554,11.407,5.856,0,10.614-5.124,10.614-11.407C436.981,480.751,432.223,475.505,426.367,475.505Zm-0.791-32.131c6.776,0,9.855-3.752,11.479-7.56h2.184c-2.184,6.216-6.887,9.632-13.663,9.632a14.738,14.738,0,0,1-14.728-15.008c0-8.4,6.44-15.232,14.392-15.232a14.573,14.573,0,0,1,13.383,9.52L413.76,435.2A12.493,12.493,0,0,0,425.576,443.374Zm10.247-19.712a12.21,12.21,0,0,0-10.583-6.5c-6.776,0-12.32,5.88-12.32,13.216a14.231,14.231,0,0,0,.28,2.744Zm-11.141-36.18c-8.378,0-15.164-7.081-15.164-15.813,0-8.85,6.786-16.048,15.164-16.048a14.6,14.6,0,0,1,12.98,8.142V342.876h2.183v28.793C439.845,380.4,433.06,387.482,424.682,387.482Zm0-29.619c-7.139,0-12.981,6.195-12.981,13.806,0,7.493,5.842,13.63,12.981,13.63s12.98-6.137,12.98-13.63C437.662,364.058,431.821,357.863,424.682,357.863ZM401.845,478.189c-1.4,1.4-2.38,3.416-2.38,8.846,0,6.222-1.1,9.821-3.9,12.506a12.989,12.989,0,0,1-9.882,3.233v-5.125a8.608,8.608,0,0,0,6.344-1.891c1.342-1.281,2.318-3.294,2.318-8.723,0-6.223,1.1-9.883,3.9-12.567,2.38-2.257,5.8-3.356,9.883-3.111v5.063C405.688,476.359,403.492,476.664,401.845,478.189Zm-0.113-109.765a10.591,10.591,0,0,0-21.182,0v18.35h-2.183v-18.35a12.774,12.774,0,1,1,25.548,0v18.35h-2.183v-18.35Zm-17.6,50.366a11.249,11.249,0,0,1,8.848-2.912v2.073a9.616,9.616,0,0,0-7.448,2.351c-2.128,2.016-2.968,4.872-2.968,10.024,0,5.768-1.008,9.128-3.584,11.592a11.489,11.489,0,0,1-8.848,2.856v-2.016a9.623,9.623,0,0,0,7.392-2.352c2.128-2.072,2.968-4.872,2.968-10.08C380.5,424.614,381.56,421.254,384.136,418.79ZM358.485,385.3c7.14,0,10.385-3.953,12.1-7.966h2.3c-2.3,6.55-7.257,10.149-14.4,10.149a15.528,15.528,0,0,1-15.517-15.813c0-8.85,6.785-16.048,15.163-16.048a15.356,15.356,0,0,1,14.1,10.03l-26.2,11.033A13.163,13.163,0,0,0,358.485,385.3Zm10.8-20.769a12.868,12.868,0,0,0-11.152-6.844c-7.139,0-12.98,6.195-12.98,13.924a14.994,14.994,0,0,0,.3,2.891ZM326.92,386.774l-11.682-30.386h2.36l10.5,27.377,10.5-27.377h2.36L329.28,386.774h-2.36ZM292.8,435.2a12.492,12.492,0,0,0,11.815,8.176c6.776,0,9.856-3.752,11.48-7.56h2.184c-2.184,6.216-6.888,9.632-13.664,9.632a14.738,14.738,0,0,1-14.727-15.008c0-8.4,6.439-15.232,14.391-15.232a14.574,14.574,0,0,1,13.384,9.52Zm11.479-18.032c-6.776,0-12.319,5.88-12.319,13.216a14.231,14.231,0,0,0,.28,2.744l22.623-9.464A12.212,12.212,0,0,0,304.281,417.166ZM280.9,401.642a12.2,12.2,0,0,1-12.39-10.03h2.3a10.015,10.015,0,0,0,10.089,7.847c6.254,0,10.444-4.248,10.444-10.561v-7.14a11.726,11.726,0,0,1-10.562,5.724,12.337,12.337,0,0,1-12.744-12.745V356.388h2.183v18.349a10.562,10.562,0,1,0,21.123,0V356.388h2.242V388.9C293.587,396.391,288.4,401.642,280.9,401.642Zm-9.1,14.293h2.072V433.35a12.124,12.124,0,0,1-24.247,0V415.935H251.7V433.35a10.052,10.052,0,0,0,20.1,0V415.935ZM267.526,483.5l-24.1,10.188a10.731,10.731,0,0,0,9.09,4.941,10.176,10.176,0,0,0,9.578-5.612h5.368c-2.44,6.71-7.687,10.493-14.946,10.493a16.082,16.082,0,0,1-16.105-16.41c0-9.09,7.076-16.532,15.8-16.532C259.046,470.564,265.7,475.322,267.526,483.5ZM241.6,487.035a11.6,11.6,0,0,0,.183,2.135l19.4-8.175a10.61,10.61,0,0,0-8.968-5.551C247.212,475.444,241.6,479.836,241.6,487.035Zm0.243-49.261a13.932,13.932,0,0,1-12.319,7.672c-7.952,0-14.392-6.776-14.392-15.176,0-8.288,6.44-15.064,14.392-15.064s14.391,6.776,14.391,15.064V457.6h-2.072V437.774Zm-12.319-20.439c-6.776,0-12.32,5.823-12.32,12.935,0,7.224,5.544,13.1,12.32,13.1s12.319-5.88,12.319-13.1C241.842,423.158,236.3,417.335,229.523,417.335Zm12.027-37.878a14.6,14.6,0,0,1-12.981,8.025c-8.378,0-15.163-7.081-15.163-15.813,0-8.85,6.785-16.048,15.163-16.048s15.164,7.2,15.164,16.048v15.105H241.55v-7.317Zm-12.981-21.594c-7.139,0-12.98,6.195-12.98,13.806,0,7.493,5.841,13.63,12.98,13.63s12.981-6.137,12.981-13.63C241.55,364.058,235.708,357.863,228.569,357.863Zm-28.851,10.561v18.35h-2.183v-18.35c0-8.437,5.487-13.57,14.573-12.626V357.8C204.438,357.155,199.718,360.931,199.718,368.424Zm-17.795,74.95c6.776,0,9.856-3.752,11.48-7.56h2.184c-2.184,6.216-6.888,9.632-13.664,9.632A14.738,14.738,0,0,1,167.2,430.438c0-8.4,6.44-15.232,14.391-15.232a14.574,14.574,0,0,1,13.384,9.52L170.108,435.2A12.493,12.493,0,0,0,181.923,443.374Zm10.248-19.712a12.212,12.212,0,0,0-10.584-6.5c-6.775,0-12.319,5.88-12.319,13.216a14.231,14.231,0,0,0,.28,2.744Zm-15.4-36.18a14.544,14.544,0,0,1-12.981-8.084v20.887H161.6V371.492c0-8.732,6.786-15.871,15.164-15.871s15.163,7.139,15.163,15.871C191.931,380.342,185.146,387.482,176.768,387.482Zm0-29.619c-7.139,0-12.981,6.136-12.981,13.629,0,7.611,5.842,13.807,12.981,13.807s12.98-6.2,12.98-13.807C189.748,364,183.907,357.863,176.768,357.863Zm-14.892,58.072V433.35a12.124,12.124,0,0,1-24.248,0V415.935H139.7V433.35a10.052,10.052,0,0,0,20.1,0V415.935h2.072Zm-9.061-48.75a9.352,9.352,0,0,0-18.7,0v19.589h-2.183V367.185a9.352,9.352,0,0,0-18.7,0v19.589h-2.242V367.185a11.223,11.223,0,0,1,11.564-11.564,10.837,10.837,0,0,1,10.444,6.726,10.95,10.95,0,0,1,10.443-6.726A11.189,11.189,0,0,1,155,367.185v19.589h-2.183V367.185Zm-62.54,20.3c-8.319,0-15.163-7.081-15.163-15.813,0-8.85,6.844-16.048,15.163-16.048,8.378,0,15.223,7.2,15.223,16.048C105.5,380.4,98.654,387.482,90.275,387.482Zm0-29.8c-7.139,0-12.98,6.254-12.98,13.983,0,7.552,5.841,13.748,12.98,13.748,7.2,0,12.981-6.2,12.981-13.748C103.256,363.94,97.474,357.686,90.275,357.686Zm-21.134,87.76c-7.9,0-14.391-6.72-14.391-15.008,0-8.4,6.5-15.232,14.392-15.232,7.952,0,14.448,6.832,14.448,15.232C83.589,438.726,77.093,445.446,69.141,445.446Zm0-28.28c-6.776,0-12.32,5.936-12.32,13.272,0,7.168,5.544,13.048,12.32,13.048,6.832,0,12.32-5.88,12.32-13.048C81.461,423.1,75.973,417.166,69.141,417.166ZM57.118,385.3a12.024,12.024,0,0,0,11.741-7.966h2.3a14.38,14.38,0,0,1-14.042,10.149c-8.378,0-15.164-7.081-15.164-15.813,0-8.85,6.785-16.048,15.164-16.048A14.432,14.432,0,0,1,71.16,365.769H68.8a12.249,12.249,0,0,0-11.682-7.906c-7.139,0-12.98,6.195-12.98,13.806C44.137,379.162,49.978,385.3,57.118,385.3ZM43.774,434.806V403.111h2.072v31.695c0,4.928,2.24,8.288,7.728,8.064v1.9C47.358,445.334,43.774,441.246,43.774,434.806Zm13.182,63.758c6.1,0,10.188-4.331,10.188-10.309a9.466,9.466,0,0,0-3.111-7.5c-2.623-2.257-6.283-3.233-12.14-2.5l8.846-12.872H44.084v-4.941H70.8L61.165,473.98c6.589,1.464,11.1,6.893,11.1,14.275,0,8.967-6.527,15.251-15.373,15.251-7.26,0-14.641-3.965-15.678-12.567h5.124C47.318,495.453,51.161,498.564,56.956,498.564Zm42.21-2.806c1.342-1.281,2.318-3.294,2.318-8.723,0-6.223,1.1-9.883,3.905-12.567,2.379-2.257,5.8-3.356,9.882-3.111v5.063c-2.44-.061-4.636.244-6.283,1.769-1.4,1.4-2.379,3.416-2.379,8.846,0,6.222-1.1,9.821-3.905,12.506a12.989,12.989,0,0,1-9.882,3.233v-5.125A8.609,8.609,0,0,0,99.166,495.758Zm3.967-65.488c0-8.288,6.44-15.064,14.391-15.064s14.392,6.776,14.392,15.064V457.6h-2.072V437.774a13.933,13.933,0,0,1-12.32,7.672C109.573,445.446,103.133,438.67,103.133,430.27Zm14.391,13.1c6.776,0,12.32-5.88,12.32-13.1,0-7.112-5.544-12.935-12.32-12.935s-12.319,5.823-12.319,12.935C105.205,437.494,110.749,443.374,117.524,443.374Zm5.432,16.819a2.541,2.541,0,0,1,2.624,2.5v3.9h-5.186v-3.9A2.526,2.526,0,0,1,122.956,460.193Zm2.624,42.581h-5.186V471.357h5.186v31.417Zm20.617-32.21a10.429,10.429,0,0,1,9.4,5.185,10.6,10.6,0,0,1,9.456-5.185c7.137,0,12.017,5.246,12.017,12.078v20.132H171.88V482.459c0-4.087-2.684-7.137-6.832-7.137s-6.833,3.05-6.833,7.137v20.315H153.03V482.459c0-4.087-2.684-7.137-6.833-7.137s-6.832,3.05-6.832,7.137v20.315h-5.186V482.642A11.683,11.683,0,0,1,146.2,470.564Zm53.741,0c8.662,0,15.739,7.076,15.739,16.532,0,9.394-6.955,16.471-15.678,16.471a14.1,14.1,0,0,1-10.859-5.308v18.485h-5V487.1C184.138,477.823,191.031,470.564,199.938,470.564Zm0,28.244c5.8,0,10.554-5.124,10.554-11.712s-4.759-11.713-10.554-11.713c-5.735,0-10.615,5.185-10.615,11.713S194.142,498.808,199.938,498.808Zm26.717-7.686c0,5.551,3.416,6.954,7.321,6.771v4.881c-7.382.854-12.445-3.478-12.445-11.469V457.387h5.124v33.735Zm55.339-85.211h2.072v5.152h-2.072v-5.152Zm2.072,38.863h-2.072V415.935h2.072v28.839Zm-7.7,50.984c1.342-1.281,2.318-3.294,2.318-8.723,0-6.223,1.1-9.883,3.9-12.567,2.379-2.257,5.8-3.356,9.882-3.111v5.063c-2.44-.061-4.636.244-6.283,1.769-1.4,1.4-2.379,3.416-2.379,8.846,0,6.222-1.1,9.821-3.905,12.506a12.989,12.989,0,0,1-9.882,3.233v-5.125A8.608,8.608,0,0,0,276.369,495.758Zm47.12-50.984V427.358c0-8.007,5.208-12.879,13.832-11.983v1.9c-7.28-.616-11.76,2.967-11.76,10.079v17.416h-2.072Zm6.316,25.79c8.662,0,15.739,7.076,15.739,16.532,0,9.394-6.955,16.471-15.678,16.471a14.1,14.1,0,0,1-10.859-5.308v18.485h-5V487.1C314.005,477.823,320.9,470.564,329.805,470.564Zm0,28.244c5.8,0,10.553-5.124,10.553-11.712s-4.758-11.713-10.553-11.713c-5.735,0-10.615,5.185-10.615,11.713S324.009,498.808,329.805,498.808Zm23.14-83.6c7.951,0,14.391,6.832,14.391,15.232v14.336h-2.072V437.83a13.854,13.854,0,0,1-12.319,7.616c-7.952,0-14.392-6.72-14.392-15.008C338.553,422.038,344.993,415.206,352.945,415.206Zm0,28.168c6.775,0,12.319-5.824,12.319-12.936,0-7.224-5.544-13.1-12.319-13.1s-12.32,5.879-12.32,13.1C340.625,437.55,346.169,443.374,352.945,443.374Zm12.667,27.19c8.906,0,15.739,7.259,15.739,16.532v15.678h-5v-4.881a13.372,13.372,0,0,1-10.858,5.674c-8.663,0-15.679-7.077-15.679-16.471C349.811,477.64,356.888,470.564,365.612,470.564Zm0,28.183c5.795,0,10.614-5.185,10.614-11.651,0-6.528-4.88-11.774-10.614-11.774-5.857,0-10.615,5.185-10.615,11.774S359.755,498.747,365.612,498.747ZM456.6,415.206a11.723,11.723,0,0,1,12.1,12.152v17.416h-2.072V427.358a10.052,10.052,0,0,0-20.1,0v17.416h-2.071V427.358A11.736,11.736,0,0,1,456.6,415.206Zm-5.589,80.552c1.342-1.281,2.318-3.294,2.318-8.723,0-6.223,1.1-9.883,3.9-12.567,2.379-2.257,5.795-3.356,9.883-3.111v5.063c-2.44-.061-4.637.244-6.284,1.769-1.4,1.4-2.379,3.416-2.379,8.846,0,6.222-1.1,9.821-3.9,12.506a12.991,12.991,0,0,1-9.883,3.233v-5.125A8.611,8.611,0,0,0,451.01,495.758Z" transform="translate(-41.219 -342.875)"/>
</svg>
