<svg id="flag_not_verified.svg" xmlns="http://www.w3.org/2000/svg" width="78.344" height="78.313" viewBox="0 0 78.344 78.313">
  <defs>
    <style>
      .cls-1 {
        fill: #fff;
      }

      .cls-1, .cls-2 {
        fill-rule: evenodd;
      }

      .cls-2 {
        fill: #ffbc0a;
      }
    </style>
  </defs>
  <path id="white_stroke" data-name="white stroke" class="cls-1" d="M0,53.706L53.729,0H76.336L0,76.3v-22.6Z"/>
  <path id="yellow_flag" data-name="yellow flag" class="cls-2" d="M0,56.1L56.13,0H78.336L0,78.3V56.1Z"/>
  <path id="NO_VERIFICADO" data-name="NO VERIFICADO" class="cls-1" d="M62.2,10.541a3.352,3.352,0,0,1-2.6,1.069,4.022,4.022,0,0,1-2.7-1.295,3.823,3.823,0,0,1-1.233-2.632,3.388,3.388,0,0,1,1.085-2.57,3.377,3.377,0,0,1,2.579-1.085A3.843,3.843,0,0,1,61.959,5.26a4,4,0,0,1,1.3,2.706A3.345,3.345,0,0,1,62.2,10.541ZM61.78,7.9a3.337,3.337,0,0,0-.941-1.532,2.765,2.765,0,0,0-1.673-.871,1.826,1.826,0,0,0-1.548.56,1.67,1.67,0,0,0-.486,1.513,3.1,3.1,0,0,0,.953,1.707,2.715,2.715,0,0,0,1.692.875A1.829,1.829,0,0,0,61.29,9.6,1.694,1.694,0,0,0,61.78,7.9Zm-4.442,5.7a3.511,3.511,0,0,1-.6,1.936A10.124,10.124,0,0,1,55.4,17.088l-1.066,1.065-5.189-5.187,1.431-1.431a8.973,8.973,0,0,1,1.33-1.159,3.112,3.112,0,0,1,1.711-.5,3.557,3.557,0,0,1,2.567,1.151A3.554,3.554,0,0,1,57.338,13.6Zm-2.279-1.5a2.35,2.35,0,0,0-1.673-.786,1.952,1.952,0,0,0-1.1.334,7.117,7.117,0,0,0-.879.785l-0.311.311,3.447,3.445,0.521-.521A2.23,2.23,0,0,0,55.058,12.1Zm-2.536,7.87-1.463-.7-1.867,1.866,0.7,1.462L48.78,23.706l-3.306-7.069,1.1-1.1,7.08,3.3Zm-5.337-2.691,1.431,2.737,1.307-1.306Zm-3.193,8.573a2.128,2.128,0,0,0,1.669-.688,3.205,3.205,0,0,0,.692-1.081q0.023-.085.2-0.669l1.2,0.28a2.71,2.71,0,0,1-.195.879,4.476,4.476,0,0,1-1.074,1.68,3.553,3.553,0,0,1-2.56,1.128,3.726,3.726,0,0,1-2.707-1.213,3.679,3.679,0,0,1-.031-5.49,4.057,4.057,0,0,1,1.579-1.019,2.34,2.34,0,0,1,.778-0.14l0.249,1.2a2.928,2.928,0,0,0-1.634.84,2.279,2.279,0,0,0-.724,1.656,2.5,2.5,0,0,0,.817,1.781A2.648,2.648,0,0,0,43.992,25.848Zm-2.237,4.88-5.189-5.187,1.1-1.1,5.189,5.187Zm-6.014-.179,1.906-1.905,0.871,0.871L36.612,31.42l2.225,2.224-1.089,1.089-5.189-5.187,3.1-3.095,0.887,0.886-2.007,2.006Zm-0.2,6.392L30.35,31.754l1.1-1.1,5.189,5.187Zm-4.248-1.447a1.846,1.846,0,0,1-.4,1.33,1.2,1.2,0,0,1,1.05-.194,10.031,10.031,0,0,1,1.019.35l1.836,0.7-1.167,1.166-2.038-.778a1.747,1.747,0,0,0-.98-0.171,1.643,1.643,0,0,0-.568.428l-0.124.124L31.976,40.5l-1.081,1.081L25.705,36.4l1.33-1.33a9.267,9.267,0,0,1,1.011-.918,2.08,2.08,0,0,1,1.214-.4,1.989,1.989,0,0,1,1.455.614A1.875,1.875,0,0,1,31.291,35.495Zm-1.618.016a0.942,0.942,0,0,0-.653-0.327,0.848,0.848,0,0,0-.514.187,5.1,5.1,0,0,0-.537.49l-0.319.319L29.074,37.6l0.436-.436a1.365,1.365,0,0,0,.49-0.91A1.027,1.027,0,0,0,29.673,35.51Zm-4.917,6.019L26.685,39.6l0.871,0.871L25.627,42.4l1.323,1.322,2.116-2.115,0.9,0.9-3.205,3.2-5.189-5.187,3.143-3.142L25.6,38.271,23.55,40.324Zm-1.587,7.776-6.986-3.391L17.3,44.8l5.127,2.667-2.645-5.148,1.081-1.081,3.384,6.991Zm-5.5,4.23a3.345,3.345,0,0,1-1.058,2.574,3.352,3.352,0,0,1-2.6,1.069,4.021,4.021,0,0,1-2.7-1.295,3.822,3.822,0,0,1-1.233-2.632,3.388,3.388,0,0,1,1.085-2.57A3.377,3.377,0,0,1,13.744,49.6a3.843,3.843,0,0,1,2.626,1.233A4,4,0,0,1,17.669,53.536Zm-1.478-.07a3.338,3.338,0,0,0-.941-1.532,2.766,2.766,0,0,0-1.673-.871,1.826,1.826,0,0,0-1.548.56,1.669,1.669,0,0,0-.486,1.512,3.1,3.1,0,0,0,.953,1.707,2.715,2.715,0,0,0,1.692.875,1.829,1.829,0,0,0,1.513-.548A1.694,1.694,0,0,0,16.191,53.466ZM12.1,60.371L6.45,59.1l3.485,3.437-1,1L3.743,58.35l1-1,5.57,1.306L6.847,55.247l1-1L13.04,59.43Z"/>
</svg>
