<svg id="flag_new.svg" xmlns="http://www.w3.org/2000/svg" width="78.344" height="78.313" viewBox="0 0 78.344 78.313">
  <defs>
    <style>
      .cls-1 {
        fill: #fff;
      }

      .cls-1, .cls-2 {
        fill-rule: evenodd;
      }

      .cls-2 {
        fill: #09f;
      }
    </style>
  </defs>
  <path id="white_stroke" data-name="white stroke" class="cls-1" d="M0,53.706L53.729,0H76.336L0,76.3v-22.6Z"/>
  <path id="blue_flag" data-name="blue flag" class="cls-2" d="M0,56.1L56.13,0H78.336L0,78.3V56.1Z"/>
  <path id="NUEVO" class="cls-1" d="M51.168,22.953a4.369,4.369,0,0,1-3.354,1.406,5.063,5.063,0,0,1-3.432-1.63,4.661,4.661,0,0,1-1.5-3.289A4.407,4.407,0,0,1,44.3,16.17a4.481,4.481,0,0,1,3.349-1.44,4.726,4.726,0,0,1,3.281,1.508,4.947,4.947,0,0,1,1.611,3.43A4.354,4.354,0,0,1,51.168,22.953Zm-0.75-3.416a4.231,4.231,0,0,0-1.11-1.693,3.189,3.189,0,0,0-1.937-1,2.143,2.143,0,0,0-1.811.662,1.915,1.915,0,0,0-.555,1.752,3.705,3.705,0,0,0,1.139,2,3.123,3.123,0,0,0,2,1.022,2.138,2.138,0,0,0,1.723-.671A1.957,1.957,0,0,0,50.419,19.537ZM43.506,30.28l-8.723-4.262,1.606-1.606,6,3.172-3.164-6L40.8,20l4.225,8.758Zm-10.767.331,1.295,1.294L36.39,29.55,37.636,30.8,35.28,33.151l1.382,1.382,2.59-2.589,1.295,1.294-4.186,4.185-6.494-6.491,4.108-4.107L35.251,28.1Zm0.876,6.831a2.773,2.773,0,0,1,.282,1.275A3.914,3.914,0,0,1,32.613,41.5a3.853,3.853,0,0,1-2.775,1.255,2.8,2.8,0,0,1-1.5-.448,8.115,8.115,0,0,1-1.373-1.158l-3.661-3.659,1.606-1.606,4,4a1.912,1.912,0,0,0,1.256.691,1.526,1.526,0,0,0,1.081-.516,1.545,1.545,0,0,0,.5-1.119,1.266,1.266,0,0,0-.243-0.71,8.93,8.93,0,0,0-.818-0.9l-3.612-3.61,1.558-1.557,3.846,3.844A6.243,6.243,0,0,1,33.615,37.442Zm-6.357,9.079-6.591-1.353L24.678,49.1l-1.451,1.45-6.494-6.491,1.4-1.4,6.445,1.4-3.953-3.892,1.441-1.44,6.494,6.491Z"/>
</svg>
