<svg id="flag_expired_big.svg" xmlns="http://www.w3.org/2000/svg" width="142.656" height="142.594" viewBox="0 0 142.656 142.594">
  <defs>
    <style>
      .cls-1 {
        fill: #ff5531;
      }

      .cls-1, .cls-2 {
        fill-rule: evenodd;
      }

      .cls-2 {
        fill: #fff;
      }
    </style>
  </defs>
  <path id="red_flag" data-name="red flag" class="cls-1" d="M0,90.984L91.025,0h51.619L0,142.579v-51.6Z"/>
  <path id="EXPIRADO" class="cls-2" d="M96.962,31.394a7.078,7.078,0,0,1-5.5,2.258,8.491,8.491,0,0,1-5.693-2.734,8.071,8.071,0,0,1-2.6-5.559,7.154,7.154,0,0,1,2.292-5.427,7.132,7.132,0,0,1,5.446-2.291,8.115,8.115,0,0,1,5.545,2.6A8.438,8.438,0,0,1,99.2,25.958,7.062,7.062,0,0,1,96.962,31.394ZM96.074,25.81a7.05,7.05,0,0,0-1.988-3.235,5.842,5.842,0,0,0-3.532-1.839,3.857,3.857,0,0,0-3.269,1.182,3.525,3.525,0,0,0-1.027,3.194,6.538,6.538,0,0,0,2.013,3.6,5.734,5.734,0,0,0,3.573,1.847,3.863,3.863,0,0,0,3.2-1.158A3.576,3.576,0,0,0,96.074,25.81ZM86.694,37.847a7.413,7.413,0,0,1-1.265,4.089A21.375,21.375,0,0,1,82.6,45.22l-2.251,2.25L69.394,36.517,72.417,33.5a18.969,18.969,0,0,1,2.809-2.447A6.572,6.572,0,0,1,78.841,30a7.512,7.512,0,0,1,5.422,2.43A7.5,7.5,0,0,1,86.694,37.847ZM81.88,34.678a4.962,4.962,0,0,0-3.532-1.659,4.122,4.122,0,0,0-2.316.706,15.029,15.029,0,0,0-1.856,1.659l-0.657.657L80.8,43.315l1.1-1.1Q85.659,38.455,81.88,34.678ZM76.524,51.3l-3.089-1.478-3.943,3.941,1.479,3.087L68.622,59.2,61.64,44.268l2.333-2.332L78.923,48.9Zm-11.27-5.682,3.023,5.78,2.76-2.759Zm2.218,14.73-2.464,2.463-4.3-1.642a3.691,3.691,0,0,0-2.07-.361,3.471,3.471,0,0,0-1.2.9l-0.263.263,4.337,4.335-2.284,2.283L48.267,57.635l2.809-2.808a19.563,19.563,0,0,1,2.136-1.938,4.392,4.392,0,0,1,2.563-.854,4.2,4.2,0,0,1,3.072,1.3,3.959,3.959,0,0,1,1.216,2.4,3.9,3.9,0,0,1-.838,2.808,2.523,2.523,0,0,1,2.218-.41,21.2,21.2,0,0,1,2.152.739ZM56.646,55.763a1.988,1.988,0,0,0-1.38-.69,1.792,1.792,0,0,0-1.084.394A10.754,10.754,0,0,0,53.048,56.5l-0.674.673,3.007,3.005,0.92-.92a2.883,2.883,0,0,0,1.035-1.921A2.17,2.17,0,0,0,56.646,55.763ZM54.559,73.252L43.6,62.3l2.333-2.332L56.892,70.92Zm-8.132-2.086A4.992,4.992,0,0,1,45.7,73.76a12.42,12.42,0,0,1-1.791,2.118l-0.854.854,4.008,4.007-2.283,2.282L33.826,72.069l3.089-3.087A16.232,16.232,0,0,1,39.2,66.995a4.3,4.3,0,0,1,5.684.69A4.806,4.806,0,0,1,46.427,71.166Zm-3.8-1.035a2.321,2.321,0,0,0-1.61-.8,3.787,3.787,0,0,0-2.185,1.379l-0.9.9L41.2,74.877l0.8-.8A4.023,4.023,0,0,0,43.47,71.79,2.4,2.4,0,0,0,42.632,70.131Zm0.526,14.516-2.5,2.5-6.1-1.593,1.561,6.125-2.4,2.4-2.119-9.213L23,82.891l2.514-2.513,5.635,1.494-1.429-5.7,2.349-2.348,1.922,8.588ZM18.679,90.953L21.226,93.5,25.3,89.426l1.84,1.839-4.074,4.073,2.793,2.792,4.469-4.467,1.906,1.9-6.769,6.765L14.507,91.38l6.637-6.634,1.873,1.872Z"/>
</svg>
