<svg id="flag_group_turquoise.svg" xmlns="http://www.w3.org/2000/svg" width="75.313" height="75.313" viewBox="0 0 75.313 75.313">
  <defs>
    <style>
      .cls-1 {
        fill: #00d9dc;
        opacity: 0.9;
      }

      .cls-1, .cls-2 {
        fill-rule: evenodd;
      }

      .cls-2 {
        fill: #fff;
      }
    </style>
  </defs>
  <path id="flag_triangle_turquoise_2.svg" class="cls-1" d="M200,230.327V155h75.327Z" transform="translate(-200 -155)"/>
  <path id="GRUPO" class="cls-2" d="M245.839,173.472a4.7,4.7,0,0,1-3.671,1.477,6.415,6.415,0,0,1-5.685-5.685,4.754,4.754,0,0,1,1.5-3.689,4.67,4.67,0,0,1,3.654-1.482,5.68,5.68,0,0,1,3.79,1.822,5.837,5.837,0,0,1,1.889,3.88A4.7,4.7,0,0,1,245.839,173.472Zm-0.294-3.711a5.006,5.006,0,0,0-1.482-2.523,4.341,4.341,0,0,0-2.642-1.374,2.858,2.858,0,0,0-2.415.865,2.67,2.67,0,0,0-.787,2.382,4.766,4.766,0,0,0,1.477,2.676,4.388,4.388,0,0,0,2.67,1.4,2.832,2.832,0,0,0,2.387-.848A2.684,2.684,0,0,0,245.545,169.761Zm-9.379,7.117a10.652,10.652,0,0,1-1.312,1.493l-0.566.566,2.885,2.885-1.29,1.29-7.546-7.547,2.014-2.014a9.6,9.6,0,0,1,1.471-1.267,2.893,2.893,0,0,1,1.606-.52,3.1,3.1,0,0,1,2.24.995A3.165,3.165,0,0,1,236.166,176.878Zm-1.8-2.772a1.814,1.814,0,0,0-1.3-.6,2.99,2.99,0,0,0-1.7,1.086l-0.713.713,2.58,2.58,0.532-.532A3.4,3.4,0,0,0,235,175.43,1.87,1.87,0,0,0,234.367,174.106Zm-2.025,8.949a3.176,3.176,0,0,1,.566,1.765,4.726,4.726,0,0,1-4.345,4.322,3.058,3.058,0,0,1-1.731-.555,9.859,9.859,0,0,1-1.425-1.244l-4.424-4.424,1.313-1.312,4.717,4.718a6.183,6.183,0,0,0,.8.712,1.767,1.767,0,0,0,1.007.328,2.288,2.288,0,0,0,1.629-.769,2.119,2.119,0,0,0,.69-1.527,1.917,1.917,0,0,0-.43-1.177,15.587,15.587,0,0,0-1.267-1.358l-4.039-4.039,1.29-1.289,4.039,4.039A14.1,14.1,0,0,1,232.342,183.055Zm-9.984,5.334a2.681,2.681,0,0,1-.605,1.839,1.551,1.551,0,0,1,1.018-.317,6.342,6.342,0,0,1,1.787.5l2.919,1.108L226.1,192.9l-2.919-1.109a3.123,3.123,0,0,0-1.595-.3,2.736,2.736,0,0,0-1.052.758l-0.317.316,3.111,3.112-1.29,1.289-7.546-7.546,1.81-1.81a12.743,12.743,0,0,1,1.437-1.3,2.871,2.871,0,0,1,3.79.351A2.652,2.652,0,0,1,222.358,188.389Zm-2.1-.4a1.556,1.556,0,0,0-1.1-.532,1.486,1.486,0,0,0-.894.328,8.3,8.3,0,0,0-.837.769l-0.611.611,2.376,2.376,0.5-.5a2.968,2.968,0,0,0,1.086-1.855A1.647,1.647,0,0,0,220.259,187.988Zm-5.385,10.544-1.007-1.007,2.761-2.761,3.326,3.327a8.593,8.593,0,0,1-2.1,3.394,5.049,5.049,0,0,1-3.666,1.606,5.451,5.451,0,0,1-3.926-1.776,5.56,5.56,0,0,1-1.822-4.062,5.3,5.3,0,0,1,1.686-3.812,6.071,6.071,0,0,1,2.15-1.426,3.075,3.075,0,0,1,1.075-.237l0.316,1.448a4.276,4.276,0,0,0-2.353,1.267,3.506,3.506,0,0,0-1.109,2.579,3.949,3.949,0,0,0,1.29,2.806,4.3,4.3,0,0,0,2.766,1.4,3.375,3.375,0,0,0,2.676-1.114,4.771,4.771,0,0,0,1.075-1.527l-1.618-1.618Z" transform="translate(-200 -155)"/>
</svg>
