<svg id="flag_new_big.svg" xmlns="http://www.w3.org/2000/svg" width="142.656" height="142.594" viewBox="0 0 142.656 142.594">
  <defs>
    <style>
      .cls-1 {
        fill: #09f;
      }

      .cls-1, .cls-2 {
        fill-rule: evenodd;
      }

      .cls-2 {
        fill: #fff;
      }
    </style>
  </defs>
  <path id="blue_flag" data-name="blue flag" class="cls-1" d="M0,90.984L91.025,0h51.619L0,142.579v-51.6Z"/>
  <path id="NUEVO" class="cls-2" d="M88.034,40.42a7.373,7.373,0,0,1-5.66,2.373,8.544,8.544,0,0,1-5.791-2.751,7.866,7.866,0,0,1-2.53-5.55,7.437,7.437,0,0,1,2.4-5.518,7.562,7.562,0,0,1,5.651-2.43,7.974,7.974,0,0,1,5.537,2.545,8.35,8.35,0,0,1,2.719,5.788A7.348,7.348,0,0,1,88.034,40.42Zm-1.265-5.764A7.14,7.14,0,0,0,84.9,31.8a5.382,5.382,0,0,0-3.269-1.692,3.617,3.617,0,0,0-3.056,1.117,3.232,3.232,0,0,0-.936,2.956,6.252,6.252,0,0,0,1.922,3.383,5.269,5.269,0,0,0,3.368,1.724,3.607,3.607,0,0,0,2.908-1.133A3.3,3.3,0,0,0,86.769,34.656ZM75.1,52.785l-14.72-7.193,2.711-2.71,10.12,5.353L67.876,38.1l2.661-2.66,7.13,14.779Zm-18.17.558,2.185,2.184L63.1,51.553l2.1,2.1-3.976,3.974,2.333,2.332,4.37-4.368,2.185,2.184-7.064,7.061L52.088,53.885l6.933-6.93,2.152,2.151Zm1.479,11.528a4.68,4.68,0,0,1,.477,2.151,6.605,6.605,0,0,1-2.169,4.7,6.5,6.5,0,0,1-4.682,2.118,4.725,4.725,0,0,1-2.53-.755,13.7,13.7,0,0,1-2.316-1.954l-6.177-6.175,2.711-2.709,6.752,6.749A3.227,3.227,0,0,0,52.6,70.159a2.575,2.575,0,0,0,1.824-.87,2.607,2.607,0,0,0,.838-1.888,2.135,2.135,0,0,0-.411-1.2,15.077,15.077,0,0,0-1.38-1.511l-6.1-6.093L50,55.971l6.489,6.486A10.536,10.536,0,0,1,58.413,64.871ZM47.685,80.192L36.563,77.91l6.769,6.634-2.448,2.447L29.926,76.038l2.366-2.365,10.876,2.365L36.5,69.469l2.432-2.43L49.887,77.992Z"/>
</svg>
