<svg id="flag_group_red_round.svg" xmlns="http://www.w3.org/2000/svg" width="56.313" height="56.313" viewBox="0 0 56.313 56.313">
  <defs>
    <style>
      .cls-1 {
        fill: #ff5531;
      }

      .cls-1, .cls-2 {
        fill-rule: evenodd;
      }

      .cls-2 {
        fill: #fff;
      }
    </style>
  </defs>
  <path id="flag_triangle_red" class="cls-1" d="M10,0H56.327L0,56.327V10A10,10,0,0,1,10,0Z"/>
  <path id="GRUPO" class="cls-2" d="M35.853,13.559a3.764,3.764,0,0,1-2.937,1.181,4.6,4.6,0,0,1-3.082-1.48,4.559,4.559,0,0,1-1.466-3.068,3.8,3.8,0,0,1,1.2-2.951A3.738,3.738,0,0,1,32.5,6.056a4.545,4.545,0,0,1,3.032,1.457,4.671,4.671,0,0,1,1.512,3.1A3.759,3.759,0,0,1,35.853,13.559Zm-0.235-2.969a4.008,4.008,0,0,0-1.186-2.018,3.476,3.476,0,0,0-2.113-1.1,2.287,2.287,0,0,0-1.932.692,2.134,2.134,0,0,0-.629,1.905,3.807,3.807,0,0,0,1.181,2.141,3.51,3.51,0,0,0,2.136,1.122,2.267,2.267,0,0,0,1.91-.679A2.148,2.148,0,0,0,35.618,10.591Zm-7.684,5.874a8.482,8.482,0,0,1-1.05,1.195l-0.453.453,2.308,2.308-1.032,1.032L21.67,15.415,23.281,13.8a7.664,7.664,0,0,1,1.176-1.014,2.321,2.321,0,0,1,1.285-.416,2.477,2.477,0,0,1,1.792.8A2.531,2.531,0,0,1,27.934,16.465Zm-1.439-2.218a1.453,1.453,0,0,0-1.041-.48,2.393,2.393,0,0,0-1.358.869l-0.57.57,2.064,2.064,0.425-.425A2.717,2.717,0,0,0,27,15.306,1.5,1.5,0,0,0,26.494,14.247Zm-1.8,7.34A2.541,2.541,0,0,1,25.146,23a3.3,3.3,0,0,1-1.1,2.362,3.32,3.32,0,0,1-2.38,1.1,2.445,2.445,0,0,1-1.385-.444,7.91,7.91,0,0,1-1.14-1l-3.539-3.539,1.05-1.05L20.43,24.2a4.936,4.936,0,0,0,.643.57,1.418,1.418,0,0,0,.805.262,1.833,1.833,0,0,0,1.3-.615,1.7,1.7,0,0,0,.552-1.222,1.536,1.536,0,0,0-.344-0.941,12.473,12.473,0,0,0-1.014-1.086L19.145,17.94l1.032-1.032,3.231,3.231A11.309,11.309,0,0,1,24.693,21.587Zm-8.168,4.448a2.142,2.142,0,0,1-.484,1.471,1.243,1.243,0,0,1,.815-0.253,5.091,5.091,0,0,1,1.43.4l2.335,0.887-1.1,1.1-2.335-.887a2.507,2.507,0,0,0-1.276-.244,2.2,2.2,0,0,0-.842.606l-0.253.253L17.3,31.86l-1.032,1.032L10.23,26.855l1.448-1.448a10.247,10.247,0,0,1,1.149-1.041,2.3,2.3,0,0,1,3.032.281A2.122,2.122,0,0,1,16.525,26.036Zm-1.679-.321a1.248,1.248,0,0,0-.878-0.425,1.194,1.194,0,0,0-.715.262,6.639,6.639,0,0,0-.67.616l-0.489.489,1.9,1.9,0.4-.4a2.375,2.375,0,0,0,.869-1.484A1.318,1.318,0,0,0,14.846,25.715Zm-4.489,8.617-0.806-.806,2.209-2.209,2.661,2.661a6.86,6.86,0,0,1-1.684,2.715A4.038,4.038,0,0,1,9.8,37.979a4.359,4.359,0,0,1-3.141-1.421,4.447,4.447,0,0,1-1.457-3.249,4.237,4.237,0,0,1,1.349-3.05,4.865,4.865,0,0,1,1.72-1.14,2.473,2.473,0,0,1,.86-0.19l0.253,1.159A3.422,3.422,0,0,0,7.506,31.1a2.8,2.8,0,0,0-.887,2.064,3.158,3.158,0,0,0,1.032,2.245,3.443,3.443,0,0,0,2.213,1.118A2.7,2.7,0,0,0,12,35.634a3.819,3.819,0,0,0,.86-1.222L11.57,33.118Z"/>
</svg>
