<svg id="flag_expired.svg" xmlns="http://www.w3.org/2000/svg" width="78.344" height="78.313" viewBox="0 0 78.344 78.313">
  <defs>
    <style>
      .cls-1 {
        fill: #fff;
      }

      .cls-1, .cls-2 {
        fill-rule: evenodd;
      }

      .cls-2 {
        fill: #ff5531;
      }
    </style>
  </defs>
  <path id="white_stroke" data-name="white stroke" class="cls-1" d="M0,53.706L53.729,0H76.336L0,76.3v-22.6Z"/>
  <path id="red_flag" data-name="red flag" class="cls-2" d="M0,56.1L56.13,0H78.336L0,78.3V56.1Z"/>
  <path id="EXPIRADO" class="cls-1" d="M56.459,17.6A4.2,4.2,0,0,1,53.2,18.942a5.032,5.032,0,0,1-3.373-1.62,4.782,4.782,0,0,1-1.543-3.294,4.239,4.239,0,0,1,1.358-3.216,4.226,4.226,0,0,1,3.227-1.357A4.809,4.809,0,0,1,56.157,11a5,5,0,0,1,1.626,3.387A4.185,4.185,0,0,1,56.459,17.6Zm-0.526-3.309a4.178,4.178,0,0,0-1.178-1.917,3.462,3.462,0,0,0-2.093-1.09,2.285,2.285,0,0,0-1.937.7,2.089,2.089,0,0,0-.608,1.893,3.875,3.875,0,0,0,1.193,2.136,3.4,3.4,0,0,0,2.117,1.095,2.289,2.289,0,0,0,1.894-.686A2.12,2.12,0,0,0,55.933,14.295Zm-5.559,7.133a4.393,4.393,0,0,1-.75,2.423A12.673,12.673,0,0,1,47.95,25.8L46.616,27.13,40.123,20.64l1.791-1.791a11.232,11.232,0,0,1,1.665-1.45,3.894,3.894,0,0,1,2.142-.623,4.451,4.451,0,0,1,3.213,1.44A4.446,4.446,0,0,1,50.374,21.428ZM47.522,19.55a2.941,2.941,0,0,0-2.093-.983,2.443,2.443,0,0,0-1.373.418,8.894,8.894,0,0,0-1.1.983l-0.389.389,4.313,4.311,0.652-.652Q49.761,21.788,47.522,19.55ZM44.348,29.4l-1.83-.876-2.337,2.335,0.876,1.83-1.392,1.392-4.138-8.846,1.382-1.382,8.859,4.126Zm-6.679-3.367,1.791,3.425L41.1,27.821Zm1.314,8.729-1.46,1.46-2.551-.973a2.187,2.187,0,0,0-1.227-.214,2.056,2.056,0,0,0-.711.535l-0.156.156,2.57,2.569L34.1,39.645,27.6,33.154l1.665-1.664a11.6,11.6,0,0,1,1.266-1.148,2.6,2.6,0,0,1,1.519-.506,2.489,2.489,0,0,1,1.821.769,2.346,2.346,0,0,1,.72,1.421,2.31,2.31,0,0,1-.5,1.664,1.5,1.5,0,0,1,1.314-.243,12.581,12.581,0,0,1,1.275.438Zm-6.416-2.715a1.178,1.178,0,0,0-.818-0.409,1.062,1.062,0,0,0-.643.233,6.367,6.367,0,0,0-.672.613l-0.4.4,1.782,1.781,0.545-.545a1.708,1.708,0,0,0,.613-1.138A1.285,1.285,0,0,0,32.568,32.045ZM31.332,42.408l-6.494-6.491,1.382-1.382,6.494,6.491Zm-4.819-1.236a2.958,2.958,0,0,1-.428,1.538,7.366,7.366,0,0,1-1.061,1.255l-0.506.506,2.375,2.374L25.539,48.2l-6.494-6.491,1.83-1.83A9.615,9.615,0,0,1,22.229,38.7a2.545,2.545,0,0,1,3.369.409A2.849,2.849,0,0,1,26.513,41.172Zm-2.249-.613a1.375,1.375,0,0,0-.954-0.477,2.244,2.244,0,0,0-1.295.817l-0.536.535,1.937,1.936,0.477-.477a2.384,2.384,0,0,0,.867-1.353A1.423,1.423,0,0,0,24.264,40.559Zm0.312,8.6L23.1,50.641,19.484,49.7l0.925,3.63-1.421,1.421-1.256-5.459-5.1-1.168,1.49-1.489,3.339,0.886L16.612,44.14,18,42.749l1.139,5.089ZM10.069,52.9l1.509,1.508,2.414-2.413,1.09,1.09L12.669,55.5l1.655,1.654L16.972,54.5,18.1,55.633,14.09,59.642,7.6,53.151,11.53,49.22l1.11,1.109Z"/>
</svg>
