<svg id="flag_sold.svg" xmlns="http://www.w3.org/2000/svg" width="78.344" height="78.313" viewBox="0 0 78.344 78.313">
  <defs>
    <style>
      .cls-1 {
        fill: #fff;
      }

      .cls-1, .cls-2 {
        fill-rule: evenodd;
      }

      .cls-2 {
        fill: #84cc03;
      }
    </style>
  </defs>
  <path id="white_stroke" data-name="white stroke" class="cls-1" d="M0,53.706L53.729,0H76.336L0,76.3v-22.6Z"/>
  <path id="green_flag" data-name="green flag" class="cls-2" d="M0,56.1L56.13,0H78.336L0,78.3V56.1Z"/>
  <path id="VENDIDO" class="cls-1" d="M54.057,20.03A4.194,4.194,0,0,1,50.8,21.368a5.032,5.032,0,0,1-3.373-1.62,4.782,4.782,0,0,1-1.543-3.294,4.239,4.239,0,0,1,1.358-3.216,4.226,4.226,0,0,1,3.227-1.358,4.809,4.809,0,0,1,3.286,1.542,5,5,0,0,1,1.626,3.387A4.185,4.185,0,0,1,54.057,20.03Zm-0.526-3.309A4.177,4.177,0,0,0,52.353,14.8a3.462,3.462,0,0,0-2.093-1.09,2.286,2.286,0,0,0-1.937.7,2.089,2.089,0,0,0-.608,1.893,3.874,3.874,0,0,0,1.193,2.136,3.4,3.4,0,0,0,2.117,1.095,2.289,2.289,0,0,0,1.894-.686A2.119,2.119,0,0,0,53.531,16.722Zm-5.559,7.133a4.392,4.392,0,0,1-.75,2.423,12.672,12.672,0,0,1-1.674,1.946l-1.334,1.333-6.494-6.491,1.791-1.791a11.239,11.239,0,0,1,1.665-1.45,3.9,3.9,0,0,1,2.142-.623,4.451,4.451,0,0,1,3.213,1.44A4.446,4.446,0,0,1,47.972,23.855ZM45.12,21.977a2.941,2.941,0,0,0-2.093-.983,2.443,2.443,0,0,0-1.373.418,8.9,8.9,0,0,0-1.1.983l-0.389.389L44.477,27.1l0.652-.652Q47.359,24.215,45.12,21.977Zm-3.67,10.344L34.956,25.83l1.382-1.382,6.494,6.491Zm-3,1.051a4.392,4.392,0,0,1-.75,2.423,12.666,12.666,0,0,1-1.675,1.946l-1.334,1.333L28.2,32.583l1.791-1.79a11.244,11.244,0,0,1,1.665-1.45A3.9,3.9,0,0,1,33.8,28.72,4.947,4.947,0,0,1,38.451,33.372ZM35.6,31.494a2.94,2.94,0,0,0-2.093-.983,2.442,2.442,0,0,0-1.373.418,8.9,8.9,0,0,0-1.1.983l-0.389.389,4.313,4.311,0.652-.652Q37.837,33.732,35.6,31.494Zm-3.466,10.14-7.068-1.6,4.361,4.3L28.17,45.594,21.677,39.1l1.246-1.246,6.971,1.635-4.332-4.272,1.256-1.255,6.494,6.491ZM20.489,45.526L22.9,43.113l1.09,1.09-2.414,2.413,1.655,1.654,2.648-2.647,1.129,1.129L23,50.761l-6.494-6.491,3.933-3.931,1.11,1.109-2.57,2.569ZM18.5,55.257L9.76,51.014l1.392-1.392,6.416,3.338-3.31-6.442,1.353-1.353,4.235,8.749Z"/>
</svg>
