<svg id="flag_sold_big.svg" xmlns="http://www.w3.org/2000/svg" width="142.656" height="142.594" viewBox="0 0 142.656 142.594">
  <defs>
    <style>
      .cls-1 {
        fill: #84cc03;
      }

      .cls-1, .cls-2 {
        fill-rule: evenodd;
      }

      .cls-2 {
        fill: #fff;
      }
    </style>
  </defs>
  <path id="green_flag" data-name="green flag" class="cls-1" d="M0,90.984L91.025,0h51.619L0,142.579v-51.6Z"/>
  <path id="VENDIDO" class="cls-2" d="M92.908,35.489a7.078,7.078,0,0,1-5.5,2.258,8.49,8.49,0,0,1-5.692-2.734,8.071,8.071,0,0,1-2.6-5.559,7.154,7.154,0,0,1,2.292-5.427,7.132,7.132,0,0,1,5.446-2.291,8.115,8.115,0,0,1,5.545,2.6,8.438,8.438,0,0,1,2.744,5.715A7.063,7.063,0,0,1,92.908,35.489Zm-0.887-5.583a7.049,7.049,0,0,0-1.988-3.235A5.841,5.841,0,0,0,86.5,24.831a3.857,3.857,0,0,0-3.269,1.182A3.525,3.525,0,0,0,82.2,29.208a6.538,6.538,0,0,0,2.012,3.6,5.734,5.734,0,0,0,3.573,1.847,3.862,3.862,0,0,0,3.2-1.158A3.576,3.576,0,0,0,92.021,29.906ZM82.64,41.942a7.412,7.412,0,0,1-1.265,4.089,21.375,21.375,0,0,1-2.826,3.284L76.3,51.565,65.341,40.612l3.023-3.022a18.963,18.963,0,0,1,2.809-2.447,6.573,6.573,0,0,1,3.614-1.051,7.511,7.511,0,0,1,5.421,2.43A7.5,7.5,0,0,1,82.64,41.942Zm-4.814-3.169a4.962,4.962,0,0,0-3.532-1.659,4.122,4.122,0,0,0-2.317.706,15.027,15.027,0,0,0-1.856,1.659l-0.657.657,7.278,7.275,1.1-1.1Q81.605,42.55,77.827,38.773ZM71.633,56.229L60.675,45.276l2.333-2.332L73.966,53.9ZM66.573,58a7.412,7.412,0,0,1-1.265,4.089,21.378,21.378,0,0,1-2.826,3.284l-2.251,2.25L49.274,56.672,52.3,53.651A18.958,18.958,0,0,1,55.106,51.2a6.572,6.572,0,0,1,3.614-1.051A8.347,8.347,0,0,1,66.573,58ZM61.76,54.833a4.962,4.962,0,0,0-3.532-1.659,4.122,4.122,0,0,0-2.316.706,15.027,15.027,0,0,0-1.856,1.659L53.4,56.2l7.278,7.275,1.1-1.1Q65.538,58.61,61.76,54.833ZM55.911,71.944L43.984,69.251l7.36,7.258-2.119,2.118L38.267,67.675l2.1-2.1,11.763,2.759-7.311-7.209L46.941,59,57.9,69.957ZM36.262,78.513l4.074-4.073,1.84,1.839L38.1,80.352,40.9,83.144l4.469-4.467,1.906,1.9L40.5,87.347,29.543,76.394,36.18,69.76l1.873,1.872-4.337,4.335ZM32.911,94.934l-14.753-7.16,2.349-2.348,10.827,5.633L25.748,80.187,28.032,77.9l7.147,14.763Z"/>
</svg>
