<svg id="flag_pending.svg" xmlns="http://www.w3.org/2000/svg" width="78.344" height="78.313" viewBox="0 0 78.344 78.313">
  <defs>
    <style>
      .cls-1 {
        fill: #fff;
      }

      .cls-1, .cls-2 {
        fill-rule: evenodd;
      }

      .cls-2 {
        fill: #444;
      }
    </style>
  </defs>
  <path id="white_stroke" data-name="white stroke" class="cls-1" d="M0,53.706L53.729,0H76.336L0,76.3v-22.6Z"/>
  <path id="gray_flag" data-name="gray flag" class="cls-2" d="M0,56.1L56.13,0H78.336L0,78.3V56.1Z"/>
  <path id="PENDIENTE" class="cls-1" d="M57.948,13.179L58.97,14.2l-3.629,3.627-5.875-5.872L53.025,8.4l1,1L51.7,11.727l1.365,1.365,2.185-2.184,0.987,0.986-2.184,2.183,1.5,1.5ZM48,15.424l4.871,4.869-1.251,1.25-4.871-4.869-1.612,1.611-1-1L48.6,12.818l1,1Zm0.079,9.658-6.395-1.444,3.946,3.892L44.5,28.666l-5.875-5.873,1.127-1.127,6.307,1.479-3.92-3.865,1.136-1.136,5.875,5.873ZM37.548,28.6l2.185-2.183,0.987,0.986-2.184,2.184,1.5,1.5,2.4-2.395,1.022,1.021-3.629,3.628-5.875-5.873L37.5,23.912l1,1L36.183,27.24Zm-0.229,7.237-5.875-5.872,1.251-1.25,5.875,5.873Zm-2.713.951a3.974,3.974,0,0,1-.678,2.192,11.462,11.462,0,0,1-1.515,1.761l-1.207,1.206-5.875-5.873,1.621-1.62a10.177,10.177,0,0,1,1.506-1.312,3.524,3.524,0,0,1,1.938-.563A4.475,4.475,0,0,1,34.607,36.793Zm-2.581-1.7a2.66,2.66,0,0,0-1.894-.889,2.21,2.21,0,0,0-1.242.379,8.059,8.059,0,0,0-1,.889l-0.352.352,3.9,3.9,0.59-.59A2.525,2.525,0,0,0,32.026,35.093ZM28.89,44.268l-6.395-1.444,3.946,3.892L25.3,47.851,19.43,41.979l1.127-1.127,6.307,1.479-3.92-3.865,1.136-1.136L29.956,43.2ZM18.355,47.789l2.185-2.183,0.986,0.986-2.184,2.184,1.5,1.5,2.4-2.395L24.257,48.9l-3.629,3.628-5.875-5.873L18.311,43.1l1,1L16.99,46.425Zm-2.087,3.619A2.677,2.677,0,0,1,15.88,52.8a6.665,6.665,0,0,1-.96,1.136l-0.458.458,2.149,2.148-1.224,1.224L9.512,51.892l1.656-1.655a8.7,8.7,0,0,1,1.224-1.065,2.3,2.3,0,0,1,3.048.37A2.577,2.577,0,0,1,16.268,51.408Zm-2.035-.555a1.245,1.245,0,0,0-.863-0.431,2.031,2.031,0,0,0-1.171.74l-0.485.484L13.467,53.4l0.432-.431a2.157,2.157,0,0,0,.784-1.224A1.287,1.287,0,0,0,14.233,50.853Z"/>
</svg>
