<svg id="flag_not_verified_big.svg" xmlns="http://www.w3.org/2000/svg" width="142.656" height="142.594" viewBox="0 0 142.656 142.594">
  <defs>
    <style>
      .cls-1 {
        fill: #ffbc0a;
      }

      .cls-1, .cls-2 {
        fill-rule: evenodd;
      }

      .cls-2 {
        fill: #fff;
      }
    </style>
  </defs>
  <path id="yellow_flag" data-name="yellow flag" class="cls-1" d="M0,90.984L91.025,0h51.619L0,142.579v-51.6Z"/>
  <path id="NO_VERIFICADO" data-name="NO VERIFICADO" class="cls-2" d="M109.3,17.327a5.966,5.966,0,0,1-4.632,1.9,7.158,7.158,0,0,1-4.8-2.3,6.8,6.8,0,0,1-2.195-4.685,6.03,6.03,0,0,1,1.932-4.575,6.012,6.012,0,0,1,4.59-1.931,6.839,6.839,0,0,1,4.674,2.194,7.109,7.109,0,0,1,2.312,4.817A5.951,5.951,0,0,1,109.3,17.327Zm-0.748-4.706a5.934,5.934,0,0,0-1.675-2.727,4.924,4.924,0,0,0-2.977-1.55,3.251,3.251,0,0,0-2.756,1,2.969,2.969,0,0,0-.865,2.692,5.509,5.509,0,0,0,1.7,3.038,4.834,4.834,0,0,0,3.012,1.557,3.256,3.256,0,0,0,2.693-.976A3.014,3.014,0,0,0,108.554,12.621Zm-7.906,10.146a6.249,6.249,0,0,1-1.067,3.446A18.022,18.022,0,0,1,97.2,28.981l-1.9,1.9-9.236-9.232L88.614,19.1a15.977,15.977,0,0,1,2.368-2.062,5.54,5.54,0,0,1,3.046-.886A6.331,6.331,0,0,1,98.6,18.2,6.325,6.325,0,0,1,100.648,22.766ZM96.59,20.095a4.182,4.182,0,0,0-2.977-1.4,3.474,3.474,0,0,0-1.953.6,12.67,12.67,0,0,0-1.565,1.4l-0.554.554,6.134,6.132,0.928-.927Q99.775,23.279,96.59,20.095ZM92.076,34.1l-2.6-1.246L86.15,36.178l1.246,2.6-1.98,1.979L79.53,28.178,81.5,26.213l12.6,5.869Zm-9.5-4.789,2.548,4.872,2.326-2.325Zm-5.684,15.26a3.788,3.788,0,0,0,2.97-1.225A5.708,5.708,0,0,0,81.1,41.424q0.041-.152.36-1.19l2.132,0.5a4.826,4.826,0,0,1-.346,1.564,7.966,7.966,0,0,1-1.911,2.99,6.324,6.324,0,0,1-4.556,2.007,6.633,6.633,0,0,1-4.819-2.159,6.549,6.549,0,0,1-.055-9.772,7.224,7.224,0,0,1,2.811-1.813A4.168,4.168,0,0,1,76.1,33.3l0.443,2.132a5.212,5.212,0,0,0-2.908,1.495,4.056,4.056,0,0,0-1.288,2.948,4.457,4.457,0,0,0,1.454,3.17A4.714,4.714,0,0,0,76.893,44.573Zm-3.981,8.685-9.236-9.232,1.966-1.965,9.236,9.232Zm-10.7-.318L65.6,49.549l1.551,1.55L63.759,54.49l3.96,3.959L65.78,60.387l-9.236-9.232,5.511-5.509,1.579,1.578-3.573,3.571Zm-0.36,11.378-9.236-9.232,1.966-1.966,9.236,9.232Zm-7.56-2.575a3.285,3.285,0,0,1-.706,2.367,2.127,2.127,0,0,1,1.869-.346,17.875,17.875,0,0,1,1.814.623l3.268,1.246-2.077,2.076-3.628-1.384a3.11,3.11,0,0,0-1.745-.3,2.924,2.924,0,0,0-1.011.761L51.85,67l3.656,3.654-1.925,1.924-9.236-9.232,2.368-2.367a16.5,16.5,0,0,1,1.8-1.633,3.7,3.7,0,0,1,2.16-.72,3.541,3.541,0,0,1,2.59,1.093A3.337,3.337,0,0,1,54.287,61.743Zm-2.88.028a1.676,1.676,0,0,0-1.163-.581,1.51,1.51,0,0,0-.914.332,9.046,9.046,0,0,0-.956.872l-0.568.567,2.534,2.533,0.776-.775a2.43,2.43,0,0,0,.872-1.619A1.828,1.828,0,0,0,51.407,61.771ZM42.655,72.484l3.434-3.433L47.64,70.6l-3.434,3.433,2.354,2.353,3.767-3.765,1.606,1.606-5.705,5.7L36.992,70.7l5.594-5.592,1.579,1.578-3.656,3.654ZM39.831,86.325L27.4,80.29l1.98-1.979L38.5,83.058,33.793,73.9l1.925-1.924,6.024,12.443Zm-9.79,7.529a5.953,5.953,0,0,1-1.883,4.581,5.968,5.968,0,0,1-4.632,1.9,7.156,7.156,0,0,1-4.8-2.3,6.8,6.8,0,0,1-2.195-4.685,6.03,6.03,0,0,1,1.932-4.574,6.011,6.011,0,0,1,4.59-1.931,6.841,6.841,0,0,1,4.674,2.194A7.112,7.112,0,0,1,30.041,93.854ZM27.41,93.73A5.941,5.941,0,0,0,25.734,91a4.923,4.923,0,0,0-2.977-1.55,3.251,3.251,0,0,0-2.756,1,2.971,2.971,0,0,0-.865,2.692,5.51,5.51,0,0,0,1.7,3.038,4.833,4.833,0,0,0,3.012,1.557,3.256,3.256,0,0,0,2.693-.976A3.014,3.014,0,0,0,27.41,93.73Zm-7.284,12.291-10.053-2.27,6.2,6.118-1.786,1.785-9.236-9.232,1.772-1.772,9.915,2.326L10.779,96.9l1.786-1.786,9.236,9.232Z"/>
</svg>
