<svg id="flag_pending_big.svg" xmlns="http://www.w3.org/2000/svg" width="142.656" height="142.594" viewBox="0 0 142.656 142.594">
  <defs>
    <style>
      .cls-1 {
        fill: #444;
      }

      .cls-1, .cls-2 {
        fill-rule: evenodd;
      }

      .cls-2 {
        fill: #fff;
      }
    </style>
  </defs>
  <path id="gray_flag" data-name="gray flag" class="cls-1" d="M0,90.984L91.025,0h51.619L0,142.579v-51.6Z"/>
  <path id="PENDIENTE" class="cls-2" d="M99.475,23.928l1.725,1.724-6.124,6.121-9.914-9.91,6.005-6,1.694,1.694-3.924,3.922,2.3,2.3,3.686-3.685,1.665,1.664-3.686,3.685,2.527,2.526ZM82.694,27.716l8.22,8.216L88.8,38.042l-8.22-8.216-2.72,2.719-1.695-1.694L83.7,23.318,85.4,25.012Zm0.134,16.3L72.036,41.578,78.7,48.145l-1.917,1.917-9.914-9.91,1.9-1.9,10.643,2.5-6.615-6.523,1.918-1.917,9.914,9.91ZM65.05,49.958l3.686-3.685L70.4,47.937l-3.686,3.685,2.527,2.526,4.043-4.041,1.724,1.723-6.124,6.121-9.914-9.91,6.005-6,1.694,1.694-3.924,3.922ZM64.664,62.171l-9.914-9.91,2.111-2.11,9.914,9.91Zm-4.578,1.6a6.707,6.707,0,0,1-1.145,3.7,19.352,19.352,0,0,1-2.557,2.972l-2.036,2.035-9.914-9.91,2.735-2.734a17.152,17.152,0,0,1,2.542-2.214,5.946,5.946,0,0,1,3.27-.951A7.552,7.552,0,0,1,60.086,63.775Zm-4.355-2.867a4.49,4.49,0,0,0-3.2-1.5,3.729,3.729,0,0,0-2.1.639,13.6,13.6,0,0,0-1.68,1.5l-0.595.594,6.585,6.582,1-1Q59.149,64.325,55.731,60.908ZM50.439,76.389L39.648,73.953l6.659,6.567-1.918,1.917-9.914-9.91,1.9-1.9,10.643,2.5L40.406,66.6l1.917-1.917,9.914,9.91ZM32.662,82.332l3.686-3.685,1.665,1.664L34.327,84l2.527,2.526L40.9,82.481,42.621,84.2,36.5,90.325l-9.914-9.91,6.005-6,1.694,1.694-3.924,3.922Zm-3.523,6.106a4.518,4.518,0,0,1-.654,2.347,11.243,11.243,0,0,1-1.62,1.917l-0.773.773L29.719,97.1l-2.066,2.065-9.914-9.91,2.794-2.793a14.684,14.684,0,0,1,2.066-1.8,3.886,3.886,0,0,1,5.143.624A4.349,4.349,0,0,1,29.139,88.438ZM25.705,87.5a2.1,2.1,0,0,0-1.457-.728,3.427,3.427,0,0,0-1.977,1.248l-0.818.817L24.412,91.8l0.728-.728A3.639,3.639,0,0,0,26.464,89,2.172,2.172,0,0,0,25.705,87.5Z"/>
</svg>
