<svg xmlns="http://www.w3.org/2000/svg" width="81.156" height="81.094" viewBox="0 0 81.156 81.094">
  <defs>
    <style>
      .cls-1 {
        fill: #ccc;
        fill-rule: evenodd;
      }
    </style>
  </defs>
  <path id="gears.svg" class="cls-1" d="M612.516,264.487l-41.831,41.831a9.151,9.151,0,0,1-6.47,2.68h-22.83a7.321,7.321,0,0,1-7.321-7.33l0.01-6.724,4.1,0.059a0.875,0.875,0,0,1,.551.206l2.288,1.928a0.877,0.877,0,0,1,.3.516l0.938,5.283a0.874,0.874,0,0,0,.561.669l3.241,1.183a0.875,0.875,0,0,0,.852-0.143l4.21-3.419a0.871,0.871,0,0,1,.553-0.2l3,0.007a0.869,0.869,0,0,1,.556.2l4.133,3.422a0.878,0.878,0,0,0,.857.149l3.245-1.179a0.874,0.874,0,0,0,.561-0.658l1.011-5.294a0.872,0.872,0,0,1,.3-0.506l2.3-1.923a0.872,0.872,0,0,1,.551-0.2l5.389-.061a0.875,0.875,0,0,0,.747-0.436l1.732-2.987a0.873,0.873,0,0,0,0-.869L573.4,286.02a0.873,0.873,0,0,1-.1-0.582l0.521-2.95a0.881,0.881,0,0,1,.291-0.51l4.109-3.541a0.874,0.874,0,0,0,.29-0.813l-0.592-3.4a0.877,0.877,0,0,0-.56-0.671l-5.035-1.854a0.876,0.876,0,0,1-.455-0.384l-1.494-2.592a0.879,0.879,0,0,1-.106-0.579l0.885-5.379a0.875,0.875,0,0,0-.3-0.811l-2.636-2.222a0.875,0.875,0,0,0-.862-0.153l-5.062,1.838a0.878,0.878,0,0,1-.6,0l-2.807-1.025a0.872,0.872,0,0,1-.455-0.378l-2.764-4.71a0.875,0.875,0,0,0-.752-0.433h-0.591l24.287-24.287a9.149,9.149,0,0,1,12.94,0l20.963,20.963A9.15,9.15,0,0,1,612.516,264.487ZM606.92,255a0.583,0.583,0,0,0-.372-0.447l-3.4-1.254a0.586,0.586,0,0,1-.3-0.256l-1.008-1.752a0.584,0.584,0,0,1-.07-0.386l0.6-3.631a0.582,0.582,0,0,0-.2-0.54l-1.782-1.5a0.583,0.583,0,0,0-.574-0.1l-3.418,1.238a0.579,0.579,0,0,1-.4,0l-1.9-.694a0.58,0.58,0,0,1-.3-0.252l-1.864-3.182a0.585,0.585,0,0,0-.5-0.288l-2.33-.007a0.583,0.583,0,0,0-.506.29l-1.834,3.167a0.582,0.582,0,0,1-.306.255l-1.9.687a0.588,0.588,0,0,1-.4,0l-3.458-1.255a0.581,0.581,0,0,0-.572.1l-1.788,1.493a0.583,0.583,0,0,0-.2.546l0.62,3.626a0.578,0.578,0,0,1-.071.39l-1.013,1.744a0.577,0.577,0,0,1-.306.255l-3.442,1.242a0.584,0.584,0,0,0-.376.446l-0.407,2.294a0.583,0.583,0,0,0,.194.544l2.8,2.4a0.58,0.58,0,0,1,.2.343l0.345,1.989a0.584,0.584,0,0,1-.071.392l-1.826,3.143a0.581,0.581,0,0,0,0,.583l1.164,2.021a0.58,0.58,0,0,0,.5.292l3.68,0.056a0.586,0.586,0,0,1,.367.137l1.545,1.3a0.58,0.58,0,0,1,.2.344l0.63,3.567a0.584,0.584,0,0,0,.374.446l2.191,0.8a0.584,0.584,0,0,0,.567-0.095l2.844-2.307a0.591,0.591,0,0,1,.369-0.13l2.024,0.007a0.584,0.584,0,0,1,.37.134l2.788,2.313a0.585,0.585,0,0,0,.57.1l2.2-.8a0.582,0.582,0,0,0,.373-0.438l0.685-3.574a0.586,0.586,0,0,1,.2-0.337l1.554-1.3a0.58,0.58,0,0,1,.367-0.135l3.638-.039a0.585,0.585,0,0,0,.5-0.289l1.173-2.019a0.584,0.584,0,0,0,0-.579l-1.779-3.156a0.573,0.573,0,0,1-.066-0.387l0.353-1.993a0.582,0.582,0,0,1,.194-0.339l2.776-2.389a0.583,0.583,0,0,0,.194-0.541Zm-17.49,13a8.95,8.95,0,1,1,9.715-8.115A8.95,8.95,0,0,1,589.43,268ZM566.385,281.48a13.282,13.282,0,1,1-12.054-14.406A13.282,13.282,0,0,1,566.385,281.48Z" transform="translate(-534.063 -227.906)"/>
</svg>
