<svg xmlns="http://www.w3.org/2000/svg" width="61" height="43.656" viewBox="0 0 61 43.656">
  <defs>
    <style>
      .cls-1 {
        fill: #fff;
        fill-rule: evenodd;
      }
    </style>
  </defs>
  <path id="icon_chat_2.svg" class="cls-1" d="M77.906,60.991H75.992v6.238l-6.086-6.238H64V55a9.992,9.992,0,0,0-9.6-9.98,7.061,7.061,0,0,1,6.985-6.051H77.906a7.066,7.066,0,0,1,7.066,7.066v7.89A7.066,7.066,0,0,1,77.906,60.991ZM70.87,45.846a4.362,4.362,0,0,1,2.273.726l1.137-1.594a4.906,4.906,0,0,0-3.062-1.089V42.2H69.544V44a3.741,3.741,0,0,0-1.736.852,2.675,2.675,0,0,0-1.01,2.131,2.459,2.459,0,0,0,.805,1.863,7.194,7.194,0,0,0,2.123,1.207,9.068,9.068,0,0,1,1.681.8,0.887,0.887,0,0,1,.3.663q0,1.136-1.594,1.136a5.155,5.155,0,0,1-2.525-.773l-1.121,1.657a3.85,3.85,0,0,0,1.042.631,5.852,5.852,0,0,0,2.036.521v1.7h1.673V54.638a3.985,3.985,0,0,0,2.163-.978,2.968,2.968,0,0,0,.994-2.3,2.494,2.494,0,0,0-.805-1.894A7.671,7.671,0,0,0,71.423,48.2a9.987,9.987,0,0,1-1.657-.806,0.857,0.857,0,0,1-.316-0.615Q69.449,45.846,70.87,45.846ZM62,56.025v8.967a9.034,9.034,0,0,1-9.035,9.034H40.355l-8.382,8.591V73.964a9.033,9.033,0,0,1-8-8.971V56.025a9.035,9.035,0,0,1,9.035-9.035H52.963A9.035,9.035,0,0,1,62,56.025ZM34.989,57.4a3,3,0,1,0,3,3A3,3,0,0,0,34.989,57.4Zm8.519,0a3,3,0,1,0,3,3A3,3,0,0,0,43.508,57.4Zm8.451,0a3,3,0,1,0,3,3A3,3,0,0,0,51.959,57.4Z" transform="translate(-23.969 -38.969)"/>
</svg>
