<svg xmlns="http://www.w3.org/2000/svg" width="16.5" height="18.12" viewBox="0 0 16.5 18.12">
  <defs>
    <style>
      .cls-1 {
        fill: #666;
        fill-rule: evenodd;
      }
    </style>
  </defs>
  <path id="icon_logout_gray.svg" class="cls-1" d="M785.219,2688.42h0.562a0.847,0.847,0,0,1,.844.85v7.87a0.847,0.847,0,0,1-.844.85h-0.562a0.847,0.847,0,0,1-.844-0.85v-7.87A0.847,0.847,0,0,1,785.219,2688.42Zm0.281,18.16a8.238,8.238,0,0,1-5.007-14.78,1.123,1.123,0,1,1,1.369,1.78,5.99,5.99,0,1,0,7.258-.01,1.124,1.124,0,1,1,1.361-1.79,8.167,8.167,0,0,1,3.257,6.56A8.25,8.25,0,0,1,785.5,2706.58Z" transform="translate(-777.25 -2688.44)"/>
</svg>
