<svg id="icon_like_empty.svg" xmlns="http://www.w3.org/2000/svg" width="36.57" height="32" viewBox="0 0 36.57 32">
  <defs>
    <style>
      .cls-1 {
        fill: #00d9dc;
      }

      .cls-1, .cls-2 {
        fill-rule: evenodd;
      }

      .cls-2 {
        fill: #fff;
      }
    </style>
  </defs>
  <path id="icon_like_empty" class="cls-1" d="M1224.37,191.6c-8.28-11.486-21.65-1.507-17.51,9.226,2.74,7.083,7.72,11.486,17.51,17.686,9.8-6.2,14.78-10.6,17.52-17.686C1246.03,190.093,1232.66,180.114,1224.37,191.6Z" transform="translate(-1206.09 -186.5)"/>
  <path id="icon_like_empty-2" data-name="icon_like_empty" class="cls-2" d="M1224.37,216.139c-9.49-6.119-13.36-10.109-15.64-16.033a8.7,8.7,0,0,1,.86-8.187,7.538,7.538,0,0,1,6.13-3.431c2.58,0,5.01,1.48,7.03,4.282l1.62,2.249,1.63-2.249c2.02-2.8,4.45-4.282,7.03-4.282a7.538,7.538,0,0,1,6.13,3.431,8.7,8.7,0,0,1,.86,8.187C1237.74,206.03,1233.88,210.02,1224.37,216.139Z" transform="translate(-1206.09 -186.5)"/>
</svg>
