<svg xmlns="http://www.w3.org/2000/svg" width="18.938" height="22.156" viewBox="0 0 18.938 22.156">
  <defs>
    <style>
      .cls-1 {
        fill: #bbb;
        fill-rule: evenodd;
      }
    </style>
  </defs>
  <path id="icon_people.svg" class="cls-1" d="M657.545,354.969a44.365,44.365,0,0,0-.322-5.254c-0.016,2.327-.073,4.562-0.113,5.254H645.576c-0.041-.692-0.1-2.927-0.113-5.254a44.365,44.365,0,0,0-.322,5.254c-3.077,0-3.267-.036-3.265-3.733,0-4.558,1.727-7.257,6.22-8.271a4.622,4.622,0,0,0,6.492,0c4.494,1.014,6.22,3.713,6.222,8.272C660.811,354.933,660.621,354.969,657.545,354.969Zm-6.2-11.619c-2.629,0-4.761-3.142-4.761-5.772a4.761,4.761,0,0,1,9.522,0C656.1,340.208,653.971,343.35,651.341,343.35Z" transform="translate(-641.875 -332.813)"/>
</svg>
