<svg xmlns="http://www.w3.org/2000/svg" width="15" height="14.625" viewBox="0 0 15 14.625">
  <defs>
    <style>
      .cls-1 {
        fill: #fff;
        fill-rule: evenodd;
      }
    </style>
  </defs>
  <path id="icon_share_header_small.svg" class="cls-1" d="M260,250.968h-5a5,5,0,0,1-5-5v-1.532a1,1,0,0,1,1-1h0.656v2.875a3,3,0,0,0,3,3h5.688a3,3,0,0,0,3-3v-2.875H264a1,1,0,0,1,1,1v1.532A5,5,0,0,1,260,250.968Zm0.663-9.594-2.319-2.319v7.739a0.831,0.831,0,0,1-.832.831h-0.025a0.831,0.831,0,0,1-.831-0.831V239.07l-2.31,2.31a0.758,0.758,0,0,1-1.072-1.072l3.458-3.458a0.715,0.715,0,0,1,.788-0.51,0.722,0.722,0,0,1,.754.5l3.461,3.461A0.758,0.758,0,0,1,260.663,241.374Z" transform="translate(-250 -236.344)"/>
</svg>
