<svg xmlns="http://www.w3.org/2000/svg" width="39.969" height="31" viewBox="0 0 39.969 31">
  <defs>
    <style>
      .cls-1 {
        fill: #c1c1c1;
        fill-rule: evenodd;
      }
    </style>
  </defs>
  <path id="icon_legal_camera.svg" class="cls-1" d="M342.413,301.984H315.548a6.559,6.559,0,0,1-6.559-6.558V281.541a6.554,6.554,0,0,1,6.5-6.552,1.278,1.278,0,0,1,1.236-1.016h2.692a1.278,1.278,0,0,1,1.235,1.01h1.358l0.554-1.96a2.624,2.624,0,0,1,2.421-2.052h8.055a2.624,2.624,0,0,1,2.422,2.052l0.554,1.96h6.4a6.559,6.559,0,0,1,6.559,6.558v13.885A6.559,6.559,0,0,1,342.413,301.984Zm-13.4-23.469a10.375,10.375,0,1,0,10.375,10.375A10.374,10.374,0,0,0,329.012,278.515Zm0,17.947a7.572,7.572,0,1,1,7.572-7.572A7.572,7.572,0,0,1,329.012,296.462Z" transform="translate(-309 -270.969)"/>
</svg>
