<svg id="Layer_1" data-name="Layer 1" xmlns="http://www.w3.org/2000/svg" width="28.5" height="31" viewBox="0 0 28.5 31"><defs><style>.cls-1{fill:#09f;}</style></defs><title>icon_pin_1_blue</title><path id="icon_pin_1_blue.svg" data-name="icon pin 1 blue.svg" class="cls-1" d="M14.24,30.72c-7.66,0-13.87-1.9-13.87-4.25,0-1.82,3.72-3.36,8.95-4-2.9.57-4.85,1.61-4.85,2.81,0,1.8,4.37,3.26,9.76,3.26S24,27.11,24,25.31c0-1.2-2-2.25-4.86-2.81,5.24,0.61,9,2.15,9,4C28.13,28.82,21.9,30.72,14.24,30.72ZM21.9,12L14.57,25.23,7.24,12h0a8.14,8.14,0,1,1,14.6,0h0ZM14.57,3.85a4.56,4.56,0,1,0,4.56,4.56,4.56,4.56,0,0,0-4.56-4.56h0Z"/></svg>