<svg xmlns="http://www.w3.org/2000/svg" width="39.97" height="34" viewBox="0 0 39.97 34">
  <defs>
    <style>
      .cls-1 {
        fill: #666;
        fill-rule: evenodd;
      }
    </style>
  </defs>
  <path id="icon_groups.svg" class="cls-1" d="M1142.99,144.97a40.575,40.575,0,0,0-.37-5.547c-0.01,2.676-.08,4.752-0.13,5.547h-7.71c-0.8-5.09-3.64-7.689-8.75-9.095,1.07-2.123,3.01-3.517,6.1-4.214a5.308,5.308,0,0,0,7.46,0c5.17,1.166,7.16,4.145,7.16,9.388C1146.75,145.3,1146.53,144.97,1142.99,144.97Zm-7.13-12.866c-3.02,0-5.47-3.613-5.47-6.637a5.47,5.47,0,1,1,10.94,0C1141.33,128.491,1138.88,132.1,1135.86,132.1Zm-15.63,5.383c-3.74,0-6.77-4.467-6.77-8.206a6.77,6.77,0,1,1,13.54,0C1127,133.02,1123.97,137.487,1120.23,137.487Zm0,1.346a6.948,6.948,0,0,0,4.61-1.894c6.39,1.442,8.85,5.28,8.85,11.763,0,5.256-.27,5.308-4.64,5.307-0.16-2.73-.13-6.511-0.46-7.471-0.02,3.309-.1,6.487-0.16,7.471h-16.4c-0.06-.984-0.14-4.162-0.16-7.471-0.34.96-.3,4.741-0.46,7.471-4.37,0-4.64-.051-4.64-5.307,0-6.482,2.45-10.32,8.84-11.762A6.972,6.972,0,0,0,1120.23,138.833Z" transform="translate(-1106.78 -120)"/>
</svg>
