<svg id="Layer_1" data-name="Layer 1" xmlns="http://www.w3.org/2000/svg" width="21" height="18.5" viewBox="0 0 21 18.5"><defs><style>.cls-1{fill:#fff;}</style></defs><title>icon_like_stroke</title><path id="icon_like_stroke.svg" data-name="icon like stroke.svg" class="cls-1" d="M10.49,3.1C5.81-3.4-1.76,2.24.58,8.32c1.55,4,4.37,6.5,9.91,10,5.54-3.51,8.36-6,9.91-10C22.74,2.24,15.18-3.4,10.49,3.1Zm8,4.5c-1.18,3.06-3.19,5.17-8,8.35-4.85-3.18-6.86-5.29-8-8.35a4.08,4.08,0,0,1,.39-3.83A3.41,3.41,0,0,1,5.59,2.2,4.2,4.2,0,0,1,8.87,4.26l1.62,2.25,1.62-2.25A4.2,4.2,0,0,1,15.39,2.2a3.41,3.41,0,0,1,2.75,1.56A4.08,4.08,0,0,1,18.53,7.6Z"/></svg>