<svg id="Layer_1" data-name="Layer 1" xmlns="http://www.w3.org/2000/svg" width="17" height="11" viewBox="0 0 17 11"><defs><style>.cls-1{fill:#09f;}</style></defs><title>icon_eye</title><path id="icon_eye.svg" data-name="icon eye.svg" class="cls-1" d="M8.49,10.62A9.08,9.08,0,0,1,.32,5.5a9.08,9.08,0,0,1,16.34,0A9.08,9.08,0,0,1,8.49,10.62ZM8.49,2A3.45,3.45,0,1,0,11.94,5.5h0A3.45,3.45,0,0,0,8.49,2h0Zm0,5.69A2.24,2.24,0,0,1,6.25,5.5a2.22,2.22,0,0,1,.17-0.86,1.1,1.1,0,0,0,2.17-.25h0a1.09,1.09,0,0,0-.76-1,2.24,2.24,0,1,1,.66,4.38h0Z"/></svg>