<svg id="icon_legal_si.svg" xmlns="http://www.w3.org/2000/svg" width="44" height="44" viewBox="0 0 44 44">
  <defs>
    <style>
      .cls-1 {
        fill: #ff5531;
      }

      .cls-2 {
        fill: #fff;
        fill-rule: evenodd;
      }
    </style>
  </defs>
  <circle class="cls-1" cx="22" cy="22" r="22"/>
  <path id="SI" class="cls-2" d="M1222.22,292V278.66h2.32V292h-2.32Zm-6.34-7.96a10.013,10.013,0,0,1,2.58,1.46,3.486,3.486,0,0,1,1.16,2.68,3.874,3.874,0,0,1-1.23,2.98,4.741,4.741,0,0,1-3.35,1.14,6.851,6.851,0,0,1-3.04-.7,4.544,4.544,0,0,1-1.24-.8l1.04-1.6a5.774,5.774,0,0,0,3.12,1.12,2.587,2.587,0,0,0,1.74-.53,1.794,1.794,0,0,0,.62-1.43,1.748,1.748,0,0,0-.9-1.48q-0.285-.18-1.86-0.88a9.653,9.653,0,0,1-2.06-1.14,3.38,3.38,0,0,1-1.3-2.72,3.442,3.442,0,0,1,1.22-2.73,4.673,4.673,0,0,1,3.16-1.05,6.2,6.2,0,0,1,2.88.68,4.213,4.213,0,0,1,1.08.74l-1.08,1.48a4.3,4.3,0,0,0-2.72-1,2.7,2.7,0,0,0-1.64.47,1.449,1.449,0,0,0-.64,1.23,1.358,1.358,0,0,0,.58,1.14A11.529,11.529,0,0,0,1215.88,284.04Z" transform="translate(-1196 -264)"/>
</svg>
