<svg xmlns="http://www.w3.org/2000/svg" width="29" height="28.562" viewBox="0 0 29 28.562">
  <defs>
    <style>
      .cls-1 {
        fill: #ff5531;
        fill-rule: evenodd;
      }
    </style>
  </defs>
  <path id="icon_share_red_big.svg" class="cls-1" d="M1288,215h-19a5,5,0,0,1-5-5v-9a1,1,0,0,1,1-1h2v9a3,3,0,0,0,3,3h17a3,3,0,0,0,3-3v-9h2a1,1,0,0,1,1,1v9A5,5,0,0,1,1288,215Zm-3.27-18.934-4.73-4.728v15.631a1,1,0,0,1-1,1h-1a1,1,0,0,1-1-1V191.482l-4.6,4.6a1.45,1.45,0,1,1-2.05-2.051l7.18-7.176a1.388,1.388,0,0,1,.49-0.319,1.437,1.437,0,0,1,1.58.308l7.18,7.176A1.45,1.45,0,1,1,1284.73,196.066Z" transform="translate(-1264 -186.438)"/>
</svg>
