<svg id="Layer_1" data-name="Layer 1" xmlns="http://www.w3.org/2000/svg" width="24" height="26.5" viewBox="0 0 24 26.5"><defs><style>.cls-1{fill:#fff;}</style></defs><title>icon_pin_1_white</title><path id="icon_pin_1_white.svg" data-name="icon pin 1 white.svg" class="cls-1" d="M12,26.3C5.42,26.3.09,24.67,0.09,22.66c0-1.57,3.23-2.9,7.76-3.41-2.53.48-4.24,1.39-4.24,2.43,0,1.54,3.75,2.79,8.38,2.79s8.38-1.25,8.38-2.79c0-1-1.72-1.95-4.25-2.43,4.54,0.51,7.79,1.85,7.79,3.41C23.91,24.67,18.58,26.3,12,26.3Zm6.55-16L12.27,21.6,6,10.25H6a6.9,6.9,0,0,1-.74-3.07,7,7,0,1,1,13.22,3.07h0Zm-6.28-7a3.91,3.91,0,1,0,3.91,3.91,3.91,3.91,0,0,0-3.91-3.91h0Z"/></svg>