<svg xmlns="http://www.w3.org/2000/svg" width="45" height="41.438" viewBox="0 0 45 41.438">
  <defs>
    <style>
      .cls-1 {
        fill: #fff;
        fill-rule: evenodd;
      }
    </style>
  </defs>
  <path id="icon_alert_white.svg" class="cls-1" d="M314.269,212.984h-36.7c-3.7,0-5.218-2.624-3.367-5.832l18.518-33.192c1.762-3.258,4.642-3.258,6.4,0l18.518,33.192C319.487,210.36,317.971,212.984,314.269,212.984Zm-18.352-34.5-16.458,29.5h32.915ZM295,186h2a1,1,0,0,1,1,1v11a1,1,0,0,1-1,1h-2a1,1,0,0,1-1-1V187A1,1,0,0,1,295,186Zm0,15h2a1,1,0,0,1,1,1v2a1,1,0,0,1-1,1h-2a1,1,0,0,1-1-1v-2A1,1,0,0,1,295,201Z" transform="translate(-273.406 -171.531)"/>
</svg>
