<svg xmlns="http://www.w3.org/2000/svg" width="36.813" height="36.812" viewBox="0 0 36.813 36.812">
  <defs>
    <style>
      .cls-1 {
        fill: #c1c1c1;
        fill-rule: evenodd;
      }
    </style>
  </defs>
  <path id="icon_legal_tools.svg" class="cls-1" d="M335.859,496.764l-1.325-1.326,9.84-9.839a0.651,0.651,0,0,0-.92-0.921l-9.84,9.84-1.62-1.62,9.84-9.839a0.651,0.651,0,1,0-.92-0.921l-9.84,9.84-1.326-1.325,9.572-9.572a4.321,4.321,0,0,1,6.111,6.111Zm9.777,12.841a4.126,4.126,0,1,1-5.834,5.835l-18.624-18.624A8.623,8.623,0,0,1,310.5,485.788l5.138,5.138a1.774,1.774,0,0,0,2.5,0l3.125-3.125a1.774,1.774,0,0,0,0-2.5l-5.058-5.059a8.618,8.618,0,0,1,10.8,10.743Zm-4.421,4.511a2.191,2.191,0,1,0,0-3.1A2.192,2.192,0,0,0,341.215,514.116Zm-24.186-6.841,5.742-5.743,2.209,2.209-5.743,5.743-0.576,2.589-6.785,4.407-1.843-1.843,4.406-6.785Z" transform="translate(-310.031 -479.844)"/>
</svg>
