<svg id="icon_legal_ebay_logo.svg" xmlns="http://www.w3.org/2000/svg" width="73.969" height="17.656" viewBox="0 0 73.969 17.656">
  <defs>
    <style>
      .cls-1 {
        fill: #c1c1c1;
        fill-rule: evenodd;
      }
    </style>
  </defs>
  <path id="ebay_inc_logo" data-name="ebay inc logo" class="cls-1" d="M297.68,413.048c-5.492,0-5.706,4.274-5.678,5.384,0,0-.269,5,5.544,5,4.994,0,5.24-3.136,5.24-3.136l-2.3,0s-0.447,1.728-2.933,1.682a3.282,3.282,0,0,1-3.319-3.155h8.852S303.76,413.049,297.68,413.048Zm-3.371,4.262a3.066,3.066,0,0,1,3.317-2.8,2.864,2.864,0,0,1,3.148,2.8h-6.465Zm14.927-4.262a4.851,4.851,0,0,0-3.95,1.635V409.16h-2.214l0.038,11.673s-0.013,1.36-.1,2.259h2.15l0.092-1.312s1,1.651,3.935,1.651a4.968,4.968,0,0,0,5.308-5.153A5.027,5.027,0,0,0,309.236,413.048Zm-0.507,8.891c-3.488.043-3.431-3.7-3.431-3.7s-0.127-3.6,3.425-3.7,3.437,3.772,3.437,3.772S312.217,421.9,308.729,421.939Zm16-1.152c0.005-1.51.05-2.858,0-3.809-0.058-1.1.046-3.765-4.721-3.961,0,0-4.571-.417-5.046,2.985H317.3s0.181-1.558,2.553-1.514c2.245,0.043,2.654,1.144,2.643,2.5l-2.566.008c-1.158.006-5.207,0.135-5.585,2.6-0.45,2.933,2.168,3.848,4.216,3.836a4.709,4.709,0,0,0,4.085-1.724l0.093,1.365,2.036-.011S324.721,422.3,324.727,420.787Zm-5.786,1.232s-2.219,0-2.349-1.77c-0.139-1.892,3.414-1.778,3.414-1.778l2.509,0A3.174,3.174,0,0,1,318.941,422.019Zm4.575-8.6h2.568l3.757,7.491,3.765-7.491h2.322l-6.8,13.353h-2.483l1.967-3.71Zm15.694-.117h1.4v9.841h-1.4V413.3Zm11.2,3.5c0-1.949-1.192-2.63-2.971-2.63-2.744,0-3.993,1.4-3.993,3.633v5.337h-1.4V413.3h1.4v1.93h0.038A4.314,4.314,0,0,1,347.556,413c3.274,0,4.258,1.7,4.258,4.05v6.094h-1.4V416.8Zm12.887,2.82a4.732,4.732,0,0,1-4.977,3.823c-3.558,0-5.545-2.139-5.545-5.223,0-2.953,1.817-5.224,5.545-5.224,3.369,0,4.674,2.1,4.9,3.52h-1.4c-0.435-1.684-1.76-2.346-3.5-2.346a4.051,4.051,0,1,0,0,8.1,3.349,3.349,0,0,0,3.577-2.649h1.4Zm0.234-5.836h-0.195v-0.177h0.195v-0.29h0.244v0.29h0.254v0.177h-0.254v0.428c0,0.107,0,.166.088,0.166,0.06,0,.117,0,0.175,0v0.177a1.216,1.216,0,0,1-.187.014c-0.3,0-.32-0.106-0.32-0.283v-0.5Zm1.477,0.2a0.187,0.187,0,0,0-.23-0.215,0.243,0.243,0,0,0-.254.253v0.521h-0.244v-0.937h0.244v0.142h0a0.45,0.45,0,0,1,.369-0.167,0.324,0.324,0,0,1,.33.174,0.447,0.447,0,0,1,.38-0.174,0.327,0.327,0,0,1,.373.34v0.622h-0.244v-0.559a0.187,0.187,0,0,0-.229-0.215,0.244,0.244,0,0,0-.255.253v0.521h-0.244v-0.559Zm-24.217-3.981a0.884,0.884,0,1,1-.883-0.883A0.883,0.883,0,0,1,340.794,410.006Z" transform="translate(-292 -409.125)"/>
</svg>
