<svg id="Layer_1" data-name="Layer 1" xmlns="http://www.w3.org/2000/svg" width="14" height="14" viewBox="0 0 14 14"><defs><style>.cls-1{fill:#ff5531;opacity:0.8;isolation:isolate;}</style></defs><title>icon_share_red_small</title><path id="icon_share_red_small.svg" data-name="icon share red small.svg" class="cls-1" d="M9.5,13.86h-5a4,4,0,0,1-4-4v-3H2v2.5a3,3,0,0,0,3,3H9a3,3,0,0,0,3-3V6.86h1.5v3A4,4,0,0,1,9.5,13.86Zm-3-13.53a0.68,0.68,0,0,1,1,0l3.05,3.05a0.63,0.63,0,0,1-.89.9L7.79,2.45V9.17a0.8,0.8,0,0,1-1.59,0V2.45L4.35,4.3a0.64,0.64,0,0,1-.9-0.9Z"/></svg>