<svg xmlns="http://www.w3.org/2000/svg" width="15.5" height="13.344" viewBox="0 0 15.5 13.344">
  <defs>
    <style>
      .cls-1 {
        fill: #ccc;
        fill-rule: evenodd;
      }
    </style>
  </defs>
  <path id="icon_grupos.svg" class="cls-1" d="M344.016,249.3a15.391,15.391,0,0,0-.144-2.114c-0.007,1.038-.032,1.805-0.05,2.114h-2.991c-0.31-1.974-1.411-2.944-3.393-3.489a3.213,3.213,0,0,1,2.365-1.634,2.061,2.061,0,0,0,2.895,0c2,0.452,2.773,1.655,2.774,3.688C345.472,249.512,345.388,249.3,344.016,249.3Zm-2.766-4.951c-1.172,0-2.122-1.4-2.122-2.574a2.123,2.123,0,0,1,4.245,0C343.373,242.947,342.422,244.348,341.25,244.348Zm-6.06,2.087c-1.45,0-2.625-1.732-2.625-3.182a2.625,2.625,0,1,1,5.249,0C337.814,244.7,336.639,246.435,335.19,246.435Zm0,0.522a2.694,2.694,0,0,0,1.789-.735c2.478,0.559,3.429,2.047,3.43,4.56,0,2.038-.1,2.211-1.8,2.211a27.841,27.841,0,0,0-.177-3.049c-0.009,1.283-.04,2.668-0.063,3.049h-6.358c-0.022-.381-0.053-1.766-0.062-3.049a27.785,27.785,0,0,0-.178,3.049c-1.7,0-1.8-.173-1.8-2.211,0-2.513.951-4,3.428-4.559A2.7,2.7,0,0,0,335.19,246.957Z" transform="translate(-329.969 -239.656)"/>
</svg>
