<svg xmlns="http://www.w3.org/2000/svg" width="30.969" height="36.25" viewBox="0 0 30.969 36.25">
  <defs>
    <style>
      .cls-1 {
        fill: #c1c1c1;
        fill-rule: evenodd;
      }
    </style>
  </defs>
  <path id="icon_legal_shield.svg" class="cls-1" d="M344.43,564.417c-6.917-.212-12.9-4.32-14.61-5.674a0.506,0.506,0,0,0-.629,0c-1.712,1.354-7.692,5.462-14.609,5.674a0.57,0.57,0,0,0-.555.57v13.4c0,8.189,8.014,14.1,15.224,16.458a0.82,0.82,0,0,0,.509,0c7.21-2.361,15.225-8.269,15.225-16.458v-13.4A0.571,0.571,0,0,0,344.43,564.417Zm-6.6,9.7-3.554,3.464a0.537,0.537,0,0,0-.154.473l0.839,4.891a0.533,0.533,0,0,1-.774.562L329.8,581.2a0.539,0.539,0,0,0-.5,0l-4.393,2.309a0.533,0.533,0,0,1-.774-0.562l0.839-4.891a0.537,0.537,0,0,0-.154-0.473l-3.553-3.464a0.533,0.533,0,0,1,.3-0.91l4.911-.714a0.531,0.531,0,0,0,.4-0.292l2.2-4.449a0.534,0.534,0,0,1,.958,0l2.2,4.449a0.532,0.532,0,0,0,.4.292l4.911,0.714A0.534,0.534,0,0,1,337.83,574.118Z" transform="translate(-314.031 -558.656)"/>
</svg>
