<svg id="Layer_1" data-name="Layer 1" xmlns="http://www.w3.org/2000/svg" width="169" height="58" viewBox="0 0 169 58"><defs><style>.cls-1{fill:#010101;}.cls-2{fill:#fff;}</style></defs><title>logo_apple_store_black_1</title><rect class="cls-1" width="169" height="58" rx="8" ry="8"/><path class="cls-2" d="M568.37,476.16a8.8,8.8,0,0,1,4.19-7.38,9,9,0,0,0-7.1-3.84c-3-.31-5.88,1.79-7.4,1.79s-3.89-1.76-6.42-1.7a9.45,9.45,0,0,0-8,4.85c-3.44,6-.87,14.71,2.42,19.52,1.65,2.36,3.57,5,6.1,4.9s3.39-1.57,6.37-1.57,3.81,1.57,6.39,1.51,4.31-2.37,5.91-4.75a19.5,19.5,0,0,0,2.7-5.5A8.5,8.5,0,0,1,568.37,476.16Z" transform="translate(-534.6 -447.48)"/><path class="cls-2" d="M563.51,461.77a8.67,8.67,0,0,0,2-6.21,8.82,8.82,0,0,0-5.7,3,8.25,8.25,0,0,0-2,6A7.29,7.29,0,0,0,563.51,461.77Z" transform="translate(-534.6 -447.48)"/><path class="cls-2" d="M595.49,493.74h-3.28l-1.79-5.64h-6.24l-1.71,5.64h-3.19l6.18-19.2h3.82Zm-5.61-8-1.62-5q-0.26-.77-1-3.62h-0.06q-0.28,1.23-.91,3.62l-1.59,5h5.16Z" transform="translate(-534.6 -447.48)"/><path class="cls-2" d="M611.39,486.65a7.87,7.87,0,0,1-1.91,5.58,5.58,5.58,0,0,1-4.24,1.82,4.24,4.24,0,0,1-3.93-2h-0.06v7.29h-3.08V484.46q0-2.22-.11-4.56h2.71l0.17,2.19H601a5.47,5.47,0,0,1,8.76-.54A7.64,7.64,0,0,1,611.39,486.65Zm-3.13.11a5.7,5.7,0,0,0-.91-3.33,3.15,3.15,0,0,0-2.68-1.37,3.19,3.19,0,0,0-2.06.76,3.5,3.5,0,0,0-1.21,2,4,4,0,0,0-.14.94V488a3.7,3.7,0,0,0,.93,2.55,3.07,3.07,0,0,0,2.41,1,3.15,3.15,0,0,0,2.71-1.34A5.9,5.9,0,0,0,608.25,486.76Z" transform="translate(-534.6 -447.48)"/><path class="cls-2" d="M627.31,486.65a7.86,7.86,0,0,1-1.91,5.58,5.58,5.58,0,0,1-4.24,1.82,4.24,4.24,0,0,1-3.93-2h-0.06v7.29h-3.08V484.46q0-2.22-.11-4.56h2.71l0.17,2.19h0.06a5.47,5.47,0,0,1,8.76-.54A7.65,7.65,0,0,1,627.31,486.65Zm-3.13.11a5.7,5.7,0,0,0-.91-3.33,3.15,3.15,0,0,0-2.68-1.37,3.2,3.2,0,0,0-2.07.76,3.5,3.5,0,0,0-1.21,2,4.07,4.07,0,0,0-.14.94V488a3.71,3.71,0,0,0,.92,2.55,3.07,3.07,0,0,0,2.41,1,3.15,3.15,0,0,0,2.71-1.34A5.9,5.9,0,0,0,624.18,486.76Z" transform="translate(-534.6 -447.48)"/><path class="cls-2" d="M645.12,488.36a5.12,5.12,0,0,1-1.7,4,7.56,7.56,0,0,1-5.23,1.68,9.16,9.16,0,0,1-5-1.2l0.71-2.56a8.42,8.42,0,0,0,4.45,1.23,4.2,4.2,0,0,0,2.71-.78,2.56,2.56,0,0,0,1-2.1,2.67,2.67,0,0,0-.8-2,7.43,7.43,0,0,0-2.65-1.49q-5-1.88-5-5.51a4.88,4.88,0,0,1,1.77-3.88,7,7,0,0,1,4.7-1.51,9.32,9.32,0,0,1,4.36.91l-0.77,2.51a7.56,7.56,0,0,0-3.67-.88,3.71,3.71,0,0,0-2.53.8,2.28,2.28,0,0,0-.77,1.74,2.34,2.34,0,0,0,.88,1.88,10,10,0,0,0,2.79,1.48,9.48,9.48,0,0,1,3.65,2.33A4.9,4.9,0,0,1,645.12,488.36Z" transform="translate(-534.6 -447.48)"/><path class="cls-2" d="M655.29,482.21H651.9v6.72q0,2.56,1.79,2.56a5.52,5.52,0,0,0,1.37-.14l0.08,2.34a7,7,0,0,1-2.39.34,3.69,3.69,0,0,1-2.85-1.11,5.46,5.46,0,0,1-1-3.73v-7h-2V479.9h2v-2.54l3-.91v3.45h3.39v2.31Z" transform="translate(-534.6 -447.48)"/><path class="cls-2" d="M670.58,486.71a7.6,7.6,0,0,1-1.82,5.24,6.51,6.51,0,0,1-5.07,2.11,6.19,6.19,0,0,1-4.86-2,7.36,7.36,0,0,1-1.81-5.1,7.52,7.52,0,0,1,1.87-5.27,6.46,6.46,0,0,1,5-2.05,6.32,6.32,0,0,1,4.9,2A7.29,7.29,0,0,1,670.58,486.71Zm-3.19.1a6.24,6.24,0,0,0-.83-3.29,3,3,0,0,0-2.76-1.66,3.08,3.08,0,0,0-2.82,1.66,6.35,6.35,0,0,0-.83,3.34,6.23,6.23,0,0,0,.83,3.28,3.14,3.14,0,0,0,5.55,0A6.24,6.24,0,0,0,667.39,486.81Z" transform="translate(-534.6 -447.48)"/><path class="cls-2" d="M680.58,482.6a5.32,5.32,0,0,0-1-.08,2.91,2.91,0,0,0-2.51,1.23,4.6,4.6,0,0,0-.77,2.73v7.26h-3.07l0-9.49q0-2.39-.12-4.36h2.68l0.11,2.65h0.08a4.73,4.73,0,0,1,1.54-2.19,3.72,3.72,0,0,1,2.22-.74,4.87,4.87,0,0,1,.77.06v2.93Z" transform="translate(-534.6 -447.48)"/><path class="cls-2" d="M694.34,486.17a7.23,7.23,0,0,1-.11,1.39H685a4,4,0,0,0,1.34,3.13,4.57,4.57,0,0,0,3,1,10.22,10.22,0,0,0,3.73-.66l0.48,2.14a11.56,11.56,0,0,1-4.64.86,6.72,6.72,0,0,1-5.06-1.89A7,7,0,0,1,682,487a7.93,7.93,0,0,1,1.71-5.21,5.89,5.89,0,0,1,4.84-2.22,5.16,5.16,0,0,1,4.53,2.22A7.48,7.48,0,0,1,694.34,486.17Zm-2.93-.8a4.18,4.18,0,0,0-.6-2.36,2.69,2.69,0,0,0-2.45-1.28,2.92,2.92,0,0,0-2.45,1.25,4.58,4.58,0,0,0-.91,2.39h6.41Z" transform="translate(-534.6 -447.48)"/><path class="cls-2" d="M588.86,462.73a4.74,4.74,0,0,1-1.53,3.84,6.07,6.07,0,0,1-4,1.19,18.73,18.73,0,0,1-2.21-.11v-9.28a16.27,16.27,0,0,1,2.6-.2,5.61,5.61,0,0,1,3.74,1.08A4.35,4.35,0,0,1,588.86,462.73Zm-1.59,0a3.07,3.07,0,0,0-3.43-3.41,6.45,6.45,0,0,0-1.22.1v7.05a8.07,8.07,0,0,0,1,0,3.58,3.58,0,0,0,2.68-1A3.86,3.86,0,0,0,587.27,462.77Z" transform="translate(-534.6 -447.48)"/><path class="cls-2" d="M597.32,464.22a3.73,3.73,0,0,1-.9,2.57,3.2,3.2,0,0,1-2.49,1,3,3,0,0,1-2.39-1,3.62,3.62,0,0,1-.89-2.51,3.7,3.7,0,0,1,.92-2.59,3.17,3.17,0,0,1,2.47-1,3.11,3.11,0,0,1,2.41,1A3.59,3.59,0,0,1,597.32,464.22Zm-1.57,0a3.07,3.07,0,0,0-.41-1.61,1.49,1.49,0,0,0-1.36-.81,1.52,1.52,0,0,0-1.39.81,3.13,3.13,0,0,0-.41,1.64,3.07,3.07,0,0,0,.41,1.61,1.54,1.54,0,0,0,2.73,0A3.06,3.06,0,0,0,595.75,464.26Z" transform="translate(-534.6 -447.48)"/><path class="cls-2" d="M608.65,460.87l-2.13,6.8h-1.38l-0.88-3a21.84,21.84,0,0,1-.55-2.2h0a16,16,0,0,1-.55,2.2l-0.94,3h-1.4l-2-6.8h1.55l0.77,3.23q0.28,1.15.46,2.18h0q0.17-.85.56-2.17l1-3.25h1.23l0.92,3.18q0.34,1.16.55,2.24h0a21.28,21.28,0,0,1,.46-2.24l0.83-3.18h1.48Z" transform="translate(-534.6 -447.48)"/><path class="cls-2" d="M616.49,467.67H615v-3.9q0-1.8-1.37-1.8a1.36,1.36,0,0,0-1.09.5,1.75,1.75,0,0,0-.42,1.17v4h-1.51v-4.86q0-.9-0.05-1.95h1.33l0.07,1.06h0a2.18,2.18,0,0,1,.78-0.82,2.55,2.55,0,0,1,1.37-.38,2.17,2.17,0,0,1,1.58.62,3,3,0,0,1,.78,2.25v4.07Z" transform="translate(-534.6 -447.48)"/><path class="cls-2" d="M620.66,467.67h-1.51v-9.92h1.51v9.92Z" transform="translate(-534.6 -447.48)"/><path class="cls-2" d="M629.56,464.22a3.73,3.73,0,0,1-.9,2.57,3.2,3.2,0,0,1-2.49,1,3,3,0,0,1-2.39-1,3.62,3.62,0,0,1-.89-2.51,3.7,3.7,0,0,1,.92-2.59,3.17,3.17,0,0,1,2.47-1,3.11,3.11,0,0,1,2.41,1A3.59,3.59,0,0,1,629.56,464.22Zm-1.57,0a3.07,3.07,0,0,0-.41-1.61,1.49,1.49,0,0,0-1.36-.81,1.51,1.51,0,0,0-1.39.81,3.13,3.13,0,0,0-.41,1.64,3.07,3.07,0,0,0,.41,1.61,1.53,1.53,0,0,0,1.37.81,1.51,1.51,0,0,0,1.36-.83A3,3,0,0,0,628,464.26Z" transform="translate(-534.6 -447.48)"/><path class="cls-2" d="M636.88,467.67h-1.36l-0.11-.78h0a2.33,2.33,0,0,1-2,.94,2,2,0,0,1-1.55-.62,1.93,1.93,0,0,1-.53-1.39,2.12,2.12,0,0,1,1-1.9,5.43,5.43,0,0,1,2.93-.64v-0.13a1.22,1.22,0,0,0-1.41-1.34,3.16,3.16,0,0,0-1.77.5l-0.31-1a4.35,4.35,0,0,1,2.33-.59q2.67,0,2.67,2.81V466A10.64,10.64,0,0,0,636.88,467.67Zm-1.57-2.34v-1q-2.5,0-2.5,1.37a1,1,0,0,0,.29.8,1.06,1.06,0,0,0,.74.27,1.52,1.52,0,0,0,.92-0.31,1.29,1.29,0,0,0,.52-0.8A1.22,1.22,0,0,0,635.31,465.33Z" transform="translate(-534.6 -447.48)"/><path class="cls-2" d="M645.47,467.67h-1.34l-0.07-1.09h0a2.26,2.26,0,0,1-2.18,1.25,2.56,2.56,0,0,1-2-1,3.76,3.76,0,0,1-.81-2.51,3.94,3.94,0,0,1,.88-2.67,2.71,2.71,0,0,1,2.1-1,2,2,0,0,1,1.92.92h0v-3.9h1.51v8.09Q645.42,466.83,645.47,467.67Zm-1.57-2.87v-1.13a2.16,2.16,0,0,0,0-.48,1.72,1.72,0,0,0-.55-0.92,1.48,1.48,0,0,0-1-.37,1.55,1.55,0,0,0-1.33.67,2.88,2.88,0,0,0-.48,1.72,2.69,2.69,0,0,0,.46,1.64,1.56,1.56,0,0,0,1.32.67,1.46,1.46,0,0,0,1.19-.56A1.87,1.87,0,0,0,643.9,464.8Z" transform="translate(-534.6 -447.48)"/><path class="cls-2" d="M658.4,464.22a3.73,3.73,0,0,1-.9,2.57,3.19,3.19,0,0,1-2.49,1,3,3,0,0,1-2.39-1,3.62,3.62,0,0,1-.89-2.51,3.7,3.7,0,0,1,.92-2.59,3.18,3.18,0,0,1,2.47-1,3.11,3.11,0,0,1,2.41,1A3.59,3.59,0,0,1,658.4,464.22Zm-1.57,0a3.07,3.07,0,0,0-.41-1.61,1.49,1.49,0,0,0-1.36-.81,1.52,1.52,0,0,0-1.39.81,3.13,3.13,0,0,0-.41,1.64,3.07,3.07,0,0,0,.41,1.61,1.55,1.55,0,0,0,2.73,0A3.07,3.07,0,0,0,656.84,464.26Z" transform="translate(-534.6 -447.48)"/><path class="cls-2" d="M666.53,467.67H665v-3.9q0-1.8-1.37-1.8a1.36,1.36,0,0,0-1.09.5,1.75,1.75,0,0,0-.42,1.17v4h-1.51v-4.86q0-.9-0.05-1.95h1.33l0.07,1.06h0a2.2,2.2,0,0,1,.78-0.82,2.55,2.55,0,0,1,1.37-.38,2.17,2.17,0,0,1,1.58.62,3,3,0,0,1,.78,2.25v4.07Z" transform="translate(-534.6 -447.48)"/><path class="cls-2" d="M676.71,462H675v3.3c0,0.84.3,1.26,0.88,1.26a2.69,2.69,0,0,0,.67-0.07l0,1.15a3.41,3.41,0,0,1-1.17.17,1.81,1.81,0,0,1-1.4-.55,2.66,2.66,0,0,1-.5-1.83V462h-1v-1.13h1v-1.25l1.48-.45v1.69h1.67V462Z" transform="translate(-534.6 -447.48)"/><path class="cls-2" d="M684.71,467.67H683.2V463.8q0-1.83-1.37-1.83a1.44,1.44,0,0,0-1.44,1.06,1.89,1.89,0,0,0-.07.54v4.09h-1.51v-9.92h1.51v4.1h0a2.29,2.29,0,0,1,2-1.12,2.11,2.11,0,0,1,1.56.62,3.1,3.1,0,0,1,.77,2.28v4Z" transform="translate(-534.6 -447.48)"/><path class="cls-2" d="M693,463.95a3.62,3.62,0,0,1-.06.69h-4.53a2,2,0,0,0,.66,1.54,2.25,2.25,0,0,0,1.49.48,5,5,0,0,0,1.83-.32l0.24,1a5.7,5.7,0,0,1-2.28.42,3.29,3.29,0,0,1-2.48-.93,3.43,3.43,0,0,1-.9-2.5,3.9,3.9,0,0,1,.84-2.56,2.89,2.89,0,0,1,2.38-1.09,2.53,2.53,0,0,1,2.22,1.09A3.66,3.66,0,0,1,693,463.95Zm-1.44-.39a2,2,0,0,0-.29-1.16,1.32,1.32,0,0,0-1.2-.63,1.44,1.44,0,0,0-1.2.62,2.28,2.28,0,0,0-.45,1.18h3.15Z" transform="translate(-534.6 -447.48)"/></svg>