<svg xmlns="http://www.w3.org/2000/svg" width="32.062" height="31.969" viewBox="0 0 32.062 31.969">
  <defs>
    <style>
      .cls-1 {
        fill: #fff;
        fill-rule: evenodd;
      }
    </style>
  </defs>
  <path id="logo_footer_facebook.svg" class="cls-1" d="M236.265,157.988H207.739a1.763,1.763,0,0,0-1.763,1.763v28.462a1.763,1.763,0,0,0,1.763,1.763h15.3V177.561h-4.163V172.74h4.163v-3.555c0-4.126,2.52-6.373,6.2-6.373a34.342,34.342,0,0,1,3.72.19v4.312h-2.553c-2,0-2.389.951-2.389,2.347v3.078h4.774l-0.622,4.821h-4.152v12.415h8.249a1.763,1.763,0,0,0,1.763-1.763V159.751A1.763,1.763,0,0,0,236.265,157.988Z" transform="translate(-205.969 -158)"/>
</svg>
