<svg xmlns="http://www.w3.org/2000/svg" width="131" height="45" viewBox="0 0 131 45">
  <defs>
    <style>
      .cls-1 {
        fill: #fff;
        fill-rule: evenodd;
      }
    </style>
  </defs>
  <path id="logo_apple_store_transparent.svg" class="cls-1" d="M304,755H185a6,6,0,0,1-6-6V716a6,6,0,0,1,6-6H304a6,6,0,0,1,6,6v33A6,6,0,0,1,304,755Zm5-39a5,5,0,0,0-5-5H185a5,5,0,0,0-5,5v33a5,5,0,0,0,5,5H304a5,5,0,0,0,5-5V716Zm-16.915,24.142a2.836,2.836,0,0,0,.942,2.212,3.219,3.219,0,0,0,2.125.682,7.158,7.158,0,0,0,2.628-.462l0.339,1.5a8.131,8.131,0,0,1-3.267.6,4.733,4.733,0,0,1-3.561-1.335A4.947,4.947,0,0,1,290,739.763a5.589,5.589,0,0,1,1.2-3.675,4.146,4.146,0,0,1,3.407-1.566,3.626,3.626,0,0,1,3.189,1.566,5.268,5.268,0,0,1,.861,3.07h0a5.071,5.071,0,0,1-.08.984h-6.5Zm4.089-3.214a1.888,1.888,0,0,0-1.724-.9,2.052,2.052,0,0,0-1.724.884,3.253,3.253,0,0,0-.641,1.687l4.51,0A2.943,2.943,0,0,0,296.174,736.928Zm-4.027-12.955h-3.194a1.375,1.375,0,0,0,1.507,1.422,3.58,3.58,0,0,0,1.29-.227l0.167,0.741a4,4,0,0,1-1.607.3,2.226,2.226,0,0,1-2.385-2.418,2.342,2.342,0,0,1,2.266-2.578,2.015,2.015,0,0,1,1.992,2.281,2.038,2.038,0,0,1-.036.484h0Zm-2.03-2.023a1.264,1.264,0,0,0-1.164,1.263h2.218A1.09,1.09,0,0,0,290.117,721.95Zm-1.144,12.627,0,2.069h0a3.732,3.732,0,0,0-.682-0.059,2.04,2.04,0,0,0-1.765.863,3.253,3.253,0,0,0-.541,1.928V744.5h-2.165v-6.689q0-1.686-.063-3.073h1.886l0.079,1.868h0.06a3.345,3.345,0,0,1,1.083-1.547,2.61,2.61,0,0,1,1.565-.524A3.644,3.644,0,0,1,288.973,734.577Zm-3.33-11.2c0-.859-0.326-1.294-0.966-1.294a1.043,1.043,0,0,0-1.063,1.136v2.892h-1.066v-7h1.066V722h0.02a1.611,1.611,0,0,1,1.439-.781c1.015,0,1.635.79,1.635,2.044v2.854h-1.065v-2.734Zm-8.562,21.34a4.359,4.359,0,0,1-3.42-1.425,5.194,5.194,0,0,1-1.273-3.594,5.326,5.326,0,0,1,1.313-3.716,4.551,4.551,0,0,1,3.54-1.446,4.457,4.457,0,0,1,3.449,1.426,5.136,5.136,0,0,1,1.244,3.573,5.357,5.357,0,0,1-1.284,3.7A4.575,4.575,0,0,1,277.081,744.722Zm2.028-7.435a2.142,2.142,0,0,0-1.946-1.162,2.171,2.171,0,0,0-1.985,1.162,4.433,4.433,0,0,0-.581,2.343,4.35,4.35,0,0,0,.581,2.3,2.219,2.219,0,0,0,3.914-.019A4.844,4.844,0,0,0,279.109,737.287Zm0.791-12.839q0,0.89.62,0.889a2.077,2.077,0,0,0,.473-0.05l0.03,0.81a2.378,2.378,0,0,1-.827.119c-0.84,0-1.34-.464-1.34-1.679v-2.419h-0.7v-0.8h0.7v-0.879l1.044-.316v1.194h1.171v0.8H279.9v2.33Zm-6.855,1.668v-2.755c0-.848-0.326-1.274-0.967-1.274a1.108,1.108,0,0,0-1.066,1.176v2.853H269.95V722.69c0-.425-0.012-0.879-0.041-1.373h0.937l0.05,0.741h0.03a1.717,1.717,0,0,1,1.518-.84,1.742,1.742,0,0,1,1.663,2.024v2.874h-1.062Zm-1.859,10.251H268.8v4.74q0,1.808,1.264,1.806a3.811,3.811,0,0,0,.962-0.1l0.06,1.647a4.895,4.895,0,0,1-1.683.24,2.6,2.6,0,0,1-2.007-.784,3.848,3.848,0,0,1-.722-2.632v-4.921h-1.421v-1.628h1.421v-1.788l2.126-.643v2.431h2.387v1.632ZM266,726.225a2.282,2.282,0,0,1-2.306-2.468,2.335,2.335,0,0,1,2.386-2.537,2.264,2.264,0,0,1,2.307,2.459A2.35,2.35,0,0,1,266,726.225ZM266.039,722c-0.769,0-1.262.72-1.262,1.728a1.468,1.468,0,0,0,1.252,1.708,1.506,1.506,0,0,0,1.251-1.729A1.466,1.466,0,0,0,266.039,722Zm-5.674,10.551a2.64,2.64,0,0,0-1.792.563,1.611,1.611,0,0,0-.544,1.227,1.655,1.655,0,0,0,.623,1.325,7.022,7.022,0,0,0,1.964,1.045,6.661,6.661,0,0,1,2.567,1.646,3.436,3.436,0,0,1,.826,2.349,3.617,3.617,0,0,1-1.2,2.812,5.32,5.32,0,0,1-3.681,1.185,6.421,6.421,0,0,1-3.5-.843l0.5-1.808a6.024,6.024,0,0,0,3.129.844,2.95,2.95,0,0,0,1.9-.552,1.8,1.8,0,0,0,.683-1.475,1.894,1.894,0,0,0-.562-1.388,5.224,5.224,0,0,0-1.864-1.043q-3.549-1.326-3.551-3.878a3.429,3.429,0,0,1,1.253-2.732,4.949,4.949,0,0,1,3.319-1.065,6.553,6.553,0,0,1,3.068.643l-0.543,1.768A5.359,5.359,0,0,0,260.365,732.55Zm-4.014-8.577a1.377,1.377,0,0,0,1.508,1.422,3.6,3.6,0,0,0,1.292-.227l0.165,0.741a3.994,3.994,0,0,1-1.606.3,2.226,2.226,0,0,1-2.385-2.418,2.342,2.342,0,0,1,2.267-2.578,2.015,2.015,0,0,1,1.991,2.281,2.083,2.083,0,0,1-.036.483h-3.2Zm1.165-2.023a1.266,1.266,0,0,0-1.165,1.263h2.221A1.091,1.091,0,0,0,257.516,721.95Zm-4.826-2.834h1.063v7H252.69v-7Zm-5.571,25.606a3,3,0,0,1-2.782-1.385v5.122h-2.166V737.947q0-1.563-.08-3.208H244l0.121,1.548h0.041a3.848,3.848,0,0,1,6.167-.384,5.412,5.412,0,0,1,1.151,3.6,5.531,5.531,0,0,1-1.35,3.936A3.96,3.96,0,0,1,247.119,744.722Zm1.507-7.493a2.215,2.215,0,0,0-1.883-.964,2.255,2.255,0,0,0-1.456.533,2.463,2.463,0,0,0-.851,1.4,2.876,2.876,0,0,0-.1.659v1.63a2.623,2.623,0,0,0,.651,1.8,2.166,2.166,0,0,0,1.7.733,2.215,2.215,0,0,0,1.9-.944,4.162,4.162,0,0,0,.683-2.492A4.03,4.03,0,0,0,248.626,737.229Zm0.369-11a1.628,1.628,0,0,1-1.507-.849h-0.02l-0.061.74H246.5c0.028-.384.038-0.82,0.038-1.293v-5.706h1.067v2.9h0.019a1.644,1.644,0,0,1,1.528-.8c1.154,0,1.962.988,1.962,2.428A2.307,2.307,0,0,1,249,726.225Zm-0.216-4.167h0a1.225,1.225,0,0,0-1.173,1.274v0.839a1.175,1.175,0,0,0,1.154,1.2c0.8,0,1.272-.652,1.272-1.688A1.4,1.4,0,0,0,248.779,722.058Zm-4.984,4.058-0.08-.552h-0.029a1.633,1.633,0,0,1-1.4.661,1.4,1.4,0,0,1-1.469-1.412c0-1.184,1.025-1.8,2.8-1.8v-0.088a0.861,0.861,0,0,0-.995-0.948,2.232,2.232,0,0,0-1.251.356l-0.218-.7a3.063,3.063,0,0,1,1.647-.415,1.713,1.713,0,0,1,1.884,1.985v1.767a7.387,7.387,0,0,0,.067,1.145H243.8Zm-0.148-2.389c-1.183,0-1.774.286-1.774,0.967a0.679,0.679,0,0,0,.729.75,1.02,1.02,0,0,0,1.045-.977v-0.74Zm-7.736,21a3,3,0,0,1-2.783-1.385v5.122h-2.166V737.947q0-1.563-.08-3.208h1.9l0.121,1.548h0.041a3.847,3.847,0,0,1,6.166-.384,5.4,5.4,0,0,1,1.151,3.6h0a5.531,5.531,0,0,1-1.351,3.936A3.956,3.956,0,0,1,235.911,744.722Zm1.507-7.493a2.22,2.22,0,0,0-1.885-.964,2.248,2.248,0,0,0-1.454.533,2.465,2.465,0,0,0-.852,1.4,2.812,2.812,0,0,0-.1.659v1.63a2.614,2.614,0,0,0,.652,1.8,2.163,2.163,0,0,0,1.694.733,2.217,2.217,0,0,0,1.9-.944,4.162,4.162,0,0,0,.683-2.492A4.03,4.03,0,0,0,237.418,737.229Zm0.789-18.112h1.064v7h-1.064v-7Zm-1.891,7h-1.064v-4.8h1.064v4.8Zm-0.553-5.588a0.638,0.638,0,1,1,.671-0.642A0.626,0.626,0,0,1,235.763,720.528Zm-3.259,5.588-0.079-.552H232.4a1.635,1.635,0,0,1-1.4.661,1.4,1.4,0,0,1-1.469-1.412c0-1.184,1.025-1.8,2.8-1.8v-0.088a0.861,0.861,0,0,0-1-.948,2.235,2.235,0,0,0-1.251.356l-0.216-.7a3.057,3.057,0,0,1,1.646-.415,1.712,1.712,0,0,1,1.883,1.985v1.767a7.1,7.1,0,0,0,.069,1.145H232.5Zm-0.148-2.389c-1.183,0-1.774.287-1.774,0.967a0.679,0.679,0,0,0,.729.75,1.02,1.02,0,0,0,1.045-.977v-0.74Zm-6.83,16.8h-4.392l-1.2,3.977h-2.245l4.352-13.54h2.687L229.1,744.5h-2.307Zm-1.524-5.2q-0.182-.545-0.681-2.552H223.28q-0.2.864-.642,2.552l-1.123,3.534h3.63Zm1.792-9.206-1.755-4.8h1.143L226,723.856c0.138,0.424.256,0.829,0.344,1.213h0.03c0.079-.345.2-0.75,0.344-1.213l0.809-2.538h1.115l-1.814,4.8h-1.035Zm-4.255-1.954h-2.158l-0.592,1.954h-1.1l2.139-6.654h1.32l2.15,6.654H222.16Zm-0.748-2.558c-0.059-.178-0.168-0.592-0.335-1.253h-0.021c-0.069.286-.167,0.7-0.316,1.253l-0.551,1.738h1.784Zm-12.977,15.872a12.79,12.79,0,0,1-1.776,3.619c-1.047,1.565-2.144,3.1-3.885,3.122l-0.095,0c-1.619,0-2.2-1-4.107-1-1.959,0-2.565.968-4.188,1.034l-0.085,0c-1.617,0-2.859-1.7-3.925-3.223-2.169-3.167-3.857-8.925-1.593-12.843A6.216,6.216,0,0,1,193.393,725h0.072c1.633,0,3.145,1.122,4.151,1.122,0.931,0,2.645-1.2,4.461-1.2a4,4,0,0,1,.409.021,5.931,5.931,0,0,1,4.67,2.525,5.789,5.789,0,0,0-2.757,4.858h0A5.6,5.6,0,0,0,207.814,737.476Zm-10.15-12.812c-0.083,0-.166,0-0.248-0.009a5.423,5.423,0,0,1,1.338-3.934,5.808,5.808,0,0,1,3.753-1.941,5.7,5.7,0,0,1-1.3,4.084A4.9,4.9,0,0,1,197.664,724.664Z" transform="translate(-179 -710)"/>
</svg>
