<svg id="Layer_1" data-name="Layer 1" xmlns="http://www.w3.org/2000/svg" width="134.36" height="45.36" viewBox="0 0 134.36 45.36"><defs><style>.cls-1{fill:#fff;stroke:#000;stroke-opacity:0.2;stroke-width:0.36px;}.cls-2{fill-opacity:0.5;}</style></defs><title>logo_google_play_white</title><path class="cls-1" d="M171,639H294.09a5.42,5.42,0,0,1,5.43,5.4v34.2a5.42,5.42,0,0,1-5.43,5.4H171a5.42,5.42,0,0,1-5.43-5.4v-34.2A5.42,5.42,0,0,1,171,639Z" transform="translate(-165.35 -638.79)"/><path class="cls-2" d="M173.54,654.63a0.94,0.94,0,0,0,0,.16v21.92a0.48,0.48,0,0,0,.3.5l11.67-11.12-12-11.45h0Zm0.43-.47a0.94,0.94,0,0,1,.63.13l9.71,5.38,5,2.77-3.36,3.2-12-11.48h0Zm14.75,15-2.48,1.37-1.93,1.07-9,5,10.67-10.12,2.78,2.66h0Zm0.58-.32,0,0,4.84-2.68c0.57-.31.51-0.75,0-1s-3.13-1.73-4.32-2.39l-3.49,3.31,2.9,2.78h0Z" transform="translate(-165.35 -638.79)"/><path class="cls-2" d="M258.91,670l-0.91.87c-0.21.12-.42,0.25-0.63,0.35a4.4,4.4,0,0,1-1.85.36,4.07,4.07,0,0,1-2.54-.75,5,5,0,0,1-1.95-4,4.34,4.34,0,0,1,4.37-4.44,3.7,3.7,0,0,1,2,.54,3.21,3.21,0,0,1,1.34,1.9l-4.49,1.82-1.47.11c0.48,2.44,2.12,3.86,3.93,3.86a4.69,4.69,0,0,0,2.2-.6s0.12-.06,0,0h0Zm-2.74-4.9a0.6,0.6,0,0,0,.55-0.52,1.89,1.89,0,0,0-1.87-1.66c-0.75,0-2.17.6-2.17,2.69,0,0.33,0,.67.06,1l3.43-1.53h0Zm-6.62,4.79c0,0.74.13,0.86,0.76,0.92l1,0.09-0.7.42h-3.35a1.39,1.39,0,0,0,.52-1V658.54h-1.48l1.43-.69h2.72a1.32,1.32,0,0,0-.84,1.22v10.86h0Zm-5.2-6.61a3.13,3.13,0,0,1-.25,5.3,1.36,1.36,0,0,0-.53.94,1.05,1.05,0,0,0,.49.83l0.69,0.53a3.34,3.34,0,0,1,1.59,2.68c0,1.8-1.73,3.62-5,3.62-2.75,0-4.08-1.32-4.08-2.74a2.75,2.75,0,0,1,1.46-2.34,8.12,8.12,0,0,1,3.63-.88,2,2,0,0,1-.57-1.3,1.74,1.74,0,0,1,.19-0.75c-0.21,0-.42,0-0.61,0a3,3,0,0,1-3.15-3,3.45,3.45,0,0,1,1.22-2.57,5.15,5.15,0,0,1,3.4-1.05h3.91l-1.22.69h-1.18ZM243,671.8a2.91,2.91,0,0,0-.44,0,7.47,7.47,0,0,0-2,.31,2.18,2.18,0,0,0-1.65,2c0,1.38,1.32,2.38,3.37,2.38,1.84,0,2.81-.9,2.81-2.11,0-1-.63-1.52-2.08-2.57h0Zm0.54-3.69a1.94,1.94,0,0,0,.48-1.39c0-1.37-.81-3.51-2.38-3.51a1.75,1.75,0,0,0-1.32.63,2.21,2.21,0,0,0-.42,1.41c0,1.28.74,3.4,2.36,3.4a1.92,1.92,0,0,0,1.28-.53h0Zm-11,3.5a4.52,4.52,0,0,1-4.64-4.55,4.74,4.74,0,0,1,4.93-4.69,4.48,4.48,0,0,1,4.55,4.55,4.68,4.68,0,0,1-4.84,4.68h0Zm2.37-1.56a3.51,3.51,0,0,0,.57-2.14c0-1.7-.8-5-3.17-5a2.64,2.64,0,0,0-1.72.66,2.94,2.94,0,0,0-.88,2.36c0,1.91.93,5.06,3.25,5.06a2.43,2.43,0,0,0,1.95-1h0Zm-12.51,1.56a4.52,4.52,0,0,1-4.64-4.55,4.75,4.75,0,0,1,4.93-4.69,4.48,4.48,0,0,1,4.55,4.55,4.68,4.68,0,0,1-4.84,4.68h0Zm2.37-1.56a3.53,3.53,0,0,0,.57-2.14c0-1.7-.8-5-3.17-5a2.64,2.64,0,0,0-1.72.66,2.94,2.94,0,0,0-.88,2.36c0,1.91.94,5.06,3.25,5.06a2.43,2.43,0,0,0,1.95-1h0Zm-8.27,1-2.56.59a18.61,18.61,0,0,1-3,.31,6.39,6.39,0,0,1-6.83-6.53c0-3.5,2.67-6.74,7.24-6.74a10.41,10.41,0,0,1,2.74.38,6.88,6.88,0,0,1,2.36,1.12L215,661.59l-0.63.14,0.45-.72a5.1,5.1,0,0,0-3.83-1.7c-2.83,0-5,2.16-5,5.32a6.36,6.36,0,0,0,6.34,6.58,5.31,5.31,0,0,0,2.27-.45v-2.91l-2.71.15,1.43-.78h3.8l-0.46.45a0.41,0.41,0,0,0-.18.29c0,0.16,0,.69,0,0.87V671h0Zm48-.92V675h-1V662.6h1V664a3.83,3.83,0,0,1,3.11-1.63c2.39,0,4,1.82,4,4.7s-1.61,4.72-4,4.72a3.82,3.82,0,0,1-3.11-1.67h0Zm6.12-3c0-2.19-1.13-3.87-3.14-3.87a3.84,3.84,0,0,0-3,1.85v4a3.87,3.87,0,0,0,3,1.89C269.43,671,270.56,669.35,270.56,667.15Zm2.31-8h1v12.45h-1V659.16Zm11.74,15a2.27,2.27,0,0,0,.78.15,1.4,1.4,0,0,0,1.37-1.1l0.7-1.6-3.8-9h1.08l3.26,7.84,3.23-7.84h1.09l-4.63,10.94a2.37,2.37,0,0,1-2.28,1.67,3.8,3.8,0,0,1-1-.13l0.17-.89h0Zm-2.72-2.53c-0.06-.31-0.11-0.59-0.15-0.82a5.51,5.51,0,0,1,0-.7,4.14,4.14,0,0,1-3.37,1.7,3.17,3.17,0,0,1-2.2-.71,2.46,2.46,0,0,1-.78-1.92,2.27,2.27,0,0,1,1.14-2,5.23,5.23,0,0,1,3-.75h2.26v-1.12a1.88,1.88,0,0,0-.66-1.52,2.81,2.81,0,0,0-1.86-.55,2.94,2.94,0,0,0-1.78.5,1.53,1.53,0,0,0-.67,1.26h-1l0,0a2.09,2.09,0,0,1,.94-1.79,4.07,4.07,0,0,1,2.58-.77,4,4,0,0,1,2.56.76,2.61,2.61,0,0,1,1,2.19v4.45a7.08,7.08,0,0,0,.06.93,5.92,5.92,0,0,0,.19.89h-1.12Zm-3.44-.65a3.62,3.62,0,0,0,2-.55,2.79,2.79,0,0,0,1.22-1.42v-1.74h-2.27a3.7,3.7,0,0,0-2.15.58,1.69,1.69,0,0,0-.85,1.41,1.56,1.56,0,0,0,.54,1.24,2.18,2.18,0,0,0,1.49.47h0Zm-74.32-20.17a3,3,0,0,1,3.18-2.92,2.9,2.9,0,0,1,2.44,1.17l-0.86.47a2.05,2.05,0,1,0-1.57,3.32,2.27,2.27,0,0,0,1.44-.51v-0.87h-1.82v-0.87h2.87v2.11a3.39,3.39,0,0,1-2.49,1,3,3,0,0,1-3.18-2.93h0Zm7,2.84v-5.67h4.21v0.88h-3.13v1.46h3.07v0.88h-3.07v1.58h3.13v0.88h-4.21Zm7.07,0v-4.8h-1.83v-0.88h4.73v0.88h-1.83v4.8h-1.06Zm6.67-5.67h1v5.67h-1v-5.67Zm4,5.67v-4.8h-1.83v-0.88h4.73v0.88H230v4.8H228.9Zm6.42-2.84a3.14,3.14,0,1,1,3.14,2.92A2.93,2.93,0,0,1,235.32,650.78Zm5.16,0a2,2,0,1,0-2,2A1.93,1.93,0,0,0,240.47,650.74Zm6.54,2.88-3.16-4.06v4.06h-1.06v-5.67h1.09l3.09,3.93v-3.93H248v5.67h-1Z" transform="translate(-165.35 -638.79)"/></svg>