<svg xmlns="http://www.w3.org/2000/svg" width="31.938" height="32.03" viewBox="0 0 31.938 32.03">
  <defs>
    <style>
      .cls-1 {
        fill: #fff;
        fill-rule: evenodd;
      }
    </style>
  </defs>
  <path id="logo_facebook_ingresar_btn.svg" class="cls-1" d="M680.2,2683.98H651.789a1.769,1.769,0,0,0-1.771,1.77v28.47a1.769,1.769,0,0,0,1.771,1.77h14.185v-11.97h-4v-5.03h4v-4.14c0-4.14,2.532-6.4,6.23-6.4a34.138,34.138,0,0,1,3.738.19v4.33h-2.565c-2.012,0-2.4.96-2.4,2.36v3.66H675.9l-0.625,5.03h-4.3v11.97H680.2a1.769,1.769,0,0,0,1.771-1.77v-28.47A1.769,1.769,0,0,0,680.2,2683.98Z" transform="translate(-650.031 -2683.97)"/>
</svg>
