<svg id="logo_share_twitter.svg" xmlns="http://www.w3.org/2000/svg" width="90" height="90" viewBox="0 0 90 90">
  <defs>
    <style>
      .cls-1 {
        fill: red;
        fill-opacity: 0;
      }

      .cls-2 {
        fill: #00aced;
      }

      .cls-3 {
        fill: #fff;
        fill-rule: evenodd;
      }
    </style>
  </defs>
  <rect id="AREA_copy_4" data-name="AREA copy 4" class="cls-1" width="90" height="90"/>
  <rect id="bn_bg" data-name="bn bg" class="cls-2" x="5" y="5" width="80" height="80" rx="10" ry="10"/>
  <path id="Twitter_logo" data-name="Twitter logo" class="cls-3" d="M701.859,581.292c0.02,0.441.028,0.888,0.028,1.324,0,13.533-10.3,29.138-29.129,29.138a28.985,28.985,0,0,1-15.7-4.6,21.329,21.329,0,0,0,2.436.143,20.539,20.539,0,0,0,12.716-4.385,10.246,10.246,0,0,1-9.562-7.112,10.379,10.379,0,0,0,1.927.18,10.091,10.091,0,0,0,2.7-.356,10.243,10.243,0,0,1-8.213-10.037V585.45a10.083,10.083,0,0,0,4.637,1.284,10.244,10.244,0,0,1-3.169-13.669,29.065,29.065,0,0,0,21.107,10.7,10.247,10.247,0,0,1,17.449-9.335,20.938,20.938,0,0,0,6.5-2.484,10.294,10.294,0,0,1-4.5,5.663,20.514,20.514,0,0,0,5.882-1.618A20.7,20.7,0,0,1,701.859,581.292Z" transform="translate(-635 -546)"/>
</svg>
