<svg xmlns="http://www.w3.org/2000/svg" width="87.125" height="37.031" viewBox="0 0 87.125 37.031">
  <defs>
    <style>
      .cls-1 {
        fill: #fff;
        fill-rule: evenodd;
      }
    </style>
  </defs>
  <path id="logo_footer_blog.svg" class="cls-1" d="M464.336,169.433L449.23,184.069a3.357,3.357,0,0,1-2.337.938h-8.244a2.6,2.6,0,0,1-2.644-2.565l0.011-7.974a3.159,3.159,0,0,1,.968-2.26l15.109-14.638a3.38,3.38,0,0,1,4.673,0l7.57,7.335A3.131,3.131,0,0,1,464.336,169.433Zm-17.8,1.45a1.443,1.443,0,0,0-1.986,0,1.338,1.338,0,0,0,0,1.925,1.443,1.443,0,0,0,1.986,0A1.338,1.338,0,0,0,446.534,170.883Zm4.433-4.3a1.444,1.444,0,0,0-1.987,0,1.338,1.338,0,0,0,0,1.925,1.444,1.444,0,0,0,1.987,0A1.338,1.338,0,0,0,450.967,166.588Zm5.511,0.317a0.855,0.855,0,0,0-1.187-.07c-0.606.587-1.4,3.473-4.033,6.02s-5.608,3.321-6.214,3.908a0.792,0.792,0,0,0,.073,1.15c0.424,0.41.751,0.422,3.113-.505a14.419,14.419,0,0,0,4.723-2.91,13.856,13.856,0,0,0,3-4.577C456.914,167.633,456.9,167.316,456.478,166.905ZM431.861,187.18a6.114,6.114,0,0,1-.3,1.945,6.9,6.9,0,0,1-.821,1.68,7.02,7.02,0,0,1-1.293,1.371,6.15,6.15,0,0,1-1.659.958,9.121,9.121,0,0,1-1.247.383,5.953,5.953,0,0,1-1.339.148,1.52,1.52,0,0,1-1.095-.442,1.464,1.464,0,0,1,0-2.123,1.516,1.516,0,0,1,1.095-.442,3.532,3.532,0,0,0,2.008-.59,3.605,3.605,0,0,0,1.309-1.532,3.453,3.453,0,0,0-.153-3.007,2.912,2.912,0,0,0-.517-0.678,5.485,5.485,0,0,0-.639-0.531,1.432,1.432,0,0,1-.7-1.238,1.39,1.39,0,0,1,.7-1.238,4.686,4.686,0,0,0,.639-0.545,3.177,3.177,0,0,0,.517-0.693,3.342,3.342,0,0,0,.426-1.65,3.21,3.21,0,0,0-.167-1.047,3.974,3.974,0,0,0-.441-0.9,3.572,3.572,0,0,0-2.982-1.533,3.532,3.532,0,0,0-2.008.59,3.593,3.593,0,0,0-1.308,1.533,3.306,3.306,0,0,0-.274,1.356,3.342,3.342,0,0,0,.426,1.65,3.394,3.394,0,0,0,1.156,1.238,1.38,1.38,0,0,1,.639.944,1.442,1.442,0,0,1-.213,1.12,1.531,1.531,0,0,1-.989.619,1.626,1.626,0,0,1-1.171-.207,6.527,6.527,0,0,1-2.13-2.3,6.371,6.371,0,0,1,.335-6.691,6.99,6.99,0,0,1,1.293-1.371,6.145,6.145,0,0,1,1.658-.958,9.134,9.134,0,0,1,1.248-.383,5.945,5.945,0,0,1,1.338-.147,6.756,6.756,0,0,1,1.993.294,6.605,6.605,0,0,1,1.749.826,6.686,6.686,0,0,1,1.4,1.252,7.012,7.012,0,0,1,1,1.578,6.512,6.512,0,0,1,.517,2.535,6.073,6.073,0,0,1-.791,3.065,7.071,7.071,0,0,1-.73,1.061,4.773,4.773,0,0,1,.73,1.032A6.077,6.077,0,0,1,431.861,187.18Zm-19.2-2.27a7.111,7.111,0,0,1-2.617.5,6.566,6.566,0,0,1-1.977-.295,6.647,6.647,0,0,1-1.735-.825,6.171,6.171,0,0,1-1.414-1.238,7.016,7.016,0,0,1-1.02-1.592,6.35,6.35,0,0,1-.213-4.451,6.865,6.865,0,0,1,.822-1.68,6.99,6.99,0,0,1,1.293-1.371,6.145,6.145,0,0,1,1.658-.958,9.134,9.134,0,0,1,1.248-.383,5.938,5.938,0,0,1,1.338-.147,6.756,6.756,0,0,1,1.993.294,6.605,6.605,0,0,1,1.749.826,6.336,6.336,0,0,1,2.921,5.365,6.08,6.08,0,0,1-1.125,3.6A6.772,6.772,0,0,1,412.664,184.91Zm0.365-7.9a3.572,3.572,0,0,0-2.982-1.533,3.532,3.532,0,0,0-2.008.59,3.593,3.593,0,0,0-1.308,1.533,5.339,5.339,0,0,0-.2.648,3.087,3.087,0,0,0-.076.708,3.25,3.25,0,0,0,.167,1.031,3.832,3.832,0,0,0,.442.914,3.674,3.674,0,0,0,1.582,1.238,3.566,3.566,0,0,0,1.4.295,3.5,3.5,0,0,0,1.08-.162,3.534,3.534,0,0,0,.928-0.457,3.22,3.22,0,0,0,1.309-1.5,3.465,3.465,0,0,0,.273-1.356A3.278,3.278,0,0,0,413.029,177.01Zm-12.717,8.4a6.645,6.645,0,0,1-3.712-1.12,6.175,6.175,0,0,1-1.415-1.238,6.978,6.978,0,0,1-1.019-1.592,6.164,6.164,0,0,1-.517-2.505V165.72a1.378,1.378,0,0,1,.456-1.046,1.545,1.545,0,0,1,1.095-.428,1.493,1.493,0,0,1,1.08.428,1.4,1.4,0,0,1,.442,1.046v13.236a3.222,3.222,0,0,0,.167,1.031,3.829,3.829,0,0,0,.441.914,3.674,3.674,0,0,0,1.582,1.238,3.574,3.574,0,0,0,1.4.295,1.548,1.548,0,0,1,1.095.427,1.38,1.38,0,0,1,.456,1.047,1.427,1.427,0,0,1-.456,1.061A1.516,1.516,0,0,1,400.312,185.411Zm-8.793-6.455a6.125,6.125,0,0,1-1.125,3.625,7.02,7.02,0,0,1-1.293,1.371,6.15,6.15,0,0,1-1.659.958,6.724,6.724,0,0,1-2.586.5,6.6,6.6,0,0,1-3.742-1.091,6.681,6.681,0,0,1-1.4-1.252,6.971,6.971,0,0,1-1-1.577,6.521,6.521,0,0,1-.518-2.535v-8.225a6.114,6.114,0,0,1,.305-1.945,6.827,6.827,0,0,1,.821-1.68,6.99,6.99,0,0,1,1.293-1.371,6.145,6.145,0,0,1,1.658-.958,6.258,6.258,0,0,1,2.586-.531,6.757,6.757,0,0,1,1.993.295,6.656,6.656,0,0,1,1.75.825,5.923,5.923,0,0,1,1.4,1.239,7.3,7.3,0,0,1,1,1.591,6.24,6.24,0,0,1,.517,2.535,6.067,6.067,0,0,1-.791,3.066,4.715,4.715,0,0,1-.73,1.032,9.9,9.9,0,0,1,.73,1.061A6.067,6.067,0,0,1,391.519,178.956Zm-4.655-5.365a3.424,3.424,0,0,0,.655-0.546,3.987,3.987,0,0,0,.5-0.663,3.354,3.354,0,0,0,.426-1.651,3.269,3.269,0,0,0-.609-1.945,3.664,3.664,0,0,0-1.582-1.268,3.614,3.614,0,0,0-1.4-.265,3.539,3.539,0,0,0-2.008.589,3.188,3.188,0,0,0-.76.664,3.7,3.7,0,0,0-.548.869,3.326,3.326,0,0,0-.274,1.356v8.225a3.182,3.182,0,0,0,.168,1.046,3.892,3.892,0,0,0,.441.9,3.579,3.579,0,0,0,2.981,1.533,3.522,3.522,0,0,0,2.008-.59,3.593,3.593,0,0,0,1.309-1.532,3.447,3.447,0,0,0-.152-3.007,3.413,3.413,0,0,0-1.157-1.238,1.36,1.36,0,0,1-.669-1.238A1.449,1.449,0,0,1,386.864,173.591Z" transform="translate(-378.188 -156.625)"/>
</svg>
