<svg id="Layer_1" data-name="Layer 1" xmlns="http://www.w3.org/2000/svg" xmlns:xlink="http://www.w3.org/1999/xlink" width="169" height="58" viewBox="0 0 169 58"><defs><style>.cls-1{fill:#010101;}.cls-2{fill:#fff;}.cls-3{fill:none;}.cls-4{fill:url(#linear-gradient);}.cls-5{fill:url(#linear-gradient-2);}.cls-6{fill:url(#linear-gradient-3);}.cls-7{fill:url(#linear-gradient-4);}</style><linearGradient id="linear-gradient" x1="1014.69" y1="-139.96" x2="996.5" y2="-151.34" gradientTransform="translate(-262.89 -219.26) rotate(45)" gradientUnits="userSpaceOnUse"><stop offset="0" stop-color="#d6e59d"/><stop offset="0.45" stop-color="#94c3a9"/><stop offset="1" stop-color="#00a3b6"/></linearGradient><linearGradient id="linear-gradient-2" x1="1004.12" y1="-149.68" x2="1027.69" y2="-143.52" gradientTransform="translate(-262.89 -219.26) rotate(45)" gradientUnits="userSpaceOnUse"><stop offset="0" stop-color="#ec297b"/><stop offset="0.02" stop-color="#ed327c"/><stop offset="0.7" stop-color="#f5bb80"/><stop offset="1" stop-color="#fce974"/></linearGradient><linearGradient id="linear-gradient-3" x1="1017.27" y1="-131.33" x2="991.71" y2="-146.37" gradientTransform="translate(-262.89 -219.26) rotate(45)" gradientUnits="userSpaceOnUse"><stop offset="0" stop-color="#88cebc"/><stop offset="0.09" stop-color="#7dbdba"/><stop offset="0.54" stop-color="#467cac"/><stop offset="0.85" stop-color="#1d5aa1"/><stop offset="1" stop-color="#094f9c"/></linearGradient><linearGradient id="linear-gradient-4" x1="1026.56" y1="-143.27" x2="1010.82" y2="-122.53" gradientTransform="translate(-262.89 -219.26) rotate(45)" gradientUnits="userSpaceOnUse"><stop offset="0" stop-color="#ef4b29"/><stop offset="0.47" stop-color="#b4506b"/><stop offset="0.84" stop-color="#8b5191"/><stop offset="1" stop-color="#7951a0"/></linearGradient></defs><title>logo_google_play_black_1</title><rect class="cls-1" width="169" height="58" rx="8" ry="8"/><path class="cls-2" d="M650.35,405.2l-1.27,1.2c-0.29.16-.59,0.35-0.88,0.48a6.15,6.15,0,0,1-2.58.5,5.69,5.69,0,0,1-3.54-1,6.87,6.87,0,0,1-2.71-5.61,6,6,0,0,1,6.09-6.14,5.18,5.18,0,0,1,2.74.74,4.45,4.45,0,0,1,1.86,2.63l-6.25,2.53-2,.16c0.66,3.38,3,5.34,5.48,5.34a6.56,6.56,0,0,0,3.06-.84S650.47,405.07,650.35,405.2Zm-3.77-6.72a0.84,0.84,0,0,0,.77-0.71,2.64,2.64,0,0,0-2.63-2.29c-1.06,0-3.06.83-3.06,3.7,0,0.45.05,0.92,0.08,1.4Z" transform="translate(-534.6 -363.56)"/><path class="cls-2" d="M637.28,405c0,1,.18,1.19,1.06,1.28,0.46,0.05.91,0.08,1.36,0.13l-1,.58H634c0.61-.8.72-0.88,0.72-1.41v-16.4h-2.07l2-1h3.8a1.84,1.84,0,0,0-1.18,1.7V405Z" transform="translate(-534.6 -363.56)"/><path class="cls-2" d="M630,395.9a4.48,4.48,0,0,1,1.88,3.59c0,2-1.11,2.9-2.23,3.78a1.89,1.89,0,0,0-.74,1.3,1.47,1.47,0,0,0,.69,1.14l1,0.74c1.17,1,2.23,1.89,2.23,3.73,0,2.5-2.42,5-7,5-3.85,0-5.72-1.83-5.72-3.8a3.82,3.82,0,0,1,2-3.24,11.44,11.44,0,0,1,5.08-1.22,2.81,2.81,0,0,1-.8-1.81,2.42,2.42,0,0,1,.27-1c-0.29,0-.58.06-0.85,0.06a4.21,4.21,0,0,1-4.42-4.18,4.78,4.78,0,0,1,1.7-3.56,7.26,7.26,0,0,1,4.76-1.46h5.48l-1.7,1H630Zm-1.88,11.81a4.29,4.29,0,0,0-.61,0,10.59,10.59,0,0,0-2.79.43,3,3,0,0,0-2.29,2.74c0,1.88,1.84,3.25,4.68,3.25,2.55,0,3.91-1.22,3.91-2.87C631,409.86,630.15,409.14,628.13,407.7Zm0.76-5.05a2.67,2.67,0,0,0,.67-1.94c0-1.91-1.14-4.89-3.35-4.89a2.48,2.48,0,0,0-1.86.88,3.08,3.08,0,0,0-.58,2c0,1.78,1,4.73,3.32,4.73A2.72,2.72,0,0,0,628.89,402.65Z" transform="translate(-534.6 -363.56)"/><path class="cls-2" d="M613.53,407.33a6.27,6.27,0,0,1-6.49-6.27,6.59,6.59,0,0,1,6.89-6.46,6.22,6.22,0,0,1,6.36,6.27A6.5,6.5,0,0,1,613.53,407.33Zm3.33-2.15a4.77,4.77,0,0,0,.8-2.95c0-2.34-1.12-6.81-4.41-6.81a3.7,3.7,0,0,0-2.4.9,4,4,0,0,0-1.22,3.25c0,2.63,1.3,7,4.52,7A3.4,3.4,0,0,0,616.85,405.17Z" transform="translate(-534.6 -363.56)"/><path class="cls-2" d="M599.37,407.33a6.27,6.27,0,0,1-6.48-6.27,6.59,6.59,0,0,1,6.89-6.46,6.22,6.22,0,0,1,6.35,6.27A6.49,6.49,0,0,1,599.37,407.33Zm3.33-2.15a4.81,4.81,0,0,0,.8-2.95c0-2.34-1.12-6.81-4.41-6.81a3.69,3.69,0,0,0-2.39.9,4,4,0,0,0-1.22,3.25c0,2.63,1.3,7,4.52,7A3.4,3.4,0,0,0,602.7,405.17Z" transform="translate(-534.6 -363.56)"/><path class="cls-2" d="M591.2,406.4l-3.57.82a25.87,25.87,0,0,1-4.11.43c-6.88,0-9.5-5.06-9.5-9,0-4.84,3.71-9.32,10.07-9.32a14.61,14.61,0,0,1,3.82.52,9.62,9.62,0,0,1,3.29,1.55l-2.07,2-0.87.19,0.62-1a7.11,7.11,0,0,0-5.33-2.34c-3.93,0-6.9,3-6.9,7.36a8.81,8.81,0,0,0,8.82,9.1,7.43,7.43,0,0,0,3.16-.62v-4l-3.76.2,2-1.07h5.28l-0.65.62a0.57,0.57,0,0,0-.25.4c0,0.23-.05.95-0.05,1.2v3h0Z" transform="translate(-534.6 -363.56)"/><path class="cls-2" d="M658,405.31v6.77h-1.35V394.85H658v2a5.35,5.35,0,0,1,4.34-2.27c3.33,0,5.58,2.53,5.58,6.53s-2.25,6.56-5.58,6.56A5.33,5.33,0,0,1,658,405.31Zm8.47-4.24c0-3-1.57-5.32-4.36-5.32A5.34,5.34,0,0,0,658,398.3v5.52a5.38,5.38,0,0,0,4.11,2.6C664.91,406.42,666.49,404.1,666.49,401.07Z" transform="translate(-534.6 -363.56)"/><path class="cls-2" d="M669.77,407.32V390.09h1.35v17.23h-1.35Z" transform="translate(-534.6 -363.56)"/><path class="cls-2" d="M686.21,411a3.15,3.15,0,0,0,1.09.21c0.82,0,1.4-.34,1.91-1.53l1-2.22-5.3-12.58h1.5l4.55,10.9,4.5-10.9H697l-6.46,15.22a3.3,3.3,0,0,1-3.17,2.32,5.35,5.35,0,0,1-1.34-.18Z" transform="translate(-534.6 -363.56)"/><path class="cls-2" d="M682.28,407.29c-0.09-.43-0.16-0.81-0.21-1.13a7.55,7.55,0,0,1-.06-1,5.74,5.74,0,0,1-4.67,2.35,4.39,4.39,0,0,1-3.05-1,3.4,3.4,0,0,1-1.09-2.66,3.14,3.14,0,0,1,1.58-2.72,7.25,7.25,0,0,1,4.09-1H682v-1.55a2.6,2.6,0,0,0-.91-2.1,3.9,3.9,0,0,0-2.58-.77,4.07,4.07,0,0,0-2.46.69,2.11,2.11,0,0,0-.93,1.75h-1.38l0-.07a2.88,2.88,0,0,1,1.3-2.48,6.5,6.5,0,0,1,7.13,0,3.61,3.61,0,0,1,1.34,3v6.15a9.75,9.75,0,0,0,.08,1.28,8.11,8.11,0,0,0,.27,1.24h-1.55Zm-4.77-1a5.06,5.06,0,0,0,2.8-.76,3.84,3.84,0,0,0,1.7-1.95v-2.4h-3.15a5.18,5.18,0,0,0-3,.8,2.33,2.33,0,0,0-1.19,1.94,2.14,2.14,0,0,0,.75,1.71A3.06,3.06,0,0,0,677.5,406.31Z" transform="translate(-534.6 -363.56)"/><path class="cls-2" d="M574.08,376a4.23,4.23,0,0,1,4.41-4.35,3.93,3.93,0,0,1,3.38,1.74l-1.2.69a2.72,2.72,0,0,0-2.18-1.12,3,3,0,0,0,0,6.08,3,3,0,0,0,2-.75v-1.3H578v-1.3h4v3.14a4.54,4.54,0,0,1-3.46,1.54A4.25,4.25,0,0,1,574.08,376Z" transform="translate(-534.6 -363.56)"/><path class="cls-2" d="M583.78,380.15v-8.41h5.76V373h-4.29v2.17h4.2v1.3h-4.2v2.35h4.29v1.3h-5.76Z" transform="translate(-534.6 -363.56)"/><path class="cls-2" d="M593.62,380.15V373h-2.55v-1.3h6.57V373H595.1v7.11h-1.48Z" transform="translate(-534.6 -363.56)"/><path class="cls-2" d="M602.78,380.15v-8.41h1.48v8.41h-1.48Z" transform="translate(-534.6 -363.56)"/><path class="cls-2" d="M608.36,380.15V373h-2.55v-1.3h6.57V373h-2.55v7.11h-1.48Z" transform="translate(-534.6 -363.56)"/><path class="cls-2" d="M617.15,376a4.3,4.3,0,1,1,4.3,4.35A4.17,4.17,0,0,1,617.15,376Zm7.09,0a2.8,2.8,0,1,0-2.79,3A2.79,2.79,0,0,0,624.24,376Z" transform="translate(-534.6 -363.56)"/><path class="cls-2" d="M633.34,380.15l-4.39-6v6h-1.47v-8.41H629l4.3,5.83v-5.83h1.48v8.41h-1.43Z" transform="translate(-534.6 -363.56)"/><polygon class="cls-3" points="21.86 36.81 26.18 32.49 26.18 32.49 21.86 36.81 8.09 23.04 8.09 23.04 21.86 36.81 8.07 50.6 8.07 50.6 21.86 36.81 26.2 41.14 26.2 41.14 21.86 36.81"/><path class="cls-4" d="M560.78,396.06L544,386.81a1.65,1.65,0,0,0-1.27-.21l13.77,13.77Z" transform="translate(-534.6 -363.56)"/><path class="cls-5" d="M560.8,404.71l5.74-3.16c1.16-.64,1.16-1.69,0-2.33l-5.76-3.17-4.31,4.31Z" transform="translate(-534.6 -363.56)"/><path class="cls-6" d="M542.69,386.6a1.38,1.38,0,0,0-.84,1.46v24.65a1.39,1.39,0,0,0,.82,1.45l13.79-13.79Z" transform="translate(-534.6 -363.56)"/><path class="cls-7" d="M542.67,414.17A1.63,1.63,0,0,0,544,414l16.83-9.26-4.33-4.33Z" transform="translate(-534.6 -363.56)"/></svg>