<svg xmlns="http://www.w3.org/2000/svg" width="226.156" height="82.188" viewBox="0 0 226.156 82.188">
  <defs>
    <style>
      .cls-1 {
        fill: #00d9dc;
        fill-rule: evenodd;
      }
    </style>
  </defs>
  <path id="logo_viva_header_turquoise.svg" class="cls-1" d="M671.491,60.931l-42.379,42.38a9.274,9.274,0,0,1-6.555,2.715H599.428a7.416,7.416,0,0,1-7.416-7.427L591.981,75.51a9.334,9.334,0,0,1,2.778-6.542l42.385-42.385a9.27,9.27,0,0,1,13.11,0L671.491,47.82A9.271,9.271,0,0,1,671.491,60.931Zm-49.942,4.2a3.94,3.94,0,1,0,0,5.573A3.958,3.958,0,0,0,621.549,65.131Zm12.436-12.436a3.94,3.94,0,1,0,0,5.572A3.959,3.959,0,0,0,633.985,52.695Zm15.46,0.918a2.342,2.342,0,0,0-3.33-.2c-1.7,1.7-3.941,10.057-11.314,17.431s-15.732,9.616-17.431,11.315a2.343,2.343,0,0,0,.2,3.33c1.189,1.189,2.107,1.223,8.732-1.461A40.273,40.273,0,0,0,639.558,75.6a40.255,40.255,0,0,0,8.426-13.251C650.669,55.719,650.635,54.8,649.445,53.613Zm-70.372,52.45a4.37,4.37,0,0,1-4.353-4.352V87.371a9.689,9.689,0,0,0-1.707-5.633,10.34,10.34,0,0,0-4.438-3.67,9.868,9.868,0,0,0-3.926-.768,9.689,9.689,0,0,0-5.634,1.707,10.319,10.319,0,0,0-3.67,4.438,9.869,9.869,0,0,0-.768,3.926,9.643,9.643,0,0,0,.469,2.987A11.284,11.284,0,0,0,556.284,93a10.364,10.364,0,0,0,4.438,3.585,9.769,9.769,0,0,0,3.927.854,4.265,4.265,0,0,1,3.072,1.238,4.052,4.052,0,0,1,1.281,3.03,4.372,4.372,0,0,1-4.353,4.352,18.486,18.486,0,0,1-10.5-3.243,16.717,16.717,0,0,1-3.926-3.585,21.187,21.187,0,0,1-2.817-4.609,18.925,18.925,0,0,1-.6-12.888,18.122,18.122,0,0,1,5.932-8.834,17.115,17.115,0,0,1,4.652-2.774,25.137,25.137,0,0,1,3.5-1.109,16.188,16.188,0,0,1,3.756-.427,18.494,18.494,0,0,1,10.5,3.243,18.674,18.674,0,0,1,6.743,8.194,19.408,19.408,0,0,1,1.451,7.34v14.34a4.268,4.268,0,0,1-1.238,3.072A4.05,4.05,0,0,1,579.073,106.063Zm-46.6-7.51a40.453,40.453,0,0,1-6.913,6.657,4.082,4.082,0,0,1-2.561.853,3.658,3.658,0,0,1-2.561-.853,38.952,38.952,0,0,1-7-6.657A40.824,40.824,0,0,1,508.4,90.7a39.769,39.769,0,0,1-3.073-8.663,40.654,40.654,0,0,1-1.024-9.09,4.264,4.264,0,0,1,1.237-3.073,4.052,4.052,0,0,1,3.03-1.28,4.37,4.37,0,0,1,4.353,4.353,31.912,31.912,0,0,0,3.244,14,35.127,35.127,0,0,0,2.944,4.865A26.057,26.057,0,0,0,523,96.077a30.414,30.414,0,0,0,6.743-9.133,30.9,30.9,0,0,0,3.329-14,4.264,4.264,0,0,1,1.237-3.073,4.05,4.05,0,0,1,3.03-1.28,4.37,4.37,0,0,1,4.353,4.353A39.885,39.885,0,0,1,537.507,90.7,40.925,40.925,0,0,1,532.471,98.553Zm-37.555,7.51a4.37,4.37,0,0,1-4.353-4.352V72.947a4.37,4.37,0,0,1,4.353-4.353,4.052,4.052,0,0,1,3.03,1.28,4.269,4.269,0,0,1,1.238,3.073v28.764a4.268,4.268,0,0,1-1.238,3.072A4.05,4.05,0,0,1,494.916,106.063Zm0-43.444a3.79,3.79,0,1,1,2.731-1.109A3.707,3.707,0,0,1,494.916,62.619ZM476.224,98.553a40.453,40.453,0,0,1-6.913,6.657,4.082,4.082,0,0,1-2.561.853,3.658,3.658,0,0,1-2.561-.853,38.912,38.912,0,0,1-7-6.657,40.781,40.781,0,0,1-5.036-7.852,39.769,39.769,0,0,1-3.073-8.663,40.654,40.654,0,0,1-1.024-9.09,4.264,4.264,0,0,1,1.237-3.073,4.053,4.053,0,0,1,3.03-1.28,4.37,4.37,0,0,1,4.353,4.353,31.912,31.912,0,0,0,3.244,14,35.127,35.127,0,0,0,2.944,4.865,26.057,26.057,0,0,0,3.884,4.268,30.414,30.414,0,0,0,6.743-9.133,30.9,30.9,0,0,0,3.329-14,4.264,4.264,0,0,1,1.237-3.073,4.05,4.05,0,0,1,3.03-1.28,4.37,4.37,0,0,1,4.353,4.353A39.885,39.885,0,0,1,481.26,90.7,40.925,40.925,0,0,1,476.224,98.553Z" transform="translate(-448.063 -23.875)"/>
</svg>
