<svg id="Layer_1" data-name="Layer 1" xmlns="http://www.w3.org/2000/svg" xmlns:xlink="http://www.w3.org/1999/xlink" width="120" height="41" viewBox="0 0 120 41"><defs><style>.cls-1{fill:#010101;}.cls-2{fill:#fff;}.cls-3{fill:none;}.cls-4{fill:url(#linear-gradient);}.cls-5{fill:url(#linear-gradient-2);}.cls-6{fill:url(#linear-gradient-3);}.cls-7{fill:url(#linear-gradient-4);}</style><linearGradient id="linear-gradient" x1="1162.22" y1="15.44" x2="1149.37" y2="7.39" gradientTransform="translate(-262.89 -219.26) rotate(45)" gradientUnits="userSpaceOnUse"><stop offset="0" stop-color="#d6e59d"/><stop offset="0.45" stop-color="#94c3a9"/><stop offset="1" stop-color="#00a3b6"/></linearGradient><linearGradient id="linear-gradient-2" x1="1154.75" y1="8.56" x2="1171.41" y2="12.92" gradientTransform="translate(-262.89 -219.26) rotate(45)" gradientUnits="userSpaceOnUse"><stop offset="0" stop-color="#ec297b"/><stop offset="0.02" stop-color="#ed327c"/><stop offset="0.7" stop-color="#f5bb80"/><stop offset="1" stop-color="#fce974"/></linearGradient><linearGradient id="linear-gradient-3" x1="1164.05" y1="21.54" x2="1145.98" y2="10.91" gradientTransform="translate(-262.89 -219.26) rotate(45)" gradientUnits="userSpaceOnUse"><stop offset="0" stop-color="#88cebc"/><stop offset="0.09" stop-color="#7dbdba"/><stop offset="0.54" stop-color="#467cac"/><stop offset="0.85" stop-color="#1d5aa1"/><stop offset="1" stop-color="#094f9c"/></linearGradient><linearGradient id="linear-gradient-4" x1="1170.61" y1="13.09" x2="1159.49" y2="27.76" gradientTransform="translate(-262.89 -219.26) rotate(45)" gradientUnits="userSpaceOnUse"><stop offset="0" stop-color="#ef4b29"/><stop offset="0.47" stop-color="#b4506b"/><stop offset="0.84" stop-color="#8b5191"/><stop offset="1" stop-color="#7951a0"/></linearGradient></defs><title>logo_google_play_black_3</title><rect class="cls-1" width="120" height="41" rx="8" ry="8"/><path class="cls-2" d="M616.42,617.66l-0.9.85c-0.21.11-.41,0.25-0.62,0.34a4.35,4.35,0,0,1-1.82.35,4,4,0,0,1-2.5-.73,4.85,4.85,0,0,1-1.92-4,4.26,4.26,0,0,1,4.31-4.34,3.66,3.66,0,0,1,1.94.53,3.14,3.14,0,0,1,1.32,1.86l-4.42,1.79-1.45.11c0.47,2.39,2.09,3.78,3.87,3.78a4.64,4.64,0,0,0,2.16-.59S616.51,617.57,616.42,617.66Zm-2.67-4.75a0.59,0.59,0,0,0,.55-0.51,1.87,1.87,0,0,0-1.86-1.62,2.32,2.32,0,0,0-2.16,2.62c0,0.32,0,.65.06,1Z" transform="translate(-534.6 -588.23)"/><path class="cls-2" d="M607.18,617.51c0,0.73.13,0.84,0.75,0.9l1,0.09-0.7.41h-3.31a1.36,1.36,0,0,0,.51-1v-11.6h-1.46l1.41-.68H608a1.3,1.3,0,0,0-.83,1.2v10.66Z" transform="translate(-534.6 -588.23)"/><path class="cls-2" d="M602,611.09a3.06,3.06,0,0,1-.24,5.21,1.33,1.33,0,0,0-.53.92,1,1,0,0,0,.49.81l0.68,0.52a3.28,3.28,0,0,1,1.58,2.63c0,1.77-1.71,3.55-4.94,3.55-2.72,0-4-1.3-4-2.69a2.7,2.7,0,0,1,1.45-2.29,8.09,8.09,0,0,1,3.59-.86,2,2,0,0,1-.57-1.28,1.71,1.71,0,0,1,.19-0.73c-0.21,0-.41,0-0.6,0a3,3,0,0,1-3.12-3,3.38,3.38,0,0,1,1.2-2.52,5.13,5.13,0,0,1,3.36-1h3.87l-1.2.68H602Zm-1.33,8.35a3,3,0,0,0-.43,0,7.48,7.48,0,0,0-2,.3,2.12,2.12,0,0,0-1.62,1.94c0,1.33,1.3,2.29,3.31,2.29,1.8,0,2.76-.87,2.76-2C602.76,621,602.14,620.45,600.71,619.43Zm0.54-3.57a1.89,1.89,0,0,0,.47-1.37c0-1.35-.81-3.46-2.37-3.46a1.75,1.75,0,0,0-1.32.62,2.18,2.18,0,0,0-.41,1.39c0,1.26.73,3.35,2.35,3.35A1.92,1.92,0,0,0,601.25,615.86Z" transform="translate(-534.6 -588.23)"/><path class="cls-2" d="M590.39,619.17a4.43,4.43,0,0,1-4.59-4.43,4.66,4.66,0,0,1,4.87-4.57,4.4,4.4,0,0,1,4.49,4.43A4.59,4.59,0,0,1,590.39,619.17Zm2.35-1.52a3.37,3.37,0,0,0,.56-2.08c0-1.65-.79-4.81-3.12-4.81a2.62,2.62,0,0,0-1.69.64,2.84,2.84,0,0,0-.87,2.29c0,1.86.92,4.92,3.2,4.92A2.4,2.4,0,0,0,592.74,617.64Z" transform="translate(-534.6 -588.23)"/><path class="cls-2" d="M580.39,619.17a4.43,4.43,0,0,1-4.58-4.43,4.66,4.66,0,0,1,4.87-4.57,4.39,4.39,0,0,1,4.49,4.43A4.59,4.59,0,0,1,580.39,619.17Zm2.35-1.52a3.4,3.4,0,0,0,.56-2.08c0-1.65-.79-4.81-3.12-4.81a2.61,2.61,0,0,0-1.69.64,2.83,2.83,0,0,0-.87,2.29c0,1.86.92,4.92,3.2,4.92A2.4,2.4,0,0,0,582.74,617.64Z" transform="translate(-534.6 -588.23)"/><path class="cls-2" d="M574.61,618.51l-2.52.58a18.29,18.29,0,0,1-2.91.3c-4.86,0-6.71-3.58-6.71-6.38,0-3.42,2.62-6.59,7.12-6.59a10.33,10.33,0,0,1,2.7.37,6.8,6.8,0,0,1,2.32,1.1l-1.46,1.39-0.62.14,0.44-.7a5,5,0,0,0-3.77-1.66,4.86,4.86,0,0,0-4.88,5.2,6.23,6.23,0,0,0,6.23,6.43,5.25,5.25,0,0,0,2.24-.44v-2.84l-2.66.14,1.41-.76h3.73l-0.46.44a0.4,0.4,0,0,0-.17.28c0,0.16,0,.67,0,0.85v2.15h0Z" transform="translate(-534.6 -588.23)"/><path class="cls-2" d="M621.84,617.74v4.79h-1V610.35h1v1.39a3.78,3.78,0,0,1,3.06-1.61c2.36,0,3.95,1.79,3.95,4.62s-1.59,4.64-3.95,4.64A3.76,3.76,0,0,1,621.84,617.74Zm6-3c0-2.13-1.11-3.76-3.09-3.76a3.77,3.77,0,0,0-2.9,1.8v3.9a3.81,3.81,0,0,0,2.9,1.84C626.72,618.52,627.83,616.88,627.83,614.75Z" transform="translate(-534.6 -588.23)"/><path class="cls-2" d="M630.15,619.16V607h1v12.18h-1Z" transform="translate(-534.6 -588.23)"/><path class="cls-2" d="M641.77,621.74a2.23,2.23,0,0,0,.77.15,1.38,1.38,0,0,0,1.35-1.08l0.69-1.57-3.75-8.89h1.06l3.21,7.71,3.18-7.71h1.08L644.8,621.1a2.33,2.33,0,0,1-2.24,1.64,3.78,3.78,0,0,1-1-.13Z" transform="translate(-534.6 -588.23)"/><path class="cls-2" d="M639,619.14c-0.06-.31-0.11-0.58-0.15-0.8a5.34,5.34,0,0,1,0-.69,4.05,4.05,0,0,1-3.3,1.66,3.11,3.11,0,0,1-2.16-.69,2.41,2.41,0,0,1-.77-1.88,2.22,2.22,0,0,1,1.12-1.92,5.13,5.13,0,0,1,2.89-.74h2.22V613a1.84,1.84,0,0,0-.65-1.49,2.76,2.76,0,0,0-1.82-.54,2.88,2.88,0,0,0-1.74.49,1.49,1.49,0,0,0-.66,1.23h-1l0,0a2,2,0,0,1,.92-1.75,4.59,4.59,0,0,1,5,0,2.55,2.55,0,0,1,.95,2.14v4.35a6.89,6.89,0,0,0,.05.91,5.73,5.73,0,0,0,.19.87H639Zm-3.37-.69a3.58,3.58,0,0,0,2-.54,2.72,2.72,0,0,0,1.2-1.38v-1.69h-2.23a3.66,3.66,0,0,0-2.11.57,1.65,1.65,0,0,0-.84,1.37,1.52,1.52,0,0,0,.53,1.21A2.16,2.16,0,0,0,635.62,618.45Z" transform="translate(-534.6 -588.23)"/><path class="cls-2" d="M562.51,597a3,3,0,0,1,3.12-3.08,2.78,2.78,0,0,1,2.39,1.23l-0.85.49a1.92,1.92,0,0,0-1.54-.79,2.15,2.15,0,0,0,0,4.3,2.14,2.14,0,0,0,1.41-.53v-0.92h-1.78v-0.92h2.82V599a3.21,3.21,0,0,1-2.44,1.09A3,3,0,0,1,562.51,597Z" transform="translate(-534.6 -588.23)"/><path class="cls-2" d="M569.36,600V594h4.07v0.92h-3v1.53h3v0.92h-3V599h3V600h-4.07Z" transform="translate(-534.6 -588.23)"/><path class="cls-2" d="M576.32,600v-5h-1.8V594h4.64v0.92h-1.8v5h-1Z" transform="translate(-534.6 -588.23)"/><path class="cls-2" d="M582.79,600V594h1V600h-1Z" transform="translate(-534.6 -588.23)"/><path class="cls-2" d="M586.74,600v-5h-1.8V594h4.64v0.92h-1.8v5h-1Z" transform="translate(-534.6 -588.23)"/><path class="cls-2" d="M593,597a3,3,0,1,1,3,3.08A3,3,0,0,1,593,597Zm5,0a2,2,0,1,0-2,2.15A2,2,0,0,0,598,597Z" transform="translate(-534.6 -588.23)"/><path class="cls-2" d="M604.39,600l-3.1-4.25V600h-1V594h1.07l3,4.12V594h1V600h-1Z" transform="translate(-534.6 -588.23)"/><polygon class="cls-3" points="15.46 26.02 18.51 22.97 18.51 22.97 15.46 26.02 5.72 16.28 5.72 16.28 15.46 26.02 5.71 35.77 5.71 35.77 15.46 26.02 18.52 29.08 18.52 29.08 15.46 26.02"/><path class="cls-4" d="M553.1,611.2l-11.89-6.54a1.17,1.17,0,0,0-.9-0.15l9.74,9.73Z" transform="translate(-534.6 -588.23)"/><path class="cls-5" d="M553.12,617.31l4.06-2.23a0.86,0.86,0,0,0,0-1.64l-4.07-2.24-3,3Z" transform="translate(-534.6 -588.23)"/><path class="cls-6" d="M540.32,604.51a1,1,0,0,0-.6,1V623a1,1,0,0,0,.58,1l9.75-9.75Z" transform="translate(-534.6 -588.23)"/><path class="cls-7" d="M540.3,624a1.15,1.15,0,0,0,.92-0.14l11.9-6.54-3.06-3.06Z" transform="translate(-534.6 -588.23)"/></svg>