<svg id="Layer_1" data-name="Layer 1" xmlns="http://www.w3.org/2000/svg" width="120" height="41" viewBox="0 0 120 41"><defs><style>.cls-1{fill:#010101;}.cls-2{fill:#fff;}</style></defs><title>logo_apple_store_black_3</title><rect class="cls-1" width="120" height="41" rx="8" ry="8"/><path class="cls-2" d="M558.47,692.42a6.22,6.22,0,0,1,3-5.22,6.37,6.37,0,0,0-5-2.71c-2.11-.22-4.16,1.26-5.23,1.26s-2.75-1.24-4.54-1.2A6.68,6.68,0,0,0,541,688c-2.43,4.21-.62,10.4,1.71,13.8,1.17,1.67,2.53,3.53,4.31,3.46s2.4-1.11,4.5-1.11,2.7,1.11,4.51,1.07,3.05-1.67,4.17-3.36a13.78,13.78,0,0,0,1.91-3.89A6,6,0,0,1,558.47,692.42Z" transform="translate(-534.6 -672.15)"/><path class="cls-2" d="M555,682.25a6.13,6.13,0,0,0,1.4-4.39,6.23,6.23,0,0,0-4,2.09,5.83,5.83,0,0,0-1.44,4.23A5.15,5.15,0,0,0,555,682.25Z" transform="translate(-534.6 -672.15)"/><path class="cls-2" d="M577.64,704.85h-2.32l-1.27-4h-4.41l-1.21,4h-2.25l4.37-13.57h2.7Zm-4-5.66-1.15-3.54q-0.18-.54-0.68-2.56h0q-0.2.87-.64,2.56L570,699.19h3.64Z" transform="translate(-534.6 -672.15)"/><path class="cls-2" d="M588.88,699.84a5.56,5.56,0,0,1-1.35,3.95,4,4,0,0,1-3,1.29,3,3,0,0,1-2.78-1.39h0v5.16h-2.17V698.29q0-1.57-.08-3.22h1.91l0.12,1.55h0a3.87,3.87,0,0,1,6.19-.38A5.4,5.4,0,0,1,588.88,699.84Zm-2.22.08a4,4,0,0,0-.64-2.36,2.23,2.23,0,0,0-1.89-1,2.26,2.26,0,0,0-1.46.53,2.47,2.47,0,0,0-.86,1.4,2.85,2.85,0,0,0-.1.66v1.63a2.61,2.61,0,0,0,.65,1.8,2.17,2.17,0,0,0,1.7.74,2.23,2.23,0,0,0,1.91-.95A4.17,4.17,0,0,0,586.66,699.92Z" transform="translate(-534.6 -672.15)"/><path class="cls-2" d="M600.14,699.84a5.56,5.56,0,0,1-1.35,3.95,3.94,3.94,0,0,1-3,1.29,3,3,0,0,1-2.78-1.39h0v5.16h-2.17V698.29q0-1.57-.08-3.22h1.91l0.12,1.55h0a3.87,3.87,0,0,1,6.19-.38A5.4,5.4,0,0,1,600.14,699.84Zm-2.22.08a4,4,0,0,0-.65-2.36,2.22,2.22,0,0,0-1.89-1,2.26,2.26,0,0,0-1.46.53,2.48,2.48,0,0,0-.86,1.4,2.88,2.88,0,0,0-.1.66v1.63a2.62,2.62,0,0,0,.65,1.8,2.17,2.17,0,0,0,1.7.74,2.23,2.23,0,0,0,1.91-.95A4.17,4.17,0,0,0,597.92,699.92Z" transform="translate(-534.6 -672.15)"/><path class="cls-2" d="M612.72,701a3.62,3.62,0,0,1-1.21,2.82,5.34,5.34,0,0,1-3.7,1.19,6.48,6.48,0,0,1-3.52-.85l0.5-1.81a6,6,0,0,0,3.14.87,3,3,0,0,0,1.91-.55,1.81,1.81,0,0,0,.68-1.48,1.89,1.89,0,0,0-.56-1.39,5.25,5.25,0,0,0-1.87-1q-3.56-1.33-3.56-3.89a3.45,3.45,0,0,1,1.25-2.74,4.93,4.93,0,0,1,3.32-1.07,6.59,6.59,0,0,1,3.08.64l-0.54,1.77a5.35,5.35,0,0,0-2.6-.62,2.63,2.63,0,0,0-1.79.56,1.61,1.61,0,0,0-.54,1.23,1.66,1.66,0,0,0,.62,1.33,7,7,0,0,0,2,1,6.7,6.7,0,0,1,2.58,1.65A3.46,3.46,0,0,1,612.72,701Z" transform="translate(-534.6 -672.15)"/><path class="cls-2" d="M619.91,696.7h-2.4v4.75q0,1.81,1.27,1.81a3.9,3.9,0,0,0,1-.1l0.06,1.65a4.92,4.92,0,0,1-1.69.24,2.61,2.61,0,0,1-2-.78,3.86,3.86,0,0,1-.73-2.64V696.7H614v-1.63h1.43v-1.79l2.14-.64v2.44h2.4v1.63Z" transform="translate(-534.6 -672.15)"/><path class="cls-2" d="M630.73,699.88a5.37,5.37,0,0,1-1.29,3.71,4.6,4.6,0,0,1-3.59,1.49,4.37,4.37,0,0,1-3.43-1.43,5.21,5.21,0,0,1-1.28-3.6,5.32,5.32,0,0,1,1.32-3.73,4.56,4.56,0,0,1,3.55-1.45,4.47,4.47,0,0,1,3.46,1.43A5.16,5.16,0,0,1,630.73,699.88Zm-2.26.07a4.41,4.41,0,0,0-.58-2.32,2.15,2.15,0,0,0-2-1.17,2.18,2.18,0,0,0-2,1.17,4.49,4.49,0,0,0-.58,2.36,4.4,4.4,0,0,0,.58,2.32,2.22,2.22,0,0,0,3.93,0A4.41,4.41,0,0,0,628.47,699.95Z" transform="translate(-534.6 -672.15)"/><path class="cls-2" d="M637.79,697a3.76,3.76,0,0,0-.69-0.06,2.06,2.06,0,0,0-1.77.87,3.25,3.25,0,0,0-.54,1.93v5.14h-2.17l0-6.7q0-1.69-.08-3.08h1.89l0.08,1.87h0.06a3.34,3.34,0,0,1,1.09-1.55,2.63,2.63,0,0,1,1.57-.52,3.44,3.44,0,0,1,.54,0V697Z" transform="translate(-534.6 -672.15)"/><path class="cls-2" d="M647.52,699.49a5.11,5.11,0,0,1-.08,1h-6.52a2.84,2.84,0,0,0,.95,2.22,3.23,3.23,0,0,0,2.13.68,7.22,7.22,0,0,0,2.64-.46l0.34,1.51a8.17,8.17,0,0,1-3.28.6,4.75,4.75,0,0,1-3.58-1.34,5,5,0,0,1-1.3-3.59,5.61,5.61,0,0,1,1.21-3.69,4.17,4.17,0,0,1,3.42-1.57,3.65,3.65,0,0,1,3.2,1.57A5.29,5.29,0,0,1,647.52,699.49Zm-2.07-.56a3,3,0,0,0-.42-1.67,1.9,1.9,0,0,0-1.73-.91,2.06,2.06,0,0,0-1.73.89,3.24,3.24,0,0,0-.64,1.69h4.53Z" transform="translate(-534.6 -672.15)"/><path class="cls-2" d="M573,682.93a3.35,3.35,0,0,1-1.08,2.71,4.29,4.29,0,0,1-2.84.84,13.24,13.24,0,0,1-1.56-.08v-6.56a11.5,11.5,0,0,1,1.84-.14,4,4,0,0,1,2.64.76A3.08,3.08,0,0,1,573,682.93Zm-1.13,0a2.17,2.17,0,0,0-2.42-2.41,4.56,4.56,0,0,0-.86.07v5a5.71,5.71,0,0,0,.72,0,2.53,2.53,0,0,0,1.89-.68A2.73,2.73,0,0,0,571.83,683Z" transform="translate(-534.6 -672.15)"/><path class="cls-2" d="M578.93,684a2.64,2.64,0,0,1-.63,1.82,2.26,2.26,0,0,1-1.76.73,2.15,2.15,0,0,1-1.69-.7,2.56,2.56,0,0,1-.63-1.77,2.61,2.61,0,0,1,.65-1.83,2.24,2.24,0,0,1,1.75-.71,2.2,2.2,0,0,1,1.7.7A2.54,2.54,0,0,1,578.93,684Zm-1.11,0a2.17,2.17,0,0,0-.29-1.14,1.06,1.06,0,0,0-1-.58,1.07,1.07,0,0,0-1,.58,2.21,2.21,0,0,0-.29,1.16,2.17,2.17,0,0,0,.29,1.14,1.09,1.09,0,0,0,1.93,0A2.16,2.16,0,0,0,577.82,684Z" transform="translate(-534.6 -672.15)"/><path class="cls-2" d="M586.95,681.61l-1.5,4.81h-1l-0.62-2.09a15.44,15.44,0,0,1-.39-1.55h0a11.32,11.32,0,0,1-.39,1.55l-0.66,2.09h-1L580,681.61h1.1l0.54,2.29q0.2,0.81.33,1.54h0q0.12-.6.4-1.53l0.68-2.3h0.87l0.65,2.25q0.24,0.82.39,1.58h0a15,15,0,0,1,.33-1.58l0.58-2.25h1Z" transform="translate(-534.6 -672.15)"/><path class="cls-2" d="M592.49,686.42h-1.07v-2.75q0-1.27-1-1.27a1,1,0,0,0-.77.35,1.24,1.24,0,0,0-.3.82v2.85h-1.07V683q0-.63,0-1.38h0.94l0,0.75h0a1.54,1.54,0,0,1,.55-0.58,1.8,1.8,0,0,1,1-.27,1.53,1.53,0,0,1,1.12.44,2.11,2.11,0,0,1,.55,1.59v2.88Z" transform="translate(-534.6 -672.15)"/><path class="cls-2" d="M595.43,686.42h-1.07v-7h1.07v7Z" transform="translate(-534.6 -672.15)"/><path class="cls-2" d="M601.73,684a2.64,2.64,0,0,1-.63,1.82,2.26,2.26,0,0,1-1.76.73,2.15,2.15,0,0,1-1.69-.7,2.56,2.56,0,0,1-.63-1.77,2.61,2.61,0,0,1,.65-1.83,2.24,2.24,0,0,1,1.74-.71,2.2,2.2,0,0,1,1.7.7A2.54,2.54,0,0,1,601.73,684Zm-1.11,0a2.17,2.17,0,0,0-.29-1.14,1.05,1.05,0,0,0-1-.58,1.07,1.07,0,0,0-1,.58,2.21,2.21,0,0,0-.29,1.16,2.17,2.17,0,0,0,.29,1.14,1.08,1.08,0,0,0,1,.58,1.07,1.07,0,0,0,1-.59A2.15,2.15,0,0,0,600.62,684Z" transform="translate(-534.6 -672.15)"/><path class="cls-2" d="M606.9,686.42h-1l-0.08-.55h0a1.65,1.65,0,0,1-1.4.66,1.45,1.45,0,0,1-1.1-.44,1.37,1.37,0,0,1-.38-1,1.5,1.5,0,0,1,.74-1.35,3.84,3.84,0,0,1,2.07-.46v-0.09a0.86,0.86,0,0,0-1-.95,2.23,2.23,0,0,0-1.25.36l-0.22-.7a3.08,3.08,0,0,1,1.65-.42,1.71,1.71,0,0,1,1.89,2v1.77A7.52,7.52,0,0,0,606.9,686.42Zm-1.11-1.65V684q-1.77,0-1.77,1a0.73,0.73,0,0,0,.21.56,0.75,0.75,0,0,0,.52.19,1.07,1.07,0,0,0,.65-0.22,0.91,0.91,0,0,0,.37-0.57A0.86,0.86,0,0,0,605.79,684.77Z" transform="translate(-534.6 -672.15)"/><path class="cls-2" d="M613,686.42H612l0-.77h0a1.6,1.6,0,0,1-1.54.88,1.81,1.81,0,0,1-1.44-.68,2.66,2.66,0,0,1-.57-1.77,2.78,2.78,0,0,1,.62-1.89,1.92,1.92,0,0,1,1.48-.67,1.44,1.44,0,0,1,1.35.65h0v-2.76h1.07v5.72Q612.94,685.83,613,686.42Zm-1.11-2v-0.8a1.53,1.53,0,0,0,0-.34,1.21,1.21,0,0,0-.39-0.65,1,1,0,0,0-.72-0.26,1.1,1.1,0,0,0-.94.48,2,2,0,0,0-.34,1.22,1.9,1.9,0,0,0,.33,1.16,1.1,1.1,0,0,0,.93.47,1,1,0,0,0,.84-0.4A1.32,1.32,0,0,0,611.87,684.39Z" transform="translate(-534.6 -672.15)"/><path class="cls-2" d="M622.11,684a2.64,2.64,0,0,1-.63,1.82,2.26,2.26,0,0,1-1.76.73,2.15,2.15,0,0,1-1.69-.7,2.56,2.56,0,0,1-.63-1.77,2.61,2.61,0,0,1,.65-1.83,2.24,2.24,0,0,1,1.75-.71,2.2,2.2,0,0,1,1.7.7A2.54,2.54,0,0,1,622.11,684ZM621,684a2.17,2.17,0,0,0-.29-1.14,1.06,1.06,0,0,0-1-.58,1.07,1.07,0,0,0-1,.58,2.21,2.21,0,0,0-.29,1.16,2.17,2.17,0,0,0,.29,1.14,1.09,1.09,0,0,0,1.93,0A2.17,2.17,0,0,0,621,684Z" transform="translate(-534.6 -672.15)"/><path class="cls-2" d="M627.86,686.42h-1.07v-2.75q0-1.27-1-1.27a1,1,0,0,0-.77.35,1.24,1.24,0,0,0-.3.82v2.85h-1.07V683q0-.63,0-1.38h0.94l0,0.75h0a1.56,1.56,0,0,1,.55-0.58,1.81,1.81,0,0,1,1-.27,1.53,1.53,0,0,1,1.12.44,2.11,2.11,0,0,1,.55,1.59v2.88Z" transform="translate(-534.6 -672.15)"/><path class="cls-2" d="M635.05,682.41h-1.18v2.34c0,0.59.21,0.89,0.62,0.89a1.9,1.9,0,0,0,.48,0l0,0.81a2.41,2.41,0,0,1-.83.12,1.28,1.28,0,0,1-1-.39,1.88,1.88,0,0,1-.36-1.3v-2.42h-0.7v-0.8h0.7v-0.88l1-.32v1.2h1.18v0.8Z" transform="translate(-534.6 -672.15)"/><path class="cls-2" d="M640.71,686.42h-1.07v-2.73q0-1.29-1-1.29a1,1,0,0,0-1,.75,1.34,1.34,0,0,0,0,.38v2.89h-1.07v-7h1.07v2.9h0a1.62,1.62,0,0,1,1.44-.79,1.49,1.49,0,0,1,1.1.44,2.19,2.19,0,0,1,.54,1.61v2.86Z" transform="translate(-534.6 -672.15)"/><path class="cls-2" d="M646.55,683.79a2.56,2.56,0,0,1,0,.48H643.3a1.4,1.4,0,0,0,.46,1.09,1.59,1.59,0,0,0,1,.34,3.55,3.55,0,0,0,1.3-.23l0.17,0.74a4,4,0,0,1-1.61.3,2.33,2.33,0,0,1-1.75-.66,2.42,2.42,0,0,1-.64-1.77,2.75,2.75,0,0,1,.59-1.81,2,2,0,0,1,1.68-.77,1.79,1.79,0,0,1,1.57.77A2.58,2.58,0,0,1,646.55,683.79Zm-1-.28a1.44,1.44,0,0,0-.21-0.82,0.93,0.93,0,0,0-.85-0.45,1,1,0,0,0-.85.44,1.61,1.61,0,0,0-.32.83h2.23Z" transform="translate(-534.6 -672.15)"/></svg>