<svg id="logo_share_twitter_over.svg" xmlns="http://www.w3.org/2000/svg" xmlns:xlink="http://www.w3.org/1999/xlink" width="91" height="91" viewBox="0 0 91 91">
  <defs>
    <style>
      .cls-1 {
        fill: red;
        fill-opacity: 0;
      }

      .cls-2 {
        fill: #00aced;
        filter: url(#filter);
      }

      .cls-2, .cls-3 {
        fill-rule: evenodd;
      }

      .cls-3 {
        fill: #fff;
      }
    </style>
    <filter id="filter" x="635" y="546" width="91" height="91" filterUnits="userSpaceOnUse">
      <feOffset result="offset" in="SourceAlpha"/>
      <feGaussianBlur result="blur" stdDeviation="2.449"/>
      <feFlood result="flood" flood-opacity="0.3"/>
      <feComposite result="composite" operator="in" in2="blur"/>
      <feBlend result="blend" in="SourceGraphic"/>
    </filter>
  </defs>
  <rect id="AREA_copy_2" data-name="AREA copy 2" class="cls-1" width="90" height="90"/>
  <path id="bn_bg" data-name="bn bg" class="cls-2" d="M650,551h60a10,10,0,0,1,10,10v60a10,10,0,0,1-10,10H650a10,10,0,0,1-10-10V561A10,10,0,0,1,650,551Zm19.25,40.5a1,1,0,1,1-1,1A1,1,0,0,1,669.25,591.5Z" transform="translate(-635 -546)"/>
  <path id="Twitter_logo" data-name="Twitter logo" class="cls-3" d="M701.859,581.292c0.02,0.441.028,0.888,0.028,1.324,0,13.533-10.3,29.138-29.129,29.138a28.993,28.993,0,0,1-15.7-4.6,21.561,21.561,0,0,0,2.436.142,20.539,20.539,0,0,0,12.716-4.385,10.245,10.245,0,0,1-9.562-7.112,10.294,10.294,0,0,0,1.927.18,10.091,10.091,0,0,0,2.7-.356,10.243,10.243,0,0,1-8.213-10.037v-0.135a10.1,10.1,0,0,0,4.637,1.283,10.244,10.244,0,0,1-3.169-13.669,29.065,29.065,0,0,0,21.107,10.7,10.247,10.247,0,0,1,17.449-9.335,20.938,20.938,0,0,0,6.5-2.484,10.294,10.294,0,0,1-4.5,5.663,20.482,20.482,0,0,0,5.882-1.618A20.7,20.7,0,0,1,701.859,581.292Z" transform="translate(-635 -546)"/>
</svg>
