<svg xmlns="http://www.w3.org/2000/svg" width="73.938" height="30.844" viewBox="0 0 73.938 30.844">
  <defs>
    <style>
      .cls-1 {
        fill: #fff;
        fill-rule: evenodd;
      }
    </style>
  </defs>
  <path id="logo_footer_youtube.svg" class="cls-1" d="M345.25,183.15s-0.43,3.023-1.751,4.354a6.327,6.327,0,0,1-4.416,1.859c-6.166.443-15.425,0.457-15.425,0.457s-11.456-.1-14.981-0.441c-0.981-.183-3.183-0.128-4.859-1.875-1.321-1.331-1.751-4.354-1.751-4.354a66,66,0,0,1-.441-7.1v-3.329a65.975,65.975,0,0,1,.441-7.1s0.43-3.023,1.751-4.354a6.318,6.318,0,0,1,4.415-1.858c6.166-.444,15.416-0.444,15.416-0.444h0.019s9.249,0,15.415.444a6.32,6.32,0,0,1,4.416,1.858c1.321,1.331,1.751,4.354,1.751,4.354a66.123,66.123,0,0,1,.44,7.1v3.329A66.147,66.147,0,0,1,345.25,183.15Zm-30.7-18.989-9.3,0v2.8h3.1v16.971H311.3V166.964h3.246v-2.8Zm7.379,5.017h-2.8v11.215c-0.593.837-1.079,1.3-1.616,1.3a0.543,0.543,0,0,1-.6-0.566V169.178h-2.8v11.658a5.937,5.937,0,0,0,.311,2.168,1.763,1.763,0,0,0,1.76,1.141c0.982,0,1.883-.615,2.946-1.833v1.623h2.8V169.178Zm10.182,4.427a10.334,10.334,0,0,0-.358-2.945,2.162,2.162,0,0,0-2.135-1.718,3.818,3.818,0,0,0-2.822,1.666l0-6.447h-2.656v19.774H326.8l0-1.486a3.8,3.8,0,0,0,2.816,1.676,2.192,2.192,0,0,0,2.2-1.666,11.363,11.363,0,0,0,.3-2.951v-5.9ZM342,173.983a5.781,5.781,0,0,0-.869-3.475,3.737,3.737,0,0,0-3.152-1.543,3.829,3.829,0,0,0-3.2,1.543,5.936,5.936,0,0,0-.9,3.54v5.165a5.458,5.458,0,0,0,.931,3.4,3.824,3.824,0,0,0,3.234,1.511,3.7,3.7,0,0,0,3.231-1.6,3.8,3.8,0,0,0,.625-1.6,16.778,16.778,0,0,0,.095-1.738V178.77h-2.8c0,1.072,0,1.709-.02,1.855a1.148,1.148,0,0,1-1.193,1.072c-0.917,0-1.305-.686-1.3-2.048V177H342v-3.016Zm-5.317-.827c0-1.379.379-1.755,1.271-1.755s1.238,0.41,1.238,1.774v1.611l-2.509,0v-1.632Zm-8.5,8.541a2.054,2.054,0,0,1-1.393-.674l0-8.949a2.077,2.077,0,0,1,1.391-.673c0.77,0,1.118.433,1.118,1.909v6.345C329.307,181.131,328.959,181.7,328.189,181.7Zm-31.641.615c-1.063,1.218-1.964,1.833-2.946,1.833a1.762,1.762,0,0,1-1.76-1.141,5.911,5.911,0,0,1-.312-2.168V169.031h2.8v12.1a0.544,0.544,0,0,0,.6.566c0.536,0,1.022-.467,1.616-1.3V169.031h2.8v14.9h-2.8v-1.623Zm-11.068,1.879a3.9,3.9,0,0,1-3.135-1.555,5.492,5.492,0,0,1-.849-3.423l0-5.3a5.92,5.92,0,0,1,.882-3.554,3.533,3.533,0,0,1,3.1-1.437,3.718,3.718,0,0,1,3.1,1.437,5.94,5.94,0,0,1,.885,3.541v5.313a5.564,5.564,0,0,1-.826,3.423A3.947,3.947,0,0,1,285.48,184.191Zm0-12.753c-0.87,0-1.328.692-1.18,2.167v5.9c-0.148,1.475.309,2.208,1.18,2.208s1.328-.733,1.181-2.208v-5.9C286.81,172.13,286.351,171.438,285.48,171.438Zm-7.083,12.5h-2.951v-8.116s-3.059-9.951-3.689-11.806h3.1l2.072,7.773,2.06-7.773h3.1L278.4,175.819v8.116Z" transform="translate(-271.75 -158.969)"/>
</svg>
