<svg xmlns="http://www.w3.org/2000/svg" width="134" height="45" viewBox="0 0 134 45">
  <defs>
    <style>
      .cls-1 {
        fill: #fff;
        fill-rule: evenodd;
      }
    </style>
  </defs>
  <path id="logo_google_play_transparent.svg" class="cls-1" d="M169,755H47a6,6,0,0,1-6-6V716a6,6,0,0,1,6-6H169a6,6,0,0,1,6,6v33A6,6,0,0,1,169,755Zm5-39a5,5,0,0,0-5-5H47a5,5,0,0,0-5,5v33a5,5,0,0,0,5,5H169a5,5,0,0,0,5-5V716Zm-14.087,30.689a3.815,3.815,0,0,1-.964-0.13l0.165-.892h0a2.28,2.28,0,0,0,.782.149,1.4,1.4,0,0,0,1.37-1.1l0.7-1.6-3.8-9.045h1.075l3.26,7.838,3.228-7.838h1.092l-4.635,10.943A2.371,2.371,0,0,1,159.913,746.689Zm-3.521-3.557c-0.065-.313-0.114-0.589-0.15-0.819a5.6,5.6,0,0,1-.046-0.7,4.136,4.136,0,0,1-3.365,1.7,3.17,3.17,0,0,1-2.2-.706,2.464,2.464,0,0,1-.784-1.921,2.273,2.273,0,0,1,1.138-1.966,5.223,5.223,0,0,1,2.951-.755H156.2V736.84a1.879,1.879,0,0,0-.658-1.521,2.811,2.811,0,0,0-1.857-.554,2.941,2.941,0,0,0-1.777.5,1.529,1.529,0,0,0-.673,1.263h-0.993l-0.021-.048a2.09,2.09,0,0,1,.937-1.795,4.066,4.066,0,0,1,2.581-.775,4.014,4.014,0,0,1,2.559.765,2.61,2.61,0,0,1,.968,2.185v4.449a7.049,7.049,0,0,0,.055.929,5.919,5.919,0,0,0,.193.893h-1.118Zm-0.2-4.357H153.92a3.7,3.7,0,0,0-2.152.584,1.693,1.693,0,0,0-.852,1.408,1.562,1.562,0,0,0,.543,1.244,2.179,2.179,0,0,0,1.488.473h0a3.619,3.619,0,0,0,2.02-.552,2.792,2.792,0,0,0,1.224-1.416v-1.741Zm-8.82-8.079h0.989v12.448h-0.989V730.7Zm-5.322,12.63a3.822,3.822,0,0,1-3.11-1.671h0v4.869h-0.965V734.135h0.965v1.411a3.832,3.832,0,0,1,3.11-1.635c2.392,0,4,1.819,4,4.7C146.052,741.47,144.441,743.326,142.049,743.326Zm-0.127-8.508a3.838,3.838,0,0,0-2.959,1.852v4.007a3.871,3.871,0,0,0,2.959,1.89c2.008,0,3.141-1.687,3.141-3.883S143.93,734.818,141.922,734.818Zm-8.513,6.749-0.913.866c-0.211.117-.42,0.252-0.63,0.349a4.4,4.4,0,0,1-1.851.362,4.07,4.07,0,0,1-2.541-.749,4.976,4.976,0,0,1-1.946-4.048,4.341,4.341,0,0,1,4.373-4.436,3.692,3.692,0,0,1,1.965.538,3.207,3.207,0,0,1,1.337,1.9l-4.486,1.823-1.47.115c0.476,2.441,2.117,3.861,3.931,3.861a4.694,4.694,0,0,0,2.2-.605,0.22,0.22,0,0,1,.06-0.023c0.012,0,.011.011-0.025,0.047h0Zm-2.741-4.9a0.6,0.6,0,0,0,.547-0.519,1.894,1.894,0,0,0-1.87-1.664c-0.754,0-2.169.6-2.169,2.69,0,0.326.038,0.673,0.057,1.02Zm-6.622,4.791h0c0,0.744.132,0.859,0.757,0.918,0.326,0.038.651,0.056,0.972,0.094l-0.7.422h-3.352a1.393,1.393,0,0,0,.515-1.014v-0.428l-0.007-11.387h-1.48l1.425-.691h2.72a1.322,1.322,0,0,0-.842,1.223ZM118.354,721.1v4.056h-1.06v-5.672h1.088l3.092,3.929v-3.929h1.061v5.672h-1.024Zm-5.4,4.142a2.929,2.929,0,1,1,3.136-2.922A2.928,2.928,0,0,1,112.955,725.239Zm0-4.985a2.02,2.02,0,1,0,2.02,2.02A1.926,1.926,0,0,0,112.954,720.254Zm-5.946,22.89a4.518,4.518,0,0,1-4.643-4.548,4.744,4.744,0,0,1,4.929-4.685,4.482,4.482,0,0,1,4.55,4.55A4.679,4.679,0,0,1,107.008,743.144Zm-0.23-8.656a2.649,2.649,0,0,0-1.721.656,2.946,2.946,0,0,0-.879,2.362c0,1.91.933,5.061,3.247,5.061a2.431,2.431,0,0,0,1.949-.984,3.5,3.5,0,0,0,.574-2.144C109.948,737.736,109.147,734.488,106.778,734.488Zm-2.315-9.335H103.4v-4.8h-1.833v-0.877H106.3v0.877h-1.832v4.8Zm-5.043-5.672h1.031v5.672H99.42v-5.672Zm-2.551,23.663a4.517,4.517,0,0,1-4.644-4.548,4.746,4.746,0,0,1,4.931-4.685,4.481,4.481,0,0,1,4.549,4.55A4.678,4.678,0,0,1,96.869,743.144Zm-0.231-8.656a2.639,2.639,0,0,0-1.719.656,2.942,2.942,0,0,0-.88,2.362c0,1.91.937,5.061,3.249,5.061a2.435,2.435,0,0,0,1.948-.984h0a3.528,3.528,0,0,0,.573-2.144C99.809,737.736,99.005,734.488,96.638,734.488Zm-2.831-9.335H92.745v-4.8H90.913v-0.877h4.726v0.877H93.807v4.8Zm-8.136-5.672h4.211v0.877H86.749v1.462h3.068V722.7H86.749v1.582h3.132v0.876H85.671v-5.672Zm-3.865,5.758a2.963,2.963,0,0,1-3.181-2.926h0a2.952,2.952,0,0,1,3.181-2.918,2.9,2.9,0,0,1,2.436,1.167l-0.863.466a2.052,2.052,0,1,0-1.573,3.323,2.267,2.267,0,0,0,1.436-.507v-0.871H81.424V722.1H84.3v2.106A3.383,3.383,0,0,1,81.806,725.239Zm4.057,4.963a10.433,10.433,0,0,1,2.744.375,6.891,6.891,0,0,1,2.364,1.122l-1.489,1.423-0.628.141,0.448-.717a5.1,5.1,0,0,0-3.835-1.7c-2.827,0-4.959,2.163-4.959,5.321a6.357,6.357,0,0,0,6.34,6.582,5.3,5.3,0,0,0,2.275-.449V739.4l-2.706.146,1.434-.775h3.8l-0.465.45a0.413,0.413,0,0,0-.177.287c-0.019.164-.036,0.687-0.036,0.87v2.2l-2.562.59a18.591,18.591,0,0,1-2.958.31,6.389,6.389,0,0,1-6.826-6.528C78.625,733.446,81.293,730.2,85.863,730.2ZM63.845,740.363l-0.041.023-2.9-2.779L64.4,734.3c1.2,0.666,3.948,2.2,4.322,2.391,0.479,0.249.533,0.68-.034,1S63.845,740.363,63.845,740.363ZM48.469,725.7h0a0.7,0.7,0,0,1,.139-0.014,1.034,1.034,0,0,1,.492.141l9.71,5.38,5.005,2.773-3.361,3.2Zm-0.148,23.047a0.486,0.486,0,0,1-.3-0.5V726.328a0.909,0.909,0,0,1,.014-0.164h0l11.956,11.453Zm14.9-8.034-2.481,1.374-1.929,1.068s-6.583,3.649-9.041,5.01l10.672-10.115Zm53.63,2.089a2.028,2.028,0,0,1-.571-1.305,1.745,1.745,0,0,1,.19-0.746c-0.208.02-.417,0.04-0.607,0.04a3.016,3.016,0,0,1-3.153-3.008,3.452,3.452,0,0,1,1.217-2.566,5.151,5.151,0,0,1,3.4-1.053h3.914l-1.217.692h-1.179a3.133,3.133,0,0,1-.247,5.3,1.365,1.365,0,0,0-.532.937,1.055,1.055,0,0,0,.493.825l0.687,0.534a3.345,3.345,0,0,1,1.594,2.684c0,1.8-1.729,3.617-5,3.617-2.752,0-4.082-1.322-4.082-2.739a2.754,2.754,0,0,1,1.463-2.335A8.113,8.113,0,0,1,116.852,742.8Zm1.669-4.55c0-1.373-.811-3.511-2.383-3.511a1.756,1.756,0,0,0-1.323.632,2.215,2.215,0,0,0-.416,1.41c0,1.278.739,3.4,2.364,3.4a1.924,1.924,0,0,0,1.283-.535h0A1.939,1.939,0,0,0,118.521,738.247Zm-1.743,9.761c1.839,0,2.814-.9,2.814-2.105,0-.994-0.631-1.519-2.083-2.573h0a2.891,2.891,0,0,0-.441-0.021,7.461,7.461,0,0,0-2.009.312,2.18,2.18,0,0,0-1.649,2.009C113.41,747.011,114.733,748.008,116.778,748.008Z" transform="translate(-41 -710)"/>
</svg>
