<svg id="Layer_1" data-name="Layer 1" xmlns="http://www.w3.org/2000/svg" width="120" height="40.3" viewBox="0 0 120 40.3"><defs><style>.cls-1{fill:#fff;}.cls-2{fill-opacity:0.5;}</style></defs><title>logo_store_google_white</title><path class="cls-1" d="M350.19,641.32H460.46a4.85,4.85,0,0,1,4.86,4.84v30.63a4.85,4.85,0,0,1-4.86,4.84H350.19a4.85,4.85,0,0,1-4.86-4.84V646.15A4.85,4.85,0,0,1,350.19,641.32Z" transform="translate(-345.33 -641.32)"/><path class="cls-2" d="M353.34,655.39a0.83,0.83,0,0,0,0,.15V675a0.43,0.43,0,0,0,.26.44L364,665.57l-10.63-10.18h0Zm0.38-.42a0.83,0.83,0,0,1,.56.11l8.63,4.78,4.45,2.46-3,2.85L353.72,655h0Zm13.11,13.34-2.21,1.22-1.71.95-8,4.45,9.49-9,2.47,2.37h0Zm0.52-.29,0,0,4.3-2.38c0.5-.28.46-0.66,0-0.88s-2.78-1.53-3.84-2.13l-3.1,2.94,2.58,2.47h0Z" transform="translate(-345.33 -641.32)"/><path class="cls-2" d="M429.22,669.08l-0.81.77c-0.19.1-.37,0.22-0.56,0.31a3.91,3.91,0,0,1-1.65.32,3.61,3.61,0,0,1-2.26-.67,4.42,4.42,0,0,1-1.73-3.6,3.86,3.86,0,0,1,3.89-3.94,3.29,3.29,0,0,1,1.75.48,2.85,2.85,0,0,1,1.19,1.69l-4,1.62-1.31.1c0.42,2.17,1.88,3.43,3.49,3.43a4.17,4.17,0,0,0,2-.54s0.11-.06,0,0h0Zm-2.44-4.35a0.53,0.53,0,0,0,.49-0.46,1.68,1.68,0,0,0-1.66-1.48,2.1,2.1,0,0,0-1.93,2.39c0,0.29,0,.6.05,0.91l3.05-1.36h0ZM420.9,669c0,0.66.12,0.76,0.67,0.82l0.86,0.08-0.63.37h-3a1.24,1.24,0,0,0,.46-0.9v-10.5H418l1.27-.61h2.42a1.18,1.18,0,0,0-.75,1.09V669h0Zm-4.62-5.88a2.79,2.79,0,0,1-.22,4.71,1.21,1.21,0,0,0-.47.83,0.94,0.94,0,0,0,.44.73l0.61,0.47a3,3,0,0,1,1.42,2.38c0,1.6-1.54,3.22-4.44,3.22-2.45,0-3.63-1.17-3.63-2.43a2.45,2.45,0,0,1,1.3-2.08,7.22,7.22,0,0,1,3.22-.78A1.8,1.8,0,0,1,414,669a1.55,1.55,0,0,1,.17-0.66c-0.18,0-.37,0-0.54,0a2.68,2.68,0,0,1-2.8-2.67,3.07,3.07,0,0,1,1.08-2.28,4.58,4.58,0,0,1,3-.94h3.48l-1.08.62h-1Zm-1.19,7.54a2.59,2.59,0,0,0-.39,0,6.64,6.64,0,0,0-1.79.28,1.94,1.94,0,0,0-1.47,1.79c0,1.23,1.18,2.11,3,2.11,1.63,0,2.5-.8,2.5-1.87,0-.88-0.56-1.35-1.85-2.29h0Zm0.48-3.28a1.72,1.72,0,0,0,.42-1.24c0-1.22-.72-3.12-2.12-3.12a1.56,1.56,0,0,0-1.18.56,2,2,0,0,0-.37,1.25c0,1.14.66,3,2.1,3a1.71,1.71,0,0,0,1.14-.48h0Zm-9.81,3.11a4,4,0,0,1-4.13-4,4.22,4.22,0,0,1,4.38-4.16,4,4,0,0,1,4,4,4.16,4.16,0,0,1-4.3,4.16h0Zm2.1-1.39a3.12,3.12,0,0,0,.51-1.91c0-1.51-.71-4.4-2.82-4.4a2.35,2.35,0,0,0-1.53.58,2.62,2.62,0,0,0-.78,2.1c0,1.7.83,4.5,2.89,4.5a2.16,2.16,0,0,0,1.73-.87h0Zm-11.12,1.39a4,4,0,0,1-4.13-4,4.22,4.22,0,0,1,4.38-4.16,4,4,0,0,1,4,4,4.16,4.16,0,0,1-4.3,4.16h0Zm2.1-1.39a3.13,3.13,0,0,0,.51-1.91c0-1.51-.71-4.4-2.82-4.4a2.34,2.34,0,0,0-1.53.58,2.61,2.61,0,0,0-.78,2.1c0,1.7.83,4.5,2.89,4.5a2.16,2.16,0,0,0,1.73-.87h0Zm-7.35.88-2.28.52a16.55,16.55,0,0,1-2.63.28,5.68,5.68,0,0,1-6.07-5.8c0-3.11,2.37-6,6.43-6a9.25,9.25,0,0,1,2.44.33,6.12,6.12,0,0,1,2.1,1l-1.32,1.26-0.56.13,0.4-.64a4.53,4.53,0,0,0-3.41-1.51,4.41,4.41,0,0,0-4.41,4.73,5.65,5.65,0,0,0,5.64,5.85,4.72,4.72,0,0,0,2-.4v-2.58l-2.41.13,1.27-.69h3.38l-0.41.4a0.37,0.37,0,0,0-.16.26c0,0.15,0,.61,0,0.77v2h0Zm42.64-.82v4.33h-0.86v-11h0.86v1.25a3.41,3.41,0,0,1,2.76-1.45c2.13,0,3.56,1.62,3.56,4.18s-1.43,4.19-3.56,4.19a3.4,3.4,0,0,1-2.76-1.49h0Zm5.44-2.64c0-1.95-1-3.44-2.79-3.44a3.41,3.41,0,0,0-2.63,1.65v3.56a3.44,3.44,0,0,0,2.63,1.68C438.58,670,439.58,668.47,439.58,666.52Zm2.05-7.1h0.88v11.06h-0.88V659.42Zm10.44,13.31a2,2,0,0,0,.69.13,1.25,1.25,0,0,0,1.22-1l0.63-1.42-3.38-8h1l2.9,7,2.87-7h1l-4.12,9.73a2.11,2.11,0,0,1-2,1.48,3.38,3.38,0,0,1-.86-0.12l0.15-.79h0Zm-2.42-2.25c-0.06-.28-0.1-0.52-0.13-0.73a4.9,4.9,0,0,1,0-.62,3.68,3.68,0,0,1-3,1.51,2.82,2.82,0,0,1-2-.63,2.19,2.19,0,0,1-.7-1.71,2,2,0,0,1,1-1.75,4.65,4.65,0,0,1,2.62-.67h2v-1a1.67,1.67,0,0,0-.58-1.35,2.5,2.5,0,0,0-1.65-.49,2.61,2.61,0,0,0-1.58.45,1.36,1.36,0,0,0-.6,1.12h-0.88l0,0A1.86,1.86,0,0,1,445,663a3.62,3.62,0,0,1,2.29-.69,3.57,3.57,0,0,1,2.27.68,2.32,2.32,0,0,1,.86,1.94v4a6.29,6.29,0,0,0,0,.83,5.26,5.26,0,0,0,.17.79h-1Zm-3.06-.58a3.22,3.22,0,0,0,1.8-.49,2.48,2.48,0,0,0,1.09-1.26V666.6h-2a3.29,3.29,0,0,0-1.91.52,1.51,1.51,0,0,0-.76,1.25,1.39,1.39,0,0,0,.48,1.11,1.94,1.94,0,0,0,1.32.42h0ZM380.53,652a2.62,2.62,0,0,1,2.83-2.59,2.58,2.58,0,0,1,2.17,1l-0.77.41a1.82,1.82,0,1,0-1.4,3,2,2,0,0,0,1.28-.45v-0.77H383v-0.77h2.55v1.87a3,3,0,0,1-2.21.92,2.63,2.63,0,0,1-2.83-2.6h0Zm6.26,2.52v-5h3.74v0.78h-2.78v1.3h2.73v0.78h-2.73v1.41h2.78v0.78h-3.74Zm6.29,0v-4.26h-1.63v-0.78h4.2v0.78H394v4.26h-0.94Zm5.93-5h0.92v5H399v-5Zm3.54,5v-4.26h-1.63v-0.78h4.2v0.78h-1.63v4.26h-0.94Zm5.7-2.52a2.8,2.8,0,1,1,2.79,2.6A2.6,2.6,0,0,1,408.25,652Zm4.58,0a1.8,1.8,0,1,0-1.79,1.8A1.72,1.72,0,0,0,412.84,651.93Zm5.81,2.56-2.81-3.61v3.61H414.9v-5h1l2.75,3.49v-3.49h0.94v5h-0.91Z" transform="translate(-345.33 -641.32)"/></svg>