<svg id="Layer_1" data-name="Layer 1" xmlns="http://www.w3.org/2000/svg" width="120" height="40" viewBox="0 0 120 40"><defs><style>.cls-1{fill:#fff;}.cls-2{fill-opacity:0.5;}</style></defs><title>logo_store_apple_white</title><path class="cls-1" d="M349.86,581.73H460.14a4.83,4.83,0,0,1,4.86,4.8v30.4a4.83,4.83,0,0,1-4.86,4.8H349.86a4.83,4.83,0,0,1-4.86-4.8v-30.4A4.83,4.83,0,0,1,349.86,581.73Z" transform="translate(-345 -581.73)"/><path class="cls-2" d="M368.31,601.14a5.15,5.15,0,0,1,2.45-4.32,5.27,5.27,0,0,0-4.15-2.24c-1.75-.18-3.44,1-4.33,1s-2.28-1-3.75-1a5.53,5.53,0,0,0-4.65,2.84c-2,3.48-.51,8.6,1.42,11.42,1,1.38,2.09,2.92,3.57,2.86s2-.92,3.72-0.92,2.23,0.92,3.73.88,2.52-1.38,3.45-2.78a11.37,11.37,0,0,0,1.58-3.22,5,5,0,0,1-3-4.57h0Zm-2.84-8.41a5.07,5.07,0,0,0,1.16-3.63,5.16,5.16,0,0,0-3.34,1.73,4.82,4.82,0,0,0-1.19,3.5,4.26,4.26,0,0,0,3.37-1.59h0Z" transform="translate(-345 -581.73)"/><path class="cls-2" d="M390.26,612h-2.05l-1.12-3.54h-3.9L382.12,612h-2l3.87-12h2.39Zm-3.51-5-1-3.14q-0.16-.48-0.61-2.27h0q-0.18.77-.57,2.27l-1,3.14h3.23Zm13.44,0.57A4.92,4.92,0,0,1,399,611a3.52,3.52,0,0,1-2.67,1.14,2.67,2.67,0,0,1-2.47-1.23v4.55h-1.92v-9.34q0-1.39-.07-2.85h1.69l0.11,1.38h0a3.42,3.42,0,0,1,5.48-.34,4.8,4.8,0,0,1,1,3.2h0Zm-2,.07a3.58,3.58,0,0,0-.57-2.09,2,2,0,0,0-1.68-.86,2,2,0,0,0-1.29.47,2.19,2.19,0,0,0-.76,1.24,2.51,2.51,0,0,0-.09.59v1.45a2.32,2.32,0,0,0,.58,1.6,1.92,1.92,0,0,0,1.51.65,2,2,0,0,0,1.69-.84,3.7,3.7,0,0,0,.61-2.21h0Zm11.93-.07A4.92,4.92,0,0,1,409,611a3.52,3.52,0,0,1-2.67,1.14,2.67,2.67,0,0,1-2.47-1.23v4.55h-1.92v-9.34q0-1.39-.07-2.85h1.69l0.11,1.38h0a3.42,3.42,0,0,1,5.48-.34,4.81,4.81,0,0,1,1,3.2h0Zm-2,.07a3.58,3.58,0,0,0-.57-2.09,2,2,0,0,0-1.67-.86,2,2,0,0,0-1.29.47,2.19,2.19,0,0,0-.76,1.24,2.56,2.56,0,0,0-.09.59v1.45a2.33,2.33,0,0,0,.58,1.6,1.93,1.93,0,0,0,1.51.65,2,2,0,0,0,1.69-.84,3.7,3.7,0,0,0,.61-2.21h0Zm13.1,1a3.21,3.21,0,0,1-1.07,2.5,4.73,4.73,0,0,1-3.27,1.05,5.7,5.7,0,0,1-3.11-.75l0.45-1.61a5.36,5.36,0,0,0,2.78.75,2.62,2.62,0,0,0,1.69-.49,1.6,1.6,0,0,0,.61-1.31,1.68,1.68,0,0,0-.5-1.23,4.64,4.64,0,0,0-1.66-.93q-3.16-1.18-3.16-3.45a3,3,0,0,1,1.11-2.43,4.4,4.4,0,0,1,3-.95,5.82,5.82,0,0,1,2.73.57l-0.48,1.57a4.76,4.76,0,0,0-2.31-.55,2.34,2.34,0,0,0-1.59.5,1.43,1.43,0,0,0-.48,1.09,1.47,1.47,0,0,0,.55,1.18,6.2,6.2,0,0,0,1.75.93,5.93,5.93,0,0,1,2.28,1.46,3.05,3.05,0,0,1,.73,2.09h0Zm6.38-3.86h-2.12v4.21q0,1.61,1.12,1.61a3.38,3.38,0,0,0,.85-0.09l0.05,1.46a4.35,4.35,0,0,1-1.5.21,2.31,2.31,0,0,1-1.78-.7,3.42,3.42,0,0,1-.64-2.34v-4.37H422.4v-1.45h1.26v-1.59l1.89-.57v2.16h2.12v1.45h0Zm9.55,2.82a4.76,4.76,0,0,1-1.14,3.29,4.07,4.07,0,0,1-3.17,1.32,3.87,3.87,0,0,1-3-1.27,4.62,4.62,0,0,1-1.13-3.2,4.73,4.73,0,0,1,1.17-3.3,4,4,0,0,1,3.15-1.29,4,4,0,0,1,3.07,1.27,4.56,4.56,0,0,1,1.11,3.18h0Zm-2,0a3.89,3.89,0,0,0-.52-2,1.9,1.9,0,0,0-1.73-1,1.93,1.93,0,0,0-1.76,1,4,4,0,0,0-.52,2.08,3.87,3.87,0,0,0,.52,2,2,2,0,0,0,3.48,0,3.91,3.91,0,0,0,.53-2.07h0Zm8.25-2.62a3.34,3.34,0,0,0-.61-0.05,1.81,1.81,0,0,0-1.57.77,2.89,2.89,0,0,0-.48,1.71V612h-1.92V606c0-1,0-1.91-.06-2.73h1.68l0.07,1.66h0.05a3,3,0,0,1,1-1.37,2.32,2.32,0,0,1,1.39-.47,3.2,3.2,0,0,1,.48,0V605h0Zm8.61,2.23a4.53,4.53,0,0,1-.07.87h-5.77a2.52,2.52,0,0,0,.84,2,2.86,2.86,0,0,0,1.89.61,6.36,6.36,0,0,0,2.34-.41l0.3,1.34a7.23,7.23,0,0,1-2.9.54,4.21,4.21,0,0,1-3.17-1.19,4.4,4.4,0,0,1-1.15-3.19,5,5,0,0,1,1.07-3.27,3.69,3.69,0,0,1,3-1.39,3.22,3.22,0,0,1,2.83,1.39,4.68,4.68,0,0,1,.76,2.73h0Zm-1.84-.5a2.62,2.62,0,0,0-.37-1.48,1.68,1.68,0,0,0-1.53-.8,1.82,1.82,0,0,0-1.53.79,2.89,2.89,0,0,0-.57,1.5h4Z" transform="translate(-345 -581.73)"/><path class="cls-2" d="M385.11,595.61h-1l-0.55-1.74h-1.92l-0.53,1.74h-1l1.9-5.92h1.17l1.91,5.92h0Zm-1.73-2.47-0.5-1.54c-0.05-.16-0.15-0.53-0.3-1.11h0c-0.06.25-.15,0.62-0.28,1.11l-0.49,1.54h1.59Zm6.48-1.8-1.61,4.26h-0.92l-1.56-4.26h1l0.73,2.26c0.12,0.38.23,0.74,0.31,1.08h0c0.07-.31.18-0.67,0.31-1.08l0.72-2.26h1Zm3.43,4.26-0.07-.49h0a1.45,1.45,0,0,1-1.24.59,1.24,1.24,0,0,1-1.31-1.26c0-1.05.91-1.6,2.49-1.6v-0.08a0.77,0.77,0,0,0-.88-0.84,2,2,0,0,0-1.11.32l-0.19-.62a2.72,2.72,0,0,1,1.46-.37,1.52,1.52,0,0,1,1.67,1.76v1.57a6.35,6.35,0,0,0,.06,1h-0.85Zm-0.13-2.12c-1.05,0-1.58.26-1.58,0.86a0.6,0.6,0,0,0,.65.67,0.91,0.91,0,0,0,.93-0.87v-0.66h0Zm3-2.84a0.57,0.57,0,1,1,.6-0.57A0.56,0.56,0,0,1,396.19,590.64Zm-0.46.7h0.95v4.26h-0.95v-4.26Zm2.63-2h0.95v6.22h-0.95v-6.22Zm5,6.22-0.07-.49h0a1.45,1.45,0,0,1-1.24.59,1.24,1.24,0,0,1-1.31-1.26c0-1.05.91-1.6,2.49-1.6v-0.08a0.77,0.77,0,0,0-.88-0.84,2,2,0,0,0-1.11.32l-0.19-.62a2.72,2.72,0,0,1,1.46-.37,1.52,1.52,0,0,1,1.67,1.76v1.57a6.6,6.6,0,0,0,.06,1h-0.85Zm-0.13-2.12c-1.05,0-1.58.26-1.58,0.86a0.6,0.6,0,0,0,.65.67,0.91,0.91,0,0,0,.93-0.87v-0.66h0Zm4.75,2.22a1.45,1.45,0,0,1-1.34-.76h0l-0.05.66h-0.81c0-.34,0-0.73,0-1.15v-5.07h0.95V592h0a1.46,1.46,0,0,1,1.36-.71,1.89,1.89,0,0,1,1.74,2.16,2.05,2.05,0,0,1-1.88,2.29h0Zm-0.19-3.7a1.09,1.09,0,0,0-1,1.13v0.75a1,1,0,0,0,1,1.07,1.53,1.53,0,0,0,0-2.95h0Zm3.48-2.61h0.95v6.22h-0.95v-6.22Zm6.09,4.32h-2.84a1.22,1.22,0,0,0,1.34,1.26,3.19,3.19,0,0,0,1.15-.2l0.15,0.66a3.54,3.54,0,0,1-1.43.26,2,2,0,0,1-2.12-2.15,2.08,2.08,0,0,1,2-2.29,1.79,1.79,0,0,1,1.77,2,1.83,1.83,0,0,1,0,.43h0Zm-0.87-.68a1,1,0,0,0-.94-1.12,1.12,1.12,0,0,0-1,1.12h2Zm6.6,2.68a2,2,0,0,1-2.05-2.19,2.08,2.08,0,0,1,2.12-2.26,2,2,0,0,1,2.05,2.19,2.09,2.09,0,0,1-2.12,2.26h0Zm0-3.76a1.6,1.6,0,0,0,0,3.05,1.34,1.34,0,0,0,1.11-1.54,1.3,1.3,0,0,0-1.1-1.52h0Zm7.17,3.66h-0.94v-2.45c0-.75-0.29-1.13-0.86-1.13a1,1,0,0,0-.95,1v2.54h-0.94v-3c0-.38,0-0.78,0-1.22h0.83l0,0.66h0a1.53,1.53,0,0,1,1.35-.75,1.55,1.55,0,0,1,1.48,1.8v2.55h0Zm6.19-3.55h-1v2.07q0,0.79.55,0.79a1.87,1.87,0,0,0,.42,0l0,0.72a2.1,2.1,0,0,1-.73.11c-0.75,0-1.19-.41-1.19-1.49v-2.15h-0.62v-0.71h0.62v-0.78l0.93-.28v1.06h1v0.71h0Zm5,3.55h-0.95v-2.43c0-.76-0.29-1.15-0.86-1.15a0.93,0.93,0,0,0-.95,1v2.57h-0.95v-6.22h0.95V592h0a1.43,1.43,0,0,1,1.28-.69,1.54,1.54,0,0,1,1.45,1.82v2.54h0Zm4.83-1.9h-2.84a1.22,1.22,0,0,0,1.34,1.26,3.17,3.17,0,0,0,1.15-.2l0.15,0.66a3.54,3.54,0,0,1-1.43.26,2,2,0,0,1-2.12-2.15,2.08,2.08,0,0,1,2-2.29,1.79,1.79,0,0,1,1.77,2,1.84,1.84,0,0,1,0,.43h0Zm-0.87-.68a1,1,0,0,0-.94-1.12,1.12,1.12,0,0,0-1,1.12h2Z" transform="translate(-345 -581.73)"/></svg>