<svg id="Layer_1" data-name="Layer 1" xmlns="http://www.w3.org/2000/svg" width="134.36" height="45.36" viewBox="0 0 134.36 45.36"><defs><style>.cls-1{fill:#fff;stroke:#000;stroke-opacity:0.2;stroke-width:0.36px;}.cls-2{fill-opacity:0.5;}</style></defs><title>logo_apple_store_white</title><path class="cls-1" d="M170.63,579.23H293.77a5.42,5.42,0,0,1,5.43,5.4v34.2a5.42,5.42,0,0,1-5.43,5.4H170.63a5.42,5.42,0,0,1-5.43-5.4v-34.2A5.42,5.42,0,0,1,170.63,579.23Z" transform="translate(-165.02 -579.05)"/><path class="cls-2" d="M190.42,601.06a5.79,5.79,0,0,1,2.76-4.86,5.93,5.93,0,0,0-4.67-2.52c-2-.21-3.87,1.18-4.87,1.18s-2.56-1.16-4.22-1.12a6.22,6.22,0,0,0-5.23,3.19c-2.26,3.92-.58,9.68,1.59,12.84,1.08,1.55,2.35,3.28,4,3.22s2.23-1,4.19-1,2.51,1,4.2,1,2.84-1.56,3.89-3.12a12.79,12.79,0,0,0,1.78-3.62,5.6,5.6,0,0,1-3.42-5.15h0Zm-3.2-9.47a5.7,5.7,0,0,0,1.3-4.08,5.8,5.8,0,0,0-3.75,1.94,5.42,5.42,0,0,0-1.34,3.93,4.79,4.79,0,0,0,3.79-1.79h0Z" transform="translate(-165.02 -579.05)"/><path class="cls-2" d="M215.12,613.23h-2.31l-1.26-4h-4.39l-1.2,4h-2.25l4.35-13.54h2.69Zm-4-5.65L210,604.05q-0.18-.54-0.68-2.55h0q-0.2.86-.64,2.55l-1.12,3.53h3.63Zm15.12,0.64a5.53,5.53,0,0,1-1.35,3.94,4,4,0,0,1-3,1.29,3,3,0,0,1-2.78-1.39v5.12H217V606.68q0-1.56-.08-3.21h1.9l0.12,1.55h0a3.85,3.85,0,0,1,6.17-.38,5.4,5.4,0,0,1,1.15,3.6h0Zm-2.21.08a4,4,0,0,0-.64-2.35,2.22,2.22,0,0,0-1.89-1,2.25,2.25,0,0,0-1.45.53,2.46,2.46,0,0,0-.85,1.4,2.82,2.82,0,0,0-.1.66v1.63a2.61,2.61,0,0,0,.65,1.8,2.16,2.16,0,0,0,1.69.73,2.22,2.22,0,0,0,1.9-.94,4.16,4.16,0,0,0,.68-2.49h0Zm13.42-.08a5.53,5.53,0,0,1-1.35,3.94,4,4,0,0,1-3,1.29,3,3,0,0,1-2.78-1.39v5.12H228.2V606.68q0-1.56-.08-3.21H230l0.12,1.55h0a3.85,3.85,0,0,1,6.17-.38,5.41,5.41,0,0,1,1.15,3.6h0Zm-2.21.08a4,4,0,0,0-.64-2.35,2.21,2.21,0,0,0-1.88-1,2.25,2.25,0,0,0-1.46.53,2.47,2.47,0,0,0-.85,1.4,2.89,2.89,0,0,0-.1.66v1.63A2.62,2.62,0,0,0,231,611a2.17,2.17,0,0,0,1.7.73,2.22,2.22,0,0,0,1.9-.94,4.16,4.16,0,0,0,.68-2.49h0ZM250,609.44a3.62,3.62,0,0,1-1.2,2.81,5.32,5.32,0,0,1-3.68,1.19,6.42,6.42,0,0,1-3.5-.84l0.5-1.81a6,6,0,0,0,3.13.84,3,3,0,0,0,1.9-.55,1.8,1.8,0,0,0,.68-1.48,1.89,1.89,0,0,0-.56-1.39,5.22,5.22,0,0,0-1.86-1q-3.55-1.33-3.55-3.88a3.43,3.43,0,0,1,1.25-2.73,5,5,0,0,1,3.32-1.07,6.55,6.55,0,0,1,3.07.64L249,601.9a5.36,5.36,0,0,0-2.6-.62,2.64,2.64,0,0,0-1.79.56,1.61,1.61,0,0,0-.54,1.23,1.65,1.65,0,0,0,.62,1.32,7,7,0,0,0,2,1,6.67,6.67,0,0,1,2.57,1.65,3.44,3.44,0,0,1,.83,2.35h0Zm7.18-4.34h-2.39v4.74q0,1.81,1.26,1.81a3.8,3.8,0,0,0,1-.1l0.06,1.65a4.9,4.9,0,0,1-1.68.24,2.6,2.6,0,0,1-2-.78,3.85,3.85,0,0,1-.72-2.63v-4.92h-1.42v-1.63h1.42v-1.79l2.13-.64v2.43h2.39v1.63h0ZM268,608.27a5.36,5.36,0,0,1-1.28,3.7,4.58,4.58,0,0,1-3.57,1.49,4.36,4.36,0,0,1-3.42-1.43,5.19,5.19,0,0,1-1.27-3.59,5.32,5.32,0,0,1,1.31-3.72,4.55,4.55,0,0,1,3.54-1.45,4.46,4.46,0,0,1,3.45,1.43,5.13,5.13,0,0,1,1.24,3.57h0Zm-2.24,0a4.38,4.38,0,0,0-.58-2.3,2.14,2.14,0,0,0-1.95-1.16,2.17,2.17,0,0,0-2,1.16,4.44,4.44,0,0,0-.58,2.34,4.35,4.35,0,0,0,.58,2.3,2.22,2.22,0,0,0,3.91,0,4.4,4.4,0,0,0,.6-2.33h0Zm9.29-2.94a3.76,3.76,0,0,0-.68-0.06,2,2,0,0,0-1.77.86,3.25,3.25,0,0,0-.54,1.93v5.12h-2.17v-6.69c0-1.12,0-2.15-.06-3.07h1.89l0.08,1.87h0.06a3.34,3.34,0,0,1,1.08-1.55,2.61,2.61,0,0,1,1.57-.52,3.6,3.6,0,0,1,.54,0v2.07h0Zm9.68,2.51a5.1,5.1,0,0,1-.08,1h-6.5a2.83,2.83,0,0,0,.94,2.21,3.22,3.22,0,0,0,2.12.68,7.15,7.15,0,0,0,2.63-.46l0.34,1.51a8.14,8.14,0,0,1-3.27.6,4.73,4.73,0,0,1-3.56-1.33,5,5,0,0,1-1.29-3.59,5.59,5.59,0,0,1,1.2-3.67,4.15,4.15,0,0,1,3.41-1.57,3.63,3.63,0,0,1,3.19,1.57,5.27,5.27,0,0,1,.86,3.07h0Zm-2.06-.56a2.94,2.94,0,0,0-.42-1.67,1.89,1.89,0,0,0-1.72-.91,2.05,2.05,0,0,0-1.72.88,3.25,3.25,0,0,0-.64,1.69h4.51Z" transform="translate(-165.02 -579.05)"/><path class="cls-2" d="M209.32,594.85h-1.13l-0.62-2h-2.16l-0.59,2h-1.1l2.14-6.65h1.32l2.15,6.65h0Zm-1.94-2.77-0.56-1.74c-0.06-.18-0.17-0.59-0.34-1.25h0c-0.07.29-.17,0.7-0.32,1.25l-0.55,1.74h1.78Zm7.29-2-1.81,4.8h-1l-1.75-4.8h1.14l0.82,2.54c0.14,0.42.26,0.83,0.34,1.21h0c0.08-.34.2-0.75,0.34-1.21l0.81-2.54h1.12Zm3.86,4.8-0.08-.55h0a1.63,1.63,0,0,1-1.4.66,1.4,1.4,0,0,1-1.47-1.41c0-1.18,1-1.8,2.8-1.8v-0.09a0.86,0.86,0,0,0-1-.95,2.23,2.23,0,0,0-1.25.36l-0.22-.7a3.06,3.06,0,0,1,1.65-.42,1.71,1.71,0,0,1,1.88,2v1.77a7.15,7.15,0,0,0,.07,1.15h-1Zm-0.15-2.39c-1.18,0-1.77.29-1.77,1a0.68,0.68,0,0,0,.73.75,1,1,0,0,0,1-1v-0.74h0Zm3.41-3.2a0.64,0.64,0,1,1,.67-0.64A0.63,0.63,0,0,1,221.79,589.26Zm-0.51.79h1.06v4.8h-1.06V590Zm3-2.2h1.06v7h-1.06v-7Zm5.59,7-0.08-.55h0a1.63,1.63,0,0,1-1.4.66,1.4,1.4,0,0,1-1.47-1.41c0-1.18,1-1.8,2.8-1.8v-0.09a0.86,0.86,0,0,0-1-.95,2.23,2.23,0,0,0-1.25.36l-0.22-.7a3.06,3.06,0,0,1,1.65-.42,1.71,1.71,0,0,1,1.88,2v1.77a7.43,7.43,0,0,0,.07,1.15h-1Zm-0.15-2.39c-1.18,0-1.77.29-1.77,1a0.68,0.68,0,0,0,.73.75,1,1,0,0,0,1-1v-0.74h0ZM235,595a1.63,1.63,0,0,1-1.51-.85h0l-0.06.74h-0.91c0-.38,0-0.82,0-1.29v-5.71h1.07v2.9h0a1.64,1.64,0,0,1,1.53-.8c1.15,0,2,1,2,2.43A2.31,2.31,0,0,1,235,595h0Zm-0.22-4.17a1.23,1.23,0,0,0-1.17,1.27v0.84a1.17,1.17,0,0,0,1.15,1.2c0.8,0,1.27-.65,1.27-1.69a1.4,1.4,0,0,0-1.25-1.63h0Zm3.91-2.94h1.06v7h-1.06v-7Zm6.86,4.86h-3.2a1.38,1.38,0,0,0,1.51,1.42,3.59,3.59,0,0,0,1.29-.23l0.17,0.74a4,4,0,0,1-1.61.3,2.23,2.23,0,0,1-2.39-2.42,2.34,2.34,0,0,1,2.27-2.58,2,2,0,0,1,2,2.28,2.06,2.06,0,0,1,0,.48h0Zm-1-.76a1.09,1.09,0,0,0-1.06-1.26,1.27,1.27,0,0,0-1.16,1.26h2.22Zm7.43,3a2.28,2.28,0,0,1-2.31-2.47A2.34,2.34,0,0,1,252.1,590a2.26,2.26,0,0,1,2.31,2.46A2.35,2.35,0,0,1,252,595h0Zm0-4.23c-0.77,0-1.26.72-1.26,1.73a1.47,1.47,0,0,0,1.25,1.71,1.51,1.51,0,0,0,1.25-1.73,1.47,1.47,0,0,0-1.24-1.71h0Zm8.07,4.12h-1.06v-2.76c0-.85-0.33-1.27-1-1.27A1.11,1.11,0,0,0,257,592v2.85H256v-3.43c0-.42,0-0.88,0-1.37h0.94l0,0.74h0a1.72,1.72,0,0,1,1.52-.84,1.74,1.74,0,0,1,1.66,2v2.87h0Zm7-4h-1.17v2.33q0,0.89.62,0.89a2.11,2.11,0,0,0,.47,0l0,0.81a2.37,2.37,0,0,1-.83.12c-0.84,0-1.34-.46-1.34-1.68v-2.42h-0.7V590h0.7v-0.88l1-.32V590h1.17v0.8h0Zm5.64,4h-1.07v-2.73c0-.86-0.33-1.29-1-1.29a1,1,0,0,0-1.06,1.14v2.89h-1.07v-7h1.07v2.88h0a1.61,1.61,0,0,1,1.44-.78c1,0,1.64.79,1.64,2v2.85h0Zm5.44-2.14H275a1.37,1.37,0,0,0,1.51,1.42,3.57,3.57,0,0,0,1.29-.23l0.17,0.74a4,4,0,0,1-1.61.3,2.23,2.23,0,0,1-2.38-2.42,2.34,2.34,0,0,1,2.27-2.58,2,2,0,0,1,2,2.28,2.07,2.07,0,0,1,0,.48h0Zm-1-.76a1.09,1.09,0,0,0-1.05-1.26,1.26,1.26,0,0,0-1.16,1.26h2.22Z" transform="translate(-165.02 -579.05)"/></svg>