<svg xmlns="http://www.w3.org/2000/svg" width="520" height="340" viewBox="0 0 520 340">
  <defs>
    <style>
      .cls-1 {
        fill: #fff;
        fill-rule: evenodd;
        opacity: 0.5;
      }
    </style>
  </defs>
  <path id="map_mask_rounded.svg" class="cls-1" d="M1377,788h-97.09c43.96-42.162,71.47-102.27,71.47-169,0-67.787-28.37-128.751-73.56-171H1377a10,10,0,0,1,10,10V778A10,10,0,0,1,1377,788ZM902.6,619c0,66.73,27.509,126.838,71.478,169H877a10,10,0,0,1-10-10V458a10,10,0,0,1,10-10h99.169C930.976,490.249,902.6,551.213,902.6,619Z" transform="translate(-867 -448)"/>
</svg>
