<svg xmlns="http://www.w3.org/2000/svg" width="81.156" height="81.094" viewBox="0 0 81.156 81.094">
  <defs>
    <style>
      .cls-1 {
        fill: #ccc;
        fill-rule: evenodd;
      }
    </style>
  </defs>
  <path id="neutral_face.svg" class="cls-1" d="M512.45,263.486l-41.832,41.831a9.149,9.149,0,0,1-6.47,2.68H441.319A7.322,7.322,0,0,1,434,300.666l0.032-22.79a9.148,9.148,0,0,1,2.68-6.457l41.837-41.837a9.15,9.15,0,0,1,12.94,0l20.963,20.963A9.152,9.152,0,0,1,512.45,263.486Zm-49.3,4.114a3.889,3.889,0,1,0,0,5.5A3.908,3.908,0,0,0,463.154,267.6Zm12.275-12.275a3.889,3.889,0,1,0,0,5.5A3.908,3.908,0,0,0,475.429,255.325Zm2.217,20.206-0.265-.265a2.807,2.807,0,0,0-3.971,0l-9.239,9.238a2.81,2.81,0,0,0,0,3.972l0.265,0.265a2.808,2.808,0,0,0,3.972,0l9.238-9.238A2.808,2.808,0,0,0,477.646,275.531Z" transform="translate(-434 -226.906)"/>
</svg>
