<svg id="rating_icon_green.svg" xmlns="http://www.w3.org/2000/svg" width="25" height="25" viewBox="0 0 25 25">
  <defs>
    <style>
      .cls-1 {
        fill: #84cc03;
      }

      .cls-2 {
        fill: #fff;
        fill-rule: evenodd;
      }
    </style>
  </defs>
  <circle id="green" class="cls-1" cx="12.5" cy="12.5" r="12.5"/>
  <path id="face" class="cls-2" d="M531.537,27.858c-0.975,2.3-1.21,2.52-1.8,2.52a0.818,0.818,0,0,1-.873-0.773c0-.84,1.512-3.46,1.512-7.105s-1.512-6.265-1.512-7.105a0.818,0.818,0,0,1,.873-0.773c0.588,0,.823.218,1.8,2.52a14.075,14.075,0,0,1,1.192,5.358A14.075,14.075,0,0,1,531.537,27.858Zm-7.551.4a1.762,1.762,0,1,1,1.762-1.762A1.77,1.77,0,0,1,523.986,28.256Zm0-7.988a1.762,1.762,0,1,1,1.762-1.762A1.77,1.77,0,0,1,523.986,20.268Z" transform="translate(-515 -10)"/>
</svg>
