<svg id="rating_icon_red.svg" xmlns="http://www.w3.org/2000/svg" width="25" height="25" viewBox="0 0 25 25">
  <defs>
    <style>
      .cls-1 {
        fill: #ff5531;
      }

      .cls-2 {
        fill: #fff;
        fill-rule: evenodd;
      }
    </style>
  </defs>
  <circle id="red" class="cls-1" cx="12.5" cy="12.5" r="12.5"/>
  <path id="face" class="cls-2" d="M589.129,17.141c0.974-2.3,1.209-2.52,1.8-2.52a0.819,0.819,0,0,1,.874.773c0,0.84-1.512,3.46-1.512,7.105S591.8,28.765,591.8,29.6a0.819,0.819,0,0,1-.874.773c-0.588,0-.823-0.218-1.8-2.52a14.077,14.077,0,0,1-1.193-5.358A14.077,14.077,0,0,1,589.129,17.141Zm-5.143-.4a1.762,1.762,0,1,1-1.762,1.762A1.77,1.77,0,0,1,583.986,16.744Zm0,7.988a1.762,1.762,0,1,1-1.762,1.762A1.77,1.77,0,0,1,583.986,24.732Z" transform="translate(-575 -10)"/>
</svg>
