<svg xmlns="http://www.w3.org/2000/svg" width="81.156" height="81.094" viewBox="0 0 81.156 81.094">
  <defs>
    <style>
      .cls-1 {
        fill: #ccc;
        fill-rule: evenodd;
      }
    </style>
  </defs>
  <path id="sad_face.svg" class="cls-1" d="M512.45,263.486l-41.832,41.831a9.149,9.149,0,0,1-6.47,2.68H441.319A7.322,7.322,0,0,1,434,300.666l0.032-22.79a9.148,9.148,0,0,1,2.68-6.457l41.837-41.837a9.15,9.15,0,0,1,12.94,0l20.963,20.963A9.152,9.152,0,0,1,512.45,263.486Zm-49.3,4.145a3.89,3.89,0,1,0,0,5.5A3.908,3.908,0,0,0,463.154,267.631Zm12.275-12.275a3.89,3.89,0,1,0,0,5.5A3.908,3.908,0,0,0,475.429,255.356Zm19.491,5.137c-1.174-1.174-2.08-1.207-8.62,1.442a35.673,35.673,0,0,0-21.4,21.4c-2.65,6.54-2.616,7.445-1.442,8.619a2.31,2.31,0,0,0,3.286.2c1.677-1.677,3.891-9.927,11.169-17.205s15.528-9.491,17.2-11.168A2.313,2.313,0,0,0,494.92,260.493Z" transform="translate(-434 -226.906)"/>
</svg>
