<svg id="share_app_icon.svg" xmlns="http://www.w3.org/2000/svg" xmlns:xlink="http://www.w3.org/1999/xlink" width="77" height="77" viewBox="0 0 77 77">
  <defs>
    <style>
      .cls-1, .cls-3, .cls-4 {
        fill: #fff;
        fill-rule: evenodd;
      }

      .cls-1 {
        filter: url(#filter);
      }

      .cls-2 {
        fill: #00d9dc;
      }

      .cls-3 {
        opacity: 0.3;
      }
    </style>
    <filter id="filter" x="585" y="212" width="77" height="77" filterUnits="userSpaceOnUse">
      <feOffset result="offset" dy="1" in="SourceAlpha"/>
      <feGaussianBlur result="blur" stdDeviation="2.828"/>
      <feFlood result="flood" flood-opacity="0.3"/>
      <feComposite result="composite" operator="in" in2="blur"/>
      <feBlend result="blend" in="SourceGraphic"/>
    </filter>
  </defs>
  <path id="bg_white" data-name="bg white" class="cls-1" d="M612,218h22a20,20,0,0,1,20,20v22a20,20,0,0,1-20,20H612a20,20,0,0,1-20-20V238A20,20,0,0,1,612,218Zm10.357,43a0.929,0.929,0,1,1-.928.929A0.929,0.929,0,0,1,622.357,261Z" transform="translate(-585 -212)"/>
  <rect id="bg_turquoise" data-name="bg turquoise" class="cls-2" x="9" y="8" width="58" height="58" rx="18" ry="18"/>
  <path id="glow" class="cls-3" d="M593.375,230.751A19.991,19.991,0,0,1,612,218h22a20,20,0,0,1,20,20v22a19.953,19.953,0,0,1-1.012,6.257C646.66,247.442,622.836,232.992,593.375,230.751Z" transform="translate(-585 -212)"/>
  <path id="logo" class="cls-4" d="M647.22,244.407l-9.029,9.029a1.974,1.974,0,0,1-1.4.578h-4.928a1.58,1.58,0,0,1-1.58-1.582l0.007-4.919a1.976,1.976,0,0,1,.579-1.394l9.03-9.029a1.974,1.974,0,0,1,2.793,0l4.524,4.524A1.975,1.975,0,0,1,647.22,244.407Zm-10.64.895a0.839,0.839,0,1,0,0,1.187A0.843,0.843,0,0,0,636.58,245.3Zm2.65-2.649a0.84,0.84,0,1,0,0,1.187A0.844,0.844,0,0,0,639.23,242.653Zm3.293,0.2a0.5,0.5,0,0,0-.709-0.043,10.644,10.644,0,0,1-6.124,6.124,0.5,0.5,0,0,0,.043.709c0.254,0.253.449,0.26,1.861-.311a7.7,7.7,0,0,0,4.618-4.618C642.784,243.3,642.777,243.1,642.523,242.848Zm-14.9,11.188a0.932,0.932,0,0,1-.927-0.927v-3.055a2.057,2.057,0,0,0-.364-1.2,2.193,2.193,0,0,0-.945-0.782,2.108,2.108,0,0,0-.837-0.164,2.061,2.061,0,0,0-1.2.364,2.2,2.2,0,0,0-.782.945,2.107,2.107,0,0,0-.163.837,2.043,2.043,0,0,0,.1.636,2.373,2.373,0,0,0,.263.564,2.214,2.214,0,0,0,.946.764,2.081,2.081,0,0,0,.836.182,0.911,0.911,0,0,1,.655.263,0.864,0.864,0,0,1,.273.646,0.932,0.932,0,0,1-.928.927,3.939,3.939,0,0,1-2.236-.691,3.543,3.543,0,0,1-.837-0.764,4.559,4.559,0,0,1-.6-0.982,4.03,4.03,0,0,1-.127-2.745,4.3,4.3,0,0,1,.491-1.037,4.213,4.213,0,0,1,.773-0.845,3.613,3.613,0,0,1,.991-0.591,5.376,5.376,0,0,1,.745-0.237,3.478,3.478,0,0,1,.8-0.091,3.945,3.945,0,0,1,2.237.691,3.982,3.982,0,0,1,1.436,1.746,4.136,4.136,0,0,1,.309,1.564v3.055a0.911,0.911,0,0,1-.263.654A0.864,0.864,0,0,1,627.624,254.036Zm-9.928-1.6a8.588,8.588,0,0,1-1.473,1.418,0.865,0.865,0,0,1-.545.182,0.776,0.776,0,0,1-.546-0.182,8.288,8.288,0,0,1-1.491-1.418,8.728,8.728,0,0,1-1.073-1.673,8.441,8.441,0,0,1-.654-1.846,8.63,8.63,0,0,1-.219-1.936,0.908,0.908,0,0,1,.264-0.655,0.864,0.864,0,0,1,.646-0.273,0.932,0.932,0,0,1,.927.928,6.8,6.8,0,0,0,.691,2.982A7.491,7.491,0,0,0,614.85,251a5.536,5.536,0,0,0,.828.91,6.48,6.48,0,0,0,1.436-1.946,6.582,6.582,0,0,0,.709-2.982,0.908,0.908,0,0,1,.264-0.655,0.863,0.863,0,0,1,.645-0.273,0.932,0.932,0,0,1,.928.928,8.494,8.494,0,0,1-.891,3.782A8.728,8.728,0,0,1,617.7,252.436Zm-8,1.6a0.932,0.932,0,0,1-.927-0.927v-6.128a0.932,0.932,0,0,1,.927-0.928,0.864,0.864,0,0,1,.646.273,0.911,0.911,0,0,1,.263.655v6.128a0.911,0.911,0,0,1-.263.654A0.864,0.864,0,0,1,609.7,254.036Zm0-9.255a0.808,0.808,0,1,1,.582-0.237A0.791,0.791,0,0,1,609.7,244.781Zm-3.982,7.655a8.588,8.588,0,0,1-1.473,1.418,0.865,0.865,0,0,1-.545.182,0.776,0.776,0,0,1-.546-0.182,8.288,8.288,0,0,1-1.491-1.418,8.728,8.728,0,0,1-1.073-1.673,8.441,8.441,0,0,1-.654-1.846,8.63,8.63,0,0,1-.219-1.936,0.908,0.908,0,0,1,.264-0.655,0.864,0.864,0,0,1,.646-0.273,0.932,0.932,0,0,1,.927.928,6.8,6.8,0,0,0,.691,2.982,7.491,7.491,0,0,0,.627,1.036,5.536,5.536,0,0,0,.828.91,6.48,6.48,0,0,0,1.436-1.946,6.582,6.582,0,0,0,.709-2.982,0.908,0.908,0,0,1,.264-0.655,0.863,0.863,0,0,1,.645-0.273,0.932,0.932,0,0,1,.928.928,8.494,8.494,0,0,1-.891,3.782A8.728,8.728,0,0,1,605.713,252.436Z" transform="translate(-585 -212)"/>
</svg>
