<svg id="sotial_mail_light_off.svg" data-name="sotial mail light off.svg" xmlns="http://www.w3.org/2000/svg" width="50" height="38" viewBox="0 0 50 38"><defs><style>.cls-1{fill:#888;}</style></defs><title>sotial_mail_light_off</title><path id="sotial_mail_light_off" data-name="sotial mail light off" class="cls-1" d="M7,29H6.85l9.51-9.51,1.1,1.1a5,5,0,0,0,7.07,0l1.1-1.1L35.15,29,35,29H7ZM38.33,6.78h0a4,4,0,0,1,.32.58l0.08,0.21a3.84,3.84,0,0,1,.15.48c0,0.07,0,.14,0,0.22A4,4,0,0,1,39,9V25a3.94,3.94,0,0,1-.07.72c0,0.05,0,.1,0,0.15a3.92,3.92,0,0,1-.19.62l-0.09.19a4.1,4.1,0,0,1-.23.42l-0.2.29a3,3,0,0,1-.24.29l-0.23.24a4,4,0,0,1-.37.31L27.11,18ZM36.91,5.51L23.45,19a3.45,3.45,0,0,1-4.88,0L5.09,5.5A4,4,0,0,1,7,5H35A4,4,0,0,1,36.91,5.51ZM4.66,28.23a4.21,4.21,0,0,1-.37-0.31L4,27.68,3.81,27.4c-0.07-.1-0.15-0.2-0.21-0.3a4,4,0,0,1-.23-0.41l-0.09-.19a4,4,0,0,1-.19-0.61l0-.15A4,4,0,0,1,3,25V9H3a4,4,0,0,1,.07-0.71c0-.07,0-0.15.05-0.22a3.91,3.91,0,0,1,.15-0.47c0-.07.05-0.15,0.09-0.22a4,4,0,0,1,.31-0.57h0L14.89,18Z"/></svg>