<svg id="sotial_twitter_light_on.svg" data-name="sotial twitter light on.svg" xmlns="http://www.w3.org/2000/svg" width="50" height="38" viewBox="0 0 50 38"><defs><style>.cls-1{fill:#fff;}.cls-2{fill:#83cc03;}</style></defs><title>sotial_twitter_light_on</title><path id="sotial_twitter_light_on" data-name="sotial twitter light on" class="cls-1" d="M36,18A11,11,0,0,0,25.21,31.12a15.21,15.21,0,1,1,11-14.62c0,0.51,0,1-.08,1.51H36ZM30.84,9.77a8.29,8.29,0,0,1-2.57,1,4.05,4.05,0,0,0-7,2.77,4,4,0,0,0,.1.92A11.49,11.49,0,0,1,13,10.21a4.05,4.05,0,0,0,1.25,5.41,4,4,0,0,1-1.83-.51v0.05a4.05,4.05,0,0,0,3.25,4,4,4,0,0,1-1.07.14,4.08,4.08,0,0,1-.76-0.07A4.05,4.05,0,0,0,17.64,22a8.13,8.13,0,0,1-5,1.73,8.53,8.53,0,0,1-1-.06A11.52,11.52,0,0,0,29.38,14c0-.17,0-0.35,0-0.52a8.19,8.19,0,0,0,2-2.1,8.1,8.1,0,0,1-2.33.64A4.07,4.07,0,0,0,30.84,9.77Z"/><circle id="Ellipse" class="cls-2" cx="36" cy="29" r="8"/><path id="check" class="cls-1" d="M40.9,26.7L34.61,33l-3.77-3.77L32.1,28l2.51,2.51,5-5Z"/></svg>