<svg id="sotial_mail_dark_on.svg" data-name="sotial mail dark on.svg" xmlns="http://www.w3.org/2000/svg" width="50" height="38" viewBox="0 0 50 38"><defs><style>.cls-1{fill:#666;}.cls-2{fill:#83cc03;}.cls-3{fill:#fff;}</style></defs><title>sotial_mail_dark_on</title><path id="sotial_mail_dark_on" data-name="sotial mail dark on" class="cls-1" d="M31.34,22.23L27.11,18,38.33,6.78h0a4,4,0,0,1,.32.58l0.08,0.21a3.84,3.84,0,0,1,.15.48c0,0.07,0,.14,0,0.22A4,4,0,0,1,39,9v9.05A11,11,0,0,0,31.34,22.23ZM18.57,19L5.09,5.5A4,4,0,0,1,7,5H35a4,4,0,0,1,1.91.51L23.45,19A3.45,3.45,0,0,1,18.57,19ZM4.66,28.23a4.21,4.21,0,0,1-.37-0.31L4,27.68,3.81,27.4c-0.07-.1-0.15-0.2-0.21-0.3a4,4,0,0,1-.23-0.41l-0.09-.19a4,4,0,0,1-.19-0.61l0-.15A4,4,0,0,1,3,25V9H3a4,4,0,0,1,.07-0.71c0-.07,0-0.15.05-0.22a3.91,3.91,0,0,1,.15-0.47c0-.07.05-0.15,0.09-0.22a4,4,0,0,1,.31-0.57h0L14.89,18Zm12.81-7.65a5,5,0,0,0,7.07,0l1.1-1.1L30.2,24A10.94,10.94,0,0,0,29,29H6.85l9.51-9.51Z"/><circle id="Ellipse" class="cls-2" cx="40" cy="29" r="8"/><path id="check" class="cls-3" d="M44.9,26.7L38.61,33l-3.77-3.77L36.1,28l2.51,2.51,5-5Z"/></svg>