<svg id="sotial_twitter_light_off.svg" data-name="sotial twitter light off.svg" xmlns="http://www.w3.org/2000/svg" width="50" height="38" viewBox="0 0 50 38"><defs><style>.cls-1{fill:#888;}</style></defs><title>sotial_twitter_light_off</title><path id="sotial_twitter_light_off" data-name="sotial twitter light off" class="cls-1" d="M21,31.72A15.22,15.22,0,1,1,36.22,16.5h0A15.22,15.22,0,0,1,21,31.72ZM30.84,9.77a8.29,8.29,0,0,1-2.57,1,4.05,4.05,0,0,0-7,2.77,4,4,0,0,0,.1.92A11.49,11.49,0,0,1,13,10.21a4.05,4.05,0,0,0,1.25,5.41,4,4,0,0,1-1.83-.51v0.05a4.05,4.05,0,0,0,3.25,4,4,4,0,0,1-1.07.14,4.08,4.08,0,0,1-.76-0.07A4.05,4.05,0,0,0,17.64,22a8.13,8.13,0,0,1-5,1.73,8.53,8.53,0,0,1-1-.06A11.52,11.52,0,0,0,29.38,14c0-.17,0-0.35,0-0.52a8.19,8.19,0,0,0,2-2.1,8.1,8.1,0,0,1-2.33.64A4.07,4.07,0,0,0,30.84,9.77Z"/></svg>