<svg id="sotial_fb_dark_off.svg" data-name="sotial fb dark off.svg" xmlns="http://www.w3.org/2000/svg" width="50" height="38" viewBox="0 0 50 38"><defs><style>.cls-1{fill:#d1d1d1;}</style></defs><title>sotial_fb_dark_off</title><path id="sotial_fb_dark_off" data-name="sotial fb dark off" class="cls-1" d="M37.6,3H14.4A1.42,1.42,0,0,0,13,4.42h0V27.6A1.42,1.42,0,0,0,14.4,29H26.71V18.94H23.36V15.06h3.35v-2.9A4.73,4.73,0,0,1,31.77,7a27.28,27.28,0,0,1,3,.15v3.47H32.71c-1.61,0-1.92.76-1.92,1.89v2.51h3.84l-0.5,3.88H30.79V29H37.6A1.42,1.42,0,0,0,39,27.6V4.42A1.42,1.42,0,0,0,37.6,3Z"/></svg>