<svg id="sotial_fb_light_on.svg" data-name="sotial fb light on.svg" xmlns="http://www.w3.org/2000/svg" width="50" height="38" viewBox="0 0 50 38"><defs><style>.cls-1{fill:#fff;}.cls-2{fill:#83cc03;}</style></defs><title>sotial_fb_light_on</title><path id="sotial_fb_light_on" data-name="sotial fb light on" class="cls-1" d="M30.79,23V18.94h3.34l0.5-3.88H30.79V12.55c0-1.12.31-1.89,1.92-1.89h2.05V7.19a27.28,27.28,0,0,0-3-.15,4.73,4.73,0,0,0-5.06,5.13v2.9H23.36v3.88h3.35V29H14.4A1.42,1.42,0,0,1,13,27.61h0V4.42A1.42,1.42,0,0,1,14.4,3H37.6A1.42,1.42,0,0,1,39,4.42h0V18.05A11,11,0,0,0,30.79,23Z"/><circle id="Ellipse" class="cls-2" cx="40" cy="29" r="8"/><path id="check" class="cls-1" d="M44.9,26.7L38.61,33l-3.77-3.77L36.1,28l2.51,2.51,5-5Z"/></svg>