<svg xmlns="http://www.w3.org/2000/svg" width="146.062" height="24.875" viewBox="0 0 146.062 24.875">
  <defs>
    <style>
      .cls-1 {
        fill: #ffbc0a;
        fill-rule: evenodd;
      }
    </style>
  </defs>
  <path id="stars_x5.svg" class="cls-1" d="M502.339,336.4l3.389,6.866a0.823,0.823,0,0,0,.62.451l7.578,1.1a0.824,0.824,0,0,1,.456,1.4l-5.483,5.345a0.821,0.821,0,0,0-.237.729l1.294,7.547a0.823,0.823,0,0,1-1.195.868l-6.778-3.563a0.823,0.823,0,0,0-.766,0l-6.778,3.563a0.823,0.823,0,0,1-1.195-.868l1.294-7.547a0.823,0.823,0,0,0-.236-0.729l-5.484-5.345a0.824,0.824,0,0,1,.457-1.4l7.578-1.1a0.825,0.825,0,0,0,.62-0.451l3.389-6.866A0.824,0.824,0,0,1,502.339,336.4Zm-30,0,3.389,6.866a0.823,0.823,0,0,0,.62.451l7.578,1.1a0.824,0.824,0,0,1,.456,1.4l-5.483,5.345a0.821,0.821,0,0,0-.237.729l1.294,7.547a0.823,0.823,0,0,1-1.195.868l-6.778-3.563a0.823,0.823,0,0,0-.766,0l-6.778,3.563a0.823,0.823,0,0,1-1.195-.868l1.294-7.547a0.823,0.823,0,0,0-.236-0.729l-5.484-5.345a0.824,0.824,0,0,1,.457-1.4l7.578-1.1a0.825,0.825,0,0,0,.62-0.451l3.389-6.866A0.824,0.824,0,0,1,472.339,336.4Zm-30,0,3.389,6.866a0.823,0.823,0,0,0,.62.451l7.578,1.1a0.824,0.824,0,0,1,.456,1.4l-5.483,5.345a0.823,0.823,0,0,0-.237.729l1.294,7.547a0.823,0.823,0,0,1-1.195.868l-6.778-3.563a0.823,0.823,0,0,0-.766,0l-6.778,3.563a0.823,0.823,0,0,1-1.195-.868l1.294-7.547a0.823,0.823,0,0,0-.236-0.729l-5.484-5.345a0.824,0.824,0,0,1,.457-1.4l7.578-1.1a0.825,0.825,0,0,0,.62-0.451l3.389-6.866A0.824,0.824,0,0,1,442.339,336.4Zm-30,0,3.389,6.866a0.823,0.823,0,0,0,.62.451l7.578,1.1a0.824,0.824,0,0,1,.456,1.4l-5.483,5.345a0.823,0.823,0,0,0-.237.729l1.294,7.547a0.823,0.823,0,0,1-1.195.868l-6.778-3.563a0.823,0.823,0,0,0-.766,0l-6.778,3.563a0.823,0.823,0,0,1-1.195-.868l1.295-7.547a0.826,0.826,0,0,0-.237-0.729l-5.484-5.345a0.824,0.824,0,0,1,.457-1.4l7.578-1.1a0.825,0.825,0,0,0,.62-0.451l3.389-6.866A0.824,0.824,0,0,1,412.339,336.4Zm-30,0,3.389,6.866a0.825,0.825,0,0,0,.62.451l7.578,1.1a0.824,0.824,0,0,1,.456,1.4l-5.483,5.345a0.821,0.821,0,0,0-.237.729l1.294,7.547a0.823,0.823,0,0,1-1.195.868l-6.778-3.563a0.823,0.823,0,0,0-.766,0l-6.778,3.563a0.823,0.823,0,0,1-1.195-.868l1.295-7.547a0.826,0.826,0,0,0-.237-0.729l-5.484-5.345a0.824,0.824,0,0,1,.457-1.4l7.578-1.1a0.825,0.825,0,0,0,.62-0.451l3.389-6.866A0.824,0.824,0,0,1,382.339,336.4Z" transform="translate(-368.563 -335.938)"/>
</svg>
